<svg xmlns="http://www.w3.org/2000/svg" width="18" height="30" viewBox="0 0 18 30" fill="none">
  <path d="M9.00005 8.07213C9.94683 8.07213 10.7143 7.30461 10.7143 6.35784C10.7143 5.41107 9.94683 4.64355 9.00005 4.64355C8.05328 4.64355 7.28577 5.41107 7.28577 6.35784C7.28577 7.30461 8.05328 8.07213 9.00005 8.07213Z" stroke="#18100A" stroke-miterlimit="10"/>
  <path d="M8.99717 9.78638C7.39094 9.78638 6.08588 11.0859 6.08588 12.6977L6.08588 13.1435C6.08588 14.2143 5.21584 15.0843 4.14503 15.0843H2.14282" stroke="#18100A" stroke-miterlimit="10"/>
  <path d="M8.99719 9.78638C10.6034 9.78638 11.9085 11.0859 11.9085 12.6977V13.1435C11.9085 14.2143 12.7785 15.0843 13.8493 15.0843H15.8571" stroke="#18100A" stroke-miterlimit="10"/>
  <path d="M17.0001 19.3599C17.0001 20.4591 16.109 21.3567 15.0033 21.3567H7.0033L8.17403 20.186C8.43419 19.9258 8.72037 19.6786 9.00655 19.451C10.6521 18.1372 12.6879 17.4022 14.8017 17.3632C14.8732 17.3567 14.9383 17.3567 15.0033 17.3567C16.109 17.3567 17.0001 18.2543 17.0001 19.3599Z" stroke="#18100A" stroke-miterlimit="10"/>
  <path d="M9.00001 19.451C8.71383 19.6786 8.42765 19.9258 8.16749 20.186L6.99675 21.3567H2.99675C1.89106 21.3567 1 20.4591 1 19.3599C1 18.2608 1.89106 17.3567 2.99675 17.3567C3.06829 17.3567 3.13334 17.3567 3.19838 17.3632C5.3122 17.4087 7.35448 18.1437 9.00001 19.451Z" stroke="#18100A" stroke-miterlimit="10"/>
</svg>