<svg xmlns="http://www.w3.org/2000/svg" width="199" height="115" viewBox="0 0 199 115" fill="none">
  <path d="M199 113.954C199 113.954 184.715 114.161 182.394 114.161C180.125 114.161 161.56 113.593 159.136 113.336C156.764 113.078 143.872 112.82 143.872 112.82C143.872 112.82 143.82 112.82 143.717 112.82C141.138 112.768 104.111 112.046 102.822 111.995C101.481 111.943 90.1874 113.232 81.2659 113.129C72.3958 113.026 56.2545 109.571 47.8486 105.858C39.4942 102.196 31.6041 93.9453 21.0322 84.3017C24.178 70.9451 36.8642 68.7792 36.8642 68.7792C52.7477 65.3756 58.0594 80.5371 58.0594 80.5371C59.0392 82.2389 82.5551 92.3466 87.7121 93.8421C92.9206 95.3377 103.596 96.5238 113.497 94.7188C123.398 92.9139 140.932 98.7413 140.932 98.7413C140.932 98.7413 141.603 98.9475 142.737 99.2054C145.367 99.8758 150.473 101.113 155.217 102.042C162.024 103.331 163.778 103.125 166.717 101.113C171.307 96.4206 176.98 100.34 179.506 103.228C181.982 106.116 186.211 108.23 191.316 108.333C196.421 108.488 199 113.954 199 113.954Z" fill="#A25448"/>
  <path d="M199 113.954C199 113.954 198.02 113.954 196.525 114.006C192.348 114.058 184.096 114.212 182.395 114.212C180.125 114.212 161.56 113.645 159.137 113.387C157.125 113.129 147.533 112.975 144.645 112.871C144.13 112.871 143.82 112.871 143.82 112.871C143.82 112.871 143.769 112.871 143.666 112.871C145.316 106.013 143.872 101.474 142.737 99.3085C145.367 99.9789 150.473 101.217 155.217 102.145C162.024 103.434 163.778 103.228 166.717 101.217C171.307 96.5238 176.98 100.443 179.507 103.331C181.982 106.219 186.211 108.333 191.316 108.436C196.422 108.488 199 113.954 199 113.954Z" fill="#BFA597"/>
  <path d="M196.576 114.006C192.399 114.058 184.148 114.212 182.446 114.212C180.177 114.212 161.612 113.645 159.188 113.387C157.177 113.129 147.585 112.975 144.697 112.871C145.007 109.571 144.646 105.652 144.646 105.652C144.646 105.652 161.096 110.241 164.758 108.333C168.419 106.425 169.708 109.88 171.101 111.015C172.493 112.149 180.022 110.86 186.108 110.396C190.388 110.087 194.514 112.562 196.576 114.006Z" fill="#BFA597"/>
  <path d="M42.7435 17.003C39.082 20.7676 27.9429 17.2093 27.9429 17.2093C27.9429 17.2093 23.972 38.4561 25.416 53.8239C25.5707 55.5257 25.8285 57.1759 26.138 58.723C27.4272 65.0146 30.0573 69.398 34.9564 69.2433H34.9048C34.6986 69.2949 33.6672 69.6559 32.3263 70.3263C31.8622 70.5325 31.4497 70.7904 31.0371 71.0482C27.5819 73.111 22.8375 77.1335 21.1357 84.3533C21.1357 84.3533 8.75891 80.0214 6.59297 66.4585C6.5414 66.1491 6.48983 65.7881 6.43826 65.4271C6.43826 65.3755 6.43826 65.3755 6.43826 65.324C6.33512 64.602 6.28356 63.88 6.28356 63.1065C6.28356 63.1065 -8.20758 56.9697 7.00553 43.2005C7.26338 42.9427 7.52124 42.7364 7.83066 42.4785C15.102 33.3507 19.6402 23.2945 20.0011 14.7855C20.3621 6.32803 17.9899 2.56344 23.611 3.13071C23.611 3.13071 24.694 2.92443 24.9003 2.4603C25.1066 2.04774 25.8801 1.63519 26.6537 2.71815C26.6537 2.71815 27.1178 3.18226 27.6335 1.89302C28.1492 0.603769 28.6133 2.15087 28.8712 2.25401C29.0774 2.35715 30.2635 2.20244 30.573 1.37732C30.8824 0.552199 31.2949 -0.788618 32.481 0.603769C33.6672 1.94459 34.2344 2.8213 35.1627 3.07915C36.091 3.337 37.0708 3.54327 37.8443 3.38856C38.6179 3.23385 41.9699 3.54327 42.7435 5.0388C43.3623 6.63746 46.4049 13.2384 42.7435 17.003Z" fill="#BFA597"/>
  <path d="M26.0862 58.723C22.8889 59.3419 12.8843 61.5078 6.38651 65.324C6.28337 64.602 6.2318 63.88 6.2318 63.1065C6.2318 63.1065 -8.25934 56.9697 6.95378 43.2005C7.00535 47.1198 9.17129 55.2163 25.3642 53.7723C25.5705 55.5257 25.7768 57.1759 26.0862 58.723Z" fill="#A25448"/>
  <path d="M34.9561 69.2433C34.9046 69.2433 34.9046 69.2433 34.9561 69.2433C34.2857 69.398 33.2543 69.8621 32.3261 70.3778C31.8619 70.5841 31.4494 70.8419 31.0368 71.0998C30.3149 71.5124 29.7991 71.8218 29.7991 71.8218C29.7991 71.8218 21.5995 63.2096 18.5569 63.1581C16.2363 63.1065 9.63532 65.3755 6.5927 66.4585C6.54113 66.1491 6.48956 65.7881 6.43799 65.4271C11.6465 61.1468 26.1377 58.723 26.1377 58.723C27.3754 65.0145 30.0054 69.398 34.9561 69.2433Z" fill="#BFA597"/>
  <path d="M29.4382 10.1958C29.4382 10.1958 31.1401 9.21595 35.3688 10.2473C35.3688 10.2473 37.3284 8.95812 38.2567 7.20474C39.185 5.45137 41.7634 3.18229 44.3419 5.65765C44.3419 5.65765 52.5931 1.37735 57.1313 9.26754C61.6694 17.1577 58.0595 22.6241 53.1604 24.6354C53.1604 24.6354 58.7299 27.4717 58.1627 32.3708C57.5954 37.3215 54.3981 38.2498 54.3981 38.2498C54.3981 38.2498 58.4205 46.0884 53.0573 48.9248C47.694 51.7611 29.7992 47.9449 33.5123 32.5771C33.5123 32.5771 19.5368 33.5569 21.4965 23.5524C21.4965 23.5524 24.1781 16.6936 27.6333 14.7339C27.6333 14.7339 30.5212 18.0344 32.7903 14.3729C35.0594 10.7115 29.4382 10.1958 29.4382 10.1958Z" fill="#18100A"/>
  <path d="M31.037 82.0326C30.8823 83.9923 26.9114 103.279 28.0975 109.107C29.2836 114.934 26.0863 114.47 26.0863 114.47C26.0863 114.47 11.3889 114.315 8.24314 114.315C5.09738 114.315 3.39557 113.697 5.20052 113.232C7.00546 112.768 21.5997 109.107 22.167 108.179C22.7343 107.25 21.3935 99.7727 21.2903 97.5036C21.2387 96.6269 20.7746 93.6359 20.2074 89.9744C19.3822 84.3017 18.4024 76.9788 18.9181 73.6783C19.7948 68.2119 19.9495 62.2814 18.2993 48.6154C16.8553 36.548 17.0616 30.6175 20.2589 29.2251C20.6715 29.0188 21.1872 28.9157 21.7029 28.9157C27.4271 28.6578 28.407 34.2789 28.407 34.2789C28.407 34.2789 28.5101 55.7836 28.5101 58.0011C28.5101 60.2702 28.5101 66.5101 29.2836 70.12C30.0572 73.833 31.1917 80.073 31.037 82.0326Z" fill="#BFA597"/>
  <path d="M21.548 66.046C21.0838 69.759 20.104 77.546 20.5166 82.2905C20.7229 84.8174 20.5166 87.7569 20.2072 89.9744C19.382 84.3017 18.4022 76.9788 18.9179 73.6783C19.7946 68.2119 19.9493 62.2814 18.2991 48.6153C16.8551 36.548 17.0614 30.6174 20.2587 29.2251C19.8462 31.1847 19.2789 34.2789 19.4336 35.826C19.6915 38.0951 20.6713 49.7499 20.9291 53.1535C21.187 56.5571 22.0121 62.3845 21.548 66.046Z" fill="#E4E0DF"/>
</svg>