<svg xmlns="http://www.w3.org/2000/svg" width="175" height="175" viewBox="0 0 175 175" fill="none">
  <path d="M174.5 173.638C174.5 173.638 162.009 173.819 159.98 173.819C157.996 173.819 141.763 173.323 139.644 173.097C137.57 172.872 126.297 172.646 126.297 172.646C126.297 172.646 126.252 172.646 126.162 172.646C123.907 172.601 91.5316 171.97 90.4044 171.925C89.232 171.88 79.357 173.007 71.5562 172.917C63.8005 172.827 49.687 169.806 42.3371 166.559C35.0323 163.358 28.1334 156.143 18.8896 147.711C21.6402 136.032 32.7327 134.138 32.7327 134.138C46.6208 131.162 51.2652 144.419 51.2652 144.419C52.1219 145.907 72.6835 154.745 77.1926 156.053C81.7468 157.36 91.0807 158.398 99.7382 156.819C108.396 155.241 123.727 160.336 123.727 160.336C123.727 160.336 124.313 160.517 125.305 160.742C127.605 161.328 132.069 162.411 136.217 163.222C142.169 164.35 143.702 164.169 146.272 162.411C150.286 158.307 155.246 161.734 157.455 164.259C159.619 166.785 163.317 168.633 167.781 168.723C172.245 168.859 174.5 173.638 174.5 173.638Z" fill="#A25448"/>
  <path d="M174.5 173.638C174.5 173.638 173.643 173.638 172.336 173.684C168.683 173.729 161.469 173.864 159.981 173.864C157.997 173.864 141.764 173.368 139.645 173.142C137.886 172.917 129.499 172.782 126.974 172.692C126.523 172.692 126.253 172.692 126.253 172.692C126.253 172.692 126.207 172.692 126.117 172.692C127.56 166.694 126.298 162.726 125.306 160.833C127.605 161.419 132.069 162.501 136.218 163.313C142.17 164.44 143.703 164.259 146.273 162.501C150.286 158.398 155.246 161.825 157.456 164.35C159.62 166.875 163.318 168.724 167.782 168.814C172.246 168.859 174.5 173.638 174.5 173.638Z" fill="#BFA597"/>
  <path d="M172.381 173.684C168.728 173.729 161.514 173.864 160.026 173.864C158.042 173.864 141.809 173.368 139.689 173.142C137.931 172.917 129.544 172.782 127.019 172.692C127.289 169.806 126.974 166.379 126.974 166.379C126.974 166.379 141.358 170.392 144.559 168.724C147.761 167.055 148.888 170.076 150.105 171.068C151.323 172.06 157.906 170.933 163.227 170.527C166.97 170.257 170.577 172.421 172.381 173.684Z" fill="#BFA597"/>
  <path d="M37.8733 88.867C34.6719 92.1586 24.9322 89.0473 24.9322 89.0473C24.9322 89.0473 21.4601 107.625 22.7227 121.062C22.858 122.55 23.0834 123.993 23.354 125.346C24.4812 130.847 26.7809 134.68 31.0646 134.544H31.0195C30.8391 134.589 29.9373 134.905 28.7649 135.491C28.3591 135.672 27.9984 135.897 27.6376 136.123C24.6165 137.926 20.4681 141.443 18.9801 147.756C18.9801 147.756 8.15821 143.968 6.26438 132.109C6.21928 131.839 6.17419 131.523 6.1291 131.208C6.1291 131.163 6.1291 131.163 6.1291 131.117C6.03892 130.486 5.99383 129.855 5.99383 129.179C5.99383 129.179 -6.67681 123.813 6.62511 111.773C6.85056 111.548 7.07602 111.367 7.34657 111.142C13.7044 103.161 17.6725 94.3681 17.9881 86.928C18.3037 79.533 16.2295 76.2414 21.1445 76.7374C21.1445 76.7374 22.0914 76.557 22.2718 76.1512C22.4521 75.7905 23.1285 75.4298 23.8049 76.3767C23.8049 76.3767 24.2107 76.7825 24.6616 75.6552C25.1125 74.5279 25.5183 75.8807 25.7438 75.9708C25.9242 76.061 26.9613 75.9257 27.2318 75.2043C27.5023 74.4828 27.8631 73.3105 28.9002 74.5279C29.9373 75.7003 30.4333 76.4669 31.2449 76.6923C32.0566 76.9178 32.9133 77.0981 33.5897 76.9629C34.266 76.8276 37.197 77.0981 37.8733 78.4058C38.4144 79.8036 41.0748 85.5753 37.8733 88.867Z" fill="#BFA597"/>
  <path d="M23.309 125.346C20.5134 125.887 11.7657 127.781 6.08419 131.117C5.994 130.486 5.94891 129.855 5.94891 129.179C5.94891 129.179 -6.72173 123.813 6.58018 111.773C6.62528 115.2 8.51911 122.28 22.6778 121.017C22.8581 122.55 23.0385 123.993 23.309 125.346Z" fill="#A25448"/>
  <path d="M31.0653 134.544C31.0203 134.544 31.0203 134.544 31.0653 134.544C30.4792 134.68 29.5773 135.085 28.7657 135.536C28.3599 135.717 27.9991 135.942 27.6384 136.168C27.0071 136.528 26.5562 136.799 26.5562 136.799C26.5562 136.799 19.3867 129.269 16.7263 129.224C14.6972 129.178 8.92554 131.162 6.26516 132.109C6.22007 131.839 6.17497 131.523 6.12988 131.208C10.6841 127.465 23.3547 125.346 23.3547 125.346C24.4369 130.847 26.7366 134.68 31.0653 134.544Z" fill="#BFA597"/>
  <path d="M26.2396 82.9148C26.2396 82.9148 27.7276 82.0581 31.4251 82.9599C31.4251 82.9599 33.1386 81.8326 33.9502 80.2995C34.7619 78.7664 37.0164 76.7824 39.271 78.9468C39.271 78.9468 46.4856 75.2042 50.4536 82.1032C54.4216 89.0022 51.2653 93.7818 46.9816 95.5404C46.9816 95.5404 51.8515 98.0204 51.3554 102.304C50.8594 106.633 48.0638 107.444 48.0638 107.444C48.0638 107.444 51.5809 114.298 46.8914 116.778C42.2019 119.258 26.5553 115.922 29.8018 102.484C29.8018 102.484 17.5821 103.341 19.2956 94.5934C19.2956 94.5934 21.6403 88.5963 24.6614 86.8829C24.6614 86.8829 27.1865 89.7687 29.1706 86.5672C31.1546 83.3657 26.2396 82.9148 26.2396 82.9148Z" fill="#18100A"/>
  <path d="M27.6381 145.727C27.5029 147.44 24.0308 164.305 25.0679 169.4C26.105 174.495 23.3094 174.089 23.3094 174.089C23.3094 174.089 10.4584 173.954 7.70781 173.954C4.95724 173.954 3.46923 173.413 5.04743 173.007C6.62562 172.601 19.3864 169.4 19.8824 168.588C20.3784 167.777 19.2061 161.238 19.1159 159.254C19.0708 158.488 18.665 155.873 18.169 152.671C17.4475 147.711 16.5908 141.308 17.0417 138.422C17.8083 133.643 17.9435 128.457 16.5006 116.508C15.238 105.957 15.4184 100.771 18.2141 99.5536C18.5748 99.3732 19.0257 99.283 19.4766 99.283C24.4818 99.0576 25.3385 103.973 25.3385 103.973C25.3385 103.973 25.4287 122.776 25.4287 124.715C25.4287 126.699 25.4287 132.155 26.105 135.311C26.7814 138.558 27.7734 144.014 27.6381 145.727Z" fill="#BFA597"/>
  <path d="M19.3407 131.749C18.9348 134.995 18.0781 141.804 18.4388 145.952C18.6192 148.162 18.4388 150.732 18.1683 152.671C17.4468 147.711 16.5901 141.308 17.041 138.422C17.8076 133.643 17.9428 128.457 16.4999 116.508C15.2374 105.957 15.4177 100.771 18.2134 99.5536C17.8527 101.267 17.3567 103.973 17.4919 105.325C17.7174 107.309 18.5741 117.5 18.7996 120.476C19.025 123.452 19.7465 128.547 19.3407 131.749Z" fill="#E4E0DF"/>
</svg>