<svg width="174" height="174" viewBox="0 0 174 174" fill="none" xmlns="http://www.w3.org/2000/svg">
<g clip-path="url(#clip0_2111_4060)">
<path d="M0 101.782L124.355 173.58L174 144.93L49.645 73.1315L0 101.782Z" fill="#B3AFAE"/>
<path d="M51.1792 73.883L54.1069 71.9573L54.0912 77.6404L51.1636 79.5661L51.1792 73.883Z" fill="#B49578"/>
<path d="M48.0794 72.0982L51.0227 70.1725L54.1069 71.9573L51.1792 73.883L48.0794 72.0982Z" fill="#EEE2D2"/>
<path d="M51.1792 73.883L51.1636 79.5661L48.0637 77.7813L48.0794 72.0982L51.1792 73.883Z" fill="#E6D3C2"/>
<path d="M161.647 137.336L164.591 135.411L164.575 141.094L161.632 143.02L161.647 137.336Z" fill="#B49578"/>
<path d="M158.548 135.552L161.491 133.626L164.591 135.411L161.647 137.336L158.548 135.552Z" fill="#EEE2D2"/>
<path d="M161.647 137.336L161.632 143.02L158.532 141.235L158.548 135.552L161.647 137.336Z" fill="#E6D3C2"/>
<path d="M164.935 136.898L40.4706 64.6147L40.4862 70.2978L164.951 142.581L164.935 136.898Z" fill="#E6D3C2"/>
<path d="M168.035 135.098L43.5705 62.8143L40.4706 64.6147L164.935 136.898L168.035 135.098Z" fill="#EEE2D2"/>
<path d="M164.935 136.898L164.951 142.581L168.051 140.781L168.035 135.098L164.935 136.898Z" fill="#B49578"/>
<path d="M8.43855 86.6895L43.5705 66.3995L43.5548 72.0826L8.42289 92.3726L8.43855 86.6895Z" fill="#B49578"/>
<path d="M5.33867 84.8891L40.4706 64.6147L43.5705 66.3995L8.43855 86.6895L5.33867 84.8891Z" fill="#EEE2D2"/>
<path d="M8.43855 86.6895L8.42289 92.3726L5.32302 90.5879L5.33867 84.8891L8.43855 86.6895Z" fill="#E6D3C2"/>
<path d="M56.4396 108.952C56.4396 108.952 56.3457 108.937 56.3144 108.905L16.0004 72.3174C19.8674 78.2823 24.4859 86.0163 25.8479 88.3178C25.9106 88.4117 25.8793 88.5369 25.7853 88.5839C25.6914 88.6309 25.5661 88.6152 25.5192 88.5213C22.4193 83.2922 18.0983 76.2314 14.8418 71.2528L8.9865 65.9298C8.9865 65.9298 8.93954 65.8828 8.93954 65.8515C8.89257 65.7106 8.8456 65.4131 9.03347 65.1626C9.25266 64.8808 9.70668 64.7556 10.3486 64.8026C10.9278 64.8495 12.8535 67.4797 15.1706 71.0023L56.5962 108.608C56.6745 108.686 56.6901 108.811 56.5962 108.89C56.5649 108.937 56.5023 108.952 56.4553 108.952H56.4396ZM9.28397 65.6793L13.9651 69.922C12.102 67.1353 10.7087 65.2566 10.3016 65.194C9.6284 65.1313 9.39356 65.3035 9.33093 65.3975C9.25266 65.4914 9.26831 65.6167 9.28397 65.6793Z" fill="#3D3736"/>
<path d="M10.9278 97.1164L13.8712 95.2064L13.8398 100.889L10.9122 102.815L10.9278 97.1164Z" fill="#B49578"/>
<path d="M7.82796 95.3316L10.7713 93.4059L13.8712 95.2064L10.9278 97.1164L7.82796 95.3316Z" fill="#EEE2D2"/>
<path d="M10.9278 97.1164L10.9122 102.815L7.81231 101.015L7.82796 95.3316L10.9278 97.1164Z" fill="#E6D3C2"/>
<path d="M121.396 160.57L124.339 158.66L124.324 164.343L121.38 166.269L121.396 160.57Z" fill="#B49578"/>
<path d="M118.296 158.785L121.24 156.859L124.339 158.66L121.396 160.57L118.296 158.785Z" fill="#EEE2D2"/>
<path d="M121.396 160.57L121.38 166.269L118.281 164.468L118.296 158.785L121.396 160.57Z" fill="#E6D3C2"/>
<path d="M39.7034 43.2287L39.7817 66.1646C39.7817 66.2742 39.86 66.3838 40.0009 66.4777L39.9226 43.5418C39.7817 43.4635 39.7034 43.3383 39.7034 43.2287Z" fill="#E6D3C2"/>
<path d="M42.3806 66.149L42.3023 43.213C42.3023 43.3226 42.224 43.4479 42.0831 43.5261L42.1614 66.4621C42.3023 66.3838 42.3806 66.2586 42.3806 66.149Z" fill="#B49578"/>
<path d="M39.9226 43.5261L40.0009 66.4621L40.5332 66.7752L40.4549 43.8393L39.9226 43.5261Z" fill="#E6D3C2"/>
<path d="M41.5352 43.8393L41.6135 66.7752L42.1614 66.4621L42.0831 43.5261L41.5352 43.8393Z" fill="#B49578"/>
<path d="M40.4549 43.8393L40.5332 66.7752C40.8307 66.9474 41.316 66.9474 41.6135 66.7752L41.5352 43.8393C41.2377 44.0115 40.7524 44.0115 40.4549 43.8393Z" fill="#B49578"/>
<path d="M39.9226 42.9156C39.6252 43.0878 39.6252 43.3696 39.9226 43.5418L40.4549 43.8549C40.7524 44.0271 41.2377 44.0271 41.5352 43.8549L42.0675 43.5418C42.3649 43.3696 42.3649 43.0878 42.0675 42.9156L41.5352 42.6024C41.2377 42.4302 40.7524 42.4302 40.4549 42.6024L39.9226 42.9156Z" fill="white"/>
<path d="M44.0245 44.9665L44.2123 44.8569L42.271 43.7297L42.0831 43.8393L44.0245 44.9665Z" fill="white"/>
<path d="M44.6194 46.7826L44.8073 46.673C44.9482 46.5947 44.9951 46.4068 44.9951 46.172C44.9951 45.7023 44.7603 45.1857 44.1967 44.8569L44.0088 44.9665C44.5724 45.2953 44.8073 45.8119 44.8073 46.2816C44.8073 46.5164 44.7446 46.7043 44.6194 46.7826Z" fill="white"/>
<path d="M42.0831 43.8393V45.5458L44.0245 46.673C44.5881 47.0018 44.8229 46.7513 44.8229 46.2816C44.8229 45.8119 44.5881 45.2953 44.0245 44.9665L42.0831 43.8393Z" fill="#E6D3C2"/>
<path d="M43.7583 45.2483L42.7877 45.8119C42.8816 45.7649 43.0068 45.7649 43.1477 45.8432L44.1184 45.2796C43.9775 45.2013 43.8523 45.1857 43.7583 45.2483Z" fill="#B49578"/>
<path d="M43.5078 47.0957L44.4785 46.5321C44.5724 46.4695 44.6351 46.3599 44.6351 46.1877C44.6351 45.8432 44.4002 45.4518 44.1028 45.2796L43.1321 45.8432C43.4296 46.0154 43.6644 46.4068 43.6644 46.7513C43.6644 46.9078 43.6018 47.0331 43.5078 47.0957Z" fill="#B49578"/>
<path d="M43.1321 45.8589C42.8503 45.7023 42.6154 45.8276 42.6154 46.172C42.6154 46.5008 42.8503 46.9078 43.1321 47.08C43.4296 47.2523 43.6644 47.1114 43.6644 46.7826C43.6644 46.4382 43.4296 46.0468 43.1321 45.8745V45.8589Z" fill="#B49578"/>
<path d="M95.0785 47.8159C77.7004 46.6886 44.3532 44.7943 42.6468 45.718C42.5528 45.7649 42.4276 45.718 42.3806 45.6397C42.3336 45.5458 42.3806 45.4205 42.4589 45.3735C44.7133 44.1837 93.0432 47.2992 95.1098 47.4401C95.2194 47.4401 95.2976 47.5341 95.2976 47.6437C95.2976 47.7532 95.2037 47.8315 95.1098 47.8315L95.0785 47.8159Z" fill="#3D3736"/>
<path d="M78.3423 93.6095C78.3423 93.6095 78.217 93.5782 78.1857 93.5312L42.3806 46.0311C42.318 45.9372 42.3336 45.8276 42.4119 45.7649C42.4902 45.7023 42.6154 45.718 42.6781 45.7963L78.4832 93.2963C78.5458 93.3903 78.5301 93.4999 78.4519 93.5625C78.4206 93.5938 78.3736 93.6095 78.3266 93.6095H78.3423Z" fill="#3D3736"/>
<path d="M43.0068 45.5458L43.1947 45.4362L41.2534 44.3246L41.0655 44.4342L43.0068 45.5458Z" fill="white"/>
<path d="M43.6018 47.3618L43.7896 47.2523C43.9305 47.174 43.9775 46.9861 43.9775 46.7513C43.9775 46.2816 43.7427 45.7649 43.1791 45.4362L42.9912 45.5458C43.5548 45.8745 43.7896 46.3912 43.7896 46.8609C43.7896 47.0957 43.727 47.2836 43.6018 47.3618Z" fill="white"/>
<path d="M41.0655 44.4342V46.1407L43.0068 47.2679C43.5705 47.5967 43.8053 47.3462 43.8053 46.8765C43.8053 46.4068 43.5705 45.8902 43.0068 45.5614L41.0655 44.4342Z" fill="#E6D3C2"/>
<path d="M97.8809 45.264L110.312 38.3753C110.312 38.3753 112.394 39.9566 111.282 41.2404C110.28 42.3989 100.902 46.7513 99.0707 47.4558L98.2723 47.7532C98.2723 47.7532 97.0981 47.7063 97.0041 46.6417C96.9102 45.5771 97.8965 45.2953 97.8965 45.2953L97.8809 45.264Z" fill="#3D3736"/>
<path d="M129.819 157.173L164.967 136.898L164.951 142.581L129.803 162.871L129.819 157.173Z" fill="#B49578"/>
<path d="M126.719 155.388L161.867 135.098L164.967 136.898L129.819 157.173L126.719 155.388Z" fill="#EEE2D2"/>
<path d="M129.819 157.173L129.803 162.871L126.703 161.071L126.719 155.388L129.819 157.173Z" fill="#E6D3C2"/>
<path d="M46.5138 97.3512V99.3865C46.5138 99.5274 46.6234 99.684 46.8112 99.7936V97.7583C46.6077 97.6487 46.5138 97.4921 46.5138 97.3512Z" fill="#3D3736"/>
<path d="M74.5379 92.9832V90.948C74.5379 91.0889 74.4283 91.2454 74.2404 91.355V93.3903C74.4439 93.2807 74.5379 93.1241 74.5379 92.9832Z" fill="#6B4F4A"/>
<path d="M46.8112 97.7583L46.8269 99.7779L54.2948 104.099V102.064L46.8112 97.7583Z" fill="#3D3736"/>
<path d="M55.7038 102.064V104.099L74.2561 93.3903L74.2404 91.355L55.7038 102.064Z" fill="#6B4F4A"/>
<path d="M54.2948 102.064V104.099C54.6862 104.318 55.3124 104.334 55.7195 104.099V102.064C55.3281 102.283 54.6862 102.283 54.2948 102.064Z" fill="#6B4F4A"/>
<path d="M46.8112 96.9285C46.4198 97.1477 46.4198 97.5234 46.8112 97.7426L54.2791 102.048C54.6705 102.267 55.2967 102.283 55.6881 102.048L74.2404 91.3394C74.6318 91.1202 74.6318 90.7444 74.2404 90.5252L66.7725 86.2199C66.3811 86.0007 65.7549 86.0007 65.3635 86.2199L46.8112 96.9285Z" fill="#937773"/>
<path d="M48.7213 107.058V110.674C48.7213 110.941 48.9091 111.207 49.2536 111.41V107.794C48.8935 107.59 48.7213 107.324 48.7213 107.058Z" fill="#3D3736"/>
<path d="M136.629 121.399V117.782C136.629 118.048 136.441 118.315 136.097 118.518V122.135C136.457 121.931 136.629 121.665 136.629 121.399Z" fill="#6B4F4A"/>
<path d="M49.2536 107.778L49.2692 111.395L100.558 141.188L100.542 137.571L49.2536 107.778Z" fill="#3D3736"/>
<path d="M103.063 137.571L103.079 141.203L136.113 122.119L136.097 118.502L103.063 137.571Z" fill="#6B4F4A"/>
<path d="M100.542 137.571V141.188C101.247 141.595 102.374 141.595 103.063 141.188V137.571C102.358 137.978 101.231 137.963 100.542 137.571Z" fill="#6B4F4A"/>
<path d="M49.2536 106.322C48.549 106.729 48.5647 107.371 49.2536 107.778L100.542 137.571C101.231 137.978 102.358 137.978 103.063 137.571L136.097 118.502C136.786 118.111 136.786 117.453 136.097 117.046L84.8082 87.2532C84.1193 86.8461 82.9764 86.8461 82.2876 87.2532L49.2536 106.322Z" fill="#937773"/>
<path d="M126.688 158.973L2.2388 86.6895L2.25445 92.3726L126.703 164.656L126.688 158.973Z" fill="#E6D3C2"/>
<path d="M129.788 157.173L5.33867 84.8891L2.2388 86.6895L126.688 158.973L129.788 157.173Z" fill="#EEE2D2"/>
<path d="M126.688 158.973L126.703 164.656L129.803 162.871L129.788 157.173L126.688 158.973Z" fill="#B49578"/>
<path d="M72.8627 83.7775L69.8098 85.5467C70.0133 85.4214 70.3108 85.4371 70.6239 85.6249L73.6768 83.8558C73.3637 83.6679 73.0662 83.6523 72.8627 83.7775Z" fill="#6B4F4A"/>
<path d="M72.4556 96.8659L75.5242 95.0968L75.5399 86.2512L72.487 88.0359L72.4556 96.8659Z" fill="#6B4F4A"/>
<path d="M71.3284 86.032L74.397 84.2629L73.6768 83.8558L70.6239 85.6249L71.3284 86.032Z" fill="#6B4F4A"/>
<path d="M72.487 88.0359L75.5399 86.2668C75.5399 85.5467 75.0232 84.6386 74.397 84.2785L71.3441 86.0476C71.986 86.4077 72.5026 87.3158 72.487 88.0359Z" fill="#6B4F4A"/>
<path d="M70.6239 85.6249C69.982 85.2649 69.4654 85.5623 69.4654 86.2825L69.434 95.1124L72.4556 96.8502L72.487 88.0203C72.487 87.3001 71.9703 86.3921 71.3441 86.032L70.6396 85.6249H70.6239Z" fill="#3D3736"/>
<path d="M60.792 90.7444L57.7391 92.5136C57.9426 92.3883 58.2401 92.404 58.5532 92.5918L61.6061 90.8227C61.293 90.6348 60.9955 90.6192 60.792 90.7444Z" fill="#6B4F4A"/>
<path d="M60.3849 103.833L63.4378 102.064L63.4691 93.2181L60.4162 95.0028L60.3849 103.833Z" fill="#6B4F4A"/>
<path d="M59.2577 93.0145L62.3106 91.2298L61.6061 90.8227L58.5532 92.5918L59.2577 93.0145Z" fill="#6B4F4A"/>
<path d="M60.4162 95.0028L63.4691 93.2337C63.4691 92.5135 62.9525 91.6055 62.3263 91.2454L59.2734 93.0302C59.9152 93.3903 60.4319 94.2983 60.4162 95.0185V95.0028Z" fill="#6B4F4A"/>
<path d="M58.5532 92.5918C57.9113 92.2317 57.3946 92.5292 57.3946 93.2494L57.3633 102.079L60.3849 103.817L60.4162 94.9872C60.4162 94.267 59.8996 93.359 59.2734 92.9989L58.5688 92.5918L58.5532 92.5918Z" fill="#3D3736"/>
<path d="M96.0648 48.8648C96.0648 48.8648 96.0022 48.8648 95.9552 48.8648C95.3133 48.8179 94.7497 48.4265 94.5305 47.8628C94.327 47.3149 94.4679 46.7356 94.9062 46.2659C95.8613 45.2796 97.9748 45.3266 98.0687 45.3266H98.194L98.9924 47.2366L98.8985 47.3305C98.8985 47.3305 97.2859 48.8648 96.0648 48.8648ZM97.9278 45.718C97.4738 45.718 95.8926 45.7963 95.1881 46.5477C94.8436 46.9078 94.734 47.3305 94.8906 47.7376C95.0472 48.1603 95.4855 48.4421 95.9708 48.4891C96.8789 48.5517 98.147 47.4871 98.5071 47.1583L97.9122 45.7336L97.9278 45.718Z" fill="#3D3736"/>
<path d="M6.71639 62.7203L6.79467 85.6562C6.79467 85.7658 6.87295 85.8754 7.01386 85.9694L6.93558 63.0334C6.79467 62.9552 6.71639 62.8299 6.71639 62.7203Z" fill="#E6D3C2"/>
<path d="M9.39356 85.6562L9.31528 62.7203C9.31528 62.8299 9.237 62.9552 9.0961 63.0334L9.17438 85.9694C9.31528 85.8911 9.39356 85.7658 9.39356 85.6562Z" fill="#B49578"/>
<path d="M6.93558 63.0334L7.01386 85.9694L7.54616 86.2825L7.46788 63.3466L6.93558 63.0334Z" fill="#E6D3C2"/>
<path d="M8.54814 63.3466L8.62642 86.2825L9.17438 85.9694L9.0961 63.0334L8.54814 63.3466Z" fill="#B49578"/>
<path d="M7.46788 63.3466L7.54616 86.2825C7.84362 86.4547 8.32896 86.4547 8.62642 86.2825L8.54814 63.3466C8.25068 63.5188 7.76534 63.5188 7.46788 63.3466Z" fill="#B49578"/>
<path d="M6.93558 62.4072C6.63811 62.5794 6.63811 62.8612 6.93558 63.0334L7.46788 63.3466C7.76534 63.5188 8.25068 63.5188 8.54814 63.3466L9.08044 63.0334C9.3779 62.8612 9.3779 62.5794 9.08044 62.4072L8.54814 62.0941C8.25068 61.9219 7.76534 61.9219 7.46788 62.0941L6.93558 62.4072Z" fill="white"/>
<path d="M11.0374 64.4738L11.2253 64.3642L9.28397 63.237L9.0961 63.3466L11.0374 64.4738Z" fill="white"/>
<path d="M11.6324 66.2742L11.8202 66.1646C11.9611 66.0863 12.0081 65.8985 12.0081 65.6636C12.0081 65.194 11.7733 64.6773 11.2096 64.3485L11.0218 64.4581C11.5854 64.7869 11.8202 65.3035 11.8202 65.7732C11.8202 66.0081 11.7576 66.1959 11.6324 66.2742Z" fill="white"/>
<path d="M9.0961 63.3466V65.0531L11.0374 66.1646C11.601 66.4934 11.8359 66.2429 11.8359 65.7732C11.8359 65.3035 11.601 64.7869 11.0374 64.4581L9.0961 63.3309V63.3466Z" fill="#E6D3C2"/>
<path d="M10.7556 64.7399L9.78496 65.3035C9.87889 65.2566 10.0041 65.2566 10.145 65.3349L11.1157 64.7712C10.9748 64.693 10.8496 64.6773 10.7556 64.7399Z" fill="#B49578"/>
<path d="M10.5208 66.603L11.4915 66.0394C11.5854 65.9767 11.648 65.8672 11.648 65.6949C11.648 65.3505 11.4132 64.9591 11.1157 64.7869L10.145 65.3505C10.4425 65.5227 10.6773 65.9141 10.6773 66.2586C10.6773 66.4151 10.6147 66.5404 10.5208 66.603Z" fill="#B49578"/>
<path d="M10.145 65.3505C9.86324 65.194 9.6284 65.3192 9.6284 65.6636C9.6284 65.9924 9.86324 66.3995 10.145 66.5717C10.4425 66.7439 10.6773 66.603 10.6773 66.2742C10.6773 65.9298 10.4425 65.5384 10.145 65.3662V65.3505Z" fill="#B49578"/>
<path d="M10.0198 65.0531L10.2077 64.9435L8.26633 63.8162L8.07846 63.9258L10.0198 65.0531Z" fill="white"/>
<path d="M10.6147 66.8691L10.8026 66.7595C10.9435 66.6813 10.9905 66.4934 10.9905 66.2586C10.9905 65.7889 10.7556 65.2722 10.192 64.9435L10.0041 65.0531C10.5678 65.3818 10.8026 65.8985 10.8026 66.3681C10.8026 66.603 10.74 66.7909 10.6147 66.8691Z" fill="white"/>
<path d="M8.07846 63.9258V65.6323L10.0198 66.7595C10.5834 67.0883 10.8182 66.8378 10.8182 66.3681C10.8182 65.8985 10.5834 65.3818 10.0198 65.0531L8.07846 63.9258Z" fill="#E6D3C2"/>
<path d="M29.5114 90.854L42.2084 101.406C42.2084 101.406 39.8287 101.985 38.2161 101.453C36.7601 100.968 29.2922 94.1887 27.9458 92.764L27.3666 92.1378C27.3666 92.1378 26.9595 91.0262 27.9145 90.5409C28.8695 90.0556 29.4958 90.854 29.4958 90.854H29.5114Z" fill="#3D3736"/>
<path d="M27.6014 92.2004L27.4762 92.1535C27.3822 92.1222 25.3313 91.1828 24.9399 90.0243C24.7364 89.398 24.8929 88.7405 25.3156 88.3334C25.7383 87.942 26.3333 87.8481 26.9282 88.0829C28.212 88.5839 28.9635 90.5566 28.9948 90.6505L29.0417 90.7757L27.5701 92.2317L27.6014 92.2004ZM26.3176 88.3178C26.0515 88.3178 25.801 88.4117 25.6131 88.5996C25.2843 88.9127 25.1747 89.4137 25.3313 89.899C25.6131 90.7601 27.1004 91.5272 27.5231 91.7464L28.619 90.6505C28.4468 90.2278 27.7736 88.8031 26.8186 88.4273C26.6464 88.3647 26.4742 88.3334 26.3176 88.3334V88.3178Z" fill="#3D3736"/>
<path d="M29.0104 90.5409C29.0104 90.5409 35.6016 97.6957 38.4197 99.8718C40.4236 101.422 42.2084 101.422 42.2084 101.422C42.2084 101.422 39.9696 102.753 38.2474 103.175C36.4157 103.629 30.4821 96.725 26.8656 91.8247C26.8656 91.8247 26.4585 90.7131 27.4135 90.2278C28.3685 89.7425 28.9948 90.5409 28.9948 90.5409H29.0104Z" fill="#6B4F4A"/>
<path d="M73.0036 77.6561C73.0036 77.6561 69.3714 77.797 68.6356 80.3489C67.8998 82.9008 69.6376 85.1709 69.5123 87.5819C69.3871 89.993 69.3245 92.5918 69.6376 93.1554C69.6376 93.1554 66.8352 95.7074 65.8645 97.0538C64.8938 98.4002 62.0131 102.299 62.0131 102.299C62.0131 102.299 61.1364 102.314 60.291 102.972C59.4612 103.614 58.3497 104.788 57.6451 105.273C56.9563 105.758 56.6745 106.087 56.2518 106.588C55.829 107.089 55.1872 107.997 55.5786 108.216C55.97 108.451 57.0346 106.948 57.0346 106.948C57.0346 106.948 58.1305 105.852 58.4436 105.978C58.7724 106.087 57.6138 106.854 57.3477 107.371C57.0815 107.888 56.0013 109.579 56.1578 109.907C56.3144 110.236 56.7371 110.346 57.1285 109.61C57.5199 108.874 58.0835 108.013 58.0835 108.013L59.3516 106.776C59.3516 106.776 58.4749 108.498 57.9583 109.391C57.4416 110.283 57.3164 110.831 57.6138 111.066C57.9113 111.301 58.1618 111.05 58.5688 110.424C58.9759 109.798 59.8057 107.715 60.698 107.23C60.698 107.23 60.9329 107.434 60.6824 107.966C60.4319 108.498 59.1951 110.455 59.4769 111.16C59.7587 111.864 60.4006 110.721 60.7763 110.001C61.1521 109.281 62.4045 107.496 62.7177 107.308C63.0464 107.121 63.4378 107.465 63.2656 108.138C63.0934 108.811 62.702 109.594 62.9525 110.173C63.203 110.753 63.5944 110.706 63.6727 110.596C63.7353 110.487 63.6257 110.064 64.111 109.203C64.5964 108.342 64.6433 106.259 64.6277 104.866C64.612 103.473 64.6747 102.846 64.6747 102.846C64.6747 102.846 66.7569 101.39 69.575 99.684C72.393 97.9775 73.2384 97.0851 73.5202 95.3629C73.8021 93.6408 74.2091 89.9303 74.7258 86.5486C75.2424 83.167 75.305 79.4095 72.9723 77.6874L73.0036 77.6561Z" fill="#BFA597"/>
<path d="M78.1544 75.6991C78.1544 75.6991 82.6633 74.5875 83.6653 74.3996C84.6516 74.2118 87.8141 75.386 90.0999 79.9732C92.3856 84.5447 95.235 88.0829 97.0981 88.3804C98.9611 88.6935 102.171 86.58 104.582 86.9557C104.582 86.9557 111.079 91.0262 110.766 95.6134C110.453 100.201 100.902 104.24 100.902 104.24C100.902 104.24 100.308 103.285 96.9102 102.909C93.5129 102.533 90.3504 101.672 88.5656 100.811C86.7652 99.9501 83.9941 97.8366 83.9941 97.8366C83.9941 97.8366 82.3345 99.1986 79.3286 98.0244C76.3227 96.8502 76.1974 92.764 74.9606 90.5722C73.7238 88.3804 71.0466 84.7169 70.9996 81.4761C70.937 78.2353 72.9253 77.249 78.1857 75.6991H78.1544Z" fill="#BFA597"/>
<path d="M92.7301 84.4351C92.7301 84.4351 92.7614 88.6935 89.6459 93.0302C87.9394 95.4099 84.5107 98.2436 84.5107 98.2436H83.9314C83.9314 98.2436 82.3032 99.3395 79.8922 98.8699C77.4812 98.4002 76.4636 95.77 75.853 93.7347L75.399 91.6525C75.399 91.6525 76.0095 90.5722 79.0155 89.9147C80.0801 89.6798 80.8316 89.1945 81.4578 88.5213C83.3991 86.4077 82.9764 82.4624 89.458 78.7207C89.458 78.7207 90.413 79.8479 90.8514 80.6464C91.9316 82.619 92.7144 84.4351 92.7144 84.4351H92.7301Z" fill="#A25448"/>
<path d="M86.7182 80.6307C86.7182 80.6307 88.1899 82.2433 89.458 83.9811C90.7574 85.7345 90.867 88.1612 89.6302 89.9616C88.2994 91.903 86.3738 92.4196 86.3738 92.4196C86.3738 92.4196 92.6048 89.8051 92.7301 84.4351C92.7301 84.4351 89.6615 78.9868 86.7182 80.6307Z" fill="#86463C"/>
<path d="M103.298 112.162C103.392 114.322 105.615 121.994 108.59 124.53C111.564 127.082 111.924 126.941 116.01 125.829C120.097 124.718 123.87 122.667 125.842 121.837C127.831 121.007 130.946 118.988 134.187 120.037C137.443 121.086 139.823 123.575 140.481 124.092C141.138 124.608 141.78 124.749 142.156 124.593C142.156 124.593 143.095 125.109 143.565 124.577C143.565 124.577 144.144 124.577 143.925 123.935C143.925 123.935 144.442 123.669 144.035 123.058C144.035 123.058 144.473 122.573 144.191 121.853C143.925 121.133 143.69 120.741 142.845 120.256C142.845 120.256 142.798 119.567 141.514 118.706C140.246 117.829 138.649 117.641 138.211 116.796C137.772 115.95 137.287 114.213 136.113 113.759C134.938 113.305 133.936 114.197 132.935 114.792C131.933 115.387 128.66 116.404 124.919 116.843C121.177 117.281 119.016 117.344 116.903 117.829C114.805 118.33 113.662 119.16 113.662 119.16C113.662 119.16 114.68 116.968 114.648 114.98C114.617 113.007 114.601 110.69 114.601 110.69C114.601 110.69 114.304 106.166 112.707 105.336C111.11 104.506 107.713 104.318 106.038 106.04C104.362 107.762 103.267 112.13 103.267 112.13L103.298 112.162Z" fill="#BFA597"/>
<path d="M114.273 48.4108C114.273 48.4108 114.414 48.3795 114.476 48.3638C114.648 48.1603 114.789 47.8785 114.883 47.5184C115.29 46.0311 114.022 43.9645 113.051 42.759C112.096 41.5535 111.345 39.9723 110.421 38.5162C109.498 37.0602 108.511 36.6532 108.511 36.6532C108.511 36.6532 108.464 35.98 107.744 35.4477C107.024 34.9154 106.914 35.9174 106.914 35.9174C106.914 35.9174 106.413 34.7901 105.834 34.9154C105.255 35.0406 105.333 35.5416 105.333 35.5416C105.333 35.5416 104.863 34.6492 104.378 34.978C103.877 35.3224 104.284 36.1835 104.284 36.1835C104.284 36.1835 103.658 35.1972 103.173 35.5886C102.672 35.9956 103.047 36.8254 103.047 36.8254C102.578 36.1992 101.591 35.7452 101.341 36.7315C101.09 37.7335 102.327 38.892 102.906 39.4556C103.486 40.0192 103.564 40.9273 104.331 41.5222C105.051 42.0701 105.537 42.1954 106.977 44.7473C108.746 46.2659 112.206 48.6143 114.257 48.3795L114.273 48.4108Z" fill="#9E877B"/>
<path d="M114.492 48.3638C114.492 48.3638 114.351 48.4108 114.288 48.4108C112.253 48.6613 108.777 46.3129 107.008 44.7786C107.118 44.9821 107.227 45.17 107.368 45.4205C109.106 48.63 109.169 50.994 109.106 53.7182C109.044 56.4423 108.48 63.5344 108.48 63.5344C108.48 63.5344 106.93 66.149 106.147 69.1236C105.364 72.0826 103.799 74.7597 103.705 77.343C103.329 87.6446 114.946 85.5467 114.194 77.8439C113.443 70.1256 114.476 66.7282 115.337 64.5521C116.198 62.3915 116.073 59.229 114.664 55.1428C113.239 51.0567 113.302 49.0527 113.302 49.0527C113.302 49.0527 113.991 49.037 114.507 48.3795L114.492 48.3638Z" fill="#BFA597"/>
<path d="M102.938 100.295C103.329 97.7426 102.766 94.6271 102.719 92.0282C102.672 89.4293 103.141 86.6113 103.141 86.6113L102.045 87.1905C102.045 87.1905 101.372 88.2708 101.936 94.2044C102.499 100.138 100.887 104.224 100.887 104.224L101.811 104.944C101.811 104.944 102.531 102.831 102.922 100.279L102.938 100.295Z" fill="#86463C"/>
<path d="M117.279 92.5449C117.169 90.2591 115.228 86.8774 114.805 85.0613C114.382 83.2452 114.179 77.8126 114.179 77.8126C109.169 81.7736 103.689 77.3116 103.689 77.3116C102.249 82.071 103.141 86.6113 103.141 86.6113C103.141 86.6113 102.672 89.4293 102.719 92.0282C102.766 94.6271 103.329 97.7426 102.938 100.295C102.546 102.846 101.826 104.96 101.826 104.96L101.983 105.085L103.736 106.604C102.938 109.328 103.298 112.177 103.298 112.177C103.298 112.177 104.848 109.782 108.871 109.203C112.738 108.639 114.617 110.721 114.617 110.721C114.617 107.449 116.104 104.302 116.903 101.594C117.701 98.8855 115.744 96.271 115.744 96.271C115.744 96.271 117.373 94.8619 117.263 92.5605L117.279 92.5449Z" fill="#A25448"/>
<path d="M86.5616 80.5055C87.8924 81.6327 88.8787 82.1337 91.415 86.2825C93.9512 90.4313 96.0491 91.9343 96.6127 93.7504C97.1764 95.5665 97.1607 97.226 97.4738 99.0108C97.7869 100.796 97.9748 109.062 97.9748 109.062C97.9748 109.062 96.6127 109.986 95.9708 110.33C95.329 110.674 94.734 110.831 94.2957 111.442C93.8573 112.068 92.6518 113.477 92.276 113.665C91.8847 113.853 92.1821 114.322 92.5109 114.291C92.8397 114.26 93.4033 113.9 93.4033 113.9C93.4033 113.9 92.6518 115.027 92.4796 115.7C92.3074 116.358 92.6205 116.498 92.8083 116.498C92.9962 116.498 93.278 116.185 93.5598 115.622C93.8416 115.058 94.9689 113.195 95.4699 113.242C95.9552 113.289 95.188 114.166 94.828 114.87C94.4679 115.575 93.9199 116.827 93.8103 117.281C93.7007 117.735 94.0452 118.095 94.5148 117.72C94.9845 117.328 95.4855 116.138 95.8456 115.356C96.19 114.573 96.4718 113.806 96.9572 113.9C97.4425 113.993 96.8946 115.089 96.5971 115.778C96.2996 116.467 95.8299 117.469 95.8299 118.08C95.8299 118.69 96.4562 118.487 96.7693 117.782C97.0824 117.078 97.9435 115.011 98.1001 114.635C98.2566 114.275 98.7889 114.056 98.8359 114.635C98.8829 115.215 98.2723 117.031 98.2096 117.438C98.1314 117.845 98.5071 118.283 98.9455 117.469C99.3839 116.671 99.8379 114.698 100.245 113.9C100.652 113.117 101.137 112.397 101.278 111.285C101.419 110.173 102.218 99.2299 102.218 95.8326C102.218 92.4353 100.793 91.7308 99.3682 88.897C97.9435 86.0633 93.8573 79.253 91.6968 76.4819C89.5363 73.6951 86.6243 73.2724 83.6809 74.4466C80.7376 75.6208 86.5929 80.5524 86.5929 80.5524L86.5616 80.5055Z" fill="#BFA597"/>
<path d="M72.6435 78.7207C73.4576 80.615 74.0369 81.8988 74.7414 82.3842C75.4459 82.8695 78.4049 80.8812 79.1564 79.1747C79.8922 77.4525 79.2816 75.4642 79.2816 75.4642C79.2816 75.4642 77.1055 73.4446 76.5105 72.2391C75.9156 71.0336 72.9097 71.8164 71.9077 73.2568C70.89 74.6971 72.44 78.2197 72.6435 78.7207Z" fill="#BFA597"/>
<path d="M73.0819 79.1747C73.0819 79.1747 73.4576 81.0064 74.0995 81.3352C74.7414 81.664 76.3227 78.2353 77.0428 76.4506C77.763 74.6658 72.7061 77.4995 73.0819 79.159V79.1747Z" fill="#9E877B"/>
<path d="M67.1013 69.8125C66.8821 72.3644 66.7569 73.9613 67.6336 75.9026C68.5104 77.8439 69.7941 80.4741 70.1699 80.7873C70.5456 81.1004 71.1875 81.6796 72.7061 80.7873C74.2248 79.8949 76.1348 78.2823 76.6671 77.2021C77.1994 76.1218 78.5615 73.5229 79.172 71.7225C79.7983 69.922 79.7356 66.9944 77.309 65.1C74.898 63.2057 72.393 63.237 70.4986 64.4268C68.6043 65.601 67.2735 67.8555 67.1013 69.8125Z" fill="#BFA597"/>
<path d="M75.9782 63.2526C75.9782 63.2526 76.354 62.0784 77.8413 61.9375C80.3149 61.7183 81.4735 63.9728 82.0214 65.3975C82.585 66.8065 83.133 69.7498 83.2739 71.3154C83.4148 72.8967 84.5733 76.9985 83.6496 79.4095C83.6496 79.4095 81.0821 76.5132 79.9079 74.5249C78.7337 72.5366 76.855 67.4014 76.5105 65.8672C76.1661 64.3329 75.9782 63.2683 75.9782 63.2683V63.2526Z" fill="#521E25"/>
<path d="M67.0544 70.3761C67.0544 70.3761 68.7139 71.8321 70.0133 71.8634C71.3128 71.8947 73.3793 71.8321 73.7551 72.6931C74.1308 73.5542 75.2737 73.6795 75.6964 73.8673C76.1348 74.0552 76.7141 74.1491 76.7141 74.1491L78.4988 73.3663C78.4988 73.3663 78.9998 72.5836 79.4382 71.0806C79.8766 69.562 80.174 67.9651 79.1251 66.0394C78.0761 64.1137 75.8217 62.8456 74.2717 62.8456C72.7218 62.8456 70.1229 63.4875 68.7295 65.194C67.3362 66.9005 66.068 69.3428 67.0387 70.3604L67.0544 70.3761Z" fill="#5B2229"/>
<path d="M77.2307 74.791C77.3559 74.0239 77.4499 72.8967 78.217 72.2235C78.9842 71.5503 79.2973 71.9573 79.3443 72.8654C79.3912 73.7734 78.3579 75.292 77.8413 75.5738C77.3246 75.8556 77.1211 75.4329 77.2307 74.7754V74.791Z" fill="#BFA597"/>
<path d="M115.744 96.2553C115.744 96.2553 117.701 98.8542 116.903 101.594C116.433 103.128 115.776 104.772 115.275 106.526C115.416 104.6 115.541 103.708 115.838 102.236C116.668 98.0244 114.194 95.8013 114.194 95.8013C114.194 95.8013 116.793 95.0498 115.87 91.1358C115.259 88.5683 114.993 88.3647 114.883 85.3901C115.416 87.2532 117.169 90.4 117.263 92.5605C117.357 94.8619 115.744 96.271 115.744 96.271V96.2553Z" fill="#86463C"/>
<path d="M110.703 100.044C110.108 100.435 105.302 103.739 103.721 106.588L103.298 106.228C103.298 106.228 106.445 102.252 110.703 100.044Z" fill="#86463C"/>
<path d="M106.867 102.659L102.609 105.633L102.906 105.884L103.313 106.228L106.867 102.659Z" fill="#86463C"/>
<path d="M97.3955 45.6084C97.3955 45.6084 106.507 42.2424 109.607 40.4419C111.799 39.1738 110.312 38.3597 110.312 38.3597C110.312 38.3597 112.848 40.0975 112.597 41.851C112.316 43.7297 103.674 46.5791 97.7713 48.0664C97.7713 48.0664 96.5971 48.0194 96.5032 46.9548C96.4249 45.8902 97.3955 45.6084 97.3955 45.6084Z" fill="#6B4F4A"/>
<path d="M153.428 129.352L154.133 128.929L172.387 106.917L171.683 107.324L153.428 129.352Z" fill="#B49578"/>
<path d="M169.569 102.721C169.898 102.533 170.352 102.58 170.806 102.846C171.119 103.034 171.448 103.316 171.746 103.708L171.871 103.88C172.669 104.929 172.888 106.291 172.372 106.917L171.667 107.324C172.184 106.698 171.949 105.336 171.166 104.287L171.041 104.115C170.744 103.739 170.43 103.441 170.102 103.254C169.648 102.987 169.194 102.94 168.865 103.128L169.569 102.721Z" fill="#EEE2D2"/>
<path d="M170.102 103.254C169.538 102.925 168.974 102.925 168.63 103.332L149.107 126.863L153.428 129.352L171.683 107.34C172.2 106.713 171.965 105.351 171.182 104.302L171.057 104.13C170.759 103.755 170.446 103.457 170.117 103.269L170.102 103.254Z" fill="#E6D3C2"/>
<path d="M162.023 134.471L162.43 134.252V118.816L162.023 119.05V134.471Z" fill="#B49578"/>
<path d="M159.55 133.047L162.023 134.471V119.05L159.55 117.626V133.047Z" fill="#E6D3C2"/>
<path d="M129.772 127.207L169.131 104.255C169.335 104.146 169.616 104.162 169.914 104.334L130.555 127.285C130.242 127.113 129.96 127.082 129.772 127.207Z" fill="#EEE2D2"/>
<path d="M170.712 106.948L131.353 129.9C131.557 129.79 131.682 129.54 131.682 129.195C131.682 128.491 131.165 127.63 130.586 127.285L169.945 104.334C170.54 104.678 171.041 105.539 171.041 106.244C171.041 106.588 170.916 106.839 170.712 106.948Z" fill="#B49578"/>
<path d="M130.555 127.285C131.15 127.63 131.651 128.491 131.651 129.195C131.651 129.9 131.134 130.166 130.539 129.822C129.929 129.462 129.443 128.616 129.443 127.912C129.443 127.207 129.929 126.925 130.555 127.285Z" fill="#CE9F5B"/>
<path d="M115.196 151.427L115.901 151.004L134.156 128.992L133.436 129.415L115.196 151.427Z" fill="#B49578"/>
<path d="M131.338 124.796C131.666 124.608 132.12 124.655 132.574 124.921C132.888 125.109 133.216 125.391 133.514 125.782L133.639 125.955C134.437 127.004 134.657 128.366 134.14 128.992L133.436 129.399C133.952 128.773 133.717 127.411 132.935 126.362L132.809 126.189C132.512 125.814 132.199 125.516 131.87 125.328C131.416 125.062 130.962 125.015 130.633 125.203L131.338 124.796Z" fill="#EEE2D2"/>
<path d="M131.87 125.328C131.306 125 130.743 125 130.398 125.407L110.875 148.938L115.196 151.427L133.451 129.415C133.968 128.788 133.733 127.426 132.95 126.377L132.825 126.205C132.527 125.829 132.214 125.532 131.886 125.344L131.87 125.328Z" fill="#E6D3C2"/>
<path d="M123.791 156.562L124.198 156.327V140.89L123.791 141.125V156.562Z" fill="#B49578"/>
<path d="M121.302 155.122L123.791 156.562V141.125L121.302 139.701V155.122Z" fill="#E6D3C2"/>
</g>
<defs>
<clipPath id="clip0_2111_4060">
<rect width="174" height="174" fill="white"/>
</clipPath>
</defs>
</svg>
