<svg width="174" height="174" viewBox="0 0 174 174" fill="none" xmlns="http://www.w3.org/2000/svg">
<g clip-path="url(#clip0_2111_4057)">
<path d="M174 102.53L49.645 174.328L0 145.662L124.355 73.8641L174 102.53Z" fill="#B3AFAE"/>
<path d="M121.49 75.6333L118.547 73.7076L118.562 79.3907L121.506 81.3164L121.49 75.6333Z" fill="#B49578"/>
<path d="M124.574 73.8485L121.647 71.9228L118.547 73.7076L121.49 75.6333L124.574 73.8485Z" fill="#EEE2D2"/>
<path d="M121.49 75.6333L121.506 81.3164L124.59 79.5316L124.574 73.8485L121.49 75.6333Z" fill="#E6D3C2"/>
<path d="M11.0218 139.087L8.07846 137.161L8.09412 142.844L11.0374 144.77L11.0218 139.087Z" fill="#B49578"/>
<path d="M14.106 137.302L11.1783 135.376L8.07846 137.161L11.0218 139.087L14.106 137.302Z" fill="#EEE2D2"/>
<path d="M11.0218 139.087L11.0374 144.77L14.1216 142.985L14.106 137.302L11.0218 139.087Z" fill="#E6D3C2"/>
<path d="M7.73403 138.648L132.183 66.3649L132.167 72.048L7.71837 144.331L7.73403 138.648Z" fill="#E6D3C2"/>
<path d="M4.63416 136.864L129.083 64.5802L132.183 66.3649L7.73403 138.648L4.63416 136.864Z" fill="#EEE2D2"/>
<path d="M7.73403 138.648L7.71837 144.331L4.6185 142.547L4.63416 136.864L7.73403 138.648Z" fill="#B49578"/>
<path d="M164.231 88.4398L129.083 68.1497L129.099 73.8328L164.246 94.1229L164.231 88.4398Z" fill="#B49578"/>
<path d="M167.331 86.655L132.183 66.3649L129.083 68.1497L164.231 88.4398L167.331 86.655Z" fill="#EEE2D2"/>
<path d="M164.231 88.4398L164.246 94.1229L167.346 92.3381L167.331 86.655L164.231 88.4398Z" fill="#E6D3C2"/>
<path d="M116.214 110.703C116.214 110.703 116.104 110.687 116.073 110.64C115.995 110.562 116.01 110.436 116.073 110.358L157.499 72.7526C159.816 69.23 161.741 66.5998 162.321 66.5528C162.978 66.5059 163.432 66.6154 163.636 66.9129C163.824 67.1634 163.777 67.4609 163.73 67.6018C163.73 67.6331 163.698 67.6487 163.683 67.68L157.812 73.0031C154.555 77.9816 150.234 85.0268 147.134 90.2716C147.072 90.3655 146.962 90.3968 146.868 90.3342C146.774 90.2716 146.743 90.162 146.806 90.068C148.168 87.7666 152.786 80.0326 156.653 74.0677L116.339 110.656C116.339 110.656 116.261 110.703 116.214 110.703ZM162.618 66.9442C162.618 66.9442 162.462 66.9442 162.352 66.9442C161.945 67.0068 160.567 68.8856 158.689 71.6723L163.37 67.4296C163.37 67.4296 163.401 67.2417 163.323 67.1477C163.26 67.0695 163.088 66.9442 162.602 66.9442H162.618Z" fill="#3D3736"/>
<path d="M161.741 98.8823L158.798 96.9566L158.814 102.64L161.757 104.565L161.741 98.8823Z" fill="#B49578"/>
<path d="M164.826 97.0819L161.898 95.1719L158.798 96.9566L161.741 98.8823L164.826 97.0819Z" fill="#EEE2D2"/>
<path d="M161.741 98.8823L161.757 104.565L164.841 102.781L164.826 97.0819L161.741 98.8823Z" fill="#E6D3C2"/>
<path d="M51.2732 162.336L48.3299 160.41L48.3455 166.093L51.2888 168.019L51.2732 162.336Z" fill="#B49578"/>
<path d="M54.3574 160.535L51.4297 158.625L48.3299 160.41L51.2732 162.336L54.3574 160.535Z" fill="#EEE2D2"/>
<path d="M51.2732 162.336L51.2888 168.019L54.373 166.234L54.3574 160.535L51.2732 162.336Z" fill="#E6D3C2"/>
<path d="M132.966 44.9789L132.888 67.9149C132.888 68.0245 132.809 68.1341 132.668 68.228L132.747 45.2921C132.888 45.2138 132.966 45.0885 132.966 44.9789Z" fill="#E6D3C2"/>
<path d="M130.289 67.8992L130.367 44.9633C130.367 45.0729 130.445 45.1981 130.586 45.2764L130.508 68.2123C130.351 68.1341 130.289 68.0088 130.289 67.8992Z" fill="#B49578"/>
<path d="M132.747 45.2921L132.653 68.2123L132.12 68.5255L132.199 45.5895L132.747 45.2921Z" fill="#E6D3C2"/>
<path d="M131.134 45.5895L131.056 68.5255L130.508 68.2123L130.586 45.2921L131.134 45.5895Z" fill="#B49578"/>
<path d="M132.199 45.5895L132.12 68.5255C131.823 68.6977 131.338 68.6977 131.04 68.5255L131.118 45.5895C131.416 45.7617 131.901 45.7617 132.199 45.5895Z" fill="#B49578"/>
<path d="M132.731 44.6658C133.028 44.838 133.028 45.1198 132.731 45.2921L132.199 45.6052C131.901 45.7774 131.416 45.7774 131.118 45.6052L130.586 45.2921C130.289 45.1198 130.289 44.838 130.586 44.6658L131.118 44.3527C131.416 44.1805 131.901 44.1805 132.199 44.3527L132.731 44.6658Z" fill="white"/>
<path d="M128.645 46.7168L128.457 46.6072L130.398 45.4956L130.586 45.6052L128.645 46.7168Z" fill="white"/>
<path d="M128.05 48.5328L127.862 48.4233C127.721 48.345 127.674 48.1571 127.674 47.9223C127.674 47.4526 127.909 46.9359 128.473 46.6072L128.66 46.7168C128.097 47.0455 127.862 47.5622 127.862 48.0319C127.862 48.2667 127.925 48.4546 128.05 48.5328Z" fill="white"/>
<path d="M130.586 45.6052V47.3117L128.645 48.4233C128.081 48.752 127.846 48.5015 127.846 48.0319C127.846 47.5622 128.081 47.0455 128.645 46.7168L130.586 45.5895V45.6052Z" fill="#E6D3C2"/>
<path d="M128.911 46.9986L129.882 47.5622C129.788 47.5152 129.662 47.5152 129.522 47.5935L128.551 47.0299C128.692 46.9516 128.817 46.9359 128.911 46.9986Z" fill="#B49578"/>
<path d="M129.161 48.846L128.191 48.2823C128.097 48.2197 128.034 48.1101 128.034 47.9379C128.034 47.5935 128.269 47.2021 128.566 47.0299L129.537 47.5935C129.24 47.7657 129.005 48.1571 129.005 48.5015C129.005 48.6581 129.067 48.7833 129.161 48.846Z" fill="#B49578"/>
<path d="M129.522 47.6091C129.803 47.4526 130.038 47.5778 130.038 47.9223C130.038 48.251 129.803 48.6581 129.522 48.8303C129.224 49.0025 128.989 48.8616 128.989 48.5328C128.989 48.1884 129.224 47.797 129.522 47.6248V47.6091Z" fill="#B49578"/>
<path d="M130.116 47.4839C130.116 47.4839 130.054 47.4839 130.023 47.4682C127.846 46.3254 104.942 43.2568 104.707 43.2255C104.597 43.2255 104.519 43.1159 104.535 43.0063C104.535 42.8967 104.644 42.8341 104.754 42.8341C105.693 42.9593 127.972 45.934 130.195 47.1238C130.289 47.1708 130.32 47.296 130.273 47.39C130.242 47.4526 130.163 47.4996 130.101 47.4996L130.116 47.4839Z" fill="#3D3736"/>
<path d="M94.327 95.3597C94.327 95.3597 94.2487 95.3597 94.2017 95.3128C94.1078 95.2501 94.0921 95.1249 94.1704 95.0466L129.976 47.5465C130.038 47.4526 130.163 47.4369 130.242 47.5152C130.336 47.5778 130.351 47.7031 130.273 47.7814L94.4679 95.2814C94.4679 95.2814 94.3739 95.3597 94.3113 95.3597H94.327Z" fill="#3D3736"/>
<path d="M129.647 47.296L129.459 47.1864L131.4 46.0749L131.588 46.1845L129.647 47.296Z" fill="white"/>
<path d="M129.052 49.1121L128.864 49.0025C128.723 48.9242 128.676 48.7364 128.676 48.5015C128.676 48.0319 128.911 47.5152 129.475 47.1864L129.662 47.296C129.099 47.6248 128.864 48.1414 128.864 48.6111C128.864 48.846 128.927 49.0338 129.052 49.1121Z" fill="white"/>
<path d="M131.588 46.1845V47.8909L129.647 49.0182C129.083 49.347 128.848 49.0965 128.848 48.6268C128.848 48.1571 129.083 47.6405 129.647 47.3117L131.588 46.1845Z" fill="#E6D3C2"/>
<path d="M101.341 40.3918L86.7495 32.6577C86.7495 32.6577 87.1096 35.0844 88.2212 36.3682C89.2231 37.5267 98.3349 41.8634 100.151 42.5679L100.949 42.8654C100.949 42.8654 102.124 42.8184 102.218 41.7538C102.296 40.6892 101.325 40.4074 101.325 40.4074L101.341 40.3918Z" fill="#3D3736"/>
<path d="M42.8346 158.938L7.70272 138.648L7.71837 144.331L42.8503 164.622L42.8346 158.938Z" fill="#B49578"/>
<path d="M45.9345 157.138L10.8026 136.864L7.70272 138.648L42.8346 158.938L45.9345 157.138Z" fill="#EEE2D2"/>
<path d="M42.8346 158.938L42.8503 164.622L45.9502 162.837L45.9345 157.138L42.8346 158.938Z" fill="#E6D3C2"/>
<path d="M126.14 99.1015V101.137C126.14 101.278 126.03 101.434 125.842 101.544V99.5086C126.046 99.399 126.14 99.2424 126.14 99.1015Z" fill="#3D3736"/>
<path d="M98.1157 94.7335V92.6982C98.1157 92.8391 98.2253 92.9957 98.4132 93.1053V95.1405C98.2096 95.031 98.1157 94.8744 98.1157 94.7335Z" fill="#6B4F4A"/>
<path d="M125.842 99.5086V101.544L118.374 105.849V103.814L125.842 99.5086Z" fill="#3D3736"/>
<path d="M116.965 103.814V105.849L98.4132 95.1405V93.1053L116.965 103.814Z" fill="#6B4F4A"/>
<path d="M118.374 103.814V105.849C117.983 106.068 117.357 106.084 116.95 105.849V103.814C117.341 104.033 117.983 104.033 118.374 103.814Z" fill="#6B4F4A"/>
<path d="M125.858 98.6945C126.249 98.9136 126.249 99.2894 125.858 99.5086L118.39 103.814C117.999 104.033 117.373 104.049 116.981 103.814L98.4288 93.1053C98.0374 92.8861 98.0374 92.5104 98.4288 92.2912L105.897 87.9858C106.288 87.7666 106.914 87.7666 107.306 87.9858L125.858 98.6945Z" fill="#937773"/>
<path d="M123.932 108.808V112.425C123.932 112.691 123.744 112.957 123.4 113.161V109.544C123.76 109.34 123.932 109.074 123.932 108.808Z" fill="#3D3736"/>
<path d="M36.04 123.149V119.532C36.04 119.799 36.2278 120.065 36.5723 120.268V123.885C36.2122 123.681 36.04 123.415 36.04 123.149Z" fill="#6B4F4A"/>
<path d="M123.416 109.528L123.4 113.145L72.1112 142.938V139.322L123.416 109.528Z" fill="#3D3736"/>
<path d="M69.6063 139.337L69.5906 142.954L36.5566 123.869V120.253L69.6063 139.337Z" fill="#6B4F4A"/>
<path d="M72.1112 139.322V142.938C71.4067 143.345 70.2795 143.345 69.5906 142.938V139.322C70.2951 139.729 71.4224 139.713 72.1112 139.322Z" fill="#6B4F4A"/>
<path d="M123.416 108.072C124.12 108.479 124.105 109.121 123.416 109.528L72.1269 139.322C71.438 139.729 70.3108 139.729 69.6063 139.322L36.5723 120.253C35.8834 119.861 35.8834 119.204 36.5723 118.797L87.8611 89.0034C88.5499 88.5964 89.6928 88.5964 90.3817 89.0034L123.416 108.072Z" fill="#937773"/>
<path d="M45.9658 160.723L170.43 88.4398L170.415 94.1229L45.9502 166.406L45.9658 160.723Z" fill="#E6D3C2"/>
<path d="M42.8659 158.938L167.331 86.655L170.43 88.4398L45.9658 160.723L42.8659 158.938Z" fill="#EEE2D2"/>
<path d="M45.9658 160.723L45.9502 166.406L42.8503 164.622L42.8659 158.938L45.9658 160.723Z" fill="#B49578"/>
<path d="M98.4601 87.3752L101.513 89.1443C101.31 89.0191 101.012 89.0347 100.699 89.2226L97.646 87.4378C97.9592 87.25 98.2566 87.2343 98.4601 87.3596V87.3752Z" fill="#6B4F4A"/>
<path d="M98.8672 100.479L95.7986 98.6945L95.783 89.8645L98.8359 91.6336L98.8672 100.479Z" fill="#6B4F4A"/>
<path d="M99.9788 89.6453L96.9259 87.8605L97.646 87.4535L100.699 89.2383L99.9788 89.6453Z" fill="#6B4F4A"/>
<path d="M98.8359 91.6336L95.783 89.8488C95.783 89.1287 96.2996 88.2206 96.9259 87.8605L99.9788 89.6297C99.3369 90.0054 98.8202 90.8978 98.8359 91.618V91.6336Z" fill="#6B4F4A"/>
<path d="M100.699 89.2383C101.341 88.8782 101.857 89.1756 101.857 89.8958L101.889 98.7258L98.8672 100.464L98.8359 91.6336C98.8359 90.9134 99.3525 90.0054 99.9788 89.6453L100.683 89.2383H100.699Z" fill="#3D3736"/>
<path d="M69.8724 95.7981C69.8724 95.7981 69.8724 100.01 69.9663 102.577C70.0446 105.145 70.6552 108.151 71.8451 109.294C73.0506 110.452 77.4655 108.385 80.3932 106.397C83.3522 104.393 88.0333 100.573 89.5519 98.9606C91.0862 97.348 90.7574 94.8431 89.0979 94.4047C87.4227 93.9507 83.0704 95.8138 80.2053 98.5535C77.3403 101.278 74.5066 103.532 74.5066 103.532C74.5066 103.532 73.2384 98.0526 72.9097 96.5809C72.5809 95.1092 69.8568 95.7824 69.8568 95.7824L69.8724 95.7981Z" fill="#9E877B"/>
<path d="M97.4112 96.2365C97.4112 96.2365 97.6617 93.9507 100.401 91.117C103.141 88.2833 107.822 85.4026 111.345 85.4339C114.868 85.4652 115.65 88.2989 115.65 88.2989L114.288 88.0954L99.2899 99.9939C99.2899 99.9939 97.4582 97.8021 97.4112 96.2365Z" fill="#18100A"/>
<path d="M99.2899 98.5535L101.951 95.9547C101.951 95.9547 102.108 93.6845 102.531 92.6826C102.953 91.6806 104.237 90.3655 104.816 89.8175C105.396 89.2696 106.523 88.3146 108.026 87.7666C109.529 87.2187 111.94 86.6394 113.725 87.704C115.509 88.7686 117.639 90.8195 117.091 96.3461C116.527 101.873 108.574 102.076 108.574 102.076C108.574 102.076 106.085 103.579 104.128 104.738C102.155 105.896 100.151 105.333 99.3056 102.922C98.4758 100.511 99.3056 98.5379 99.3056 98.5379L99.2899 98.5535Z" fill="#BFA597"/>
<path d="M102.327 95.9703C102.327 95.9703 103.658 95.6415 105.286 97.6142C106.914 99.5868 107.681 100.448 107.681 100.448C107.681 100.448 106.914 97.3011 106.147 95.986C105.38 94.6709 103.689 92.9174 102.969 93.2775C102.672 93.4341 102.249 93.9977 102.343 95.986L102.327 95.9703Z" fill="#9E877B"/>
<path d="M111.235 93.9977C114.852 90.3342 114.257 87.8292 114.257 87.8292C114.257 87.8292 114.132 86.7959 115.353 87.3752C116.574 87.9545 118.374 90.6786 118.187 93.1992C118.187 93.1992 118.797 94.6239 118.187 97.0036C118.187 97.0036 118.046 99.5712 116.496 100.918C114.962 102.264 105.38 106.319 105.38 106.319C105.38 106.319 103.548 102.953 106.664 100.15C108.715 98.303 109.012 96.2208 111.22 93.982L111.235 93.9977Z" fill="#18100A"/>
<path d="M71.8451 99.7904C72.1425 99.6964 72.5183 99.9626 72.5183 99.9626C72.5183 99.9626 73.1915 98.5535 73.0506 97.0193C72.9097 95.485 70.9057 94.7648 69.6376 94.3734C68.3694 93.9977 67.618 93.575 66.9917 93.3401C66.3811 93.1053 65.9584 93.8098 66.1933 94.1386C66.4281 94.4673 67.1639 95.0153 67.1639 95.0153C67.5084 95.5006 67.3048 95.9077 67.3048 95.9077C66.6786 96.5183 66.4751 97.0975 66.5534 97.348C66.6316 97.5985 67.2735 98.3187 67.618 98.7884C67.9624 99.2581 69.0896 99.8373 69.8568 100.103C70.6239 100.37 71.0466 100.511 71.2814 100.62C71.1875 100.182 71.391 99.9156 71.8451 99.759V99.7904Z" fill="#BFA597"/>
<path d="M68.0094 77.5589C67.3518 77.2302 66.6473 76.9014 65.8488 76.5883C59.2577 73.9581 57.3633 74.1459 54.7958 76.9797C52.2282 79.8134 51.1949 85.1364 50.3651 88.5337C49.5354 91.9311 47.7976 97.7864 46.3259 100.745C44.8542 103.689 41.6604 108.965 41.269 109.904C40.862 110.859 41.2064 111.454 41.2064 111.454C41.2064 111.454 40.8776 112.331 40.9716 112.8C41.0655 113.27 41.363 113.333 41.363 113.333C41.363 113.333 41.2221 114.116 41.4099 114.444C41.5978 114.773 42.0205 114.538 42.0205 114.538C42.0205 114.538 41.9735 115.415 42.318 115.493C42.6624 115.572 43.0538 115.415 43.2886 114.883C43.5078 114.35 43.9149 113.646 43.9149 113.646C43.9149 113.646 44.1497 114.147 43.727 114.679C43.2886 115.227 42.5059 116.088 43.1791 116.667C43.8523 117.247 44.9325 116.292 45.3552 115.587C45.7779 114.883 45.9188 114.084 45.9188 114.084C45.9188 114.084 46.9834 112.707 47.4062 111.517C47.8289 110.327 48.1576 107.164 48.9874 106.131C49.8172 105.098 51.6802 103.266 51.7742 101.763C51.8681 100.26 51.3201 99.7747 50.4904 99.6808C50.4904 99.6808 55.469 92.6982 57.2068 89.4888C58.9446 86.2793 59.8839 83.5865 59.8839 83.5865C59.8839 83.5865 60.9642 85.8566 62.5141 87.7196C68.7765 91.1013 72.3147 81.6608 68.0407 77.5589H68.0094Z" fill="#BFA597"/>
<path d="M80.4089 86.154C80.4089 86.154 77.1994 85.7783 75.6808 84.1657C74.35 82.7411 72.847 79.9856 68.0094 77.5589C69.6376 79.9543 67.6962 86.702 62.4828 87.7196C62.7177 88.0014 62.9682 88.2832 63.2186 88.5337C65.1443 90.4594 67.7902 96.393 69.1992 97.7238C71.6885 100.072 72.7844 100.103 74.6475 100.072C75.1798 100.072 82.1623 98.1778 82.9451 96.2834C83.7279 94.3891 81.223 87.6883 80.4089 86.1697V86.154Z" fill="#86463C"/>
<path d="M72.5026 99.9626C72.5026 99.9626 72.1269 99.6808 71.8294 99.7904C71.3754 99.9469 71.1719 100.213 71.2658 100.651C71.5163 100.761 71.7355 101.152 72.0799 101.012C72.4243 100.886 72.8627 100.73 73.0349 100.542C73.2071 100.37 73.3324 100.166 73.1132 99.9313C72.894 99.6964 72.5026 99.9626 72.5026 99.9626Z" fill="#BFA597"/>
<path d="M67.5866 96.5809C67.5866 96.5809 67.8998 97.3011 67.3988 97.6612C66.8978 98.0212 66.5377 97.5516 66.2872 97.2228C66.0367 96.894 66.0837 96.6435 66.2872 96.393C66.4907 96.1425 66.9761 95.5006 67.4301 95.391C67.8841 95.2971 67.9624 95.7981 67.8528 96.0173C67.7432 96.2208 67.571 96.5809 67.571 96.5809H67.5866Z" fill="#BFA597"/>
<path d="M69.0896 98.4126C69.1522 98.7258 69.1522 99.1015 68.573 99.3363C68.2129 99.4929 67.9467 99.3207 67.6649 99.0545C67.3831 98.7884 67.5867 98.3187 68.025 97.8021C68.479 97.2854 68.8391 96.8627 69.1209 96.7844C69.4341 96.6905 69.8881 96.9097 69.7785 97.3793C69.6845 97.849 69.0896 98.4283 69.0896 98.4283V98.4126Z" fill="#BFA597"/>
<path d="M69.2462 99.853C69.1679 99.4146 69.7941 98.6944 70.2951 98.7727C70.2951 98.7727 70.7805 98.2717 71.0623 98.1621C71.3441 98.0526 71.7981 98.2561 71.7511 98.6788C71.7198 99.0858 71.031 99.5242 70.6552 99.9C70.2795 100.276 69.3401 100.432 69.2462 99.853Z" fill="#BFA597"/>
<path d="M90.0686 90.7882C90.0686 90.7882 93.7947 94.6396 95.9082 96.1895C98.0218 97.7238 100.73 98.5692 100.73 98.5692C100.73 98.5692 104.707 102.812 106.633 105.38C108.558 107.947 102.969 112.769 97.3799 112.315C91.7907 111.861 78.9529 103.329 76.2444 101.325C73.5516 99.3363 83.7592 87.0621 90.0529 90.7882H90.0686Z" fill="#BFA597"/>
<path d="M97.3799 112.299C96.5188 112.237 95.4699 111.971 94.327 111.548C90.7887 110.327 86.2172 107.744 82.4911 105.442C79.6104 103.673 77.2307 102.045 76.26 101.309C73.5672 99.3207 83.7905 87.0464 90.0686 90.7569C90.0686 90.7569 93.8103 94.6239 95.9239 96.1582C98.0374 97.7081 100.73 98.5379 100.73 98.5379C100.73 98.5379 104.723 102.781 106.648 105.364C108.574 107.916 102.985 112.753 97.3955 112.284L97.3799 112.299Z" fill="#BFA597"/>
<path d="M103.517 106.898L99.0238 108.276C99.0238 108.276 95.3916 111.11 98.2096 111.297C101.043 111.485 103.501 106.882 103.501 106.882L103.517 106.898Z" fill="#9E877B"/>
<path d="M94.327 111.548C90.7887 110.327 86.2172 107.744 82.4911 105.442C82.5537 103.751 83.6653 102.014 87.4227 101.982C87.4227 101.982 90.0529 106.209 93.4033 108.605C93.4033 108.605 94.1235 109.967 94.327 111.548Z" fill="#9E877B"/>
<path d="M92.1508 110.703C92.1508 110.703 94.1704 107.806 95.3916 103.83C96.6127 99.853 95.2507 95.6729 95.2507 95.6729C95.2507 95.6729 96.3623 94.4517 98.601 95.6729C100.855 96.894 101.529 98.3344 101.826 99.759C102.124 101.184 101.811 103.109 100.84 104.471C99.8692 105.818 98.5854 109.481 97.3642 112.315C97.3642 112.315 95.6264 112.519 92.1351 110.703H92.1508Z" fill="#A25448"/>
<path d="M79.2816 85.8722C79.2816 85.8722 73.442 91.3988 74.5379 95.2815C75.6338 99.1641 83.9784 91.4614 83.587 89.1443C83.1956 86.8272 80.4089 86.154 80.4089 86.154C80.4089 86.154 80.4871 86.0601 79.2816 85.8566V85.8722Z" fill="#86463C"/>
<path d="M92.1508 92.8704C92.1508 92.8704 93.3093 99.7747 87.2662 102.718C83.9314 104.346 79.8766 103.783 79.8766 103.783C79.8766 103.783 76.4323 102.577 75.305 101.199C74.1778 99.8217 90.9766 91.6962 90.9766 91.6962L92.1508 92.8548V92.8704Z" fill="#86463C"/>
<path d="M91.9003 80.5649C91.9316 79.829 91.9786 79.0932 91.9942 78.3574C92.2447 72.4551 90.6165 70.3885 90.7105 68.3376C90.7887 66.2867 93.0275 60.7132 92.2447 54.5447C91.4776 48.3763 92.0256 41.1589 91.9473 38.3878C91.869 35.601 91.4776 31.5305 91.5246 30.1841C91.5715 28.8377 91.1645 28.7594 91.1645 28.7594C91.1645 28.7594 91.2897 28.1332 91.1175 27.4286C90.9453 26.7241 90.5069 26.6615 90.5069 26.6615C90.1938 25.1899 89.3954 25.503 89.3954 25.503C89.3954 25.503 89.4423 25.1585 89.1292 24.9394C88.8161 24.7202 88.4717 25.1116 88.4717 25.1116C88.5499 24.6262 88.4717 24 87.9707 24C87.4697 24 87.047 24.6262 86.8278 25.2994C86.6086 25.9726 86.7339 27.1782 86.7339 27.1782C86.2016 28.4619 87.2818 29.824 87.4697 30.9356C87.6575 32.0471 88.3934 35.0844 87.3914 37.4798C86.3738 39.8908 84.8238 40.9867 85.9824 42.1765C87.0626 43.2881 88.409 42.2078 88.409 42.2078C88.409 42.2078 86.7808 49.3156 85.544 52.9948C84.3072 56.6739 84.3855 60.0243 84.3072 62.8267C84.2289 65.6448 82.7572 67.7114 82.4285 72.0167C82.3345 73.2849 81.8179 75.7429 81.1447 78.5609C81.0664 78.8897 80.9881 79.2341 80.8942 79.5786C82.3815 80.5179 85.7788 81.8643 91.916 80.5492L91.9003 80.5649Z" fill="#BFA597"/>
<path d="M91.9003 80.5649C85.7632 81.88 82.3658 80.5336 80.8785 79.5942C79.7983 83.9935 78.4362 88.9878 77.7004 91.5867C77.7004 91.5867 73.6298 94.5456 73.8021 98.3187C73.9743 102.092 79.0311 103.203 82.1936 102.937C85.3561 102.687 90.1155 101.387 90.7105 96.941C90.7105 96.941 90.7105 96.9253 90.7105 96.9097C90.867 96.1738 91.5246 88.2206 91.9003 80.5805V80.5649Z" fill="#A25448"/>
<path d="M90.0529 33.0335C89.505 34.8026 88.9257 37.0727 88.503 39.2332C88.0803 41.3937 87.3601 42.474 86.2642 42.4114C86.1702 42.3488 86.0763 42.2705 85.9824 42.1765C84.8082 40.9867 85.6066 39.3741 86.6243 36.9788C87.6262 34.5678 86.5303 32.1411 86.3268 31.0139C86.1389 29.9023 86.2016 28.4306 86.7339 27.1625C87.5323 27.5852 88.4717 27.2564 88.4717 27.2564C88.6282 27.867 89.3171 27.914 89.3171 27.914C89.3954 28.5715 89.9277 28.7124 89.9277 28.7124C89.9277 29.4952 90.4756 29.7144 90.4756 29.7144C90.4756 29.7144 90.6165 31.2174 90.0686 33.0022L90.0529 33.0335Z" fill="#9E877B"/>
<path d="M77.1837 102.781C77.1837 102.781 78.3423 103.454 85.3561 102.781C87.7671 102.546 81.0038 104.503 79.3599 104.158C77.716 103.814 77.1681 102.781 77.1681 102.781H77.1837Z" fill="#9E877B"/>
<path d="M99.1177 109.669C101.466 108.464 102.969 107.29 103.94 106.585C104.91 105.881 107.337 105.051 108.433 107.039C109.529 109.027 108.824 111.282 105.865 112.753C102.906 114.225 101.106 114.804 97.6147 116.667C94.1078 118.531 91.0549 120.456 89.5676 119.47C88.0803 118.484 87.0626 114.945 86.4677 111.204C85.8728 107.462 85.8884 105.52 85.8884 105.52C85.8884 105.52 86.8434 104.002 88.3151 104.487C88.3151 104.487 89.8024 108.918 91.2114 110.781C92.6205 112.644 92.824 113.442 92.824 113.442C92.824 113.442 96.0022 111.251 99.1177 109.654V109.669Z" fill="#BFA597"/>
<path d="M88.3308 104.487C88.3308 104.487 88.002 103.36 87.3601 102.671C86.7182 101.982 85.8571 101.857 84.4481 101.7C83.039 101.544 82.2249 100.996 81.6613 100.871C81.0821 100.745 80.9255 101.622 81.7553 101.998C82.585 102.374 83.587 102.859 83.587 102.859C83.587 102.859 81.4578 103.438 79.8609 103.485C78.264 103.516 77.1994 102.201 76.4479 101.606C75.6964 101.012 75.6808 101.638 75.6808 101.638C75.6808 101.638 75.1954 101.105 74.9293 101.497C74.6631 101.888 76.4792 103.485 77.4969 104.158C78.5145 104.832 80.268 105.27 81.2699 105.489C82.2563 105.708 85.9041 105.552 85.9041 105.552C85.9041 105.552 87.548 106.444 88.3308 104.518V104.487Z" fill="#BFA597"/>
<path d="M110.531 94.3421L113.584 96.1269C113.38 96.0016 113.083 96.0173 112.77 96.2052L109.717 94.436C110.03 94.2482 110.327 94.2325 110.531 94.3577V94.3421Z" fill="#6B4F4A"/>
<path d="M110.938 107.446L107.885 105.661L107.854 96.8314L110.907 98.6005L110.938 107.446Z" fill="#6B4F4A"/>
<path d="M112.065 96.6122L108.997 94.8431L109.717 94.4204L112.77 96.2052L112.065 96.6122Z" fill="#6B4F4A"/>
<path d="M110.907 98.6005L107.854 96.8157C107.854 96.0956 108.37 95.1875 108.997 94.8274L112.049 96.5965C111.408 96.9566 110.891 97.8647 110.907 98.5849V98.6005Z" fill="#6B4F4A"/>
<path d="M112.77 96.2052C113.412 95.8451 113.928 96.1425 113.928 96.8627L113.96 105.693L110.938 107.43L110.907 98.6005C110.907 97.8803 111.423 96.9723 112.049 96.6122L112.754 96.2052H112.77Z" fill="#3D3736"/>
<path d="M103.768 44.2744C102.546 44.2744 100.996 42.8028 100.934 42.7401L100.84 42.6462L101.638 40.7362H101.764C101.857 40.7362 103.971 40.6892 104.926 41.6755C105.38 42.1452 105.521 42.7245 105.302 43.2724C105.083 43.8361 104.535 44.2275 103.877 44.2744C103.846 44.2744 103.814 44.2744 103.768 44.2744ZM101.31 42.5523C101.67 42.8811 102.938 43.9457 103.846 43.883C104.347 43.8517 104.769 43.5543 104.926 43.1315C105.083 42.7401 104.973 42.3018 104.629 41.9417C103.924 41.2059 102.343 41.1276 101.889 41.1119L101.294 42.5366L101.31 42.5523Z" fill="#3D3736"/>
<path d="M101.842 40.7362C101.842 40.7362 92.7301 37.3702 89.6302 35.5697C87.4384 34.3016 86.7652 32.6577 86.7652 32.6577C86.7652 32.6577 86.3894 35.2253 86.6399 36.9788C86.9217 38.8575 95.5638 41.7069 101.466 43.1942C101.466 43.1942 102.64 43.1472 102.734 42.0826C102.828 41.018 101.842 40.7362 101.842 40.7362Z" fill="#6B4F4A"/>
<path d="M165.953 64.4706L165.875 87.4065C165.875 87.5161 165.796 87.6257 165.655 87.7196L165.734 64.7837C165.875 64.7054 165.953 64.5802 165.953 64.4706Z" fill="#E6D3C2"/>
<path d="M163.276 87.4065L163.354 64.4706C163.354 64.5802 163.432 64.7054 163.573 64.7837L163.495 87.7196C163.354 87.6413 163.276 87.5161 163.276 87.4065Z" fill="#B49578"/>
<path d="M165.734 64.7837L165.655 87.7196L165.107 88.0328L165.186 65.0968L165.734 64.7837Z" fill="#E6D3C2"/>
<path d="M164.121 65.0968L164.043 88.0328L163.495 87.7196L163.573 64.7837L164.121 65.0968Z" fill="#B49578"/>
<path d="M165.186 65.0968L165.107 88.0328C164.81 88.205 164.325 88.205 164.027 88.0328L164.105 65.0968C164.403 65.269 164.888 65.269 165.186 65.0968Z" fill="#B49578"/>
<path d="M165.718 64.1575C166.015 64.3297 166.015 64.6115 165.718 64.7837L165.186 65.0968C164.888 65.269 164.403 65.269 164.105 65.0968L163.573 64.7837C163.276 64.6115 163.276 64.3297 163.573 64.1575L164.105 63.8443C164.403 63.6721 164.888 63.6721 165.186 63.8443L165.718 64.1575Z" fill="white"/>
<path d="M161.632 66.224L161.444 66.1145L163.385 64.9872L163.573 65.0968L161.632 66.224Z" fill="white"/>
<path d="M161.037 68.0401L160.849 67.9305C160.708 67.8523 160.661 67.6644 160.661 67.4296C160.661 66.9599 160.896 66.4432 161.46 66.1145L161.647 66.224C161.084 66.5528 160.849 67.0695 160.849 67.5391C160.849 67.774 160.912 67.9618 161.037 68.0401Z" fill="white"/>
<path d="M163.573 65.0968V66.8033L161.632 67.9149C161.068 68.2437 160.833 67.9932 160.833 67.5235C160.833 67.0538 161.068 66.5372 161.632 66.2084L163.573 65.0812V65.0968Z" fill="#E6D3C2"/>
<path d="M161.898 66.5058L162.869 67.0695C162.775 67.0225 162.649 67.0225 162.509 67.1008L161.538 66.5372C161.679 66.4589 161.804 66.4432 161.898 66.5058Z" fill="#B49578"/>
<path d="M162.148 68.3532L161.178 67.7896C161.084 67.727 161.021 67.6174 161.021 67.4452C161.021 67.1008 161.256 66.7094 161.554 66.5372L162.524 67.1008C162.227 67.273 161.992 67.6644 161.992 68.0088C161.992 68.1654 162.055 68.2906 162.148 68.3532Z" fill="#B49578"/>
<path d="M162.509 67.1008C162.79 66.9442 163.025 67.0695 163.025 67.4139C163.025 67.7427 162.79 68.1497 162.509 68.3219C162.211 68.4942 161.976 68.3532 161.976 68.0245C161.976 67.68 162.211 67.2886 162.509 67.1164V67.1008Z" fill="#B49578"/>
<path d="M162.634 66.8033L162.446 66.6937L164.387 65.5665L164.575 65.6761L162.634 66.8033Z" fill="white"/>
<path d="M162.039 68.6194L161.851 68.5098C161.71 68.4315 161.663 68.2437 161.663 68.0088C161.663 67.5391 161.898 67.0225 162.462 66.6937L162.649 66.8033C162.086 67.1321 161.851 67.6487 161.851 68.1184C161.851 68.3532 161.914 68.5411 162.039 68.6194Z" fill="white"/>
<path d="M164.575 65.6761V67.3826L162.634 68.5098C162.07 68.8386 161.835 68.5881 161.835 68.1184C161.835 67.6487 162.07 67.1321 162.634 66.8033L164.575 65.6761Z" fill="#E6D3C2"/>
<path d="M143.158 92.6199L130.461 103.172C130.461 103.172 132.841 103.751 134.453 103.219C135.909 102.734 143.377 95.9547 144.723 94.53L145.303 93.9037C145.303 93.9037 145.71 92.7922 144.755 92.3068C143.8 91.8215 143.173 92.6199 143.173 92.6199H143.158Z" fill="#3D3736"/>
<path d="M145.052 93.9507L143.581 92.4947L143.628 92.3694C143.659 92.2912 144.426 90.3029 145.694 89.8019C146.305 89.567 146.884 89.661 147.307 90.0524C147.745 90.4594 147.886 91.1326 147.682 91.7432C147.307 92.9174 145.24 93.8411 145.146 93.8724L145.021 93.9194L145.052 93.9507ZM144.05 92.3851L145.146 93.481C145.584 93.2775 147.056 92.4947 147.338 91.6336C147.495 91.1639 147.385 90.6473 147.056 90.3498C146.743 90.0524 146.305 89.9897 145.851 90.1776C144.896 90.5534 144.222 91.9781 144.05 92.4008V92.3851Z" fill="#3D3736"/>
<path d="M143.659 92.2912C143.659 92.2912 137.068 99.4459 134.25 101.622C132.246 103.172 130.461 103.172 130.461 103.172C130.461 103.172 132.7 104.503 134.422 104.926C136.254 105.38 142.187 98.4753 145.804 93.575C145.804 93.575 146.211 92.4634 145.256 91.9781C144.301 91.4927 143.674 92.2912 143.674 92.2912H143.659Z" fill="#6B4F4A"/>
<path d="M19.2411 131.102L18.521 130.695L0.281807 108.667L0.986324 109.09L19.2411 131.102Z" fill="#B49578"/>
<path d="M3.08422 104.471C2.75544 104.284 2.30142 104.331 1.8474 104.597C1.53428 104.785 1.20551 105.066 0.908044 105.458L0.782797 105.63C-0.0156559 106.679 -0.234839 108.041 0.281807 108.667L0.986324 109.074C0.469678 108.448 0.704517 107.086 1.48731 106.037L1.61256 105.865C1.91002 105.489 2.22314 105.192 2.55192 105.004C3.00594 104.738 3.45996 104.691 3.78874 104.879L3.08422 104.471Z" fill="#EEE2D2"/>
<path d="M2.55192 105.004C3.11553 104.675 3.67914 104.675 4.02357 105.082L23.5465 128.613L19.2255 131.102L0.986324 109.09C0.469678 108.464 0.704517 107.102 1.48731 106.053L1.61256 105.881C1.91002 105.505 2.22314 105.207 2.55192 105.019V105.004Z" fill="#E6D3C2"/>
<path d="M10.6304 136.237L10.239 136.003V120.566L10.6304 120.801V136.237Z" fill="#B49578"/>
<path d="M13.1197 134.797L10.6304 136.237V120.801L13.1197 119.376V134.797Z" fill="#E6D3C2"/>
<path d="M42.8816 128.957L3.52258 106.006C3.31906 105.896 3.03725 105.912 2.73979 106.084L42.0988 129.036C42.4119 128.863 42.6937 128.832 42.8816 128.957Z" fill="#EEE2D2"/>
<path d="M1.95699 108.699L41.316 131.65C41.1125 131.541 40.9872 131.29 40.9872 130.946C40.9872 130.241 41.5039 129.38 42.0831 129.036L2.73979 106.1C2.14486 106.444 1.64387 107.305 1.64387 108.01C1.64387 108.354 1.76912 108.605 1.97265 108.714L1.95699 108.699Z" fill="#B49578"/>
<path d="M42.0988 129.036C41.5039 129.38 41.0029 130.241 41.0029 130.946C41.0029 131.65 41.5195 131.916 42.1145 131.572C42.725 131.212 43.2104 130.366 43.2104 129.662C43.2104 128.957 42.725 128.676 42.0988 129.036Z" fill="#CE9F5B"/>
<path d="M57.4729 153.177L56.7684 152.77L38.5136 130.742L39.2181 131.165L57.4729 153.177Z" fill="#B49578"/>
<path d="M41.3317 126.546C41.0029 126.358 40.5489 126.405 40.0948 126.672C39.7817 126.859 39.4529 127.141 39.1555 127.533L39.0302 127.705C38.2318 128.754 38.0126 130.116 38.5292 130.742L39.2338 131.149C38.7171 130.523 38.952 129.161 39.7347 128.112L39.86 127.94C40.1575 127.564 40.4706 127.267 40.7994 127.079C41.2534 126.812 41.7074 126.766 42.0362 126.953L41.3317 126.546Z" fill="#EEE2D2"/>
<path d="M40.7994 127.094C41.363 126.766 41.9266 126.766 42.271 127.173L61.794 150.703L57.4729 153.193L39.2181 131.18C38.7015 130.554 38.9363 129.192 39.7191 128.143L39.8443 127.971C40.1418 127.595 40.4549 127.298 40.7837 127.11L40.7994 127.094Z" fill="#E6D3C2"/>
<path d="M48.8778 158.312L48.4708 158.077V142.656L48.8778 142.875V158.312Z" fill="#B49578"/>
<path d="M51.3514 156.872L48.8778 158.312V142.875L51.3514 141.451V156.872Z" fill="#E6D3C2"/>
</g>
<defs>
<clipPath id="clip0_2111_4057">
<rect width="174" height="174" fill="white"/>
</clipPath>
</defs>
</svg>
