<svg xmlns="http://www.w3.org/2000/svg" width="175" height="174" viewBox="0 0 175 174" fill="none">
  <path d="M123.748 79.8439C118.874 82.1568 121.506 88.0675 125.166 89.3347C125.166 89.3347 111.262 101.52 128.082 113.775L146.771 96.0607C146.771 96.0607 145.929 95.6088 145.964 94.8467C146 94.0846 143.678 85.1875 131.44 86.7826C131.449 86.7826 133.275 75.3244 123.748 79.8439Z" fill="#18100A"/>
  <path d="M146.053 103.496C143.518 108.387 142.304 108.99 142.34 110.355C142.375 111.719 142.827 112.437 140.558 112.331C140.266 112.313 139.477 113.244 139.265 113.447C138.458 114.201 137.749 114.98 136.792 115.556C135.463 116.354 133.886 116.886 132.317 116.717C131.546 116.638 130.811 116.381 130.155 115.982C129.774 115.751 129.419 115.468 129.1 115.158C128.941 114.998 128.25 113.97 128.099 113.961C128.099 113.961 127.381 113.926 126.318 113.873C123.562 113.731 118.475 113.412 117.571 113.057L116.738 101.617C116.738 101.617 122.002 106.199 126.096 103.965C125.946 104.045 125.618 103.017 125.573 102.893C125.414 102.353 125.396 101.803 125.538 101.254C125.821 100.19 126.699 99.3219 127.815 99.1978C129.605 99.0029 130.642 101.147 130.421 102.672C130.421 102.698 130.412 102.725 130.403 102.751C130.403 102.751 132.034 103.389 132.937 101.617C132.937 101.617 141.383 103.513 144.644 97.0356C144.653 97.0267 148.596 98.6129 146.053 103.496Z" fill="#BFA597"/>
  <path d="M128.099 113.953C128.099 113.953 127.381 113.917 126.318 113.864C124.493 109.38 126.929 106.039 126.929 106.039C125.645 110.55 128.099 113.953 128.099 113.953Z" fill="#A25448"/>
  <path d="M116.739 116.744C112.583 122.141 98.6966 119.73 98.6966 119.73L78.0134 90.7526C78.0134 90.7526 78.1464 90.6729 78.2793 90.3273C78.6781 89.2727 79.0591 85.7635 75.541 74.5978C75.541 74.5978 77.5703 75.2447 80.6453 76.3878C88.0449 79.1438 101.515 84.7887 107.425 91.2489C115.791 100.385 118.644 102.937 118.644 102.937C118.644 102.937 120.895 111.347 116.739 116.744Z" fill="#A25448"/>
  <path d="M79.1477 90.3362H78.1729C78.5717 89.2816 79.0591 85.7724 75.541 74.6067C75.541 74.6067 77.5703 75.2536 80.6453 76.3967C80.6365 76.3967 81.0618 86.2952 79.1477 90.3362Z" fill="#BFA597"/>
  <path d="M109.658 125.402C108.063 126.953 101.612 137.542 101.612 137.542C101.612 137.542 96.0201 153.21 95.4973 156.48C94.9833 159.75 94.682 169.267 94.8415 169.56C95.001 169.861 101.178 170.632 102.294 170.986C103.411 171.332 106.468 173.352 106.468 173.352C105.351 174.256 102.117 173.654 101.089 173.521C100.052 173.397 97.6241 173.919 92.7413 173.999C87.8496 174.07 88.6295 169.249 88.6295 169.249C85.3772 158.837 90.6145 136.798 91.2525 134.184C91.8906 131.561 102.941 113.952 102.941 113.952C102.879 112.836 102.755 111.56 102.755 110.266C102.746 107.085 103.464 103.77 107.62 102.37C107.62 102.37 114.568 100.545 116.73 107.359C120.319 118.614 111.253 123.851 109.658 125.402Z" fill="#BFA597"/>
  <path d="M105.396 107.368C105.396 107.368 105.218 111.657 102.95 113.961C102.888 112.845 102.764 111.569 102.764 110.275C103.543 109.867 104.589 109.043 105.396 107.368Z" fill="#A25448"/>
  <path d="M84.233 131.764L67.3337 134.326C67.3337 134.326 50.9573 136.204 46.6683 137.25C42.3881 138.304 33.6682 138.455 30.9122 138.384C28.1562 138.313 27.7309 138.234 27.3587 137.179C26.9776 136.124 30.0615 136.807 30.5843 135.681C31.1072 134.556 34.4923 131.251 34.4923 131.251L66.8641 128.84L76.798 128.105L84.233 131.764Z" fill="#18100A"/>
  <g opacity="0.8">
    <path d="M67.3259 134.325C67.3259 134.325 50.9495 136.204 46.6605 137.25C42.3803 138.304 33.6604 138.455 30.9044 138.384C28.1484 138.313 27.7231 138.233 27.3509 137.179C26.9698 136.124 30.0537 136.807 30.5765 135.681C31.0994 134.556 34.4845 131.25 34.4845 131.25L66.8563 128.84C66.8208 131.091 67.3259 134.325 67.3259 134.325Z" fill="#BFA597"/>
  </g>
  <path d="M90.8711 131.632C82.7006 133.36 70.179 132.473 66.0229 132.216C65.5798 132.19 65.2254 132.163 64.995 132.154C62.5403 132.048 51.8176 132.137 50.7985 132.154C49.7794 132.172 33.8461 132.704 33.3676 132.677C32.8891 132.651 24.6743 133.253 25.5782 129.779C25.9415 129.124 28.0949 129.664 28.7507 129.416C29.4064 129.177 31.808 126.12 34.5639 126.004C37.3199 125.889 38.8796 126.421 41.7508 123.426C44.6308 120.43 46.9614 122.407 47.9805 123.603C48.9996 124.808 49.7174 125.579 52.4734 125.1C53.6786 124.888 59.3767 123.736 65.4115 122.495C73.192 120.9 81.5309 119.172 81.5309 119.172C81.5309 119.172 71.8805 111.551 69.3106 110C66.7407 108.449 55.4686 99.1003 54.3344 91.1336C53.2001 83.167 56.0712 71.4784 75.6024 74.4825C75.6024 74.4825 78.5976 81.5453 78.4824 89.698C78.4824 89.698 94.5398 105.321 98.2529 113.359C101.957 121.379 99.9189 129.709 90.8711 131.632Z" fill="#A25448"/>
  <path d="M66.0141 132.208C65.571 132.181 65.2166 132.154 64.9862 132.146C62.5315 132.039 51.8088 132.128 50.7898 132.146C49.7707 132.163 33.8374 132.695 33.3588 132.668C32.8803 132.642 24.6655 133.244 25.5694 129.771C25.9327 129.115 28.0861 129.655 28.7419 129.407C29.3977 129.168 31.7992 126.111 34.5552 125.996C37.3111 125.88 38.8708 126.412 41.742 123.417C44.622 120.422 46.9526 122.398 47.9717 123.594C48.9908 124.799 49.7086 125.57 52.4646 125.092C53.6698 124.879 59.3679 123.727 65.4027 122.486C65.4027 122.486 65.1014 128.955 65.9964 132.146L66.0141 132.208Z" fill="#BFA597"/>
  <path d="M78.1106 89.6714C74.4064 85.1519 67.3171 81.9351 67.2373 81.8997L67.3968 81.5364C67.4677 81.5718 74.6457 84.8241 78.4119 89.4144L78.1106 89.6714Z" fill="#18100A"/>
  <path d="M74.4678 86.1711C74.0956 83.8936 71.2688 80.3844 71.2422 80.349L71.5523 80.1008C71.6675 80.2515 74.4678 83.7253 74.8578 86.1091L74.4678 86.1711Z" fill="#18100A"/>
  <path d="M144.006 104.896C143.616 104.648 142.863 104.258 141.959 104.302C141.764 104.311 141.586 104.178 141.551 103.983C141.507 103.753 141.675 103.531 141.914 103.513C143.04 103.451 143.953 103.912 144.44 104.231C144.644 104.364 144.679 104.639 144.52 104.816C144.387 104.967 144.174 105.002 144.006 104.896Z" fill="#18100A"/>
  <path d="M141.285 107.684C141.548 107.115 141.454 106.513 141.077 106.338C140.699 106.164 140.18 106.484 139.918 107.053C139.655 107.622 139.749 108.224 140.126 108.398C140.504 108.572 141.023 108.253 141.285 107.684Z" fill="#18100A"/>
  <path d="M138.609 113.385C136.518 112.26 136.961 110.425 136.961 110.408L137.333 110.532C137.316 110.603 136.864 112.375 138.654 113.341L138.609 113.385Z" fill="#A25448"/>
  <path d="M127.089 102.937C127.071 102.893 126.557 101.768 127.089 101.023C127.435 100.536 127.975 100.527 128.711 100.749C128.064 100.749 127.63 100.917 127.417 101.236C127.036 101.821 127.08 102.928 127.089 102.937Z" fill="#A25448"/>
  <path d="M128.666 101.768C128.143 101.768 127.186 101.918 127.106 101.059L127.496 101.023C127.558 101.75 128.684 101.741 128.693 101.741L128.684 101.759C128.693 101.768 128.675 101.768 128.666 101.768Z" fill="#A25448"/>
  <path d="M104.279 173.751C103.384 172.768 101.842 172.511 100.079 172.511C99.0067 172.511 98.1028 172.227 98.0674 172.209L98.1914 171.837C98.2003 171.837 99.0776 172.112 100.088 172.112C101.975 172.112 103.358 172.635 104.333 173.707L104.279 173.751Z" fill="#A25448"/>
  <path d="M105.669 173.45C105.651 173.432 103.374 172.174 102.284 172.023C101.132 171.863 99.1735 171.403 99.0938 171.376L99.1824 170.995C99.2001 171.004 101.203 171.474 102.337 171.633C103.525 171.801 105.581 173.334 105.66 173.397V173.45H105.669Z" fill="#A25448"/>
  <path d="M138.52 104.754C138.52 104.754 145.529 102.937 144.652 97.0266L145.866 94.6428C145.866 94.6428 148.4 97.0266 146.619 101.236C144.838 105.445 138.52 104.754 138.52 104.754Z" fill="#18100A"/>
  <path d="M147.108 106.331C147.134 106.296 149.846 102.973 149.279 99.499C148.978 97.6469 147.79 96.0607 145.761 94.8023L145.973 94.4656C148.1 95.786 149.35 97.4608 149.669 99.437C150.262 103.088 147.223 106.19 147.108 106.331Z" fill="#18100A"/>
</svg>