<svg xmlns="http://www.w3.org/2000/svg" width="175" height="174" viewBox="0 0 175 174" fill="none">
  <path d="M96.7224 142.556C96.3255 142.556 95.7965 142.622 95.7303 143.151C95.6642 143.746 94.8044 146.987 93.0188 146.987C91.2331 147.053 88.5215 145.532 87.794 144.805C87.794 144.805 86.4052 145.863 85.81 146.127C85.81 146.127 88.9184 147.119 89.1829 149.236C89.4474 151.352 89.1168 153.997 86.5375 154.659V155.519C86.5375 155.519 89.4474 156.048 89.249 159.685C88.9845 163.323 85.4793 166.233 85.4793 166.233H83.4291C83.4291 166.233 79.9239 162.595 80.3869 158.958C80.8498 155.32 83.0984 155.32 83.0984 155.32V154.659C83.0984 154.659 81.2466 154.328 80.7837 152.08C80.3207 149.831 81.1805 132.437 81.1805 132.437C81.1805 132.437 83.9582 128.866 87.8602 128.469C91.696 128.138 96.1933 129.395 97.3176 135.083C97.3176 135.149 97.3176 135.215 97.3837 135.281C97.3837 135.281 96.9208 138.654 96.6562 139.58C96.3917 140.506 97.3176 141.762 97.3837 141.895C97.3176 142.159 97.1192 142.556 96.7224 142.556Z" fill="#18100A"/>
  <path d="M96.7223 142.556C96.3254 142.556 95.7964 142.622 95.7302 143.151C95.6641 143.746 94.8043 146.987 93.0187 146.987C91.233 147.053 88.5214 145.532 87.7939 144.805C87.7939 144.805 89.2489 143.482 89.4473 142.225C89.4473 142.225 87.1987 140.969 88.2569 138.852C89.3151 136.736 90.7039 138.852 90.7039 138.852C90.7039 138.852 95.9948 137.067 97.3175 135.149C97.3175 135.215 97.3175 135.281 97.3836 135.347C97.3836 135.347 96.9207 138.72 96.6561 139.646C96.3916 140.572 97.3175 141.829 97.3836 141.961C97.3175 142.159 97.1191 142.556 96.7223 142.556Z" fill="#BFA597"/>
  <path d="M96.3908 138.456C96.3247 138.456 96.2586 138.456 96.1924 138.39C95.3327 137.464 94.3407 138.191 94.2745 138.191C94.1422 138.257 94.01 138.257 93.9438 138.125C93.8777 137.993 93.8777 137.86 94.01 137.794C94.4729 137.464 95.6634 137.067 96.5893 138.059C96.6554 138.125 96.6554 138.323 96.5893 138.39C96.5231 138.456 96.457 138.456 96.3908 138.456Z" fill="#18100A"/>
  <path d="M95.4457 140.167C95.5361 139.776 95.4362 139.418 95.2227 139.369C95.0091 139.32 94.7628 139.597 94.6724 139.989C94.582 140.38 94.6819 140.738 94.8954 140.787C95.109 140.836 95.3553 140.559 95.4457 140.167Z" fill="#18100A"/>
  <path d="M95.07 144.54C95.0038 144.54 95.0038 144.54 95.07 144.54C94.2102 144.474 93.0198 143.218 92.8875 143.085C92.8214 143.019 92.8214 142.821 92.8875 142.755C92.9536 142.688 93.152 142.688 93.2182 142.755C93.6811 143.218 94.5409 144.011 95.0038 144.077C95.1361 144.077 95.2684 144.21 95.2022 144.342C95.2684 144.408 95.1361 144.54 95.07 144.54Z" fill="#A25448"/>
  <path d="M132.304 53.802C129.989 54.5957 124.632 56.7781 122.515 58.2331C120.399 59.6881 117.291 61.4076 114.711 61.1431C112.132 60.8785 109.354 59.3574 109.354 59.3574L101.352 60.0849L94.2756 60.6801C94.2756 60.6801 80.1887 63.5901 79.0644 63.7885C77.94 63.9869 66.8954 66.0371 63.1918 64.4499C63.1918 64.4499 65.0436 66.7646 65.3081 66.963C65.5065 67.1614 81.2468 80.2563 81.2468 80.2563L88.5879 86.8699L66.1679 98.5759C66.1679 98.5759 52.7424 81.7774 50.2292 77.7431C47.716 73.7089 38.6554 63.061 44.3431 57.3072C50.0308 51.5534 56.5121 52.4132 56.5121 52.4132L101.021 52.347C101.021 52.347 130.782 52.4132 131.774 52.347C132.7 52.2148 134.618 53.0084 132.304 53.802Z" fill="#18100A"/>
  <path opacity="0.8" d="M132.304 53.802C129.989 54.5957 124.632 56.7781 122.515 58.2331C120.399 59.6881 117.291 61.4076 114.711 61.1431C112.132 60.8785 109.354 59.3574 109.354 59.3574L101.352 60.0849L94.2756 60.6801C94.2756 60.6801 80.1887 63.5901 79.0644 63.7885C77.94 63.9869 66.8954 66.0371 63.1918 64.4499C63.1918 64.4499 65.0436 66.7646 65.3081 66.963C65.5065 67.1614 81.2468 80.2563 81.2468 80.2563L88.5879 86.8699L66.1679 98.5759C66.1679 98.5759 52.7424 81.7774 50.2292 77.7431C47.716 73.7089 38.6554 63.061 44.3431 57.3072C50.0308 51.5534 56.5121 52.4132 56.5121 52.4132L101.021 52.347C101.021 52.347 130.782 52.4132 131.774 52.347C132.7 52.2148 134.618 53.0084 132.304 53.802Z" fill="#A25448"/>
  <path d="M132.304 53.8019C129.989 54.5955 124.632 56.778 122.516 58.233C120.4 59.688 117.291 61.4075 114.712 61.1429C112.133 60.8784 109.355 59.3573 109.355 59.3573L101.352 60.0848L101.088 52.413C101.088 52.413 130.849 52.4792 131.841 52.413C132.701 52.2146 134.619 53.0083 132.304 53.8019Z" fill="#BFA597"/>
  <path d="M112.463 173.706C112.463 173.706 84.2891 174.367 75.4931 173.706C66.6309 173.045 69.4748 148.641 69.4748 148.641V144.077C56.8428 135.81 57.9672 127.94 58.1656 122.782C58.1656 122.385 58.2317 121.988 58.2317 121.591C58.5624 117.028 59.819 113.258 59.819 113.258L60.348 112.001L77.6756 110.877V117.292C77.6756 117.292 81.9083 127.94 82.9003 132.57C83.3632 134.752 82.8342 141.763 82.1067 148.707C81.2469 156.841 80.1887 164.844 80.1887 164.844C80.1887 164.844 98.1776 168.018 100.294 168.547C102.476 169.143 106.048 169.275 106.048 169.275C110.082 169.275 112.463 173.706 112.463 173.706Z" fill="#BFA597"/>
  <path d="M82.0413 148.773L69.4093 148.641V144.077C56.7774 135.81 57.9017 127.94 58.1001 122.782C58.1001 122.385 58.1663 121.988 58.1663 121.591L77.544 117.292C77.544 117.292 81.7767 127.94 82.7687 132.57C83.2978 134.752 82.7687 141.762 82.0413 148.773Z" fill="#A25448"/>
  <path d="M69.6063 144.011C69.4741 144.011 69.3418 143.879 69.3418 143.747L69.4079 136.075C69.4079 135.943 69.5402 135.81 69.6725 135.81C69.8047 135.81 69.937 135.943 69.937 136.075L69.8709 143.747C69.8709 143.945 69.7386 144.011 69.6063 144.011Z" fill="#18100A"/>
  <path d="M74.3681 165.439C74.2358 165.439 74.1697 165.373 74.1035 165.241C74.1035 165.108 74.1696 164.976 74.3019 164.976C74.5003 164.976 78.5346 164.249 79.7912 164.645C79.9234 164.712 79.9896 164.844 79.9234 164.976C79.8573 165.108 79.725 165.175 79.5928 165.108C78.6669 164.778 75.4924 165.241 74.3681 165.439Z" fill="#A25448"/>
  <path d="M111.008 173.574C110.942 173.574 110.876 173.508 110.81 173.441C108.958 170.532 104.792 170.796 104.725 170.796C104.593 170.796 104.461 170.73 104.461 170.598C104.461 170.465 104.527 170.333 104.659 170.333C104.858 170.333 109.157 170.069 111.141 173.177C111.207 173.309 111.207 173.441 111.075 173.508C111.141 173.574 111.075 173.574 111.008 173.574Z" fill="#A25448"/>
  <path d="M109.553 173.64C109.486 173.64 109.42 173.574 109.354 173.508C108.23 171.656 104.13 172.053 104.063 172.053C103.931 172.053 103.799 171.987 103.799 171.854C103.799 171.722 103.865 171.59 103.997 171.59C104.196 171.59 108.428 171.193 109.751 173.309C109.817 173.441 109.817 173.574 109.685 173.64C109.685 173.64 109.619 173.64 109.553 173.64Z" fill="#A25448"/>
  <path d="M80.9155 107.438L77.4764 112.795L59.7521 113.258C58.2309 88.8539 79.3944 82.9678 79.3944 82.9678C79.3944 82.9678 79.3944 56.249 79.3944 52.2148C79.3944 48.1805 78.2701 19.0147 78.2701 19.0147C78.2701 19.0147 77.6087 14.0545 76.3521 9.68953C75.0294 5.39071 71.3258 3.40664 70.0031 2.54688C68.6804 1.62098 66.2995 1.48871 68.4158 0.430537C72.1856 -1.4874 79.8573 3.53891 82.2382 4.9939C84.6191 6.44888 86.9338 6.05207 88.4549 7.90387C89.9761 9.75567 87.6613 13.5254 87.6613 13.5254C87.6613 14.3852 88.1243 16.3031 88.6534 18.684C89.8438 23.4457 91.6956 29.7948 92.5554 31.9111C93.8119 35.0856 93.8119 47.2546 93.8119 47.2546C93.8119 47.2546 93.8119 57.3072 98.5737 81.1161C103.269 104.925 80.9155 107.438 80.9155 107.438Z" fill="#A25448"/>
  <path d="M87.6619 13.5254C87.6619 14.3852 88.1249 16.3031 88.654 18.684L78.2706 19.0147C78.2706 19.0147 77.6093 14.0545 76.3527 9.68953C75.03 5.39071 71.3264 3.40664 70.0037 2.54688C68.681 1.62098 66.3001 1.48871 68.4164 0.430537C72.1862 -1.4874 79.8579 3.53891 82.2388 4.9939C84.6197 6.44888 86.9344 6.05207 88.4555 7.90387C89.9767 9.75567 87.6619 13.5254 87.6619 13.5254Z" fill="#BFA597"/>
</svg>