<svg width="174" height="174" viewBox="0 0 174 174" fill="none" xmlns="http://www.w3.org/2000/svg">
<g clip-path="url(#clip0_2111_4063)">
<path d="M174 102.297L50.4674 173.62L1.15078 145.144L124.683 73.8204L174 102.297Z" fill="#B3AFAE"/>
<path d="M120.686 74.2092L117.763 72.2962L117.778 77.9417L120.702 79.8547L120.686 74.2092Z" fill="#B49578"/>
<path d="M123.75 72.4362L120.842 70.5233L117.763 72.2962L120.686 74.2092L123.75 72.4362Z" fill="#EEE2D2"/>
<path d="M120.686 74.2092L120.702 79.8547L123.766 78.0817L123.75 72.4362L120.686 74.2092Z" fill="#E6D3C2"/>
<path d="M7.68277 136.807L131.309 65.0022L131.293 70.6477L7.66722 142.453L7.68277 136.807Z" fill="#E6D3C2"/>
<path d="M4.6034 135.019L128.229 63.2136L131.309 65.0022L7.68277 136.807L4.6034 135.019Z" fill="#EEE2D2"/>
<path d="M7.68277 136.807L7.66722 142.453L4.58785 140.68L4.6034 135.019L7.68277 136.807Z" fill="#B49578"/>
<path d="M163.144 86.931L128.229 66.7751L128.245 72.4207L163.16 92.5765L163.144 86.931Z" fill="#B49578"/>
<path d="M166.224 85.1581L131.309 65.0022L128.229 66.7751L163.144 86.931L166.224 85.1581Z" fill="#EEE2D2"/>
<path d="M163.144 86.931L163.16 92.5765L166.239 90.8036L166.224 85.1581L163.144 86.931Z" fill="#E6D3C2"/>
<path d="M160.672 97.3045L157.748 95.3915L157.763 101.037L160.687 102.95L160.672 97.3045Z" fill="#B49578"/>
<path d="M163.735 95.5159L160.827 93.603L157.748 95.3915L160.672 97.3045L163.735 95.5159Z" fill="#EEE2D2"/>
<path d="M160.672 97.3045L160.687 102.95L163.751 101.161L163.735 95.5159L160.672 97.3045Z" fill="#E6D3C2"/>
<path d="M50.9339 160.338L48.0101 158.425L48.0256 164.071L50.9495 165.984L50.9339 160.338Z" fill="#B49578"/>
<path d="M53.9978 158.55L51.0895 156.637L48.0101 158.425L50.9339 160.338L53.9978 158.55Z" fill="#EEE2D2"/>
<path d="M50.9339 160.338L50.9495 165.984L54.0133 164.195L53.9978 158.55L50.9339 160.338Z" fill="#E6D3C2"/>
<path d="M132.086 43.7576L132.008 66.5419C132.008 66.6507 131.931 66.7596 131.791 66.8529L131.869 44.0687C132.008 43.9909 132.086 43.8665 132.086 43.7576Z" fill="#E6D3C2"/>
<path d="M129.427 66.5263L129.505 43.7421C129.505 43.8509 129.582 43.9754 129.722 44.0531L129.645 66.8373C129.489 66.7596 129.427 66.6352 129.427 66.5263Z" fill="#B49578"/>
<path d="M131.869 44.0531L131.775 66.8373L131.246 67.1484L131.324 44.3642L131.869 44.0531Z" fill="#E6D3C2"/>
<path d="M130.267 44.3642L130.189 67.1484L129.645 66.8373L129.722 44.0531L130.267 44.3642Z" fill="#B49578"/>
<path d="M131.324 44.3642L131.246 67.1484C130.951 67.3195 130.469 67.3195 130.173 67.1484L130.251 44.3642C130.547 44.5352 131.029 44.5352 131.324 44.3642Z" fill="#B49578"/>
<path d="M131.853 43.4466C132.148 43.6177 132.148 43.8976 131.853 44.0687L131.324 44.3797C131.029 44.5508 130.547 44.5508 130.251 44.3797L129.722 44.0687C129.427 43.8976 129.427 43.6177 129.722 43.4466L130.251 43.1355C130.547 42.9644 131.029 42.9644 131.324 43.1355L131.853 43.4466Z" fill="white"/>
<path d="M127.794 45.4839L127.607 45.3751L129.536 44.2709L129.722 44.3797L127.794 45.4839Z" fill="white"/>
<path d="M127.203 47.288L127.016 47.1791C126.876 47.1014 126.83 46.9148 126.83 46.6815C126.83 46.2149 127.063 45.7017 127.623 45.3751L127.809 45.4839C127.249 45.8105 127.016 46.3238 127.016 46.7903C127.016 47.0236 127.078 47.2102 127.203 47.288Z" fill="white"/>
<path d="M129.722 44.3797V46.0749L127.794 47.1947C127.234 47.5213 127.001 47.2725 127.001 46.8059C127.001 46.3393 127.234 45.8261 127.794 45.4995L129.722 44.3797Z" fill="#E6D3C2"/>
<path d="M128.058 45.7639L129.022 46.3238C128.929 46.2771 128.805 46.2771 128.665 46.3549L127.7 45.795C127.84 45.7172 127.965 45.7017 128.058 45.7639Z" fill="#B49578"/>
<path d="M128.307 47.5991L127.343 47.0392C127.249 46.977 127.187 46.8681 127.187 46.697C127.187 46.3549 127.421 45.9661 127.716 45.795L128.68 46.3549C128.385 46.5259 128.152 46.9148 128.152 47.2569C128.152 47.4124 128.214 47.5368 128.307 47.5991Z" fill="#B49578"/>
<path d="M128.665 46.3704C128.945 46.2149 129.178 46.3393 129.178 46.6815C129.178 47.0081 128.945 47.4124 128.665 47.5835C128.369 47.7546 128.136 47.6146 128.136 47.288C128.136 46.9459 128.369 46.557 128.665 46.386V46.3704Z" fill="#B49578"/>
<path d="M129.256 46.246C129.256 46.246 129.194 46.246 129.162 46.2304C126.985 45.0796 97.2178 32.4199 96.9223 32.2955C96.829 32.2489 96.7823 32.14 96.8135 32.0467C96.8601 31.9534 96.969 31.9067 97.0623 31.9378C98.2909 32.4666 127.141 44.7219 129.333 45.8883C129.427 45.935 129.458 46.0594 129.411 46.1527C129.38 46.2149 129.302 46.2616 129.24 46.2616L129.256 46.246Z" fill="#3D3736"/>
<path d="M93.703 93.8052C93.703 93.8052 93.6252 93.8052 93.5786 93.7585C93.4852 93.6963 93.4697 93.5719 93.5475 93.4941L129.116 46.3082C129.178 46.2304 129.302 46.1993 129.38 46.2771C129.473 46.3393 129.489 46.4637 129.411 46.5415L93.8429 93.7274C93.8429 93.7274 93.7496 93.8052 93.6874 93.8052H93.703Z" fill="#3D3736"/>
<path d="M128.789 46.0594L128.603 45.9505L130.531 44.8463L130.718 44.9552L128.789 46.0594Z" fill="white"/>
<path d="M128.198 47.8634L128.012 47.7546C127.872 47.6768 127.825 47.4902 127.825 47.2569C127.825 46.7903 128.058 46.2771 128.618 45.9505L128.805 46.0594C128.245 46.386 128.012 46.8992 128.012 47.3658C128.012 47.5991 128.074 47.7857 128.198 47.8634Z" fill="white"/>
<path d="M130.718 44.9552V46.6504L128.789 47.7701C128.229 48.0967 127.996 47.8479 127.996 47.3813C127.996 46.9148 128.229 46.4015 128.789 46.0749L130.718 44.9552Z" fill="#E6D3C2"/>
<path d="M42.5512 156.963L7.65167 136.807L7.66722 142.453L42.5668 162.609L42.5512 156.963Z" fill="#B49578"/>
<path d="M45.6306 155.175L10.731 135.019L7.65167 136.807L42.5512 156.963L45.6306 155.175Z" fill="#EEE2D2"/>
<path d="M42.5512 156.963L42.5668 162.609L45.6461 160.82L45.6306 155.175L42.5512 156.963Z" fill="#E6D3C2"/>
<path d="M125.305 97.5222V99.544C125.305 99.684 125.197 99.8395 125.01 99.9484V97.9266C125.212 97.8177 125.305 97.6622 125.305 97.5222Z" fill="#3D3736"/>
<path d="M97.4667 93.1831V91.1613C97.4667 91.3012 97.5755 91.4568 97.7622 91.5656V93.5874C97.56 93.4786 97.4667 93.3231 97.4667 93.1831Z" fill="#6B4F4A"/>
<path d="M125.01 97.9266V99.9328L117.591 104.225V102.203L125.01 97.9266Z" fill="#3D3736"/>
<path d="M116.192 102.203V104.225L97.7622 93.5874V91.5656L116.192 102.203Z" fill="#6B4F4A"/>
<path d="M117.591 102.203V104.225C117.203 104.443 116.581 104.459 116.176 104.225V102.203C116.565 102.421 117.203 102.421 117.591 102.203Z" fill="#6B4F4A"/>
<path d="M125.025 97.1178C125.414 97.3356 125.414 97.7088 125.025 97.9266L117.607 102.203C117.218 102.421 116.596 102.437 116.207 102.203L97.7777 91.5656C97.3889 91.3479 97.3889 90.9746 97.7777 90.7569L105.196 86.48C105.585 86.2623 106.207 86.2623 106.596 86.48L125.025 97.1178Z" fill="#937773"/>
<path d="M123.113 107.165V110.757C123.113 111.022 122.926 111.286 122.584 111.488V107.896C122.941 107.693 123.113 107.429 123.113 107.165Z" fill="#3D3736"/>
<path d="M35.8015 121.411V117.818C35.8015 118.082 35.9881 118.347 36.3303 118.549V122.142C35.9726 121.939 35.8015 121.675 35.8015 121.411Z" fill="#6B4F4A"/>
<path d="M122.599 107.88L122.584 111.473L71.6342 141.069V137.476L122.599 107.88Z" fill="#3D3736"/>
<path d="M69.1458 137.492L69.1302 141.084L36.3147 122.126V118.533L69.1458 137.492Z" fill="#6B4F4A"/>
<path d="M71.6342 137.476V141.069C70.9343 141.473 69.8145 141.473 69.1302 141.069V137.476C69.8301 137.881 70.9499 137.865 71.6342 137.476Z" fill="#6B4F4A"/>
<path d="M122.599 106.434C123.299 106.838 123.284 107.476 122.599 107.88L71.6497 137.476C70.9654 137.881 69.8456 137.881 69.1458 137.476L36.3303 118.533C35.646 118.145 35.646 117.491 36.3303 117.087L87.2799 87.4909C87.9642 87.0865 89.0995 87.0865 89.7838 87.4909L122.599 106.434Z" fill="#937773"/>
<path d="M45.6617 158.736L169.303 86.931L169.288 92.5765L45.6461 164.382L45.6617 158.736Z" fill="#E6D3C2"/>
<path d="M42.5823 156.963L166.224 85.1581L169.303 86.931L45.6617 158.736L42.5823 156.963Z" fill="#EEE2D2"/>
<path d="M45.6617 158.736L45.6461 164.382L42.5668 162.609L42.5823 156.963L45.6617 158.736Z" fill="#B49578"/>
<path d="M95.8026 84.7226L98.8353 86.48C98.6331 86.3556 98.3376 86.3711 98.0265 86.5578L94.9938 84.7848C95.3049 84.5982 95.6004 84.5826 95.8026 84.707V84.7226Z" fill="#6B4F4A"/>
<path d="M96.2069 97.7244L93.1742 95.9669L93.1431 87.1799L96.1758 88.9528L96.2069 97.7244Z" fill="#6B4F4A"/>
<path d="M97.3267 86.9777L94.294 85.2047L94.9938 84.8003L98.0265 86.5578L97.3267 86.9777Z" fill="#6B4F4A"/>
<path d="M96.1758 88.9528L93.1431 87.1954C93.1431 86.48 93.6563 85.578 94.2784 85.2203L97.3111 86.9932C96.6735 87.3509 96.1603 88.253 96.1758 88.9684V88.9528Z" fill="#6B4F4A"/>
<path d="M98.0265 86.5578C98.6642 86.2001 99.1774 86.4956 99.1774 87.211L99.2085 95.9825L96.2069 97.7088L96.1758 88.9373C96.1758 88.2219 96.689 87.3198 97.3111 86.9621L98.011 86.5578H98.0265Z" fill="#3D3736"/>
<path d="M96.0358 33.3531C94.8228 33.3531 93.2831 31.8912 93.2209 31.8289L93.1275 31.7356L93.9207 29.8382H94.0451C94.1385 29.8382 96.238 29.7916 97.1867 30.7714C97.6377 31.238 97.7777 31.8134 97.56 32.3577C97.3422 32.9176 96.7979 33.3064 96.1447 33.3531C96.1136 33.3531 96.0825 33.3531 96.0358 33.3531ZM93.5941 31.6423C93.9363 31.9534 95.1494 32.9643 96.0358 32.9643C96.0669 32.9643 96.0981 32.9643 96.1136 32.9643C96.6113 32.9332 97.0312 32.6377 97.1867 32.2178C97.3422 31.8289 97.2334 31.3935 96.8912 31.0513C96.1914 30.3204 94.6206 30.2426 94.1696 30.2271L93.5786 31.6423H93.5941Z" fill="#3D3736"/>
<path d="M103.392 37.3967C102.179 37.3967 100.639 35.9348 100.577 35.8726L100.484 35.7793L101.277 33.8819H101.401C101.495 33.8819 103.594 33.8352 104.543 34.815C104.994 35.2816 105.134 35.857 104.916 36.4013C104.699 36.9612 104.154 37.35 103.501 37.3967C103.47 37.3967 103.439 37.3967 103.392 37.3967ZM100.935 35.6859C101.277 35.997 102.49 37.0079 103.377 37.0079C103.408 37.0079 103.439 37.0079 103.454 37.0079C103.952 36.9768 104.372 36.6813 104.527 36.2614C104.683 35.8726 104.574 35.4371 104.232 35.0794C103.532 34.3484 101.961 34.2707 101.51 34.2551L100.919 35.6704L100.935 35.6859Z" fill="#3D3736"/>
<path d="M164.855 63.1203L164.777 85.9046C164.777 86.0134 164.7 86.1223 164.56 86.2156L164.637 63.4314C164.777 63.3536 164.855 63.2292 164.855 63.1203Z" fill="#E6D3C2"/>
<path d="M162.196 85.9046L162.273 63.1203C162.273 63.2292 162.351 63.3536 162.491 63.4314L162.413 86.2156C162.258 86.1378 162.196 86.0134 162.196 85.9046Z" fill="#B49578"/>
<path d="M164.637 63.4314L164.56 86.2156L164.015 86.5267L164.093 63.7424L164.637 63.4314Z" fill="#E6D3C2"/>
<path d="M163.035 63.7424L162.958 86.5267L162.413 86.2156L162.491 63.4314L163.035 63.7424Z" fill="#B49578"/>
<path d="M164.093 63.7424L164.015 86.5267C163.72 86.6977 163.238 86.6977 162.942 86.5267L163.02 63.7424C163.315 63.9135 163.798 63.9135 164.093 63.7424Z" fill="#B49578"/>
<path d="M164.622 62.8093C164.917 62.9804 164.917 63.2603 164.622 63.4314L164.093 63.7424C163.798 63.9135 163.315 63.9135 163.02 63.7424L162.491 63.4314C162.196 63.2603 162.196 62.9804 162.491 62.8093L163.02 62.4982C163.315 62.3272 163.798 62.3272 164.093 62.4982L164.622 62.8093Z" fill="white"/>
<path d="M160.563 64.8622L160.376 64.7533L162.305 63.6336L162.491 63.7424L160.563 64.8622Z" fill="white"/>
<path d="M159.972 66.6663L159.785 66.5574C159.645 66.4796 159.598 66.293 159.598 66.0597C159.598 65.5932 159.832 65.0799 160.392 64.7533L160.578 64.8622C160.018 65.1888 159.785 65.702 159.785 66.1686C159.785 66.4019 159.847 66.5885 159.972 66.6663Z" fill="white"/>
<path d="M162.491 63.7424V65.4376L160.563 66.5574C160.003 66.884 159.77 66.6352 159.77 66.1686C159.77 65.702 160.003 65.1888 160.563 64.8622L162.491 63.7424Z" fill="#E6D3C2"/>
<path d="M160.827 65.1421L161.791 65.702C161.698 65.6554 161.574 65.6554 161.434 65.7331L160.469 65.1732C160.609 65.0955 160.734 65.0799 160.827 65.1421Z" fill="#B49578"/>
<path d="M161.076 66.9773L160.112 66.4174C160.018 66.3552 159.956 66.2464 159.956 66.0753C159.956 65.7331 160.189 65.3443 160.485 65.1732L161.449 65.7331C161.154 65.9042 160.92 66.293 160.92 66.6352C160.92 66.7907 160.983 66.9151 161.076 66.9773Z" fill="#B49578"/>
<path d="M161.434 65.7331C161.714 65.5776 161.947 65.702 161.947 66.0442C161.947 66.3708 161.714 66.7751 161.434 66.9462C161.138 67.1173 160.905 66.9773 160.905 66.6507C160.905 66.3086 161.138 65.9198 161.434 65.7487V65.7331Z" fill="#B49578"/>
<path d="M122.584 109.046C122.584 109.046 122.49 109.031 122.444 109C122.366 108.922 122.366 108.798 122.444 108.72L162.305 66.0597C162.305 66.0597 162.102 65.7487 161.278 65.2666C159.878 64.4578 104.699 36.7746 104.139 36.4947C104.045 36.448 103.999 36.3236 104.045 36.2303C104.092 36.137 104.216 36.0903 104.31 36.137C106.58 37.2723 160.065 64.1001 161.465 64.9244C162.538 65.5621 162.678 65.8731 162.693 66.0597C162.693 66.1842 162.647 66.2775 162.584 66.3086L122.724 108.969C122.724 108.969 122.63 109.031 122.584 109.031V109.046Z" fill="#3D3736"/>
<path d="M161.558 65.4376L161.371 65.3288L163.3 64.209L163.487 64.3179L161.558 65.4376Z" fill="white"/>
<path d="M160.967 67.2417L160.78 67.1328C160.64 67.0551 160.594 66.8685 160.594 66.6352C160.594 66.1686 160.827 65.6554 161.387 65.3288L161.574 65.4376C161.014 65.7642 160.78 66.2775 160.78 66.744C160.78 66.9773 160.843 67.164 160.967 67.2417Z" fill="white"/>
<path d="M163.487 64.3179V66.0131L161.558 67.1328C160.998 67.4594 160.765 67.2106 160.765 66.744C160.765 66.2775 160.998 65.7642 161.558 65.4376L163.487 64.3334V64.3179Z" fill="#E6D3C2"/>
<path d="M19.1138 129.311L18.3984 128.891L0.279842 107.025L0.979699 107.445L19.1138 129.311Z" fill="#B49578"/>
<path d="M3.06372 102.857C2.73712 102.67 2.2861 102.717 1.83508 102.981C1.52403 103.168 1.19743 103.448 0.901937 103.836L0.777518 104.008C-0.0156529 105.05 -0.233386 106.403 0.279842 107.025L0.979699 107.429C0.466471 106.807 0.699756 105.454 1.47738 104.412L1.60179 104.241C1.89729 103.868 2.20834 103.572 2.53494 103.385C2.98596 103.121 3.43698 103.074 3.76358 103.261L3.06372 102.857Z" fill="#EEE2D2"/>
<path d="M2.53494 103.385C3.09482 103.059 3.65471 103.059 3.99686 103.463L23.3907 126.838L19.0982 129.311L0.979699 107.445C0.466471 106.823 0.699756 105.469 1.47738 104.427L1.60179 104.256C1.89729 103.883 2.20834 103.588 2.53494 103.401V103.385Z" fill="#E6D3C2"/>
<path d="M10.56 134.397L10.1712 134.179V118.844L10.56 119.078V134.397Z" fill="#B49578"/>
<path d="M13.0328 132.982L10.56 134.397V119.078L13.0328 117.663V132.982Z" fill="#E6D3C2"/>
<path d="M42.5979 127.181L3.49918 104.381C3.297 104.272 3.01706 104.287 2.72157 104.459L41.8202 127.258C42.1313 127.087 42.4112 127.056 42.5979 127.181Z" fill="#EEE2D2"/>
<path d="M1.94395 107.056L41.0426 129.856C40.8404 129.747 40.716 129.498 40.716 129.156C40.716 128.456 41.2293 127.6 41.8047 127.258L2.72157 104.474C2.13058 104.816 1.6329 105.672 1.6329 106.371C1.6329 106.714 1.75732 106.962 1.9595 107.071L1.94395 107.056Z" fill="#B49578"/>
<path d="M41.8202 127.258C41.2293 127.6 40.7316 128.456 40.7316 129.156C40.7316 129.856 41.2448 130.12 41.8358 129.778C42.4423 129.42 42.9245 128.58 42.9245 127.88C42.9245 127.181 42.4423 126.901 41.8202 127.258Z" fill="#CE9F5B"/>
<path d="M57.0927 151.24L56.3928 150.836L38.2588 128.954L38.9586 129.373L57.0927 151.24Z" fill="#B49578"/>
<path d="M41.0582 124.786C40.7316 124.599 40.2806 124.646 39.8295 124.91C39.5185 125.097 39.1919 125.376 38.8964 125.765L38.772 125.936C37.9788 126.978 37.7611 128.331 38.2743 128.954L38.9742 129.358C38.4609 128.736 38.6942 127.383 39.4718 126.341L39.5963 126.17C39.8918 125.796 40.2028 125.501 40.5294 125.314C40.9804 125.05 41.4314 125.003 41.758 125.19L41.0582 124.786Z" fill="#EEE2D2"/>
<path d="M40.5294 125.314C41.0893 124.988 41.6492 124.988 41.9913 125.392L61.3851 148.767L57.0927 151.24L38.9586 129.373C38.4454 128.751 38.6787 127.398 39.4563 126.356L39.5807 126.185C39.8762 125.812 40.1872 125.516 40.5138 125.33L40.5294 125.314Z" fill="#E6D3C2"/>
<path d="M48.5544 156.341L48.1501 156.108V140.789L48.5544 141.007V156.341Z" fill="#B49578"/>
<path d="M51.0117 154.91L48.5544 156.341V141.007L51.0117 139.591V154.91Z" fill="#E6D3C2"/>
<path d="M93.5319 29.6205L79.0371 21.9376C79.0371 21.9376 79.3948 24.3483 80.499 25.6235C81.4944 26.7744 90.5459 31.0824 92.3499 31.7823L93.1431 32.0778C93.1431 32.0778 94.3095 32.0311 94.4028 30.9736C94.4806 29.916 93.5164 29.6361 93.5164 29.6361L93.5319 29.6205Z" fill="#3D3736"/>
<path d="M81.23 40.6316C82.8008 35.1416 84.2938 30.818 84.5426 29.2628C85.0248 26.4789 85.678 22.7308 85.8957 21.8443C86.269 20.2891 86.3778 19.8225 86.3778 19.8225C86.3778 19.8225 87.1399 18.1429 87.171 17.0853C87.2176 16.0277 86.2689 15.7789 85.7246 16.5099C85.3825 16.9764 85.2425 17.6141 85.1803 18.034C85.2269 17.4586 85.2425 16.4476 85.1647 16.2144C85.0403 15.8722 84.4804 15.6078 84.0294 16.0899C84.0294 16.0899 83.8117 15.5767 83.2673 15.5923C82.7541 15.6078 82.723 16.1055 82.723 16.1988C82.723 16.1988 82.4431 15.8411 81.9765 15.9344C81.5566 16.0277 81.4944 17.4897 81.4944 17.7074C81.4944 17.6141 81.4788 16.8054 80.9189 16.9142C80.3124 17.0075 80.359 18.174 80.359 18.174C80.359 18.174 80.1258 18.4072 79.8769 18.8894C79.8769 18.8894 81.0434 21.8132 80.9189 22.4198C80.5923 23.8195 78.1817 31.5646 78.1817 31.5646C78.4461 31.8445 78.8038 32.0467 79.2393 32.1244C79.2393 32.1244 77.6996 35.4371 75.8644 38.3298C73.9981 41.1915 71.9608 46.1527 71.9608 48.0656C71.9608 49.9786 72.0852 53.1046 71.9608 55.5152C71.8208 57.9569 71.0587 63.307 69.5968 67.7083C69.4413 68.1749 69.3013 68.657 69.1458 69.1391C69.799 69.8701 70.9654 70.8343 73.0183 71.472C75.5067 72.2496 78.1506 71.8452 79.5814 71.5186C79.7992 69.4346 79.9702 67.5372 80.1258 65.3132C80.4835 60.1498 79.0682 53.2446 79.0682 53.2446C79.0682 53.2446 79.7525 45.7017 81.1833 40.6471L81.23 40.6316Z" fill="#BFA597"/>
<path d="M78.555 71.7052C78.9593 71.643 79.3326 71.5653 79.6436 71.5031C79.8614 69.419 80.0324 67.5217 80.188 65.2977C80.3124 63.618 80.2346 61.7517 80.0791 60.0099C80.0791 60.0721 78.6638 68.5015 78.5705 71.7208L78.555 71.7052Z" fill="#9E877B"/>
<path d="M86.0979 19.7448C86.0979 19.7448 84.8848 22.0154 83.6873 23.9905C82.5053 25.9968 82.583 28.3919 82.0076 29.4028C81.4322 30.4137 79.6436 32.3422 78.2128 31.549C78.2128 31.549 78.1973 31.549 78.1973 31.5335C77.5441 30.8336 77.4196 29.5739 77.6996 28.2519C78.104 26.3856 79.0526 21.7355 79.3792 20.3357C79.5037 19.7292 79.7214 19.2626 79.8925 18.8894H79.908C80.95 17.754 81.6343 18.3295 81.6343 18.3295C82.1476 17.7696 82.5519 18.2362 82.5519 18.2362C83.2518 17.894 83.5939 18.5161 83.5939 18.5161C84.3871 18.2362 84.6359 18.9827 84.6359 18.9827C86.1134 18.5006 86.1134 19.7603 86.1134 19.7603L86.0979 19.7448Z" fill="#9E877B"/>
<path d="M94.014 29.9627C94.014 29.9627 84.9625 26.6189 81.8832 24.8304C79.7058 23.5706 79.0371 21.9376 79.0371 21.9376C79.0371 21.9376 77.9329 24.2083 78.1973 25.9501C78.4772 27.8164 87.7775 30.9269 93.6563 32.4044C93.6563 32.4044 94.8228 32.3577 94.9161 31.3002C94.9938 30.2426 94.0296 29.9627 94.0296 29.9627H94.014Z" fill="#6B4F4A"/>
<path d="M100.608 33.4308L86.1134 25.748C86.1134 25.748 86.4711 28.1586 87.5753 29.4339C88.5707 30.5848 97.6222 34.8928 99.4263 35.5926L100.219 35.8881C100.219 35.8881 101.386 35.8415 101.479 34.7839C101.572 33.7263 100.593 33.4464 100.593 33.4464L100.608 33.4308Z" fill="#3D3736"/>
<path d="M54.9931 114.163C54.9931 114.163 54.4177 117.103 53.469 118.285C52.5203 119.467 51.3694 120.991 50.9495 121.535C50.5296 122.079 50.063 121.177 50.5296 120.291C51.0117 119.404 52.0848 118.378 51.7116 117.989C51.3383 117.6 49.8608 118.44 49.2543 118.876C48.6477 119.327 46.9525 121.753 46.2838 122.002C45.615 122.25 45.8639 121.333 46.2838 120.695C46.7037 120.058 48.5544 117.756 48.5544 117.756C48.5544 117.756 47.2791 118.487 46.486 119.327C45.6928 120.151 45.3351 121.426 44.6663 121.784C43.9976 122.142 44.1998 121.146 44.4175 120.742C44.6197 120.338 45.615 118.627 45.615 118.627C45.615 118.627 44.6041 120.073 44.2775 120.415C43.9354 120.773 43.3444 120.524 43.6554 119.933C43.9665 119.342 45.5995 117.118 45.5995 117.118C45.5995 117.118 44.3397 118.285 43.9198 118.518C43.4999 118.736 43.4688 118.114 44.2464 117.274C45.0085 116.418 46.5793 115.563 47.7457 114.77C48.9121 113.992 52.5047 112.001 54.1222 110.944C55.7552 109.886 62.1161 104.287 63.7336 103.199C65.351 102.11 75.8177 97.1956 78.4305 95.827C81.0434 94.4584 84.1072 93.323 85.087 94.0229C86.0668 94.7228 85.1647 98.1287 82.863 99.6218C80.5612 101.115 68.3837 107.538 68.3837 107.538L55.0398 114.163H54.9931Z" fill="#BFA597"/>
<path d="M71.152 124.272C71.152 124.272 68.6481 125.268 67.4506 125.641C66.253 126.03 66.0198 126.45 66.6107 126.714C67.2017 126.978 68.6481 126.45 69.7679 126.216C71.0432 125.952 72.8628 124.428 71.152 124.272Z" fill="#BFA597"/>
<path d="M89.9393 95.096C89.9393 95.096 91.3546 91.1457 94.154 88.2685C96.9534 85.3913 101.712 82.4364 105.305 82.483C108.898 82.5141 109.691 85.3913 109.691 85.3913L108.307 85.1736L93.0187 97.3045C93.0187 97.3045 90.0015 96.6824 89.9393 95.096Z" fill="#18100A"/>
<path d="M93.0187 95.8581L95.7403 93.2142C95.7403 93.2142 95.9114 90.8969 96.3313 89.886C96.7512 88.8751 98.0732 87.522 98.6486 86.9777C99.2396 86.4178 100.391 85.438 101.915 84.8781C103.454 84.3182 105.896 83.7272 107.716 84.8159C109.535 85.889 111.713 87.9886 111.137 93.6185C110.562 99.2485 102.459 99.4662 102.459 99.4662C102.459 99.4662 99.9239 100.99 97.9177 102.172C95.9114 103.354 93.8585 102.779 93.0031 100.322C92.1477 97.8488 93.0031 95.8581 93.0031 95.8581H93.0187Z" fill="#BFA597"/>
<path d="M96.1136 93.2142C96.1136 93.2142 97.4667 92.872 99.1308 94.8938C100.795 96.9156 101.572 97.771 101.572 97.771C101.572 97.771 100.779 94.5517 100.002 93.2142C99.2241 91.8767 97.4978 90.0726 96.7512 90.4614C96.4402 90.6169 96.0203 91.1924 96.1136 93.2142Z" fill="#9E877B"/>
<path d="M105.196 91.2079C108.882 87.4753 108.276 84.9248 108.276 84.9248C108.276 84.9248 108.151 83.8828 109.395 84.4737C110.64 85.0647 112.475 87.8486 112.273 90.4148C112.273 90.4148 112.895 91.8767 112.273 94.2873C112.273 94.2873 112.133 96.9001 110.562 98.2843C108.991 99.6529 99.2396 103.79 99.2396 103.79C99.2396 103.79 97.3734 100.368 100.546 97.5066C102.646 95.6248 102.941 93.4941 105.196 91.2235V91.2079Z" fill="#18100A"/>
<path d="M73.065 71.4564C71.0121 70.8032 69.8456 69.8545 69.1924 69.1236C67.9016 73.1983 66.7818 77.7396 66.4397 81.7365C66.0664 86.2156 66.704 89.5905 68.7414 92.0789C70.7788 94.5828 74.2936 95.3449 74.2936 95.3449C74.2936 95.3449 77.0775 90.0259 78.2595 82.0165C78.9282 77.3974 79.3481 74.3025 79.6436 71.5342C78.1973 71.8763 75.5689 72.2807 73.0805 71.4875L73.065 71.4564Z" fill="#86463C"/>
<path d="M73.065 86.7911C73.065 86.7911 73.3138 84.4893 74.3403 83.214C75.3667 81.9387 77.2797 80.6012 78.555 79.9014C78.555 79.9014 78.4461 80.7878 78.2439 82.0009C78.0573 83.214 77.1553 83.7894 75.9422 84.8159C74.7291 85.8424 73.065 86.8066 73.065 86.8066V86.7911Z" fill="#86463C"/>
<path d="M74.4802 93.2608C74.4802 93.2608 75.5067 95.6404 75.4445 98.7664C75.3823 101.892 77.6218 105.469 82.1165 107.382C82.1165 107.382 84.6359 110.057 89.4883 111.333C94.3406 112.608 100.142 108.969 101.23 107.382C102.319 105.781 101.837 104.381 100.764 103.23C99.6907 102.079 98.1043 99.9017 95.7092 97.6777C93.3142 95.4537 89.5505 93.9451 88.1352 93.8207C86.72 93.6963 73.4382 86.4645 74.4958 93.2608H74.4802Z" fill="#BFA597"/>
<path d="M99.5351 104.396L96.7979 104.941C96.7979 104.941 93.9985 107.678 94.3873 108.953C94.7761 110.228 99.5818 108.284 99.5351 104.412V104.396Z" fill="#9E877B"/>
<path d="M77.2019 103.728C77.2019 103.728 83.9361 108.082 87.6998 108.782C91.4479 109.482 93.3608 106.543 93.3608 104.63C93.3608 104.194 93.3453 103.743 93.3142 103.292C93.2053 101.395 92.6454 99.5751 91.7123 97.9266C91.1991 97.0245 90.6081 96.0292 90.1104 95.3138C88.8973 93.5874 88.1197 93.8052 88.1197 93.8052C88.1197 93.8052 90.2193 92.8876 91.7123 95.0494C91.7123 95.0494 97.8088 95.7181 97.9488 99.9639C98.0421 102.67 97.0623 104.272 96.4558 105.672C95.8648 107.071 93.5475 110.975 91.1213 111.582C91.1213 111.582 88.7884 111.675 86.1912 110.4C83.5939 109.124 81.8676 107.507 81.8676 107.507C81.8676 107.507 78.3217 105.905 77.1864 103.712L77.2019 103.728Z" fill="#A25448"/>
<path d="M86.9066 33.5086C87.5598 32.3266 88.6329 30.0249 89.8149 27.7231C90.9969 25.4214 90.6703 24.1772 90.6703 24.1772C90.577 23.4773 89.9393 22.9952 89.9393 22.9952C90.1571 22.2331 89.4883 21.8288 89.4883 21.8288C89.2083 20.6312 88.4618 20.7246 88.4618 20.7246C88.3374 20.258 87.1865 20.1958 87.1865 20.1958C87.1865 20.1958 86.2845 21.3777 86.0823 23.2596C85.8957 25.1414 86.5644 27.3499 85.5069 29.2628C84.4493 31.1757 83.5317 31.9689 83.5006 33.8197C83.5006 34.7061 83.8583 35.2349 84.356 35.4527C85.6158 35.1416 86.3156 34.5817 86.9066 33.5242V33.5086Z" fill="#9E877B"/>
<path d="M78.7416 72.3429C78.6638 72.7317 78.5861 73.1205 78.5083 73.4627C77.7462 76.6976 77.6529 82.1409 76.7664 83.4162C75.88 84.6915 72.6451 85.5624 72.1785 89.1861C71.7897 92.2188 72.3651 93.6963 73.0339 94.505C73.0339 94.505 74.107 96.1069 77.2486 97.1178C80.3901 98.1443 84.7293 97.7866 86.9377 95.827C89.1461 93.8829 89.6438 88.7351 90.1726 83.8361C90.5147 80.6945 90.3437 75.9355 90.0171 72.0163C88.8662 73.105 86.7044 73.8981 83.7028 73.7893C80.9034 73.6804 79.457 72.9028 78.7571 72.3273L78.7416 72.3429Z" fill="#A25448"/>
<path d="M91.4168 22.9641C91.4168 22.9641 91.479 21.9376 91.3857 21.5333C91.2924 21.1134 90.9347 20.8334 90.9347 20.8334C90.9347 20.8334 90.9658 20.2891 90.7791 19.8692C90.5925 19.4493 90.0482 19.5426 90.0482 19.5426C90.0482 19.5426 90.1415 18.9049 89.7993 18.7183C89.4416 18.5317 89.1306 18.8738 89.1306 18.8738C89.1306 18.8738 89.3172 18.0495 89.1461 17.7385C88.9284 17.3497 88.1974 17.2408 87.6998 18.1273C87.2176 19.0138 87.1865 20.1647 87.1865 20.1647C87.1865 20.1647 88.3374 20.2269 88.4618 20.6934C88.4618 20.6934 89.2083 20.6001 89.4883 21.7977C89.4883 21.7977 90.1571 22.202 89.9393 22.9641C89.9393 22.9641 90.577 23.4462 90.6703 24.1461C90.6703 24.1461 90.9969 25.3903 89.8149 27.692C88.6329 29.9938 87.5598 32.2955 86.9066 33.4775C86.3156 34.5506 85.6158 35.0949 84.356 35.406C84.8848 35.6393 85.5691 35.5304 86.1134 35.1572C86.1134 35.1572 85.6935 38.4076 84.7759 41.0204C83.8583 43.6332 82.2564 48.7033 82.2098 52.1248C82.1631 55.5308 81.9454 57.4282 81.9454 57.4282C81.9454 57.4282 80.2035 60.8341 79.9547 62.9804C79.7214 64.8777 79.3481 69.1236 78.7416 72.3273C79.4415 72.9028 80.9034 73.6804 83.6873 73.7893C86.6889 73.8981 88.8506 73.105 90.0015 72.0163C89.8304 69.8545 89.5972 67.9416 89.3794 66.7285C88.7884 63.3225 88.353 60.6008 89.1306 58.2213C89.8927 55.8418 90.4059 51.8449 90.157 47.9257C89.9082 44.0065 89.4727 38.7342 90.157 33.8041C90.8413 28.874 91.0124 25.8879 91.0124 25.8879C91.0124 25.8879 91.5879 24.8926 91.6967 24.2238C91.8056 23.5551 91.4168 22.9485 91.4168 22.9485V22.9641Z" fill="#BFA597"/>
<path d="M84.1227 116.372C87.1865 113.821 94.745 108.44 97.0467 106.745C99.3485 105.05 99.5196 103.743 101.09 103.665C102.661 103.588 104.574 106.9 103.563 108.767C102.537 110.633 99.3485 112.064 97.1712 113.323C94.9938 114.583 88.5551 118.114 88.5551 118.114C88.5551 118.114 85.9112 120.711 83.3606 122.064C80.8101 123.432 74.558 126.154 74.558 126.154C74.558 126.154 74.7291 127.523 73.6249 128.705C72.5206 129.902 72.2251 130.4 72.1318 130.571C72.0385 130.742 70.6544 133.853 70.2189 134.117C69.7834 134.381 69.5657 133.977 69.8767 133.324C70.1878 132.671 70.9809 130.011 70.9809 130.011L69.1769 132.048C69.1769 132.048 68.2437 133.946 67.8549 134.381C67.4661 134.817 66.844 134.381 67.4039 133.308C67.9638 132.22 69.1613 129.591 69.1613 129.591L67.295 131.411C67.295 131.411 66.0664 133.65 65.5376 133.93C65.0088 134.226 64.8378 133.386 65.3043 132.639C65.7554 131.893 66.0975 131.146 66.5485 130.462C66.9995 129.778 67.7927 128.845 67.7927 128.845C67.7927 128.845 66.2997 129.638 65.8176 130.12C65.3354 130.602 65.0555 131.644 64.449 132.22C63.8424 132.795 63.6558 131.831 63.9979 131.302C64.3401 130.773 64.7444 129.84 65.1955 129.171C65.6465 128.503 67.3572 126.792 68.3837 125.952C69.4102 125.112 70.9965 124.319 73.3605 123.261C75.7089 122.204 79.2393 120.011 80.2502 119.124C81.2611 118.238 84.1383 116.387 84.1383 116.387L84.1227 116.372Z" fill="#BFA597"/>
<path d="M75.7555 97.1023C76.2999 97.4755 78.0417 98.4553 82.583 98.2065C87.1243 97.9577 89.0839 94.0851 89.0839 94.0851L89.4727 89.3883C89.4727 89.3883 86.6267 93.6652 81.7277 94.5206C76.8287 95.376 74.7291 95.9669 74.7291 95.9669C74.7291 95.9669 75.2112 96.7135 75.7555 97.0867V97.1023Z" fill="#A25448"/>
<path d="M101.09 33.773C101.09 33.773 92.0389 30.4292 88.9595 28.6407C86.7822 27.381 86.1134 25.748 86.1134 25.748C86.1134 25.748 85.0092 28.0186 85.2736 29.7605C85.5535 31.6268 94.8539 34.7372 100.733 36.2147C100.733 36.2147 101.837 36.3702 101.992 35.1105C102.117 34.0529 101.106 33.773 101.106 33.773H101.09Z" fill="#6B4F4A"/>
<path d="M107.996 92.0011L111.028 93.7585C110.826 93.6341 110.531 93.6497 110.22 93.8363L107.187 92.0789C107.498 91.8922 107.793 91.8767 107.996 92.0011Z" fill="#6B4F4A"/>
<path d="M108.4 105.018L105.352 103.245L105.336 94.4739L108.369 96.2313L108.4 105.018Z" fill="#6B4F4A"/>
<path d="M109.504 94.2562L106.471 92.4832L107.187 92.0789L110.22 93.8518L109.504 94.2562Z" fill="#6B4F4A"/>
<path d="M108.369 96.2313L105.336 94.4739C105.336 93.7585 105.849 92.8565 106.471 92.4988L109.504 94.2717C108.867 94.6294 108.353 95.5315 108.369 96.2469V96.2313Z" fill="#6B4F4A"/>
<path d="M110.22 93.8518C110.857 93.4941 111.37 93.7896 111.37 94.505L111.402 103.277L108.4 105.003L108.369 96.2313C108.369 95.5159 108.882 94.6139 109.504 94.2562L110.204 93.8518H110.22Z" fill="#3D3736"/>
</g>
<defs>
<clipPath id="clip0_2111_4063">
<rect width="174" height="174" fill="white"/>
</clipPath>
</defs>
</svg>
