<svg xmlns="http://www.w3.org/2000/svg" width="143" height="22" viewBox="0 0 143 22" fill="none">
  <path d="M13.0736 8.32321H11.8068C11.8068 8.19063 11.8141 8.03595 11.8362 7.84445L13.3535 7.42462C13.7291 6.99743 14.0753 6.57023 14.4068 6.1504C14.7382 5.73057 15.0328 5.31074 15.3053 4.89828C15.5779 4.48581 15.8356 4.10281 16.0787 3.74927L16.5869 3.80819C16.5648 4.08808 16.5501 4.43425 16.5427 4.84672C16.5354 5.25918 16.528 5.70111 16.528 6.17986V7.65295L19.5331 7.57193L19.7025 7.7708C19.7025 7.88128 19.6804 8.02859 19.6289 8.20536C19.5847 8.38213 19.5331 8.50734 19.4742 8.581L16.4985 8.21272C16.4985 8.3453 16.4985 8.60309 16.5133 8.98609C16.5206 9.3691 16.528 9.81102 16.528 10.3045C16.528 10.798 16.528 11.2915 16.5427 11.7776C16.5501 12.2637 16.5575 12.7056 16.5575 13.096V16.9408C16.5575 17.7436 16.6459 18.3623 16.8226 18.7969C16.9994 19.2314 17.3308 19.445 17.817 19.445C18.1558 19.445 18.4799 19.4229 18.7818 19.3714C19.0912 19.3272 19.349 19.283 19.5552 19.2462L19.6657 19.6144C19.2753 20.0637 18.7303 20.4541 18.0379 20.7929C17.3456 21.1317 16.6532 21.3011 15.9609 21.3011C15.2096 21.3011 14.6204 21.1391 14.1932 20.8076C13.766 20.4762 13.4566 20.0343 13.2651 19.4598C13.081 18.8926 12.9852 18.2224 12.9852 17.4563V11.785C12.9852 11.4314 12.9852 11.0337 13 10.6065C13.0073 10.1793 13.0221 9.7521 13.0442 9.33964C13.0662 8.92717 13.0736 8.58836 13.0736 8.33057V8.32321Z" fill="#E4E0DF"/>
  <path d="M24.8658 7.17407L25.3151 7.233C25.293 7.64546 25.2783 8.12421 25.2562 8.66189C25.2341 9.20693 25.2267 9.63413 25.2267 9.95084V12.1089C25.2267 12.8013 25.2267 13.5231 25.2414 14.267C25.2488 15.0183 25.2635 15.718 25.2856 16.3735C25.3225 17.1984 25.536 17.8687 25.9191 18.3843C26.3021 18.8999 26.8618 19.1576 27.591 19.1576C28.0035 19.1576 28.4454 19.0987 28.9094 18.9882C29.3735 18.8778 29.7491 18.7525 30.029 18.62V11.0704C30.029 10.3191 30.0142 9.76671 29.9848 9.41317C29.9553 9.05963 29.9259 8.81657 29.889 8.69872C29.8522 8.58087 29.7933 8.49985 29.7196 8.46302L28.5412 8.24206C28.5412 8.10948 28.5706 7.95481 28.6222 7.76331C28.9389 7.68965 29.3808 7.60127 29.9406 7.51288C30.5004 7.41713 31.0749 7.34348 31.6641 7.27719C32.2533 7.2109 32.7542 7.18144 33.1667 7.18144L33.6749 7.26246C33.638 7.40977 33.6159 7.616 33.6012 7.86643C33.5865 8.11685 33.5865 8.38937 33.5865 8.68399C33.5865 8.9786 33.5865 9.25849 33.5717 9.52365C33.5644 9.79617 33.557 10.0319 33.557 10.2381V17.8466C33.557 18.3695 33.557 18.7673 33.5717 19.0251C33.5791 19.2902 33.6086 19.467 33.6528 19.5554C33.697 19.6511 33.7706 19.7027 33.8664 19.7248L35.1553 19.9752C35.1553 20.1078 35.1332 20.2477 35.0964 20.395C34.9123 20.454 34.6029 20.5423 34.1684 20.6749C33.7338 20.8075 33.2256 20.9253 32.6363 21.0285C32.0471 21.1316 31.3989 21.1979 30.6845 21.2421L30.2647 21.1831C30.0953 20.3435 30.0142 19.6659 30.0142 19.165C29.6239 19.5775 29.1746 19.9384 28.6811 20.2625C28.1876 20.5792 27.6794 20.837 27.1638 21.0211C26.6482 21.2052 26.1474 21.301 25.6613 21.301C24.8216 21.301 24.0998 21.0874 23.5032 20.6676C22.9066 20.2477 22.4499 19.6438 22.1406 18.8557C21.8312 18.0676 21.6766 17.1321 21.6766 16.0494V11.1367C21.6766 10.3854 21.6692 9.833 21.6471 9.47946C21.625 9.12591 21.5955 8.88285 21.5514 8.76501C21.5072 8.64716 21.4409 8.55141 21.3672 8.49985L20.3582 8.24943C20.3582 8.11685 20.3729 7.96954 20.4171 7.80014C20.7191 7.72648 21.1315 7.6381 21.6692 7.53498C22.1995 7.43186 22.7666 7.35084 23.3559 7.28455C23.9451 7.21827 24.446 7.1888 24.8584 7.1888L24.8658 7.17407Z" fill="#E4E0DF"/>
  <path d="M48.7004 1.21537L49.2086 1.2743C49.1718 1.89299 49.1423 2.46013 49.1276 2.99044C49.1055 3.51339 49.0908 4.08789 49.0687 4.69923C49.0466 5.31792 49.0392 5.94399 49.0392 6.57741V17.2426C49.0392 17.9717 49.0466 18.5094 49.0687 18.8409C49.0834 19.1797 49.1276 19.4006 49.1791 19.5038C49.2381 19.6069 49.3117 19.6879 49.4075 19.7395L50.7553 19.9678C50.7553 20.1004 50.7332 20.2329 50.6964 20.3581C49.8347 20.6233 49.0613 20.8295 48.3689 20.9768C47.6766 21.1242 46.9474 21.2125 46.1814 21.2273L45.791 21.1683C45.6437 20.3434 45.5553 19.7026 45.5406 19.2312V19.0913C45.0324 19.7468 44.4432 20.2771 43.7729 20.6749C43.1027 21.08 42.3661 21.2788 41.5854 21.2788C40.6131 21.2788 39.7366 20.9989 38.9633 20.4539C38.1899 19.9015 37.5712 19.1429 37.1219 18.178C36.6726 17.2131 36.4517 16.1304 36.4517 14.9372C36.4517 13.744 36.6432 12.7202 37.0262 11.7627C37.4092 10.8052 37.9321 9.98761 38.5876 9.29526C39.2432 8.60291 39.9797 8.0726 40.8046 7.71169C41.6296 7.34342 42.4766 7.16665 43.3604 7.16665C43.6035 7.16665 43.8613 7.18138 44.1338 7.21084C44.4063 7.2403 44.6715 7.2624 44.9366 7.28449C45.2018 7.30659 45.3933 7.32869 45.5259 7.36552V5.36948C45.5259 4.67713 45.5185 4.16891 45.4964 3.83747C45.4743 3.51339 45.4449 3.27033 45.4007 3.12302C45.3565 2.97571 45.2902 2.85787 45.2165 2.78421L43.8392 2.53379C43.8392 2.40121 43.8539 2.29073 43.8981 2.19498C44.4579 2.02557 44.9735 1.87826 45.4449 1.76042C45.9089 1.64257 46.4318 1.52472 47.0063 1.40687C47.5735 1.29639 48.1553 1.2301 48.7298 1.20801L48.7004 1.21537ZM45.4964 18.5683V12.7865C45.4964 11.91 45.4964 11.1072 45.4817 10.3853C45.4743 9.66353 45.4522 9.09639 45.408 8.68393C45.1797 8.40404 44.8777 8.18308 44.48 8.02104C44.0896 7.859 43.7066 7.78535 43.331 7.78535C42.6386 7.78535 42.0494 8.02104 41.5633 8.48506C41.0772 8.95645 40.7015 9.61197 40.4437 10.4664C40.1786 11.3208 40.0534 12.293 40.0534 13.3978C40.0534 14.1491 40.127 14.8709 40.2743 15.5706C40.4216 16.2703 40.65 16.8964 40.9519 17.4488C41.2539 18.0012 41.6075 18.4358 42.0199 18.7525C42.4324 19.0692 42.9112 19.2312 43.4488 19.2312C43.8245 19.2312 44.2001 19.1576 44.5684 19.0176C44.944 18.8777 45.2534 18.723 45.4964 18.5536V18.5683Z" fill="#E4E0DF"/>
  <path d="M53.3552 18.2887V11.4388C53.3552 10.636 53.3478 10.0468 53.3258 9.68585C53.3037 9.31757 53.2816 9.08188 53.2447 8.9714C53.2079 8.86092 53.1416 8.77253 53.0459 8.72098L51.8085 8.47055C51.8085 8.36007 51.8379 8.22013 51.8895 8.05072C52.8028 7.78556 53.6277 7.57933 54.3422 7.41729C55.064 7.25525 55.7858 7.15213 56.515 7.09321L56.9643 7.15214C56.9422 7.71191 56.9275 8.21276 56.9054 8.65469C56.8833 9.09661 56.8685 9.5459 56.8612 10.0026C56.8538 10.4592 56.8464 10.8864 56.8464 11.2768V18.296C56.8464 18.8411 56.8464 19.2462 56.8612 19.5187C56.8685 19.7912 56.898 19.9827 56.9422 20.0932C56.9864 20.2037 57.0379 20.2921 57.0969 20.3436L58.3048 20.5425C58.3416 20.7266 58.3637 20.8887 58.3637 21.0213H51.7643C51.7643 20.8887 51.7864 20.734 51.8232 20.5425L53.0017 20.3436C53.0753 20.2847 53.1342 20.2111 53.1858 20.1079C53.23 20.0048 53.2668 19.8207 53.2963 19.5482C53.3257 19.2756 53.3405 18.8632 53.3405 18.296L53.3552 18.2887ZM52.8765 3.52097C52.8765 2.92437 53.0974 2.44562 53.5467 2.09208C53.996 1.73854 54.5042 1.56177 55.064 1.56177C55.6238 1.56177 56.1246 1.73854 56.5665 2.09208C57.0085 2.44562 57.2294 2.92437 57.2294 3.52097C57.2294 4.11757 57.0085 4.59633 56.5665 4.94987C56.1246 5.30341 55.6238 5.48018 55.064 5.48018C54.5042 5.48018 53.996 5.30341 53.5467 4.94987C53.0974 4.59633 52.8765 4.11757 52.8765 3.52097Z" fill="#E4E0DF"/>
  <path d="M92.3773 14.4953C92.3773 13.4273 92.5467 12.4403 92.8855 11.5344C93.2243 10.6284 93.6883 9.83297 94.2776 9.14798C94.8668 8.463 95.5371 7.94005 96.281 7.56441C97.0322 7.18878 97.8056 7.00464 98.6084 7.00464C99.507 7.00464 100.347 7.13722 101.12 7.39501C101.893 7.66016 102.527 8.06526 103.013 8.61767C103.499 9.17008 103.742 9.90662 103.742 10.8199C103.742 11.1367 103.72 11.4165 103.669 11.6596C103.624 11.9027 103.551 12.1015 103.455 12.2488C103.396 12.2857 103.33 12.3299 103.241 12.374C103.16 12.4182 103.057 12.4477 102.947 12.4477C102.195 12.4477 101.415 12.433 100.604 12.4035C99.7943 12.374 98.9693 12.3446 98.1518 12.3225C97.3268 12.293 96.524 12.2783 95.7359 12.2783C95.6991 12.6318 95.677 12.8749 95.677 13.0075C95.677 14.0386 95.8611 14.9888 96.2368 15.8579C96.6124 16.727 97.1501 17.4267 97.8498 17.9497C98.5495 18.4726 99.3892 18.7378 100.361 18.7378C100.995 18.7378 101.584 18.6715 102.129 18.5389C102.674 18.4063 103.16 18.259 103.587 18.0896L103.757 18.34C103.197 19.2386 102.512 19.9531 101.709 20.4908C100.906 21.0211 99.8827 21.2936 98.6526 21.2936C97.4226 21.2936 96.3472 20.9916 95.3971 20.395C94.4396 19.7984 93.6957 18.9882 93.1654 17.9644C92.6351 16.948 92.3625 15.7916 92.3625 14.4953H92.3773ZM95.7728 11.608C95.7728 11.7406 95.839 11.8069 95.9716 11.8069L99.7869 11.7259C99.971 11.667 100.111 11.5049 100.207 11.2324C100.302 10.9599 100.347 10.5474 100.347 9.98028C100.347 9.17744 100.185 8.56611 99.8679 8.13892C99.5512 7.71172 99.0651 7.50549 98.4096 7.50549C97.9382 7.50549 97.511 7.68226 97.1206 8.02843C96.7302 8.37461 96.4062 8.85337 96.1631 9.45733C95.9201 10.0687 95.7875 10.7831 95.7728 11.608Z" fill="#E4E0DF"/>
  <path d="M110.29 20.3358L111.498 20.5346C111.535 20.7188 111.557 20.8808 111.557 21.0134H105.127C105.127 20.8808 105.134 20.7261 105.156 20.5346L106.224 20.3358C106.298 20.2768 106.357 20.2032 106.409 20.1001C106.453 19.997 106.49 19.8128 106.504 19.5403C106.526 19.2678 106.534 18.8553 106.534 18.2882V5.37656C106.534 4.69894 106.519 4.20546 106.49 3.87401C106.46 3.54993 106.423 3.30687 106.379 3.14483C106.335 2.98279 106.283 2.87231 106.224 2.79129L105.046 2.51141C105.046 2.37883 105.053 2.26098 105.075 2.14313C105.989 1.87798 106.799 1.67175 107.506 1.52444C108.206 1.37713 108.95 1.27401 109.738 1.21509L110.216 1.27401C110.18 1.90744 110.15 2.47458 110.135 2.97543C110.113 3.46891 110.106 4.01396 110.091 4.60319C110.084 5.19243 110.076 5.76693 110.076 6.3267V18.2882C110.076 18.8332 110.076 19.2383 110.091 19.5108C110.099 19.7834 110.121 19.9749 110.165 20.0853C110.202 20.1958 110.246 20.2842 110.305 20.3358H110.29Z" fill="#E4E0DF"/>
  <path d="M121.964 18.2885V10.9304C121.964 10.3485 121.957 9.91399 121.935 9.612C121.913 9.31002 121.883 9.10379 121.839 8.97858C121.795 8.86073 121.729 8.76498 121.655 8.71342L120.587 8.43353C120.587 8.30096 120.602 8.16101 120.646 8.0137C121.191 7.86639 121.677 7.73382 122.119 7.62334C122.561 7.51285 123.047 7.40237 123.592 7.28453C124.137 7.17404 124.675 7.10776 125.22 7.08566L125.588 7.14458L125.507 9.11115C126.126 8.51455 126.818 8.0137 127.584 7.6086C128.35 7.20351 129.109 7.00464 129.86 7.00464C130.722 7.00464 131.451 7.21824 132.048 7.63807C132.644 8.0579 133.108 8.66186 133.425 9.43523C133.742 10.2086 133.904 11.1072 133.904 12.1163V18.2959C133.904 18.8556 133.904 19.2755 133.918 19.548C133.926 19.8205 133.948 19.9973 133.992 20.0783C134.029 20.1593 134.073 20.233 134.132 20.2919L135.281 20.5423C135.318 20.7265 135.34 20.8885 135.34 21.0211H128.829C128.829 20.8885 128.844 20.7338 128.888 20.5423L130.125 20.3435C130.199 20.2845 130.258 20.2109 130.295 20.1078C130.331 20.0046 130.361 19.8205 130.376 19.548C130.39 19.2755 130.405 18.863 130.405 18.2959V12.1752C130.405 11.6301 130.295 11.1293 130.081 10.6579C129.867 10.1865 129.573 9.81824 129.197 9.53835C128.822 9.25846 128.365 9.11852 127.82 9.11852C127.577 9.11852 127.312 9.14798 127.017 9.19954C126.73 9.25846 126.442 9.33212 126.177 9.42787C125.905 9.52362 125.684 9.62673 125.514 9.73722V18.3032C125.514 18.8483 125.514 19.2534 125.529 19.5259C125.537 19.7984 125.559 19.9899 125.603 20.1004C125.64 20.2109 125.684 20.2993 125.743 20.3508L126.98 20.5497C127.017 20.7338 127.039 20.8959 127.039 21.0284H120.557C120.557 20.8959 120.58 20.7412 120.616 20.5497L121.684 20.3508C121.758 20.2919 121.817 20.2182 121.869 20.1151C121.913 20.012 121.95 19.8279 121.964 19.5553C121.979 19.2828 121.994 18.8704 121.994 18.3032L121.964 18.2885Z" fill="#E4E0DF"/>
  <path d="M137.991 18.2887V11.4388C137.991 10.636 137.984 10.0468 137.962 9.68585C137.94 9.31757 137.918 9.08188 137.881 8.9714C137.844 8.86092 137.778 8.77253 137.682 8.72098L136.445 8.47055C136.445 8.36007 136.474 8.22013 136.526 8.05072C137.439 7.78556 138.264 7.57933 138.978 7.41729C139.7 7.25525 140.422 7.15213 141.151 7.09321L141.601 7.15214C141.578 7.71191 141.564 8.21276 141.542 8.65469C141.519 9.09661 141.505 9.5459 141.497 10.0026C141.49 10.4592 141.483 10.8864 141.483 11.2768V18.296C141.483 18.8411 141.483 19.2462 141.497 19.5187C141.505 19.7912 141.534 19.9827 141.578 20.0932C141.623 20.2037 141.674 20.2921 141.733 20.3436L142.941 20.5425C142.978 20.7266 143 20.8887 143 21.0213H136.401C136.401 20.8887 136.423 20.734 136.459 20.5425L137.638 20.3436C137.712 20.2847 137.77 20.2111 137.822 20.1079C137.866 20.0048 137.903 19.8207 137.933 19.5482C137.962 19.2756 137.977 18.8632 137.977 18.296L137.991 18.2887ZM137.52 3.52097C137.52 2.92437 137.741 2.44562 138.19 2.09208C138.64 1.73854 139.148 1.56177 139.708 1.56177C140.267 1.56177 140.768 1.73854 141.21 2.09208C141.652 2.44562 141.873 2.92437 141.873 3.52097C141.873 4.11757 141.652 4.59633 141.21 4.94987C140.768 5.30341 140.267 5.48018 139.708 5.48018C139.148 5.48018 138.64 5.30341 138.19 4.94987C137.741 4.59633 137.52 4.11757 137.52 3.52097Z" fill="#E4E0DF"/>
  <path d="M5.52409 7.00464C6.21644 7.00464 6.93088 7.0562 7.66006 7.15931C8.38924 7.26243 9.04476 7.40974 9.62663 7.59387C9.79603 8.91965 9.87705 10.1791 9.87705 11.3576L9.3983 11.4165C8.89009 10.3117 8.47026 9.50152 8.12408 8.98594C7.77791 8.47036 7.42436 8.07263 7.07082 7.79274C6.86459 7.69699 6.64363 7.63807 6.40794 7.6086C6.17224 7.57914 5.89971 7.56441 5.583 7.56441C4.86855 7.56441 4.28669 7.77801 3.83003 8.21257C3.37337 8.63977 3.14504 9.17008 3.14504 9.78141C3.14504 10.2086 3.22606 10.5769 3.39546 10.8789C3.56487 11.1808 3.85212 11.4534 4.24986 11.7038C4.65496 11.9542 5.22209 12.2341 5.95127 12.5287C6.90878 12.9191 7.71161 13.3021 8.36713 13.6777C9.02266 14.0534 9.51614 14.4806 9.84022 14.9667C10.1643 15.4528 10.3337 16.0715 10.3337 16.8228C10.3337 17.7582 10.0686 18.561 9.54561 19.2239C9.02266 19.8868 8.34505 20.395 7.51275 20.7559C6.68046 21.1095 5.7745 21.2862 4.80226 21.2862C3.90368 21.2862 3.08612 21.2052 2.35694 21.0358C1.62777 20.8664 0.905947 20.6528 0.198864 20.3876C0.139941 19.6953 0.0957521 19.0471 0.0589249 18.4505C0.0220977 17.8539 0 17.2058 0 16.5134L0.508217 16.484C0.861758 17.2721 1.20056 17.9202 1.51728 18.4358C1.83399 18.9514 2.11388 19.3638 2.34221 19.6732C2.5779 19.9825 2.8136 20.2477 3.05666 20.476C3.35864 20.5718 3.63116 20.6307 3.88158 20.6602C4.13201 20.6896 4.4119 20.7044 4.70652 20.7044C5.15581 20.7044 5.5609 20.6012 5.92918 20.395C6.29745 20.1888 6.58471 19.9015 6.7983 19.5406C7.0119 19.1723 7.12238 18.7672 7.12238 18.318C7.12238 17.8097 7.01927 17.4046 6.81304 17.0953C6.6068 16.7859 6.28272 16.5061 5.83343 16.2556C5.38414 16.0052 4.78754 15.7253 4.03626 15.4307C2.62946 14.8709 1.61303 14.2817 0.979605 13.663C0.346177 13.0443 0.0220954 12.2341 0.0220954 11.2177C0.0220954 10.5474 0.184134 9.94345 0.515579 9.4205C0.839658 8.89756 1.26686 8.45563 1.7898 8.10209C2.31275 7.74855 2.90198 7.47603 3.5575 7.28453C4.21303 7.10039 4.86856 7.00464 5.52409 7.00464Z" fill="#E4E0DF"/>
  <path d="M85.9474 7.00464C86.6397 7.00464 87.3542 7.0562 88.0833 7.15931C88.8125 7.26243 89.468 7.40974 90.0499 7.59387C90.2193 8.91965 90.3003 10.1791 90.3003 11.3576L89.8216 11.4165C89.3134 10.3117 88.8935 9.50152 88.5474 8.98594C88.2012 8.47036 87.8476 8.07263 87.4941 7.79274C87.2879 7.69699 87.0669 7.63807 86.8312 7.6086C86.5955 7.57914 86.323 7.56441 86.0063 7.56441C85.2918 7.56441 84.71 7.77801 84.2533 8.21257C83.7967 8.63977 83.5683 9.17008 83.5683 9.78141C83.5683 10.2086 83.6493 10.5769 83.8187 10.8789C83.9882 11.1808 84.2754 11.4534 84.6731 11.7038C85.0782 11.9542 85.6454 12.2341 86.3746 12.5287C87.3321 12.9191 88.1349 13.3021 88.7904 13.6777C89.4459 14.0534 89.9394 14.4806 90.2635 14.9667C90.5876 15.4528 90.757 16.0715 90.757 16.8228C90.757 17.7582 90.4918 18.561 89.9689 19.2239C89.4459 19.8868 88.7683 20.395 87.936 20.7559C87.1037 21.1095 86.1978 21.2862 85.2255 21.2862C84.327 21.2862 83.5094 21.2052 82.7802 21.0358C82.051 20.8664 81.3292 20.6528 80.6221 20.3876C80.5632 19.6953 80.519 19.0471 80.4822 18.4505C80.4454 17.8539 80.4233 17.2058 80.4233 16.5134L80.9315 16.484C81.285 17.2721 81.6239 17.9202 81.9406 18.4358C82.2573 18.9514 82.5372 19.3638 82.7655 19.6732C83.0012 19.9825 83.2369 20.2477 83.4799 20.476C83.7819 20.5718 84.0544 20.6307 84.3049 20.6602C84.5553 20.6896 84.8352 20.7044 85.1298 20.7044C85.5791 20.7044 85.9842 20.6012 86.3525 20.395C86.7207 20.1888 87.008 19.9015 87.2216 19.5406C87.4352 19.1723 87.5457 18.7672 87.5457 18.318C87.5457 17.8097 87.4425 17.4046 87.2363 17.0953C87.0301 16.7859 86.706 16.5061 86.2567 16.2556C85.8074 16.0052 85.2108 15.7253 84.4595 15.4307C83.0527 14.8709 82.0363 14.2817 81.4029 13.663C80.7695 13.0443 80.4454 12.2341 80.4454 11.2177C80.4454 10.5474 80.6074 9.94345 80.9389 9.4205C81.2629 8.89756 81.6901 8.45563 82.2131 8.10209C82.736 7.74855 83.3253 7.47603 83.9808 7.28453C84.6363 7.10039 85.2918 7.00464 85.9474 7.00464Z" fill="#E4E0DF"/>
  <path d="M72.2917 10.9746C71.9456 10.1055 71.4668 9.36895 70.8628 8.77235C70.2515 8.17574 69.5739 7.72645 68.83 7.4392C68.0787 7.15195 67.2832 7.00464 66.4436 7.00464C65.545 7.00464 64.6906 7.18141 63.873 7.53495C63.0555 7.88849 62.3337 8.39671 61.7002 9.05223C61.0668 9.70775 60.566 10.4664 60.1977 11.3429C59.8294 12.212 59.6526 13.1548 59.6526 14.1638C59.6526 15.6075 59.9546 16.867 60.566 17.9423C61.1773 19.0177 61.9728 19.85 62.9524 20.4245C63.932 21.0063 64.9705 21.2936 66.0532 21.2936C67.217 21.2936 68.3144 20.9916 69.3677 20.395C70.4136 19.7984 71.2532 18.9514 71.8793 17.8687C72.5053 16.7859 72.8221 15.4896 72.8221 13.9944C72.8221 12.8528 72.6526 11.8437 72.2991 10.9746H72.2917ZM63.3059 19.6806C61.5161 18.1854 60.4481 16.2556 60.4481 14.1491C60.4481 12.0426 61.5235 10.1055 63.3133 8.60294C62.783 10.3191 62.4883 12.1973 62.4883 14.1491C62.4883 16.101 62.783 17.9644 63.3059 19.6806ZM69.0215 16.6313C68.9257 17.3973 68.7711 18.0896 68.5575 18.6936C68.3439 19.3049 68.0566 19.791 67.7031 20.1519C67.3495 20.5202 66.9297 20.697 66.4362 20.697C65.8544 20.697 65.3682 20.4981 64.9779 20.1078C64.5875 19.7174 64.2634 19.1871 64.0204 18.5242C63.7773 17.8613 63.6005 17.1174 63.49 16.2925C63.3796 15.4675 63.3206 14.6279 63.3206 13.7661C63.3206 12.9044 63.3722 12.1236 63.4753 11.365C63.5784 10.6063 63.7478 9.94345 63.9983 9.36894C64.2413 8.80181 64.5433 8.35252 64.9116 8.0358C65.2798 7.71909 65.7144 7.55705 66.2153 7.55705C66.7161 7.55705 67.1507 7.73382 67.5042 8.07999C67.8578 8.42617 68.1671 8.91229 68.4175 9.53835C68.668 10.1644 68.8595 10.8789 68.9773 11.6743C69.0951 12.4698 69.1614 13.3242 69.1614 14.2449C69.1614 15.0698 69.1172 15.8653 69.0215 16.6313Z" fill="#E4E0DF"/>
  <path d="M114.304 18.2882V11.4384C114.304 10.6356 114.297 10.0463 114.275 9.68541C114.253 9.31714 114.23 9.08144 114.194 8.97096C114.157 8.86048 114.09 8.7721 113.995 8.72054L112.757 8.47011C112.757 8.35963 112.787 8.21969 112.838 8.05028C113.774 7.78513 114.599 7.57889 115.306 7.41685C116.02 7.25481 116.735 7.1517 117.464 7.09277L117.913 7.1517C117.891 7.71147 117.876 8.21232 117.854 8.65425C117.832 9.09617 117.817 9.54547 117.81 10.0021C117.803 10.4588 117.795 10.886 117.795 11.2763V18.2956C117.795 18.8407 117.795 19.2457 117.81 19.5183C117.817 19.7908 117.847 19.9823 117.891 20.0928C117.935 20.2033 117.987 20.2916 118.046 20.3432L119.254 20.5421C119.29 20.7262 119.313 20.8882 119.313 21.0208H112.713C112.713 20.8882 112.735 20.7336 112.772 20.5421L113.951 20.3432C114.024 20.2695 114.083 20.1812 114.135 20.0928C114.179 19.997 114.216 19.8129 114.245 19.533C114.275 19.2531 114.289 18.8407 114.289 18.2956L114.304 18.2882Z" fill="#E4E0DF"/>
  <path d="M115.063 5.64193L114.724 5.42096L117.368 0.478753C117.442 0.331445 117.545 0.213598 117.677 0.125213C117.81 0.0441927 117.943 0 118.068 0C118.252 0 118.502 0.0957515 118.812 0.279887C119.121 0.464023 119.386 0.692352 119.6 0.957508C119.813 1.22266 119.924 1.48045 119.924 1.74561C119.924 1.81926 119.902 1.92238 119.85 2.05496C119.806 2.18754 119.703 2.30538 119.556 2.42323L115.063 5.65666V5.64193Z" fill="#E4E0DF"/>
</svg>