<svg width="76" height="32" viewBox="0 0 76 32" fill="none" xmlns="http://www.w3.org/2000/svg">
<g id="google">
<mask id="mask0_145_1105" style="mask-type:luminance" maskUnits="userSpaceOnUse" x="0" y="0" width="76" height="32">
<g id="a">
<path id="Vector" d="M0 0H75.1244V32H0V0Z" fill="white"/>
</g>
</mask>
<g mask="url(#mask0_145_1105)">
<g id="Group">
<path id="Vector_2" d="M18.4693 11.9379H9.70311V14.5397H15.92C15.6133 18.1877 12.5778 19.7433 9.71378 19.7433C6.04889 19.7433 2.85156 16.8597 2.85156 12.8179C2.85156 8.88015 5.89956 5.84815 9.72267 5.84815C12.6711 5.84815 14.4089 7.72815 14.4089 7.72815L16.2302 5.84192C16.2302 5.84192 13.8924 3.23926 9.62844 3.23926C4.2 3.23926 0 7.82237 0 12.7708C0 17.6215 3.95111 22.3504 9.76711 22.3504C14.8836 22.3504 18.6284 18.8464 18.6284 13.6641C18.6284 12.5708 18.4693 11.9379 18.4693 11.9379Z" fill="#4285F4"/>
<path id="Vector_3" d="M25.6507 10.0547C22.0534 10.0547 19.4756 12.8662 19.4756 16.1462C19.4756 19.4742 21.976 22.3382 25.6925 22.3382C29.0578 22.3382 31.8143 19.7667 31.8143 16.2174C31.8143 12.1498 28.608 10.0547 25.6507 10.0547ZM25.6863 12.4671C27.4551 12.4671 29.1316 13.8974 29.1316 16.2014C29.1316 18.4574 27.4623 19.9276 25.6783 19.9276C23.7183 19.9276 22.1716 18.3578 22.1716 16.1836C22.1716 14.0556 23.6987 12.4671 25.6863 12.4671Z" fill="#EA4335"/>
<path id="Vector_4" d="M39.08 10.0547C35.4836 10.0547 32.9058 12.8662 32.9058 16.1462C32.9058 19.4742 35.4063 22.3382 39.1227 22.3382C42.4872 22.3382 45.2436 19.7667 45.2436 16.2174C45.2436 12.1498 42.0374 10.0547 39.08 10.0547ZM39.1156 12.4671C40.8845 12.4671 42.5609 13.8974 42.5609 16.2014C42.5609 18.4574 40.8925 19.9276 39.1076 19.9276C37.1476 19.9276 35.6009 18.3578 35.6009 16.1836C35.6009 14.0556 37.1272 12.4671 39.1156 12.4671Z" fill="#FBBC05"/>
<path id="Vector_5" d="M52.2516 10.0615C48.9503 10.0615 46.3547 12.9531 46.3547 16.1984C46.3547 19.8962 49.3636 22.3477 52.1947 22.3477C53.9458 22.3477 54.8765 21.6526 55.5636 20.8544V22.066C55.5636 24.1851 54.2765 25.4544 52.3343 25.4544C50.4587 25.4544 49.5174 24.0589 49.1903 23.2677L46.8294 24.2544C47.6676 26.0251 49.353 27.8722 52.3538 27.8722C55.6365 27.8722 58.1387 25.8037 58.1387 21.4677V10.4304H55.5636V11.4704C54.7725 10.6171 53.689 10.0615 52.2516 10.0615ZM52.4907 12.4695C54.1094 12.4695 55.7707 13.8509 55.7707 16.2117C55.7707 18.6109 54.113 19.9335 52.4552 19.9335C50.6952 19.9335 49.057 18.5042 49.057 16.2349C49.057 13.8766 50.7583 12.4695 52.4907 12.4695Z" fill="#4285F4"/>
<path id="Vector_6" d="M69.5894 10.0469C66.4747 10.0469 63.8596 12.5251 63.8596 16.1811C63.8596 20.0504 66.7752 22.3447 69.8881 22.3447C72.4872 22.3447 74.0818 20.9224 75.0338 19.6495L72.9103 18.2362C72.3592 19.0913 71.4383 19.9269 69.9014 19.9269C68.1743 19.9269 67.3805 18.982 66.8881 18.0655L75.1245 14.6478L74.6978 13.6469C73.9014 11.6851 72.0454 10.0469 69.5894 10.0469ZM69.6961 12.4095C70.8187 12.4095 71.6258 13.006 71.9689 13.7215L66.4694 16.0202C66.2321 14.2407 67.9183 12.4095 69.6961 12.4095Z" fill="#EA4335"/>
<path id="Vector_7" d="M59.9333 21.9799H62.6391V3.875H59.9333V21.9799Z" fill="#34A853"/>
</g>
</g>
</g>
</svg>
