<svg xmlns="http://www.w3.org/2000/svg" width="202" height="64" viewBox="0 0 202 64" fill="none">
  <path d="M90.1057 22.7371H89.0225C89.0225 22.6238 89.0288 22.4915 89.0477 22.3278L90.3451 21.9688C90.6662 21.6035 90.9622 21.2382 91.2457 20.8793C91.5291 20.5203 91.781 20.1613 92.014 19.8086C92.247 19.456 92.4674 19.1285 92.6752 18.8262L93.1098 18.8766C93.0909 19.1159 93.0783 19.4119 93.072 19.7645C93.0657 20.1172 93.0594 20.4951 93.0594 20.9045V22.164L95.6289 22.0947L95.7738 22.2648C95.7738 22.3592 95.7549 22.4852 95.7108 22.6364C95.673 22.7875 95.6289 22.8946 95.5785 22.9575L93.0342 22.6426C93.0342 22.756 93.0342 22.9764 93.0468 23.3039C93.0531 23.6314 93.0594 24.0093 93.0594 24.4312C93.0594 24.8532 93.0594 25.2751 93.072 25.6908C93.0783 26.1065 93.0846 26.4843 93.0846 26.8181V30.1056C93.0846 30.792 93.1602 31.321 93.3113 31.6926C93.4625 32.0642 93.7459 32.2468 94.1615 32.2468C94.4512 32.2468 94.7283 32.2279 94.9866 32.1838C95.2511 32.1461 95.4715 32.1083 95.6478 32.0768L95.7423 32.3917C95.4085 32.7758 94.9425 33.1096 94.3505 33.3993C93.7585 33.689 93.1665 33.8339 92.5745 33.8339C91.9321 33.8339 91.4283 33.6953 91.063 33.4119C90.6977 33.1285 90.4332 32.7506 90.2695 32.2594C90.112 31.7745 90.0302 31.2014 90.0302 30.5464V25.6971C90.0302 25.3948 90.0302 25.0547 90.0428 24.6894C90.0491 24.3242 90.0617 23.9589 90.0806 23.6062C90.0994 23.2535 90.1057 22.9638 90.1057 22.7434V22.7371Z" fill="#18100A"/>
  <path d="M100.189 21.7544L100.573 21.8048C100.554 22.1575 100.541 22.5668 100.522 23.0266C100.503 23.4926 100.497 23.8579 100.497 24.1287V25.9739C100.497 26.5659 100.497 27.1831 100.51 27.8192C100.516 28.4616 100.529 29.0599 100.548 29.6204C100.579 30.3257 100.762 30.8988 101.089 31.3397C101.417 31.7805 101.895 32.0009 102.519 32.0009C102.871 32.0009 103.249 31.9506 103.646 31.8561C104.043 31.7616 104.364 31.6546 104.603 31.5412V25.0859C104.603 24.4436 104.591 23.9712 104.566 23.6689C104.54 23.3666 104.515 23.1588 104.484 23.058C104.452 22.9573 104.402 22.888 104.339 22.8565L103.331 22.6676C103.331 22.5542 103.356 22.422 103.4 22.2582C103.671 22.1952 104.049 22.1197 104.528 22.0441C105.006 21.9622 105.498 21.8992 106.001 21.8426C106.505 21.7859 106.934 21.7607 107.286 21.7607L107.721 21.83C107.689 21.9559 107.67 22.1323 107.658 22.3464C107.645 22.5605 107.645 22.7935 107.645 23.0454C107.645 23.2974 107.645 23.5367 107.633 23.7634C107.626 23.9964 107.62 24.1979 107.62 24.3743V30.8799C107.62 31.3271 107.62 31.6672 107.633 31.8876C107.639 32.1143 107.664 32.2655 107.702 32.341C107.74 32.4229 107.803 32.467 107.884 32.4859L108.987 32.7C108.987 32.8134 108.968 32.933 108.936 33.059C108.779 33.1094 108.514 33.1849 108.143 33.2983C107.771 33.4117 107.337 33.5124 106.833 33.6006C106.329 33.6888 105.775 33.7454 105.164 33.7832L104.805 33.7328C104.66 33.0149 104.591 32.4355 104.591 32.0072C104.257 32.3599 103.873 32.6685 103.451 32.9456C103.029 33.2164 102.594 33.4368 102.153 33.5943C101.713 33.7517 101.284 33.8336 100.869 33.8336C100.151 33.8336 99.5336 33.651 99.0235 33.292C98.5133 32.933 98.1229 32.4166 97.8584 31.7427C97.5939 31.0689 97.4616 30.269 97.4616 29.3433V25.1426C97.4616 24.5002 97.4553 24.0279 97.4364 23.7256C97.4175 23.4233 97.3923 23.2155 97.3545 23.1147C97.3167 23.014 97.2601 22.9321 97.1971 22.888L96.3343 22.6739C96.3343 22.5605 96.3469 22.4346 96.3847 22.2897C96.6429 22.2267 96.9956 22.1512 97.4553 22.063C97.9087 21.9748 98.3937 21.9055 98.8975 21.8489C99.4013 21.7922 99.8296 21.767 100.182 21.767L100.189 21.7544Z" fill="#18100A"/>
  <path d="M120.568 16.6596L121.003 16.71C120.971 17.239 120.946 17.7239 120.934 18.1774C120.915 18.6245 120.902 19.1158 120.883 19.6385C120.864 20.1675 120.858 20.7028 120.858 21.2444V30.3637C120.858 30.9872 120.864 31.4469 120.883 31.7303C120.896 32.02 120.934 32.2089 120.978 32.2971C121.028 32.3853 121.091 32.4545 121.173 32.4986L122.325 32.6939C122.325 32.8072 122.307 32.9206 122.275 33.0276C121.538 33.2544 120.877 33.4307 120.285 33.5567C119.693 33.6826 119.069 33.7582 118.414 33.7708L118.081 33.7204C117.955 33.0151 117.879 32.4671 117.867 32.0641V31.9444C117.432 32.5049 116.928 32.9584 116.355 33.2985C115.782 33.6448 115.152 33.8149 114.485 33.8149C113.653 33.8149 112.904 33.5756 112.243 33.1095C111.581 32.6372 111.052 31.9885 110.668 31.1635C110.284 30.3385 110.095 29.4127 110.095 28.3925C110.095 27.3722 110.259 26.4968 110.586 25.6781C110.914 24.8594 111.361 24.1603 111.921 23.5683C112.482 22.9763 113.112 22.5229 113.817 22.2143C114.522 21.8994 115.247 21.7483 116.002 21.7483C116.21 21.7483 116.431 21.7608 116.664 21.786C116.897 21.8112 117.123 21.8301 117.35 21.849C117.577 21.8679 117.741 21.8868 117.854 21.9183V20.2116C117.854 19.6196 117.848 19.185 117.829 18.9016C117.81 18.6245 117.785 18.4167 117.747 18.2908C117.709 18.1648 117.652 18.064 117.589 18.0011L116.412 17.7869C116.412 17.6736 116.424 17.5791 116.462 17.4972C116.941 17.3524 117.382 17.2264 117.785 17.1257C118.181 17.0249 118.629 16.9241 119.12 16.8234C119.605 16.7289 120.102 16.6722 120.593 16.6533L120.568 16.6596ZM117.829 31.4973V26.5535C117.829 25.804 117.829 25.1176 117.816 24.5004C117.81 23.8832 117.791 23.3983 117.753 23.0456C117.558 22.8063 117.3 22.6174 116.96 22.4788C116.626 22.3403 116.298 22.2773 115.977 22.2773C115.385 22.2773 114.881 22.4788 114.466 22.8756C114.05 23.2786 113.729 23.8391 113.508 24.5697C113.282 25.3002 113.175 26.1315 113.175 27.0762C113.175 27.7186 113.238 28.3358 113.364 28.9341C113.49 29.5324 113.685 30.0677 113.943 30.54C114.201 31.0123 114.504 31.3839 114.856 31.6547C115.209 31.9255 115.618 32.0641 116.078 32.0641C116.399 32.0641 116.72 32.0011 117.035 31.8814C117.356 31.7618 117.621 31.6295 117.829 31.4847V31.4973Z" fill="#18100A"/>
  <path d="M124.548 31.2579V25.4009C124.548 24.7145 124.542 24.2107 124.523 23.9021C124.504 23.5872 124.486 23.3856 124.454 23.2912C124.423 23.1967 124.366 23.1211 124.284 23.077L123.226 22.8629C123.226 22.7685 123.251 22.6488 123.295 22.5039C124.076 22.2772 124.782 22.1009 125.392 21.9623C126.01 21.8238 126.627 21.7356 127.25 21.6852L127.634 21.7356C127.616 22.2142 127.603 22.6425 127.584 23.0204C127.565 23.3982 127.553 23.7824 127.546 24.1729C127.54 24.5633 127.534 24.9286 127.534 25.2624V31.2642C127.534 31.7303 127.534 32.0766 127.546 32.3097C127.553 32.5427 127.578 32.7064 127.616 32.8009C127.653 32.8953 127.697 32.9709 127.748 33.015L128.781 33.185C128.812 33.3425 128.831 33.481 128.831 33.5944H123.188C123.188 33.481 123.207 33.3488 123.239 33.185L124.246 33.015C124.309 32.9646 124.36 32.9016 124.404 32.8135C124.441 32.7253 124.473 32.5679 124.498 32.3348C124.523 32.1018 124.536 31.7491 124.536 31.2642L124.548 31.2579ZM124.139 18.6308C124.139 18.1207 124.328 17.7113 124.712 17.409C125.096 17.1067 125.531 16.9556 126.01 16.9556C126.488 16.9556 126.916 17.1067 127.294 17.409C127.672 17.7113 127.861 18.1207 127.861 18.6308C127.861 19.1409 127.672 19.5503 127.294 19.8526C126.916 20.1549 126.488 20.306 126.01 20.306C125.531 20.306 125.096 20.1549 124.712 19.8526C124.328 19.5503 124.139 19.1409 124.139 18.6308Z" fill="#18100A"/>
  <path d="M157.914 28.0143C157.914 27.1011 158.059 26.2572 158.349 25.4825C158.639 24.7079 159.035 24.0277 159.539 23.442C160.043 22.8563 160.616 22.4092 161.252 22.088C161.895 21.7668 162.556 21.6094 163.242 21.6094C164.011 21.6094 164.729 21.7227 165.39 21.9432C166.051 22.1699 166.593 22.5163 167.008 22.9886C167.424 23.4609 167.632 24.0907 167.632 24.8716C167.632 25.1425 167.613 25.3818 167.569 25.5896C167.531 25.7974 167.468 25.9675 167.386 26.0934C167.336 26.1249 167.279 26.1627 167.204 26.2005C167.134 26.2383 167.046 26.2635 166.952 26.2635C166.309 26.2635 165.642 26.2509 164.949 26.2257C164.256 26.2005 163.551 26.1753 162.852 26.1564C162.147 26.1312 161.46 26.1186 160.786 26.1186C160.755 26.4209 160.736 26.6287 160.736 26.7421C160.736 27.6238 160.893 28.4362 161.214 29.1794C161.536 29.9225 161.995 30.5208 162.594 30.9679C163.192 31.4151 163.91 31.6418 164.741 31.6418C165.283 31.6418 165.787 31.5851 166.253 31.4718C166.719 31.3584 167.134 31.2324 167.5 31.0876L167.645 31.3017C167.166 32.0701 166.58 32.6809 165.894 33.1407C165.207 33.5941 164.332 33.8271 163.28 33.8271C162.228 33.8271 161.309 33.5689 160.496 33.0588C159.678 32.5487 159.042 31.8559 158.588 30.9805C158.135 30.1114 157.902 29.1227 157.902 28.0143H157.914ZM160.818 25.5455C160.818 25.6589 160.874 25.7156 160.988 25.7156L164.25 25.6463C164.407 25.5959 164.527 25.4573 164.609 25.2243C164.691 24.9913 164.729 24.6386 164.729 24.1537C164.729 23.4672 164.59 22.9445 164.319 22.5792C164.048 22.214 163.633 22.0376 163.072 22.0376C162.669 22.0376 162.304 22.1888 161.97 22.4848C161.636 22.7808 161.359 23.1901 161.151 23.7065C160.944 24.2293 160.83 24.8402 160.818 25.5455Z" fill="#18100A"/>
  <path d="M173.231 33.0083L174.264 33.1784C174.295 33.3358 174.314 33.4744 174.314 33.5877H168.816C168.816 33.4744 168.822 33.3421 168.841 33.1784L169.754 33.0083C169.817 32.9579 169.868 32.895 169.912 32.8068C169.95 32.7186 169.981 32.5612 169.994 32.3282C170.013 32.0951 170.019 31.7425 170.019 31.2575V20.2174C170.019 19.638 170.006 19.2161 169.981 18.9327C169.956 18.6556 169.924 18.4478 169.887 18.3092C169.849 18.1707 169.805 18.0762 169.754 18.0069L168.747 17.7676C168.747 17.6542 168.753 17.5535 168.772 17.4527C169.553 17.226 170.246 17.0496 170.85 16.9237C171.448 16.7977 172.084 16.7096 172.758 16.6592L173.168 16.7096C173.136 17.2512 173.111 17.7361 173.098 18.1644C173.08 18.5863 173.073 19.0524 173.061 19.5562C173.054 20.06 173.048 20.5512 173.048 21.0299V31.2575C173.048 31.7236 173.048 32.0699 173.061 32.303C173.067 32.536 173.086 32.6997 173.124 32.7942C173.155 32.8887 173.193 32.9642 173.243 33.0083H173.231Z" fill="#18100A"/>
  <path d="M183.213 31.2576V24.9661C183.213 24.4686 183.206 24.097 183.188 23.8388C183.169 23.5806 183.143 23.4043 183.106 23.2972C183.068 23.1964 183.011 23.1146 182.948 23.0705L182.035 22.8312C182.035 22.7178 182.048 22.5981 182.085 22.4722C182.551 22.3462 182.967 22.2329 183.345 22.1384C183.723 22.0439 184.138 21.9495 184.605 21.8487C185.071 21.7542 185.53 21.6975 185.996 21.6787L186.311 21.729L186.242 23.4106C186.771 22.9004 187.363 22.4722 188.018 22.1258C188.673 21.7794 189.322 21.6094 189.964 21.6094C190.701 21.6094 191.324 21.792 191.834 22.151C192.345 22.51 192.741 23.0264 193.012 23.6877C193.283 24.3489 193.421 25.1173 193.421 25.9801V31.2639C193.421 31.7426 193.421 32.1015 193.434 32.3346C193.44 32.5676 193.459 32.7187 193.497 32.788C193.529 32.8573 193.566 32.9203 193.617 32.9706L194.599 33.1848C194.631 33.3422 194.65 33.4808 194.65 33.5941H189.082C189.082 33.4808 189.095 33.3485 189.133 33.1848L190.191 33.0147C190.254 32.9643 190.304 32.9014 190.336 32.8132C190.367 32.725 190.392 32.5676 190.405 32.3346C190.417 32.1015 190.43 31.7489 190.43 31.2639V26.0304C190.43 25.5644 190.336 25.1362 190.153 24.7331C189.97 24.33 189.718 24.0151 189.397 23.7758C189.076 23.5365 188.686 23.4168 188.219 23.4168C188.012 23.4168 187.785 23.442 187.533 23.4861C187.287 23.5365 187.042 23.5995 186.815 23.6814C186.582 23.7632 186.393 23.8514 186.248 23.9459V31.2702C186.248 31.7363 186.248 32.0826 186.261 32.3157C186.267 32.5487 186.286 32.7124 186.324 32.8069C186.355 32.9014 186.393 32.9769 186.443 33.021L187.502 33.1911C187.533 33.3485 187.552 33.4871 187.552 33.6004H182.01C182.01 33.4871 182.029 33.3548 182.06 33.1911L182.973 33.021C183.036 32.9706 183.087 32.9077 183.131 32.8195C183.169 32.7313 183.2 32.5739 183.213 32.3409C183.225 32.1078 183.238 31.7552 183.238 31.2702L183.213 31.2576Z" fill="#18100A"/>
  <path d="M196.917 31.2579V25.4009C196.917 24.7145 196.91 24.2107 196.892 23.9021C196.873 23.5872 196.854 23.3856 196.822 23.2912C196.791 23.1967 196.734 23.1211 196.652 23.077L195.594 22.8629C195.594 22.7685 195.619 22.6488 195.664 22.5039C196.444 22.2772 197.15 22.1009 197.761 21.9623C198.378 21.8238 198.995 21.7356 199.619 21.6852L200.003 21.7356C199.984 22.2142 199.971 22.6425 199.952 23.0204C199.933 23.3982 199.921 23.7824 199.915 24.1729C199.908 24.5633 199.902 24.9286 199.902 25.2624V31.2642C199.902 31.7303 199.902 32.0766 199.915 32.3097C199.921 32.5427 199.946 32.7064 199.984 32.8009C200.022 32.8953 200.066 32.9709 200.116 33.015L201.149 33.185C201.18 33.3425 201.199 33.481 201.199 33.5944H195.556C195.556 33.481 195.575 33.3488 195.607 33.185L196.614 33.015C196.677 32.9646 196.728 32.9016 196.772 32.8135C196.81 32.7253 196.841 32.5679 196.866 32.3348C196.892 32.1018 196.904 31.7491 196.904 31.2642L196.917 31.2579ZM196.514 18.6308C196.514 18.1207 196.703 17.7113 197.087 17.409C197.471 17.1067 197.906 16.9556 198.384 16.9556C198.863 16.9556 199.291 17.1067 199.669 17.409C200.047 17.7113 200.236 18.1207 200.236 18.6308C200.236 19.1409 200.047 19.5503 199.669 19.8526C199.291 20.1549 198.863 20.306 198.384 20.306C197.906 20.306 197.471 20.1549 197.087 19.8526C196.703 19.5503 196.514 19.1409 196.514 18.6308Z" fill="#18100A"/>
  <path d="M83.6505 21.6094C84.2425 21.6094 84.8534 21.6535 85.4769 21.7416C86.1003 21.8298 86.6608 21.9558 87.1584 22.1132C87.3032 23.2468 87.3725 24.3237 87.3725 25.3314L86.9631 25.3818C86.5286 24.4371 86.1696 23.7443 85.8736 23.3035C85.5776 22.8626 85.2753 22.5226 84.973 22.2832C84.7967 22.2014 84.6078 22.151 84.4062 22.1258C84.2047 22.1006 83.9717 22.088 83.7009 22.088C83.09 22.088 82.5925 22.2706 82.202 22.6422C81.8115 23.0075 81.6163 23.4609 81.6163 23.9837C81.6163 24.3489 81.6856 24.6638 81.8304 24.922C81.9753 25.1802 82.2209 25.4133 82.561 25.6274C82.9073 25.8415 83.3923 26.0808 84.0158 26.3327C84.8345 26.6665 85.5209 26.994 86.0814 27.3152C86.6419 27.6364 87.0639 28.0017 87.341 28.4173C87.6181 28.833 87.763 29.362 87.763 30.0044C87.763 30.8042 87.5362 31.4907 87.0891 32.0575C86.642 32.6243 86.0626 33.0588 85.3509 33.3674C84.6392 33.6697 83.8646 33.8208 83.0333 33.8208C82.265 33.8208 81.5659 33.7516 80.9424 33.6067C80.3189 33.4619 79.7018 33.2792 79.0972 33.0525C79.0468 32.4605 79.009 31.9063 78.9775 31.3962C78.946 30.8861 78.9271 30.3319 78.9271 29.7399L79.3617 29.7147C79.664 30.3885 79.9537 30.9427 80.2245 31.3836C80.4953 31.8244 80.7346 32.1771 80.9298 32.4416C81.1314 32.7061 81.3329 32.9329 81.5407 33.1281C81.7989 33.21 82.0319 33.2603 82.2461 33.2855C82.4602 33.3107 82.6995 33.3233 82.9514 33.3233C83.3356 33.3233 83.682 33.2351 83.9969 33.0588C84.3118 32.8825 84.5574 32.6369 84.74 32.3283C84.9226 32.0134 85.0171 31.667 85.0171 31.2828C85.0171 30.8483 84.929 30.5019 84.7526 30.2374C84.5763 29.9729 84.2992 29.7336 83.915 29.5194C83.5308 29.3053 83.0207 29.066 82.3783 28.8141C81.1754 28.3354 80.3063 27.8316 79.7647 27.3026C79.2231 26.7736 78.946 26.0808 78.946 25.2117C78.946 24.6386 79.0846 24.1222 79.368 23.6751C79.6451 23.2279 80.0103 22.85 80.4575 22.5478C80.9046 22.2455 81.4085 22.0124 81.969 21.8487C82.5295 21.6912 83.09 21.6094 83.6505 21.6094Z" fill="#18100A"/>
  <path d="M152.416 21.6094C153.008 21.6094 153.619 21.6535 154.243 21.7416C154.866 21.8298 155.427 21.9558 155.924 22.1132C156.069 23.2468 156.138 24.3237 156.138 25.3314L155.729 25.3818C155.294 24.4371 154.935 23.7443 154.639 23.3035C154.343 22.8626 154.041 22.5226 153.739 22.2832C153.563 22.2014 153.374 22.151 153.172 22.1258C152.971 22.1006 152.738 22.088 152.467 22.088C151.856 22.088 151.358 22.2706 150.968 22.6422C150.577 23.0075 150.382 23.4609 150.382 23.9837C150.382 24.3489 150.451 24.6638 150.596 24.922C150.741 25.1802 150.987 25.4133 151.327 25.6274C151.673 25.8415 152.158 26.0808 152.782 26.3327C153.6 26.6665 154.287 26.994 154.847 27.3152C155.408 27.6364 155.83 28.0017 156.107 28.4173C156.384 28.833 156.529 29.362 156.529 30.0044C156.529 30.8042 156.302 31.4907 155.855 32.0575C155.408 32.6243 154.828 33.0588 154.117 33.3674C153.405 33.6697 152.63 33.8208 151.799 33.8208C151.031 33.8208 150.332 33.7516 149.708 33.6067C149.085 33.4619 148.468 33.2792 147.863 33.0525C147.813 32.4605 147.775 31.9063 147.743 31.3962C147.712 30.8861 147.693 30.3319 147.693 29.7399L148.128 29.7147C148.43 30.3885 148.72 30.9427 148.99 31.3836C149.261 31.8244 149.5 32.1771 149.696 32.4416C149.897 32.7061 150.099 32.9329 150.307 33.1281C150.565 33.21 150.798 33.2603 151.012 33.2855C151.226 33.3107 151.465 33.3233 151.717 33.3233C152.101 33.3233 152.448 33.2351 152.763 33.0588C153.078 32.8825 153.323 32.6369 153.506 32.3283C153.689 32.0134 153.783 31.667 153.783 31.2828C153.783 30.8483 153.695 30.5019 153.518 30.2374C153.342 29.9729 153.065 29.7336 152.681 29.5194C152.297 29.3053 151.787 29.066 151.144 28.8141C149.941 28.3354 149.072 27.8316 148.531 27.3026C147.989 26.7736 147.712 26.0808 147.712 25.2117C147.712 24.6386 147.85 24.1222 148.134 23.6751C148.411 23.2279 148.776 22.85 149.223 22.5478C149.671 22.2455 150.174 22.0124 150.735 21.8487C151.295 21.6912 151.856 21.6094 152.416 21.6094Z" fill="#18100A"/>
  <path d="M140.74 25.0039C140.444 24.2608 140.035 23.631 139.518 23.1209C138.996 22.6107 138.416 22.2266 137.78 21.9809C137.138 21.7353 136.458 21.6094 135.74 21.6094C134.971 21.6094 134.241 21.7605 133.542 22.0628C132.843 22.3651 132.226 22.7997 131.684 23.3602C131.142 23.9207 130.714 24.5693 130.399 25.3188C130.084 26.0619 129.933 26.8681 129.933 27.7309C129.933 28.9652 130.191 30.0422 130.714 30.9616C131.237 31.8811 131.917 32.5928 132.755 33.084C133.592 33.5815 134.48 33.8271 135.406 33.8271C136.401 33.8271 137.339 33.5689 138.24 33.0588C139.134 32.5487 139.852 31.8244 140.388 30.8987C140.923 29.9729 141.194 28.8645 141.194 27.586C141.194 26.6098 141.049 25.747 140.747 25.0039H140.74ZM133.057 32.4479C131.527 31.1695 130.613 29.5194 130.613 27.7183C130.613 25.9171 131.533 24.2608 133.063 22.976C132.61 24.4434 132.358 26.0493 132.358 27.7183C132.358 29.3872 132.61 30.9805 133.057 32.4479ZM137.944 29.8406C137.862 30.4956 137.73 31.0876 137.547 31.604C137.365 32.1267 137.119 32.5424 136.817 32.851C136.514 33.1659 136.155 33.317 135.733 33.317C135.236 33.317 134.82 33.147 134.486 32.8132C134.153 32.4794 133.876 32.026 133.668 31.4592C133.46 30.8924 133.309 30.2563 133.214 29.5509C133.12 28.8456 133.069 28.1276 133.069 27.3908C133.069 26.6539 133.114 25.9864 133.202 25.3377C133.29 24.689 133.435 24.1222 133.649 23.631C133.857 23.146 134.115 22.7619 134.43 22.4911C134.745 22.2203 135.116 22.0817 135.545 22.0817C135.973 22.0817 136.344 22.2329 136.647 22.5289C136.949 22.8249 137.213 23.2405 137.428 23.7758C137.642 24.3111 137.805 24.922 137.906 25.6022C138.007 26.2824 138.064 27.0129 138.064 27.8001C138.064 28.5055 138.026 29.1857 137.944 29.8406Z" fill="#18100A"/>
  <path d="M176.663 31.2577V25.4008C176.663 24.7143 176.657 24.2105 176.638 23.9019C176.619 23.587 176.6 23.3855 176.568 23.291C176.537 23.1965 176.48 23.121 176.398 23.0769L175.34 22.8628C175.34 22.7683 175.366 22.6486 175.41 22.5038C176.209 22.2771 176.915 22.1007 177.519 21.9622C178.13 21.8236 178.741 21.7354 179.365 21.6851L179.749 21.7354C179.73 22.2141 179.717 22.6423 179.698 23.0202C179.68 23.3981 179.667 23.7822 179.661 24.1727C179.654 24.5632 179.648 24.9284 179.648 25.2622V31.264C179.648 31.7301 179.648 32.0765 179.661 32.3095C179.667 32.5425 179.692 32.7062 179.73 32.8007C179.768 32.8952 179.812 32.9708 179.862 33.0148L180.895 33.1849C180.927 33.3423 180.945 33.4809 180.945 33.5942H175.303C175.303 33.4809 175.321 33.3486 175.353 33.1849L176.361 33.0148C176.424 32.9519 176.474 32.8763 176.518 32.8007C176.556 32.7188 176.587 32.5614 176.613 32.3221C176.638 32.0828 176.65 31.7301 176.65 31.264L176.663 31.2577Z" fill="#18100A"/>
  <path d="M177.312 20.4442L177.022 20.2553L179.283 16.0295C179.346 15.9035 179.434 15.8028 179.547 15.7272C179.661 15.6579 179.774 15.6201 179.881 15.6201C180.039 15.6201 180.253 15.702 180.517 15.8594C180.782 16.0169 181.008 16.2121 181.191 16.4388C181.374 16.6656 181.468 16.886 181.468 17.1127C181.468 17.1757 181.449 17.2638 181.405 17.3772C181.367 17.4906 181.279 17.5913 181.153 17.6921L177.312 20.4568V20.4442Z" fill="#18100A"/>
  <path d="M82.479 42.0269L81.0872 44.7601L79.6891 42.0269H78.9208L80.7094 45.4466V47.9027H81.4147V45.4781L83.2159 42.0269H82.479Z" fill="#18100A"/>
  <path d="M87.8322 42.7764C87.6055 42.5119 87.341 42.2978 87.0387 42.1466C86.7301 41.9955 86.4026 41.9199 86.0436 41.9199C85.6847 41.9199 85.3383 41.9955 85.0297 42.1403C84.7211 42.2915 84.4566 42.4993 84.2362 42.7701C84.0094 43.0409 83.8394 43.3558 83.7197 43.7274C83.6001 44.099 83.5434 44.5083 83.5434 44.9555C83.5434 45.4026 83.6001 45.812 83.7197 46.1835C83.8394 46.5551 84.0094 46.8763 84.2362 47.1471C84.4629 47.4179 84.7274 47.6257 85.036 47.7769C85.3446 47.928 85.6784 47.9973 86.0436 47.9973C86.4089 47.9973 86.7301 47.9217 87.0387 47.7769C87.3473 47.6257 87.6118 47.4179 87.8322 47.1471C88.0589 46.8763 88.229 46.5551 88.3486 46.1898C88.4683 45.8183 88.5313 45.4089 88.5313 44.9555C88.5313 44.502 88.4683 44.1053 88.3486 43.7337C88.229 43.3621 88.0526 43.0409 87.8322 42.7764ZM87.6559 45.9442C87.5677 46.2402 87.4481 46.4921 87.2906 46.7C87.1332 46.9141 86.9505 47.0778 86.7301 47.1975C86.5097 47.3172 86.283 47.3738 86.0373 47.3738C85.7791 47.3738 85.5398 47.3172 85.3257 47.1975C85.1116 47.0778 84.9226 46.9141 84.7652 46.7C84.6077 46.4858 84.4881 46.2339 84.3999 45.9442C84.318 45.6482 84.2739 45.3207 84.2739 44.9555C84.2739 44.5902 84.318 44.2753 84.3999 43.9793C84.4818 43.6833 84.6077 43.4314 84.7652 43.2236C84.9226 43.0157 85.1116 42.852 85.3257 42.7323C85.5398 42.6127 85.7791 42.556 86.0373 42.556C86.2767 42.556 86.5097 42.6127 86.7301 42.7323C86.9505 42.852 87.1332 43.0157 87.2906 43.2299C87.4481 43.444 87.5677 43.6959 87.6559 43.9856C87.744 44.2816 87.7881 44.6028 87.7881 44.9555C87.7881 45.3081 87.744 45.6482 87.6559 45.9442Z" fill="#18100A"/>
  <path d="M93.3428 44.9429H92.1903V45.5538H93.3428V46.574C93.2798 46.7063 93.1916 46.8322 93.0593 46.9456C92.9082 47.0715 92.7319 47.1786 92.5303 47.2605C92.3225 47.3423 92.1084 47.3801 91.8754 47.3801C91.6109 47.3801 91.3652 47.3235 91.1448 47.2101C90.9244 47.0967 90.7355 46.933 90.578 46.7189C90.4206 46.5047 90.3009 46.2591 90.2127 45.9694C90.1246 45.6797 90.0805 45.3648 90.0805 45.0184C90.0805 44.6721 90.1246 44.332 90.2064 44.036C90.2883 43.74 90.4143 43.4818 90.5717 43.2614C90.7292 43.0409 90.9181 42.8709 91.1322 42.7512C91.3526 42.6253 91.592 42.5623 91.8502 42.5623C92.0643 42.5623 92.2658 42.6064 92.4611 42.7009C92.6563 42.7953 92.8326 42.9213 92.9901 43.0787C93.1475 43.2362 93.2735 43.4125 93.3553 43.614L93.9536 43.3495C93.8466 43.0724 93.6828 42.8268 93.4687 42.6127C93.2546 42.3986 93.0027 42.2348 92.7193 42.1089C92.4359 41.9829 92.1399 41.9199 91.8313 41.9199C91.4597 41.9199 91.1259 41.9955 90.8173 42.1592C90.5087 42.3167 90.2505 42.5371 90.0301 42.8142C89.8097 43.0913 89.6396 43.4188 89.52 43.7967C89.4003 44.1745 89.3373 44.5839 89.3373 45.031C89.3373 45.4782 89.4003 45.8561 89.52 46.215C89.6396 46.574 89.8097 46.8889 90.0301 47.1534C90.2505 47.4179 90.5087 47.6257 90.811 47.7769C91.1133 47.928 91.4408 47.9973 91.8061 47.9973C92.121 47.9973 92.4044 47.9406 92.6626 47.8336C92.9145 47.7265 93.1286 47.5817 93.2924 47.4053C93.3428 47.3486 93.3742 47.292 93.412 47.2353L93.4561 47.8966H94.0166V44.9366H93.3428V44.9429Z" fill="#18100A"/>
  <path d="M96.605 42.0269L94.6527 47.9027H95.3455L95.8871 46.2212H98.0787L98.6266 47.9027H99.3446L97.3986 42.0269H96.6113H96.605ZM96.0886 45.604L96.964 42.9086H97.0018L97.8772 45.604H96.0886Z" fill="#18100A"/>
  <path d="M106.644 47.084C106.524 47.3233 106.367 47.4367 106.159 47.4367C106.045 47.4367 105.932 47.4052 105.825 47.3422C105.724 47.2792 105.624 47.2036 105.529 47.1029C105.768 46.8321 105.957 46.5172 106.102 46.1519C106.247 45.774 106.323 45.3647 106.323 44.9238H105.705C105.705 45.4214 105.617 45.8622 105.441 46.2401C105.365 46.3975 105.283 46.5361 105.189 46.662C105.132 46.5739 105.069 46.492 105.019 46.4101L104.011 44.8672C104.452 44.7475 104.805 44.5649 105.063 44.3066C105.359 44.0106 105.504 43.6643 105.504 43.2549C105.504 42.9904 105.447 42.7511 105.328 42.5496C105.208 42.348 105.044 42.1906 104.836 42.0709C104.628 41.9576 104.389 41.9009 104.112 41.9009C103.835 41.9009 103.602 41.9639 103.381 42.0835C103.161 42.2032 102.985 42.3669 102.852 42.581C102.72 42.7889 102.657 43.0219 102.657 43.2738C102.657 43.4879 102.695 43.7021 102.777 43.9162C102.834 44.061 102.897 44.1996 102.972 44.3381C102.739 44.4074 102.525 44.5019 102.336 44.6404C102.09 44.8231 101.895 45.0435 101.757 45.3017C101.618 45.5599 101.555 45.8496 101.555 46.1708C101.555 46.5235 101.637 46.8384 101.807 47.1092C101.971 47.3863 102.204 47.6004 102.506 47.7578C102.808 47.9153 103.155 47.9972 103.558 47.9972C103.961 47.9972 104.307 47.9216 104.641 47.7641C104.805 47.6886 104.962 47.5941 105.107 47.487C105.126 47.5059 105.139 47.5311 105.164 47.55C105.296 47.676 105.447 47.783 105.611 47.8586C105.775 47.9342 105.951 47.9783 106.146 47.9783C106.423 47.9783 106.656 47.9027 106.839 47.7453C107.022 47.5878 107.166 47.38 107.261 47.1092C107.355 46.8384 107.406 46.5298 107.406 46.1771H106.826C106.826 46.5361 106.77 46.8321 106.65 47.0651L106.644 47.084ZM103.419 42.9085C103.489 42.7763 103.577 42.6755 103.696 42.5936C103.816 42.5181 103.948 42.474 104.093 42.474C104.307 42.474 104.484 42.5496 104.622 42.7133C104.761 42.8707 104.83 43.0723 104.83 43.3242C104.83 43.6013 104.729 43.8469 104.534 44.061C104.358 44.25 104.106 44.4074 103.785 44.5334C103.753 44.483 103.728 44.4452 103.696 44.3885C103.596 44.2185 103.507 44.0358 103.432 43.8595C103.356 43.6769 103.325 43.5005 103.325 43.3305C103.325 43.1793 103.356 43.0408 103.426 42.9085H103.419ZM103.659 47.4493C103.337 47.4493 103.073 47.38 102.865 47.2477C102.657 47.1155 102.5 46.9391 102.393 46.7313C102.286 46.5172 102.235 46.2968 102.235 46.0574C102.235 45.7237 102.336 45.4277 102.538 45.1694C102.701 44.9553 102.922 44.8105 103.18 44.7034C103.274 44.8546 103.369 45.012 103.463 45.1568L104.528 46.7628C104.591 46.8636 104.673 46.9769 104.761 47.0966C104.742 47.1092 104.729 47.1218 104.717 47.1344C104.402 47.3422 104.055 47.4493 103.665 47.4493H103.659Z" fill="#18100A"/>
  <path d="M113.439 45.0498C113.313 44.9616 113.168 44.8924 113.017 44.8357C113.149 44.779 113.275 44.7097 113.389 44.6216C113.546 44.4956 113.666 44.3382 113.754 44.1555C113.842 43.9729 113.893 43.7651 113.893 43.532C113.893 43.2297 113.817 42.9652 113.672 42.7448C113.521 42.5181 113.319 42.348 113.055 42.2158C112.79 42.0898 112.476 42.0269 112.117 42.0269H110.139V47.9027H112.117C112.507 47.9027 112.847 47.8334 113.137 47.7012C113.42 47.5626 113.647 47.3737 113.804 47.1281C113.962 46.8825 114.044 46.5991 114.044 46.2716C114.044 46.0008 113.987 45.7615 113.88 45.5599C113.773 45.3584 113.628 45.1884 113.445 45.0561L113.439 45.0498ZM112.085 42.6126C112.306 42.6126 112.494 42.6503 112.652 42.7322C112.809 42.8141 112.935 42.9274 113.024 43.066C113.112 43.2108 113.156 43.3683 113.156 43.5509C113.156 43.7588 113.112 43.9414 113.017 44.0988C112.929 44.2563 112.797 44.3822 112.633 44.4704C112.469 44.5586 112.287 44.609 112.085 44.609H110.832V42.6126H112.079H112.085ZM113.156 46.8006C113.061 46.9643 112.923 47.084 112.74 47.1785C112.557 47.2666 112.343 47.317 112.098 47.317H110.844V45.2198H112.11C112.343 45.2198 112.545 45.2576 112.728 45.3395C112.91 45.4214 113.049 45.5347 113.149 45.6859C113.25 45.837 113.301 46.026 113.301 46.259C113.301 46.4668 113.257 46.6495 113.162 46.8069L113.156 46.8006Z" fill="#18100A"/>
  <path d="M115.889 42.0269H115.177V47.9027H115.889V42.0269Z" fill="#18100A"/>
  <path d="M118.074 45.2576H120.354V44.6593H118.074V42.644H120.826V42.0269H117.369V47.9027H120.883V47.2855H118.074V45.2576Z" fill="#18100A"/>
  <path d="M125.443 46.5361L122.565 42.0269H121.966V47.9027H122.634V43.4187L125.506 47.9027H126.104V42.0269H125.443V46.5361Z" fill="#18100A"/>
  <path d="M129.656 44.6973H127.559V45.2893H129.656V44.6973Z" fill="#18100A"/>
  <path d="M132.805 41.0382L133.321 41.4853H134.027L133.17 40.7422H133.145H132.465H132.44L131.589 41.4853H132.295L132.805 41.0382Z" fill="#18100A"/>
  <path d="M131.81 45.2576H134.09V44.6593H131.81V42.644H134.562V42.0269H131.104V47.9027H134.619V47.2855H131.81V45.2576Z" fill="#18100A"/>
  <path d="M135.11 42.6503H136.836V47.9027H137.528V42.6503H139.235V42.0269H135.11V42.6503Z" fill="#18100A"/>
  <path d="M143.518 44.779C143.681 44.5018 143.769 44.1744 143.769 43.7965C143.769 43.4186 143.688 43.1289 143.53 42.8581C143.373 42.5936 143.146 42.3858 142.856 42.2409C142.567 42.0961 142.226 42.0205 141.836 42.0205H140.129V47.8964H140.841V45.6418H141.767C141.924 45.6418 142.063 45.6229 142.208 45.5977L143.329 47.8964H144.109L142.856 45.3898C143.14 45.2387 143.36 45.0372 143.524 44.7664L143.518 44.779ZM140.835 45.0309V42.6503H141.779C142.038 42.6503 142.264 42.6944 142.453 42.7888C142.642 42.877 142.787 43.0156 142.888 43.1919C142.988 43.3682 143.045 43.5698 143.045 43.8028C143.045 44.0547 142.988 44.2751 142.881 44.4641C142.774 44.6467 142.623 44.7915 142.434 44.8923C142.245 44.9931 142.025 45.0435 141.773 45.0435H140.835V45.0309Z" fill="#18100A"/>
  <path d="M145.791 47.2855V45.2576H148.071V44.6593H145.791V42.644H148.543V42.0269H145.086V47.9027H148.6V47.2855H145.791Z" fill="#18100A"/>
  <path d="M63.9068 36.718C64.0453 35.7733 64.1461 34.8223 64.2028 33.8525C64.2028 33.8525 64.2154 33.8525 64.2217 33.8525C66.9801 33.8903 66.9234 29.5385 64.165 29.6581C64.0957 28.7134 63.9886 27.7814 63.8375 26.8556C63.8375 26.843 63.8375 26.8241 63.8312 26.8115C64.5932 26.6226 65.2545 26.1628 65.6954 25.5708C65.7457 24.2231 64.4043 23.1525 63.1069 23.4863C63.0314 23.2155 62.9495 22.9509 62.8676 22.6864C62.8424 22.6109 62.8236 22.5353 62.7984 22.4597C62.6283 21.9118 62.4457 21.3639 62.2442 20.8286L64.0894 19.8335C63.573 18.8826 62.4331 18.4858 61.4506 18.8826C61.0287 17.9505 60.5563 17.0373 60.0399 16.143C60.5941 15.8155 61.2113 15.6707 61.8222 15.6833C61.205 15.2172 60.3611 15.1228 59.6494 15.4691C57.1996 11.2685 53.7547 7.83618 49.7493 5.27926C46.2099 2.96796 42.1919 1.34313 37.8716 0.587388C30.6417 -0.779239 22.9835 0.196923 16.4653 3.95672C14.872 4.80063 13.3605 5.84607 11.9498 6.97967C9.98485 8.54153 8.22146 10.3238 6.68479 12.2887C5.81569 13.3972 5.04106 14.5308 4.3483 15.721C2.9061 18.1898 1.77879 20.8853 1.06084 23.6563C-1.11821 31.8435 0.0972731 40.8745 4.3609 48.1926V48.1989C4.3609 48.2115 4.3609 48.2241 4.36719 48.2367C4.36719 48.2241 4.36719 48.2178 4.36719 48.2052C5.03476 49.3577 5.77791 50.4724 6.59032 51.5367C6.76037 51.7572 6.92411 51.9776 7.10045 52.1917C7.08785 52.1917 7.06896 52.1854 7.05006 52.1728C7.05636 52.1791 7.07526 52.1917 7.08785 52.1917C7.08785 52.1917 7.09415 52.1917 7.10045 52.1917C8.33482 53.7095 9.69515 55.1076 11.2003 56.3861C11.6664 56.7891 12.1513 57.1733 12.6425 57.5386C13.9777 58.5462 15.4514 59.4783 16.9691 60.2781C16.8495 60.2844 16.7361 60.2907 16.6165 60.2781C16.7361 60.2907 16.8558 60.2781 16.9754 60.2781C18.8963 61.3047 20.9431 62.1108 23.0213 62.7406C23.0213 62.7343 23.015 62.728 23.0087 62.728C27.8455 64.208 33.0097 64.3528 37.9724 63.3892C42.2234 62.6272 46.1784 61.0276 49.6674 58.754C49.7052 58.7289 49.7493 58.7037 49.7871 58.6785C49.9697 58.5588 50.1523 58.4392 50.3287 58.3195C54.1452 55.7752 57.3885 52.4562 59.6432 48.5138C60.3548 48.8476 61.1861 48.7531 61.797 48.2871C61.1987 48.2997 60.5878 48.1548 60.0336 47.8336C60.5941 46.8575 61.0979 45.8498 61.5514 44.8107C62.5024 45.1319 63.573 44.7288 64.0642 43.8156L62.3197 42.8772C62.452 42.5057 62.5779 42.1278 62.6976 41.7436C62.8802 41.1768 63.0503 40.61 63.2014 40.0306C64.461 40.2825 65.7142 39.2245 65.6702 37.9209C65.2419 37.3541 64.6184 36.9006 63.8816 36.7054L63.9068 36.718ZM62.0174 42.7135L60.3926 41.8381C59.8447 42.8521 60.2225 44.1116 61.2239 44.6721C60.7768 45.6861 60.2792 46.6748 59.7313 47.6321C59.1645 47.2101 58.7552 46.6496 58.541 46.0261C58.2891 46.8638 58.5851 47.7958 59.3283 48.3312C58.8118 49.1751 58.2639 49.9938 57.6719 50.7873C56.3809 52.4688 54.7812 54.2133 52.999 55.8193C49.85 58.5525 46.1658 60.6749 42.1163 61.9974C40.7056 62.2871 39.3138 62.3438 37.9912 62.0856C37.4685 61.9218 36.3412 61.4936 35.8248 61.2795C32.424 59.9317 29.2373 57.9857 26.5229 55.5359C26.5229 55.5359 26.5292 55.5233 26.5355 55.5233C26.208 55.2839 25.912 54.9879 25.6349 54.6982H25.6223C24.5265 53.6339 23.5 52.4877 22.5616 51.2785C22.3601 51.0203 22.1711 50.7684 21.9822 50.5102C21.9822 50.4724 21.9822 50.4283 21.9507 50.3905C21.9507 50.3905 21.9192 50.3528 21.9003 50.3402C21.9003 50.3339 21.894 50.3339 21.8877 50.3339C21.8688 50.3213 21.8499 50.315 21.831 50.3087C13.9651 39.6717 13.8832 24.1664 21.8122 13.5357C22.0578 13.183 22.3223 12.8429 22.5805 12.5029C27.1527 7.23789 34.3196 0.555899 41.7259 1.88474C49.1258 4.19604 55.3669 9.16502 59.322 15.6644C58.5851 16.1997 58.2954 17.1318 58.541 17.9631C58.7552 17.3396 59.1582 16.7854 59.725 16.3634C60.2289 17.2388 60.6886 18.1457 61.1105 19.0715C60.1974 19.6572 59.8762 20.8538 60.3989 21.8299L61.9167 21.0112C62.2316 21.8614 62.5087 22.7305 62.7543 23.6122C61.5703 24.1034 61.1168 25.6842 61.8789 26.7359C62.3764 26.906 62.9243 26.9627 63.4722 26.8871C63.6234 27.8192 63.7367 28.7575 63.7997 29.6959C61.6018 30.0675 61.627 33.4746 63.8312 33.8147C63.806 34.2807 63.7808 34.7405 63.7241 35.2002C63.6801 35.6788 63.6234 36.1575 63.5478 36.6361C62.9747 36.5416 62.4079 36.592 61.8852 36.7747C61.0917 37.8705 61.6081 39.5142 62.8865 39.9488C62.7228 40.5533 62.5464 41.1516 62.3512 41.7499C62.2442 42.0711 62.1434 42.3923 62.0237 42.7072L62.0174 42.7135ZM38.8918 1.14789C37.3363 1.4313 35.9256 1.89733 34.496 2.5838C35.1635 1.33683 36.3097 0.858194 37.5189 0.889683C37.9787 0.965257 38.4384 1.04713 38.8918 1.14789ZM36.1334 0.694451C35.3462 1.02824 34.6534 1.62023 34.2189 2.34448C34.0992 2.15554 33.9795 1.97921 33.8536 1.80916C34.1937 1.32423 34.6156 0.908577 35.0943 0.587388C35.4406 0.618877 35.787 0.656664 36.1334 0.694451ZM34.5463 0.543303C34.2 0.820407 33.8914 1.1416 33.6269 1.50687C33.4946 1.34942 33.3624 1.19828 33.2238 1.05343C33.375 0.858194 33.5387 0.66926 33.715 0.492921C33.9921 0.505516 34.2755 0.52441 34.5526 0.543303H34.5463ZM30.2953 4.20863C30.415 3.88745 30.5409 3.57885 30.6984 3.28285C31.536 2.87979 32.4996 2.82941 33.3687 3.06873C32.424 3.69221 31.1959 3.4466 30.3016 4.20863H30.2953ZM31.4289 4.03859C31.0448 4.24012 30.6669 4.46055 30.2953 4.68097C30.6165 4.39127 31.007 4.15825 31.4289 4.03859ZM24.6399 8.98238C24.558 9.06425 24.4698 9.14612 24.3817 9.23429C24.1927 9.26578 24.0038 9.30987 23.8149 9.36025C23.733 9.31616 23.6511 9.27838 23.5755 9.24059C24.1927 7.50869 26.7874 5.4619 26.7307 3.77408C27.0897 4.41646 27.6943 5.09663 28.7272 5.67603C28.4815 5.83977 28.2422 6.00981 28.0092 6.18615C27.7384 5.94053 27.4109 5.71381 27.0708 5.49339C26.5859 6.18615 26.1765 6.87891 26.2269 7.56537C26.1954 7.58426 26.1702 7.60946 26.1451 7.62835C25.3641 7.40793 24.5013 8.16996 24.6399 8.97608V8.98238ZM25.7546 7.96843C25.509 8.18256 25.2697 8.39668 25.0303 8.61711C25.0996 8.27702 25.4208 8.00622 25.7546 7.96843ZM22.3097 11.4637C22.1963 11.596 22.083 11.7282 21.9759 11.8668C21.9066 11.7975 21.8247 11.6904 21.7177 11.7219C21.4658 11.7723 21.5854 12.0494 21.7429 12.1502C21.5917 12.3391 21.4406 12.5281 21.2957 12.7233C20.9619 12.3706 20.6156 12.8052 21.0753 13.013C20.9368 13.2019 20.7982 13.3909 20.6597 13.5798C20.5337 13.4727 20.3007 13.4979 20.307 13.6994C20.1306 13.6428 19.9543 13.5924 19.7717 13.542C20.3888 12.3328 21.1761 11.1173 22.3538 10.412C22.2845 10.7584 22.2845 11.1173 22.316 11.4637H22.3097ZM17.8445 18.3661C17.6871 18.6999 17.5359 19.0337 17.3911 19.3738C17.3092 19.4242 17.2525 19.5249 17.284 19.6131C17.0762 20.1169 16.881 20.6208 16.6983 21.1309C15.8418 19.1723 15.3506 17.0499 15.275 14.9086C16.6542 14.959 18.0272 15.1794 19.356 15.5573C18.8774 16.3508 18.4302 17.1507 18.0272 17.982C17.0447 17.9379 16.3519 19.1974 17.8445 18.3598V18.3661ZM14.8971 14.5371C14.9286 16.9932 15.4828 19.4242 16.522 21.6347C16.4401 21.8677 16.3645 22.1007 16.2953 22.3338C15.0105 19.802 14.3744 16.9806 14.4626 14.0899C16.2953 14.0332 18.109 14.2725 19.8346 14.789C19.7402 14.9338 19.6457 15.085 19.5575 15.2361C18.0524 14.7953 16.4842 14.5497 14.9034 14.5371H14.8971ZM14.1099 13.7435C13.9525 16.905 14.6704 20.0539 16.1441 22.8187C16.0811 23.0391 16.0182 23.2595 15.9552 23.48C14.2422 20.4255 13.4424 16.8861 13.7132 13.3468C15.9552 13.1704 18.1972 13.4286 20.3133 14.0836C20.2188 14.2159 20.1306 14.3481 20.0425 14.4867C18.1342 13.901 16.1315 13.6491 14.1099 13.7498V13.7435ZM18.0335 45.8876C18.4302 46.7126 18.8648 47.5313 19.3371 48.3186C18.0209 48.6964 16.6542 48.9169 15.275 48.9609C15.3506 46.8134 15.8481 44.6721 16.7172 42.7072C17.0636 43.6708 17.3974 44.5588 17.8571 45.4971C16.3519 44.691 17.0384 45.9128 18.0335 45.8876ZM14.9034 49.3388C16.4779 49.3199 18.0335 49.0806 19.5323 48.646C19.6205 48.7972 19.7087 48.9483 19.8094 49.0932C18.0901 49.597 16.289 49.8363 14.4689 49.7797C14.3807 46.8827 15.0231 44.0423 16.3205 41.5043C16.3897 41.7373 16.4653 41.9767 16.5472 42.2034C15.5017 44.4265 14.9349 46.8701 14.9034 49.3388ZM14.1099 50.1323C16.1126 50.2331 18.109 49.9812 20.011 49.4081C20.0928 49.5403 20.181 49.6726 20.2692 49.8048C18.1657 50.4472 15.9363 50.6991 13.7132 50.5291C13.4361 46.9771 14.2485 43.4189 15.9804 40.3581C16.0371 40.5785 16.1 40.799 16.1693 41.0131C14.683 43.7904 13.9588 46.9519 14.1099 50.1323ZM21.2013 51.1211C21.3461 51.3163 21.491 51.5116 21.6421 51.7005C21.2957 51.9146 21.6106 52.3366 21.8751 51.9902C21.9759 52.1224 22.083 52.2484 22.19 52.3806C22.1585 52.7207 22.1774 53.0671 22.2341 53.4072C21.0942 52.7081 20.307 51.5304 19.6961 50.3402C19.8724 50.2961 20.0488 50.2457 20.2188 50.1953C20.2629 50.3716 20.4644 50.3465 20.5778 50.252C20.71 50.4409 20.8423 50.6299 20.9808 50.8188C20.54 51.0077 20.8801 51.4675 21.2013 51.1148V51.1211ZM26.0002 56.2475C26.0569 56.2979 26.1136 56.3483 26.1702 56.3924C26.1576 57.0473 26.5481 57.7023 27.0142 58.3636C27.329 58.162 27.6313 57.9605 27.8895 57.7338C28.1226 57.9038 28.3556 58.0676 28.5949 58.2313C27.6061 58.7981 27.0204 59.4657 26.6741 60.0892C26.737 58.3825 24.0983 56.3231 23.5063 54.5723C23.5692 54.5408 23.6385 54.503 23.7015 54.4715C23.8652 54.5156 24.0227 54.5534 24.1864 54.5849C24.3124 54.7108 24.4446 54.8431 24.5769 54.9691C24.5202 55.7248 25.2697 56.3861 26.0002 56.2538V56.2475ZM25.0114 55.3721C25.1878 55.5359 25.3641 55.6996 25.5468 55.857C25.32 55.7878 25.1122 55.5988 25.0114 55.3721ZM28.6705 58.6092C28.7523 58.5588 28.8531 58.5084 28.935 58.458C29.042 58.5336 29.1491 58.6029 29.2625 58.6722C30.6732 64.2772 21.1698 62.1486 25.0429 57.526C25.1878 57.6897 25.3137 57.8535 25.4271 58.0109C22.8387 61.5881 29.7978 62.7532 28.6642 58.6092H28.6705ZM36.1334 63.1625C35.7807 63.2003 35.4217 63.2318 35.0691 63.257C34.5904 62.9232 34.1874 62.5201 33.8662 62.0541C33.9921 61.8778 34.1118 61.7014 34.2315 61.5125C34.6786 62.2556 35.3525 62.8287 36.1334 63.1625ZM34.6282 61.4495C35.9319 61.9911 37.3489 62.4068 38.7344 62.7846C37.1725 63.3074 35.5288 62.898 34.6282 61.4495ZM34.5086 63.2885C34.2315 63.3074 33.9543 63.32 33.6772 63.32C33.5135 63.1562 33.3686 62.9862 33.2301 62.8035C33.3749 62.6587 33.5072 62.5138 33.6332 62.3564C33.8788 62.7028 34.1748 63.0177 34.5086 63.2948V63.2885ZM32.3043 62.6839C31.7879 62.2367 31.3471 61.6951 30.9881 61.1094C31.8446 61.3928 32.783 61.3802 33.6395 61.0968C33.2679 61.6951 32.8333 62.2304 32.3106 62.6839H32.3043ZM33.1923 63.3326C33.0097 63.3326 32.8333 63.3326 32.6507 63.3326C32.7578 63.2444 32.8585 63.1499 32.9656 63.0555C33.0412 63.1499 33.1167 63.2444 33.1923 63.3326ZM31.939 63.3263C31.7753 63.32 31.6179 63.3137 31.4541 63.3074C31.5234 63.2318 31.5864 63.1562 31.6493 63.0743C31.7438 63.1625 31.8383 63.2444 31.939 63.3326V63.3263ZM31.3848 62.8224C31.2589 62.9862 31.1266 63.1373 30.9881 63.2885C30.7173 63.2759 30.4528 63.257 30.182 63.2318C30.478 62.9799 30.7488 62.6839 30.9755 62.3753C31.1014 62.5327 31.24 62.6839 31.3785 62.8224H31.3848ZM30.6984 60.5993C30.5472 60.297 30.415 59.9884 30.3016 59.6672C31.114 60.3348 32.3736 60.2655 33.2553 60.826C32.3988 61.0464 31.5045 60.9583 30.6984 60.5993ZM30.3835 61.5251C30.4968 61.7077 30.6228 61.8904 30.7551 62.0604C30.4591 62.4824 30.0875 62.8602 29.6781 63.1688C29.6781 63.1688 29.676 63.1688 29.6718 63.1688C29.3506 63.1436 29.0358 63.1058 28.7083 63.0618C29.401 62.7217 29.9867 62.1738 30.3835 61.5188V61.5251ZM23.1032 59.7428C23.3362 59.5539 23.5629 59.3523 23.7771 59.1382C23.6889 60.2214 24.2116 61.3298 25.1248 61.9281C26.7307 63.0869 29.1995 62.243 29.7789 60.3537C29.8986 60.6308 30.0245 60.9016 30.1757 61.1661C28.8153 64.145 23.204 63.0051 23.1032 59.7428ZM20.5337 60.3411C20.2377 59.7365 20.0236 59.0815 19.9165 58.3762C20.603 58.9619 21.4532 59.3146 22.3727 59.3838C21.8122 59.7932 21.1887 60.1207 20.5337 60.3474V60.3411ZM21.0501 61.1031C20.9682 61.0779 20.8927 61.0464 20.8171 61.0087C20.8801 60.9898 20.9431 60.9646 21.006 60.9457C21.0186 60.9961 21.0375 61.0527 21.0564 61.1031H21.0501ZM19.8535 57.8031C19.8283 57.4693 19.822 57.1418 19.8409 56.8017C20.5778 58.0424 22.1522 58.7037 23.5504 58.3132C23.3236 58.5651 23.0843 58.8044 22.8261 59.0249C21.7177 59.0815 20.6093 58.6092 19.8535 57.8031ZM19.8598 60.6119C19.7906 60.5804 19.7276 60.5552 19.6583 60.5237C19.7024 60.5048 19.7402 60.4796 19.7843 60.4608C19.8094 60.5111 19.8346 60.5615 19.8598 60.6119ZM20.9619 57.4945C20.4959 57.1103 19.9228 56.5561 19.9291 55.9263C20.4014 55.6933 20.9368 55.5925 21.4595 55.624C21.4595 55.624 21.4658 55.624 21.4721 55.624C21.4721 55.624 21.4742 55.624 21.4784 55.624C22.0515 55.6681 22.6183 55.8759 23.078 56.2349C23.5504 56.5939 23.9093 57.104 24.0857 57.6582C23.6322 58.0739 22.8387 58.0928 22.2467 58.0172C24.2872 56.5624 20.5274 55.0383 20.9682 57.4882L20.9619 57.4945ZM21.894 60.5489C21.9759 60.889 22.0956 61.2291 22.2467 61.5503C21.9885 61.4684 21.7429 61.3739 21.491 61.2732C21.4343 61.122 21.3902 60.9646 21.3461 60.8134C21.5288 60.7316 21.7114 60.6434 21.894 60.5489ZM22.2215 60.36C22.4041 60.2529 22.5868 60.127 22.7631 60.001C22.8702 60.719 23.1788 61.4306 23.6574 62.0037C23.3488 61.9218 23.0465 61.8274 22.7442 61.7203C22.4986 61.2921 22.3286 60.8386 22.2215 60.36ZM25.6475 58.3321C26.2647 59.3271 26.3781 60.1962 26.3088 60.8638C25.2885 60.53 24.9044 59.1193 25.6475 58.3321ZM26.6993 60.9583C26.9575 60.0703 27.5935 59.3397 28.3493 58.817C28.6327 59.5287 28.3052 60.4293 27.6124 60.7819C27.3353 60.9268 27.0079 60.9961 26.693 60.9583H26.6993ZM22.9206 54.4274C22.675 53.9173 22.549 53.3631 22.5364 52.8026C22.9017 53.2309 23.2795 53.6465 23.67 54.0559C23.4307 54.207 23.1788 54.333 22.9143 54.4274H22.9206ZM22.5553 54.4967C22.6057 54.6227 22.675 54.7549 22.7379 54.8746C22.8828 54.8305 23.0276 54.7738 23.1662 54.7234C23.4244 55.4099 23.9786 56.3105 24.5454 56.9592C24.4761 57.0788 24.4069 57.1922 24.3313 57.3055C23.6826 55.6618 21.6295 54.8053 19.9984 55.4981C20.0236 55.3595 20.0677 55.2273 20.0991 55.0824C20.9242 55.0068 21.9003 54.7801 22.549 54.4967H22.5553ZM19.5638 54.7486C18.3609 54.7864 17.2399 55.0635 16.3205 55.7878C16.8495 54.6668 16.0434 52.4436 15.6403 50.9322C15.8355 50.9259 16.0434 50.9133 16.2386 50.9007C16.2827 51.4738 16.7802 51.9776 17.3596 52.0091C16.9628 52.727 17.1266 53.4954 17.3029 54.3204C18.172 54.1692 18.9781 53.9614 19.419 53.382C19.8346 54.2511 21.1698 54.2574 21.6043 53.4009C21.8373 53.5772 22.083 53.741 22.3349 53.8858C22.3601 53.974 22.3916 54.0559 22.4167 54.144C21.5854 54.503 20.5022 54.7045 19.5638 54.736V54.7486ZM10.5642 53.678C10.5139 53.0104 10.5768 52.3114 10.7469 51.6249C11.1562 52.4247 11.8175 53.086 12.6299 53.4954C11.9372 53.6654 11.2318 53.7284 10.5642 53.678ZM11.7356 54.3897C11.6853 54.7045 11.6601 55.0257 11.6727 55.3469C11.4774 55.1706 11.2885 54.9942 11.0933 54.8116C11.0933 54.6794 11.1122 54.5471 11.1311 54.4211C11.3263 54.4211 11.5341 54.4086 11.7293 54.3897H11.7356ZM10.7658 54.4148C10.7658 54.4148 10.7595 54.4715 10.7595 54.4967C10.728 54.4715 10.7028 54.44 10.6713 54.4148C10.7028 54.4148 10.7343 54.4148 10.7658 54.4148ZM9.81481 53.1238C9.69515 53.1427 9.57549 53.1553 9.45583 53.1616C9.27949 52.9726 9.10315 52.7774 8.93941 52.5822C9.24171 52.5948 9.544 52.5696 9.8463 52.5255C9.8274 52.727 9.81481 52.9286 9.81481 53.1238ZM9.8337 53.5583C9.8337 53.5583 9.79591 53.5206 9.77702 53.5017C9.79591 53.5017 9.80851 53.5017 9.8274 53.5017C9.8274 53.5206 9.8274 53.5394 9.8274 53.5646L9.8337 53.5583ZM9.69515 52.1791C9.33617 52.2295 8.9709 52.2358 8.61192 52.198C8.41039 51.965 8.22146 51.7257 8.03253 51.4864C8.6812 51.6564 9.36766 51.6627 10.0226 51.499C9.97225 51.7131 9.93447 51.9209 9.90298 52.1413C9.8337 52.1539 9.76443 52.1602 9.69515 52.1728V52.1791ZM5.28038 47.3928C5.29297 46.5615 5.60157 45.7365 6.13058 45.0941C6.42658 45.1256 6.72888 45.1445 7.03117 45.1445C4.29792 47.3739 7.29568 51.9146 10.4194 50.252C10.306 50.5354 10.2053 50.8188 10.1234 51.1022C7.46572 52.1161 6.40769 49.2003 5.28038 47.3928ZM2.77385 41.6492C2.67938 41.3658 2.59751 41.0887 2.50934 40.799C3.01946 41.1579 3.61775 41.391 4.22864 41.4917C4.10269 41.6618 3.97673 41.8507 3.86967 42.0333C3.4918 41.9515 3.11393 41.8192 2.76755 41.6429L2.77385 41.6492ZM3.67443 42.3671C3.57997 42.5435 3.4981 42.7261 3.41622 42.9024C3.33435 42.8835 3.25248 42.8521 3.17061 42.8269C3.08874 42.5875 3.00057 42.3545 2.9187 42.1152C3.16431 42.216 3.41622 42.3041 3.67443 42.3608V42.3671ZM3.31546 21.0112C3.35325 20.9986 3.39103 20.9923 3.42252 20.9797C3.50439 21.1624 3.59256 21.3513 3.68703 21.5276C3.39733 21.5969 3.10763 21.6914 2.83682 21.811C2.9187 21.5654 3.00687 21.3198 3.09503 21.0742C3.16431 21.0553 3.23988 21.0238 3.30916 21.0112H3.31546ZM3.25878 20.6459C3.25878 20.6459 3.27137 20.6082 3.27767 20.5956C3.27767 20.6082 3.29027 20.6208 3.29027 20.6333C3.27767 20.6333 3.27137 20.6396 3.25878 20.6459ZM3.88226 21.8551C3.99562 22.0378 4.11528 22.2204 4.23494 22.3967C3.58626 22.4975 2.95648 22.7557 2.42747 23.1399C2.50934 22.8565 2.59121 22.5668 2.68568 22.2834C3.06355 22.0881 3.46031 21.9433 3.87596 21.8551H3.88226ZM3.74371 19.4368C3.74371 19.4368 3.75631 19.399 3.7626 19.3864C3.7689 19.399 3.7752 19.4053 3.7815 19.4179C3.7689 19.4242 3.75631 19.4305 3.74371 19.4368ZM9.81481 10.7584C9.81481 10.9599 9.8274 11.1614 9.8463 11.3693C9.52511 11.3189 9.19762 11.2937 8.87643 11.3063C9.04647 11.111 9.22281 10.9158 9.40545 10.7206C9.544 10.7269 9.68255 10.7332 9.82111 10.7584H9.81481ZM9.72034 10.3868C9.75813 10.349 9.79591 10.3049 9.84 10.2671C9.84 10.3112 9.8337 10.3553 9.8337 10.3994C9.79591 10.3994 9.75813 10.3931 9.72664 10.3868H9.72034ZM9.90298 11.7471C9.93447 11.9612 9.97855 12.1754 10.0289 12.3958C9.34247 12.2321 8.63082 12.2384 7.95695 12.4273C8.14589 12.1817 8.34742 11.9361 8.55524 11.6967C9.00869 11.6464 9.46843 11.6715 9.90927 11.7534L9.90298 11.7471ZM10.136 12.7926C10.2179 13.0823 10.3186 13.3657 10.4383 13.6491C7.85619 12.2258 4.82064 15.3621 6.33841 17.8938C6.50845 18.2087 6.74777 18.4858 7.01228 18.7251C6.70998 18.7251 6.40769 18.744 6.11169 18.7755C5.55748 18.0953 5.25519 17.2073 5.27408 16.3445C6.3699 14.5434 7.5224 11.7849 10.136 12.7863V12.7926ZM21.9192 7.67873C21.9192 7.67873 21.9192 7.67873 21.9255 7.67873C22.5112 7.67243 22.9647 7.03006 22.7946 6.48215C22.7946 6.48215 22.7946 6.48005 22.7946 6.47585C22.7253 6.19874 22.5112 5.95943 22.2467 5.84607C22.8387 5.78309 23.6448 5.76419 24.0857 6.22394C23.5567 7.89916 21.4595 8.76825 19.9165 7.93694C19.9102 7.89916 19.9039 7.85507 19.8976 7.81728C20.0928 7.25048 20.477 6.73406 20.9682 6.38138C20.6974 6.98597 21.2391 7.7606 21.9129 7.68503L21.9192 7.67873ZM19.8346 7.08674C19.8157 6.75295 19.8157 6.40657 19.8472 6.07279C20.5904 5.24777 21.6988 4.80063 22.8072 4.83212C23.0591 5.05254 23.3047 5.27926 23.5252 5.53118C22.1711 5.1596 20.5589 5.80198 19.8283 7.08674H19.8346ZM16.0748 7.23788C17.0384 6.74665 18.3043 7.4835 18.3421 8.56672C17.473 8.36519 16.6353 7.93694 16.0748 7.23788ZM16.0874 10.1349C16.0245 10.1034 15.9552 10.0719 15.8985 10.0341C15.7599 9.94595 15.6214 9.83259 15.5206 9.70033C15.5206 9.70033 15.5206 9.70033 15.5206 9.69403C14.9538 9.05166 15.0798 7.98103 15.7537 7.45831C16.0811 8.0629 16.3142 8.94459 16.1 10.1412L16.0874 10.1349ZM14.8783 8.10698C14.5634 9.05166 15.0861 10.1475 16.0119 10.5065C15.9615 10.6954 15.9048 10.8969 15.8418 11.0859C10.3249 8.23294 18.7199 2.55231 19.3371 8.71157C19.1167 8.69898 18.9152 8.67379 18.7199 8.636C18.7388 6.46325 15.4577 6.01611 14.8846 8.10069L14.8783 8.10698ZM15.5899 11.8164C15.5269 12.0179 15.4702 12.2132 15.4199 12.4273C15.3821 12.6036 15.3443 12.7674 15.3128 12.9311C15.1868 12.9311 15.0546 12.9311 14.9286 12.9311C15.1239 12.5029 15.2372 12.0368 15.2435 11.5582C15.3632 11.6401 15.4765 11.7219 15.5899 11.8101V11.8164ZM13.0267 11.6778C13.5494 11.3944 14.2926 11.0607 14.872 11.3252C14.9097 11.892 14.7775 12.4525 14.513 12.9374C14.3115 12.9437 14.1099 12.9563 13.9084 12.9689C14.1477 12.358 13.6691 11.6715 13.0267 11.6778ZM13.9273 20.1169C14.1666 20.5326 14.5508 21.2694 14.6956 21.7166C14.4311 21.8866 14.1918 22.0755 13.9714 22.2897C13.6061 22.3526 13.2471 22.4408 12.907 22.5542C12.4347 21.8173 11.6475 21.6851 10.8351 21.8677C11.5341 20.7278 12.7118 19.9406 13.9021 19.3297C13.9462 19.506 13.9966 19.6824 14.0469 19.8524C13.9336 19.8713 13.8706 20.0099 13.9273 20.1169ZM6.01092 31.9379C8.44818 29.0913 11.7419 27.0949 15.3443 26.2069C15.3128 26.3833 15.2813 26.5533 15.2498 26.7296C11.9309 27.5672 8.88903 29.381 6.57143 31.9379C8.90162 34.5074 11.9498 36.3212 15.2813 37.1588C15.3128 37.3289 15.338 37.5052 15.3758 37.6815C11.7608 36.8061 8.46078 34.7971 6.01092 31.9379ZM13.096 37.3478C13.0393 37.4107 12.9826 37.4737 12.9322 37.5367C12.9448 37.4548 12.9511 37.3729 12.97 37.2974C13.0141 37.3163 13.0519 37.3289 13.096 37.3478ZM14.7271 42.0963C14.7208 42.5309 13.5305 43.6519 14.0658 43.9353C14.0092 44.1116 13.9588 44.288 13.9147 44.4706C12.6992 43.8597 11.4837 43.0599 10.7784 41.8885C11.616 42.0711 12.3654 41.9452 12.8567 41.1957C13.1904 41.3028 13.5368 41.391 13.9021 41.4539C14.1414 41.6933 14.4185 41.9074 14.7271 42.1026V42.0963ZM14.5634 41.5421C14.6893 41.5547 14.8216 41.561 14.9475 41.5736C14.9223 41.6366 14.8846 41.6932 14.8594 41.7562C14.7586 41.687 14.6578 41.6177 14.5571 41.5421H14.5634ZM13.9084 50.9007C14.1099 50.9133 14.3115 50.9196 14.5193 50.9322C14.7901 51.4297 14.9097 52.0028 14.8657 52.5633C14.28 52.7711 13.5557 52.4814 13.0267 52.1854C13.6628 52.1854 14.1477 51.4927 13.9084 50.9007ZM15.8103 52.8089C15.8796 53.0104 15.9363 53.212 15.9804 53.4072C15.0861 53.7851 14.5886 54.862 14.8971 55.7815C15.4765 57.8975 18.8081 57.4 18.7388 55.1958C18.934 55.1643 19.1482 55.1454 19.3434 55.1328C18.9529 61.3299 10.262 55.5925 15.8103 52.8152V52.8089ZM14.9286 50.9384C15.0483 50.9384 15.1617 50.9384 15.2813 50.9384C15.3506 51.3163 15.4514 51.7194 15.5647 52.0847C15.4577 52.1665 15.3506 52.2484 15.2372 52.324C15.2372 51.8516 15.1365 51.373 14.9286 50.9447V50.9384ZM15.6907 56.3735C14.9349 55.7248 15.0231 54.4085 15.8733 53.8795C15.93 53.8417 15.9867 53.8103 16.0434 53.7788C16.1945 54.7108 16.1063 55.5611 15.6844 56.3798L15.6907 56.3735ZM18.3672 55.2588C18.3609 56.3987 17.0258 57.1733 16.0182 56.6002C16.5913 55.8822 17.4667 55.4477 18.3672 55.2588ZM10.5013 48.1485C10.1549 48.9987 9.00239 49.3514 8.23405 48.8476C8.08291 48.7531 7.94436 48.6334 7.83099 48.4949C8.43559 48.1674 9.31098 47.9344 10.5076 48.1485H10.5013ZM7.60427 48.1611C7.11934 47.1912 7.84989 45.938 8.93311 45.8939C8.73788 46.763 8.30333 47.5943 7.60427 48.1611ZM8.41669 47.8588C8.41669 47.8588 8.41669 47.8588 8.41669 47.8525C9.8337 46.1962 9.16613 43.5511 10.073 41.7184C10.1423 41.7373 10.2116 41.7625 10.2871 41.7814C10.4383 42.0585 10.6209 42.3167 10.8162 42.5686C10.0982 42.915 9.92817 43.9416 10.4824 44.5084C10.5831 44.6091 10.6965 44.691 10.8099 44.7666C10.1738 45.2767 10.0163 46.1206 9.87149 46.8764C10.7343 47.0716 11.5593 47.1849 12.1828 46.8197C12.2206 47.4117 12.737 47.9155 13.329 47.9407C13.3164 48.1422 13.3101 48.3437 13.3038 48.5453C11.723 48.2052 10.0226 47.3046 8.41039 47.8462L8.41669 47.8588ZM6.9493 39.8984C7.06896 39.8228 7.18862 39.7472 7.30828 39.6779C7.46572 39.8039 7.62317 39.9362 7.8121 40.0684C8.31593 40.4463 8.93941 40.7927 9.45583 41.0068C9.40545 41.1327 9.35507 41.2713 9.32358 41.3973C9.45583 41.4665 9.60068 41.5358 9.73923 41.5925C9.43694 42.2727 9.18503 43.2866 9.13464 44.1494C9.00239 44.1809 8.87013 44.2187 8.73788 44.2439C9.44324 42.6127 8.59303 40.5722 6.9556 39.9047L6.9493 39.8984ZM5.2048 41.4224C5.41893 41.1705 5.65825 40.9312 5.90386 40.7045C5.53859 42.0585 6.17467 43.6708 7.45942 44.4013C7.11304 44.4139 6.77926 44.4139 6.44547 44.3887C5.62046 43.6456 5.17332 42.5372 5.2048 41.4224ZM11.4019 10.1916C11.4019 10.1916 11.4019 10.1916 11.4082 10.1916C11.8112 10.2168 12.2143 10.2797 12.6047 10.3805C11.7986 10.7899 11.1499 11.4511 10.7406 12.2635C10.5705 11.5708 10.5076 10.8717 10.558 10.1979C10.8351 10.179 11.1122 10.179 11.3956 10.1979L11.4019 10.1916ZM10.6272 9.46731C10.665 9.42953 10.7028 9.39174 10.7406 9.35395C10.7406 9.39174 10.7469 9.42323 10.7532 9.46101C10.7154 9.46101 10.6713 9.46101 10.6272 9.46731ZM11.0807 9.03276C11.2696 8.85013 11.4648 8.67379 11.6601 8.49745C11.6475 8.82493 11.6601 9.15872 11.7167 9.47991C11.5152 9.46101 11.3137 9.44842 11.1185 9.44842C11.1059 9.30987 11.087 9.17132 11.0807 9.03276ZM13.1652 10.5316C13.4801 10.6324 13.795 10.7521 14.0973 10.9032C12.7055 11.0859 11.4585 12.2887 11.2822 13.7561C11.1374 13.4475 11.0051 13.1326 10.9043 12.8115C11.2759 11.766 12.1387 10.9284 13.1652 10.5316ZM13.3227 7.11193C15.0231 5.76419 17.1203 3.86855 19.1482 5.77049C19.1167 6.06649 19.0978 6.36879 19.0978 6.67108C17.813 5.09663 15.1302 5.29816 14.1162 7.08674C13.5809 7.98103 13.5242 9.10834 13.9966 10.053C13.7132 9.93965 13.4298 9.83888 13.1464 9.75701C12.8818 8.90681 12.9574 7.92435 13.329 7.11193H13.3227ZM11.5278 20.4696C11.3641 20.6207 11.2066 20.7845 11.0618 20.9545C10.3249 20.6522 10.4257 19.4683 11.2129 19.3045C11.2507 19.3297 11.2885 19.3675 11.3326 19.3864C11.4019 19.4242 11.4711 19.4557 11.5467 19.4871C11.4837 19.8146 11.4837 20.1484 11.5341 20.4759L11.5278 20.4696ZM12.2773 17.4907C12.3087 17.6104 12.3717 17.7175 12.441 17.8182C12.0694 18.1583 11.7734 18.6369 11.6286 19.1219C10.558 18.7188 11.2192 17.031 12.2773 17.4907ZM12.2269 16.9995C11.6034 16.6405 10.7721 16.7413 9.91557 16.9428C10.0604 17.8182 10.2745 18.618 10.8539 19.0589C9.98485 19.4683 9.99115 20.8223 10.8351 21.2379C10.6524 21.471 10.4887 21.7166 10.3438 21.9748C10.262 22 10.1738 22.0252 10.0856 22.0567C9.29839 20.394 9.68885 17.1066 8.45448 15.9604C10.1234 16.502 11.7042 15.6266 13.3164 15.2802C13.3164 15.4817 13.329 15.6833 13.3353 15.8848C12.7622 15.9163 12.2584 16.4264 12.2269 16.9995ZM11.4208 23.3666C11.5341 23.713 11.679 24.0468 11.8301 24.3742C11.5971 24.3868 11.3641 24.3868 11.1311 24.3554C10.5328 23.8956 10.073 23.2658 9.81481 22.5542C10.6461 22.2204 11.912 21.7858 12.5229 22.6801C12.1261 22.8376 11.7105 22.9698 11.3704 23.2218L11.4208 23.3666ZM10.9295 27.5232C10.7658 27.6113 10.602 27.6995 10.4383 27.8003C10.01 26.5029 9.71404 25.0859 10.0415 23.7571C10.495 24.4561 11.1436 24.9285 12.0064 24.7332C12.1702 25.0481 12.3528 25.3504 12.5607 25.6527C12.5607 25.9928 12.611 26.3455 12.6866 26.6918C12.315 26.9941 10.9862 26.9375 10.8728 27.4539C10.8791 27.4854 10.9043 27.5043 10.9232 27.5295L10.9295 27.5232ZM7.70504 29.4062C7.5287 29.022 7.64836 28.5749 7.97584 28.3356C8.0955 28.3734 8.22776 28.386 8.34742 28.3734C8.3978 28.6001 8.47337 28.8205 8.57414 29.0346C8.32852 29.2236 8.08291 29.4188 7.84359 29.6203C7.78691 29.5574 7.74282 29.4881 7.70504 29.4062ZM6.88002 29.8848C6.14318 28.556 5.57008 27.0445 4.15937 26.3014C6.40769 26.0999 7.62946 23.8452 9.66996 23.1336C9.70145 23.1966 9.73294 23.2658 9.77072 23.3288C9.68255 23.6374 9.62587 23.946 9.58809 24.2672C8.6749 23.9334 7.71763 24.9033 8.03253 25.8165C7.22011 25.722 6.51475 26.2006 5.86608 26.6478C6.31322 27.3216 6.75407 28.0144 7.5413 28.2474C7.16343 28.682 7.14453 29.4062 7.56019 29.8471C7.40904 29.9793 7.26419 30.1242 7.11304 30.2627C7.03117 30.1368 6.9493 30.0171 6.87373 29.8911L6.88002 29.8848ZM7.5413 35.5718C6.84224 35.7607 6.33841 36.422 5.86608 37.1651C6.58403 37.6752 7.30828 38.0972 8.02623 38.0027C7.70504 38.9033 8.64971 39.8669 9.5566 39.5583C9.59438 39.848 9.65106 40.1377 9.72664 40.4211C9.68255 40.4967 9.64477 40.5785 9.60698 40.6604C9.04647 40.4274 8.53635 40.1377 8.03253 39.7724C6.84224 38.8277 5.72752 37.6375 4.14047 37.5052C5.69603 36.7054 6.19356 34.9798 7.08785 33.5943C7.2327 33.7265 7.37755 33.8714 7.5287 33.9973C7.15083 34.4319 7.15083 35.1372 7.5287 35.5718H7.5413ZM7.92546 35.8804C8.03253 35.9496 8.15848 35.9748 8.27814 36.0063C8.25925 36.5164 8.3852 37.0518 8.62452 37.4989C7.57908 37.9712 6.86743 36.3149 7.92546 35.8867V35.8804ZM7.8184 34.2303C8.05772 34.4319 8.30333 34.6271 8.55524 34.8223C8.43559 35.0805 8.36001 35.3513 8.31593 35.6348C7.69874 35.5277 7.39644 34.6964 7.8247 34.2303H7.8184ZM8.81345 37.8075C9.00869 38.0846 9.23541 38.3239 9.50621 38.5254C9.49992 38.7522 9.50621 38.9726 9.51881 39.193C8.76937 39.4953 8.01993 38.5947 8.46078 37.9209C8.58673 37.9146 8.70639 37.8642 8.81975 37.8138L8.81345 37.8075ZM8.85124 35.0428C9.24171 35.3262 9.63847 35.5907 10.0478 35.8426C9.92187 36.2708 9.80221 36.6991 9.69515 37.1336C9.61958 37.4422 9.56919 37.7571 9.53141 38.072C8.6938 37.3478 8.3978 36.0567 8.85124 35.0428ZM5.95424 38.5695C5.14812 39.382 3.63665 38.9663 3.34695 37.8579C4.29162 37.7697 5.12293 38.0405 5.95424 38.5695ZM3.27767 37.4737C3.1895 36.3968 4.3546 35.5088 5.36855 35.8867C4.85213 36.6109 4.12158 37.2281 3.27767 37.4737ZM6.21875 34.3437C6.0865 34.3248 5.94165 34.3059 5.80939 34.2807C6.14318 33.9469 6.42028 33.5376 6.57773 33.0841C6.6596 33.166 6.74147 33.2542 6.82334 33.3298C6.60292 33.6509 6.39509 33.9973 6.21875 34.3437ZM5.38114 34.1863C4.82064 33.9154 4.50575 33.2038 4.3483 32.6181C4.79545 33.0715 5.62676 32.9204 5.87867 32.3347C6.01092 32.4858 6.14318 32.6433 6.28803 32.7944C6.13058 33.336 5.8031 33.821 5.38114 34.1926V34.1863ZM4.3483 31.2389C4.51204 30.6658 4.80804 29.9163 5.40004 29.6833C5.82829 30.0612 6.13058 30.5461 6.29433 31.0814C6.15577 31.2263 6.02352 31.3837 5.89127 31.5286C5.64565 30.9429 4.79545 30.7791 4.3546 31.2389H4.3483ZM5.83459 29.5888C5.97944 29.5637 6.11169 29.5385 6.25654 29.5259C6.42658 29.8534 6.63441 30.206 6.84853 30.5083C6.75407 30.6028 6.6722 30.6973 6.57773 30.7854C6.42028 30.3446 6.16207 29.9289 5.83459 29.5888ZM5.41893 27.9829C4.3609 28.4174 3.12023 27.4665 3.27767 26.3329C4.12788 26.5722 4.88362 27.202 5.41263 27.9829H5.41893ZM3.36584 25.9424C3.70592 24.9222 5.11663 24.538 5.90386 25.2811C4.90881 25.8983 4.03341 26.0117 3.36584 25.9424ZM6.74147 20.5956C7.11934 20.1358 7.67985 19.5375 8.30963 19.5627C8.82605 20.5893 8.6749 21.8803 7.95065 22.7683C7.88767 22.8502 7.8247 22.9195 7.74912 22.995C7.41534 23.3288 7.01228 23.5681 6.57773 23.713C6.16207 23.2469 6.14948 22.466 6.22505 21.874C7.66725 23.9082 9.19132 20.1484 6.75407 20.5956H6.74147ZM8.74418 19.6383C8.88273 19.6698 9.02128 19.7076 9.15983 19.7391C9.23541 20.627 9.44953 21.5024 9.73923 22.1889C9.61328 22.2393 9.48102 22.3086 9.36136 22.3715C9.40545 22.5101 9.46213 22.6675 9.51251 22.7998C8.70639 23.1147 7.95065 23.6059 7.27679 24.179C7.16343 24.1097 7.04377 24.0405 6.93041 23.9649C8.59303 23.3036 9.41805 21.2379 8.73788 19.632L8.74418 19.6383ZM8.27184 26.251C8.34742 26.3518 8.45448 26.4273 8.55524 26.4966C8.34742 26.9564 8.25295 27.498 8.29703 28.0081C7.15083 28.0522 7.13194 26.2447 8.27184 26.251ZM8.57414 26.0495C7.93176 25.3945 8.71899 24.2546 9.5566 24.6388C9.544 24.8529 9.5377 25.0607 9.5503 25.2748C9.21651 25.5142 8.93311 25.8165 8.72528 26.1691C8.6749 26.1376 8.62452 26.0936 8.58043 26.0495H8.57414ZM8.70009 27.2146C8.81975 26.6226 9.12205 26.1061 9.57549 25.7157C9.65106 26.4903 9.89668 27.2398 10.1108 27.9892C9.68885 28.2474 9.27949 28.5182 8.87643 28.8079C8.65601 28.3104 8.59303 27.7499 8.70009 27.2146ZM8.4041 16.5272C8.4041 16.5272 8.4041 16.5398 8.41669 16.5398C8.6812 16.9932 8.87643 17.4844 8.9835 18.0009C7.83099 17.9883 7.07526 16.6468 7.64206 15.6518C7.95065 15.8974 8.18997 16.1808 8.4041 16.5209V16.5272ZM7.86248 15.3243C8.56784 14.5056 10.01 14.6945 10.4635 15.6833C9.56919 15.8344 8.65601 15.7462 7.86248 15.3243ZM11.9246 14.8708C12.3906 14.8708 12.8755 14.7638 13.3038 14.556C13.3038 14.6693 13.3038 14.7953 13.3038 14.9086C12.9196 14.9779 12.5292 15.0724 12.1576 15.192C12.0757 15.085 11.9939 14.9779 11.9246 14.8708ZM13.3668 16.2438C13.392 16.5587 13.4298 16.8673 13.4738 17.1821C13.2093 17.2829 12.9574 17.4152 12.7181 17.5852C12.3654 17.0625 12.7307 16.2753 13.3668 16.2375V16.2438ZM13.3038 14.1529C12.8063 14.4174 12.2395 14.5434 11.6727 14.4993C11.5467 14.3292 11.6223 14.0899 11.6286 13.8947C11.6286 13.8947 11.6286 13.8926 11.6286 13.8884C11.6664 13.4601 11.8175 13.0319 12.0505 12.6666C12.0505 13.3027 12.7433 13.7813 13.3353 13.5483C13.3164 13.7498 13.3101 13.9577 13.3038 14.1592V14.1529ZM12.737 9.65625C12.5229 9.60586 12.3087 9.56808 12.0946 9.53659C12.0127 9.08315 12.0064 8.6234 12.0442 8.16996C12.2836 7.95584 12.5292 7.75431 12.7811 7.55278C12.5858 8.23924 12.5733 8.96349 12.737 9.65625ZM11.4333 15.4439C11.2318 15.5132 11.0303 15.5699 10.8351 15.614C8.51116 11.8731 4.76396 17.8119 9.04647 18.3724C9.07796 18.5614 9.09686 18.7692 9.10945 18.977C2.81163 18.3661 8.59303 10.0656 11.427 15.4439H11.4333ZM5.92276 23.184C5.67084 22.9572 5.43153 22.7116 5.2111 22.4534C5.15442 21.3261 5.62676 20.2429 6.43288 19.4871C6.76037 19.462 7.10045 19.4557 7.43423 19.4745C6.21246 20.1736 5.52599 21.767 5.92276 23.1903V23.184ZM5.40004 23.8137C5.89127 23.9838 6.23135 24.4498 6.70998 24.6828C6.54624 24.8277 6.3825 24.9536 6.22505 25.067C5.63306 24.4876 4.66319 24.3554 3.93894 24.7521C3.87596 24.7899 3.81928 24.8214 3.7626 24.8592C1.83547 26.1187 3.52329 29.2362 5.63306 28.2915C5.73382 28.4552 5.83459 28.6379 5.92276 28.8268C4.73247 29.211 3.46661 29.2865 2.69827 28.1152C1.1742 26.2321 3.04465 23.2532 5.40004 23.8074V23.8137ZM4.57502 33.9406C4.25383 33.8273 3.94524 33.695 3.64924 33.5439C3.15801 32.5236 3.1832 31.3396 3.63665 30.332C3.93264 30.1808 4.23494 30.0486 4.55613 29.9352C3.68073 31.0877 3.68703 32.7944 4.57502 33.9406ZM5.88497 35.0302C5.7842 35.2254 5.68344 35.4017 5.58267 35.5718C2.82423 34.5137 1.79768 39.1678 4.74506 39.3631C5.29927 39.4008 5.87867 39.193 6.26914 38.7837C6.42658 38.9033 6.58403 39.0356 6.74147 39.1678C4.0712 42.1467 0.179145 37.3666 3.31546 35.1687C3.31546 35.1687 3.31546 35.1687 3.32176 35.1687C4.10898 34.4948 4.99068 34.8538 5.88497 35.0428V35.0302ZM6.74147 43.2677C9.18503 43.7274 7.60427 39.9299 6.20616 41.9893C6.14318 41.3973 6.12429 40.5911 6.58403 40.1503C8.24665 40.6667 9.13464 42.7576 8.29703 44.3194C7.67985 44.288 7.11304 43.74 6.74147 43.2677ZM11.5593 44.5399C10.5705 44.7351 10.1108 43.274 11.0303 42.8709C11.0303 42.8709 11.0303 42.8709 11.0366 42.8709C11.0429 42.8709 11.0492 42.8646 11.0555 42.8583C11.2003 43.0221 11.3452 43.1669 11.5026 43.3181C11.4396 43.7211 11.4585 44.1368 11.5593 44.5399ZM11.6664 44.8862C11.8427 45.3649 12.1639 45.7931 12.5481 46.1269C11.7734 46.9771 10.4761 45.705 11.2822 44.9051C11.4082 44.924 11.5404 44.9051 11.6601 44.8862H11.6664ZM12.6299 47.0779C12.5607 46.9204 12.5355 46.7567 12.5544 46.5867C12.6614 46.5237 12.7622 46.4355 12.8441 46.341C13.0393 46.467 13.2534 46.5741 13.4738 46.6496C13.4298 46.9582 13.392 47.2668 13.3668 47.5817C13.1086 47.5691 12.863 47.4306 12.7118 47.2227C12.674 47.1724 12.6488 47.122 12.6236 47.0716L12.6299 47.0779ZM13.2975 48.9231C13.2975 49.0491 13.2975 49.1751 13.2975 49.3136C12.8693 49.1058 12.4032 48.9987 11.9246 48.9924C12.0064 48.8728 12.0883 48.7594 12.1765 48.646C12.5292 48.7594 12.9322 48.8539 13.2975 48.9231ZM11.6475 49.427C11.6475 49.427 11.6727 49.3829 11.6853 49.364C12.2458 49.3262 12.8126 49.4522 13.2975 49.723C13.3038 49.9245 13.3164 50.126 13.3353 50.3276C12.7307 50.0882 12.0379 50.5606 12.0379 51.2093C11.7293 50.7054 11.5656 50.1134 11.5971 49.5088C11.616 49.4837 11.6286 49.4522 11.6475 49.427ZM13.5242 46.2844C12.4536 45.9002 11.723 44.7099 11.8301 43.6078C12.4284 44.099 13.1338 44.4643 13.8202 44.8296C13.7006 45.3145 13.6061 45.7931 13.5242 46.2844ZM9.76443 41.202C10.1234 40.3707 10.7091 39.1804 11.7734 39.3757C11.6034 39.7661 11.3956 40.1503 11.3452 40.5722C11.7105 40.7675 12.0883 40.9249 12.4788 41.0635C11.8679 41.9578 10.6083 41.5295 9.76443 41.202ZM9.99744 39.9991C9.68255 38.7018 9.96596 37.31 10.3753 36.0378C10.5265 36.1323 10.6902 36.2204 10.8476 36.3023C10.7784 36.3968 10.8414 36.5353 10.9484 36.5668C11.4145 36.6928 12.208 36.9447 12.6236 37.1525C12.5607 37.4611 12.5229 37.7634 12.5166 38.072C12.3024 38.3743 12.1135 38.6955 11.9435 39.0104C11.087 38.8277 10.4383 39.2812 9.99115 39.9928L9.99744 39.9991ZM12.97 26.1817C13.0519 26.2825 13.1338 26.377 13.2219 26.4714C13.1589 26.4903 13.096 26.5155 13.033 26.5407C13.0015 26.4147 12.9889 26.3014 12.97 26.1817ZM14.8468 31.686V31.7553C13.9714 31.7805 13.2345 31.0751 13.2408 30.1934C13.2408 30.0927 13.1589 30.0108 13.0582 30.0108C12.5166 30.4202 13.2597 31.4656 13.6817 31.7553C13.0078 31.8498 12.2961 31.453 12.3024 30.7099C12.3024 30.6091 12.2206 30.5272 12.1198 30.5272C11.5971 30.8295 12.271 31.7553 12.6551 31.9379C12.271 32.1206 11.5971 33.0463 12.1198 33.3486C12.2206 33.3486 12.3024 33.2668 12.3024 33.166C12.2961 32.4229 13.0078 32.0261 13.6817 32.1206C13.2597 32.4103 12.5166 33.4557 13.0582 33.8651C13.1589 33.8651 13.2408 33.7832 13.2408 33.6824C13.2408 32.8007 13.9777 32.0954 14.8531 32.1206C14.8531 32.1395 14.8531 32.1646 14.8531 32.1898C14.2674 32.2339 13.3227 34.9294 14.2233 34.1044C14.2233 33.5313 14.4689 33.0149 14.8594 32.6559C14.872 33.7769 14.916 34.7719 15.0987 35.83C12.5481 35.0931 10.1675 33.758 8.22776 31.9442C10.1675 30.1368 12.5355 28.8016 15.0735 28.0648C14.9097 29.1228 14.8657 30.1242 14.8594 31.2263C14.4689 30.8673 14.2296 30.3509 14.2296 29.7778C13.3227 28.9717 14.28 31.6545 14.8531 31.6923L14.8468 31.686ZM7.69874 31.9379C9.77702 33.9721 12.3528 35.4458 15.1428 36.2204C15.168 36.4031 15.1994 36.5794 15.2246 36.7621C12.1261 35.9622 9.30468 34.2996 7.07526 31.9316C9.29209 29.5762 12.1072 27.9136 15.1931 27.1138C15.168 27.2964 15.1428 27.4791 15.1176 27.6617C12.3402 28.4363 9.76443 29.91 7.69244 31.9316L7.69874 31.9379ZM13.5935 26.3455C12.7874 25.4953 12.1891 24.4813 11.8112 23.3792C12.8126 22.8817 13.9336 22.5857 15.0609 22.5353C15.2939 23.0265 15.5458 23.5114 15.8229 23.9838C15.6718 24.5947 15.5332 25.2056 15.4199 25.8165C14.8027 25.9613 14.1918 26.1376 13.5935 26.3455ZM14.6389 22.2015C14.6389 22.2015 14.6389 22.2015 14.6452 22.2015C14.6767 22.1763 14.7082 22.1511 14.7397 22.1259C14.7712 22.107 14.8027 22.0818 14.8342 22.063C14.8531 22.1007 14.872 22.1448 14.8909 22.1826C14.809 22.1889 14.7208 22.1952 14.6389 22.2015ZM12.8567 19.4934C12.5103 19.6887 12.1702 19.9154 11.8616 20.1673C11.7734 19.0841 12.4851 17.9442 13.5179 17.5537C13.5935 18.026 13.688 18.4984 13.8013 18.9581C13.4864 19.1282 13.1652 19.3045 12.8567 19.4934ZM19.1986 5.35484C18.5877 4.90769 17.8571 4.63059 17.1014 4.56761C17.3785 4.41016 17.6619 4.25902 17.939 4.10787C18.4302 4.22753 18.8963 4.44795 19.3308 4.71876C19.2804 4.92659 19.2363 5.14071 19.1986 5.35484ZM18.4176 3.86855C18.6506 3.74889 18.89 3.62923 19.1293 3.51587C19.2993 3.58515 19.4694 3.67962 19.6331 3.77408C19.5575 3.96302 19.4946 4.15195 19.4379 4.34719C19.123 4.15195 18.7766 3.98821 18.4239 3.86855H18.4176ZM19.5512 3.32064C19.6709 3.26396 19.7906 3.21358 19.9102 3.1569C19.8598 3.25137 19.8157 3.34583 19.778 3.4403C19.7024 3.39622 19.6268 3.35843 19.5512 3.32064ZM22.3601 4.48574C21.4595 4.55501 20.5967 4.92029 19.9102 5.51228C20.0236 4.80693 20.2188 4.15195 20.5337 3.52847C21.1761 3.7426 21.787 4.06378 22.3601 4.47944V4.48574ZM20.7037 2.82311C20.8234 2.77273 20.9431 2.72235 21.0627 2.67826C21.0375 2.76014 21.0123 2.84201 20.9871 2.92388C20.8927 2.89239 20.7982 2.8609 20.7037 2.82311ZM21.3335 3.04984C21.3839 2.8672 21.4406 2.68456 21.5099 2.50192C21.7618 2.40746 22.0137 2.31299 22.2719 2.22482C22.1019 2.5712 21.9696 2.93647 21.8814 3.30805C21.7051 3.21358 21.5225 3.12541 21.3398 3.04354L21.3335 3.04984ZM22.7505 3.86225C22.5742 3.7363 22.3916 3.61664 22.2089 3.50958C22.3223 2.99315 22.5175 2.50192 22.7946 2.04848C23.1095 1.94142 23.4307 1.84695 23.7456 1.74619C23.2229 2.33818 22.8702 3.08762 22.7505 3.85596V3.86225ZM5.70233 18.8385C5.48191 18.8763 5.27408 18.9203 5.05995 18.9707C4.57502 18.3032 4.37979 17.6482 4.94659 16.9554C5.03476 17.6293 5.29927 18.2843 5.70233 18.8322V18.8385ZM4.68838 19.0715C4.49945 19.1345 4.31051 19.1974 4.12158 19.273C4.0649 19.1723 4.00822 19.0715 3.95784 18.9707C4.0586 18.7314 4.17196 18.4984 4.28532 18.2654C4.39868 18.5488 4.53094 18.8133 4.68838 19.0715ZM5.85978 19.5501C5.27408 20.2366 4.9214 21.0931 4.85213 22.0126C4.43017 21.4332 4.10269 20.816 3.88856 20.1736C4.48685 19.8713 5.15442 19.6635 5.85348 19.5564L5.85978 19.5501ZM4.50575 22.7431C4.68838 22.9761 4.88991 23.1966 5.10404 23.4107C1.57726 23.0454 0.512929 28.3923 3.88226 29.4125C3.60516 29.5259 3.33435 29.6581 3.06984 29.8093C0.500333 28.6631 1.84807 25.8542 2.26372 23.7634C2.86202 23.184 3.68073 22.8124 4.50575 22.7431ZM2.92499 33.1219C2.41487 32.7944 1.95513 32.3851 1.55837 31.9316C2.01181 31.4152 2.54712 30.9681 3.13912 30.6154C2.85572 31.4719 2.86202 32.4166 3.15172 33.2668C3.07614 33.2164 3.00057 33.1723 2.93129 33.1219H2.92499ZM2.71087 30.0171C2.52193 30.1305 2.34559 30.2564 2.16926 30.3887C1.84807 30.1682 1.56466 29.8974 1.30016 29.6077C1.31905 29.3054 1.33794 29.0094 1.37573 28.7071C1.70951 29.2425 2.17555 29.6959 2.71087 30.0171ZM1.87326 30.6154C1.71581 30.7476 1.56466 30.8799 1.41981 31.0184C1.35684 30.9681 1.29386 30.924 1.23718 30.8736C1.24348 30.6154 1.25607 30.3572 1.26867 30.0927C1.4576 30.2879 1.65913 30.4516 1.87326 30.6091V30.6154ZM1.43241 32.87C1.57726 33.0086 1.72211 33.1408 1.87956 33.2731C1.66543 33.4242 1.4639 33.5943 1.28126 33.7769C1.26237 33.525 1.24977 33.2731 1.24348 33.0212C1.30645 32.9708 1.36943 32.9204 1.43241 32.87ZM1.66543 33.9154C1.82917 33.7643 2.00551 33.6257 2.18185 33.4998C2.35819 33.632 2.53453 33.7517 2.72346 33.8714C2.18815 34.1988 1.73471 34.6334 1.39462 35.1624C1.36313 34.8664 1.33794 34.5704 1.31905 34.2744C1.43241 34.1485 1.53947 34.0351 1.66543 33.9217V33.9154ZM1.73471 35.3073C2.08109 34.7908 2.54083 34.3626 3.08874 34.0729C3.35325 34.2177 3.62405 34.35 3.91375 34.4697C0.506631 35.5403 1.52688 40.7675 5.08514 40.4841C4.87102 40.6982 4.67579 40.9186 4.48685 41.1579C3.69333 41.0761 2.93759 40.736 2.34559 40.207C2.11887 38.6514 1.13012 36.781 1.741 35.3136L1.73471 35.3073ZM4.85213 41.8759C4.87102 42.1278 4.90881 42.3797 4.98438 42.619C4.98438 42.619 4.98438 42.6253 4.98438 42.6316C5.00957 42.7261 5.03476 42.8206 5.07255 42.915V42.9213C5.24259 43.4315 5.52599 43.9101 5.87867 44.3194C5.19221 44.2061 4.51834 44.0108 3.89486 43.696C4.10898 43.0599 4.43017 42.449 4.84583 41.8696L4.85213 41.8759ZM4.14047 44.6091C4.32941 44.6847 4.51834 44.7477 4.71357 44.8044C4.56872 45.0437 4.43647 45.2956 4.33571 45.5601C4.22234 45.3271 4.11528 45.0941 4.00822 44.8611C4.04601 44.7729 4.09639 44.691 4.14047 44.6028V44.6091ZM5.07885 44.9051C5.29297 44.9555 5.5008 44.9996 5.72123 45.0374C5.33076 45.5601 5.07885 46.1773 4.97179 46.8197C4.83323 46.5552 4.68209 46.2844 4.55613 46.0136C4.68838 45.6294 4.85842 45.2452 5.08514 44.9051H5.07885ZM8.00733 50.0001C5.30557 48.9169 6.11169 44.7099 9.07796 44.9051C9.06537 45.1256 9.03388 45.3271 9.00239 45.5223C4.68209 46.2214 8.6875 52.0028 10.8728 48.2241C11.0681 48.2808 11.2633 48.3312 11.4522 48.3941C10.8414 49.7797 9.51881 50.6739 8.00733 49.9938V50.0001ZM12.1135 54.333C12.3339 54.3015 12.5481 54.2637 12.7622 54.2133C12.5921 54.8998 12.6047 55.6114 12.7937 56.2916C12.5481 56.0964 12.3024 55.8885 12.0694 55.6807C12.0253 55.2336 12.0379 54.7864 12.1198 54.333H12.1135ZM12.6803 53.1112C11.8616 52.6766 11.2255 51.9272 10.898 51.0707C10.9988 50.7558 11.1248 50.4409 11.2696 50.1449C11.4585 51.5808 12.6866 52.7774 14.1162 52.96C13.6376 53.1679 13.1527 53.5017 12.6803 53.1112ZM13.1589 54.1063C13.4486 54.0244 13.7383 53.9236 14.0155 53.804C13.5053 54.7864 13.5872 56.0523 14.2359 56.9592C14.2989 57.0599 14.3807 57.1544 14.4626 57.2426C15.6277 58.6281 17.9453 58.6092 19.0978 57.2237C19.0978 57.526 19.1167 57.8283 19.1482 58.1243C18.4617 58.6848 17.5422 59.006 16.6542 58.9619C14.8027 57.8157 12.1828 56.6821 13.1527 54.1L13.1589 54.1063ZM17.4541 59.2705C18.0838 59.176 18.6884 58.9115 19.2049 58.5336C19.2426 58.754 19.2867 58.9619 19.3371 59.176C18.9529 59.4279 18.5247 59.6168 18.0775 59.7491C17.7941 59.6042 17.517 59.4594 17.2462 59.302C17.3092 59.2894 17.3911 59.2894 17.4478 59.2705H17.4541ZM19.4379 59.5476C19.4946 59.7365 19.5701 59.9254 19.6394 60.1144C19.2615 60.4608 18.9215 60.1711 18.5373 59.9821C18.8522 59.8625 19.1482 59.7176 19.4379 59.5476ZM20.54 52.3744C19.4253 52.4499 18.3232 51.7572 17.9138 50.718C18.3861 50.6362 18.8585 50.548 19.3245 50.4409C19.6142 50.9699 19.9102 51.5053 20.2503 52.0028C20.3448 52.135 20.4392 52.261 20.5337 52.3806L20.54 52.3744ZM20.836 52.7144C20.9934 52.8782 21.1509 53.0293 21.3146 53.1742C21.2768 53.2561 21.2328 53.3379 21.1635 53.4072C20.7226 53.9173 19.8094 53.6906 19.6646 53.0293C19.6772 53.0104 19.6961 52.9978 19.7024 52.9789C19.7591 52.8908 19.8031 52.79 19.8409 52.6892C20.1684 52.7522 20.5022 52.7648 20.8297 52.7081L20.836 52.7144ZM19.4883 52.6074C19.0852 53.678 17.41 53.023 17.8508 51.965C17.9705 51.9272 18.0901 51.8705 18.1846 51.795C18.5373 52.1728 18.9907 52.4562 19.4883 52.6074ZM17.9579 51.5178C17.4415 51.8831 16.6542 51.5053 16.6102 50.8755C16.925 50.8503 17.2399 50.8188 17.5548 50.7747C17.6556 51.0392 17.7878 51.2911 17.9579 51.5178ZM15.1176 41.2083C13.9525 41.1768 12.8063 40.8745 11.7608 40.3707C12.1198 39.3127 12.6992 38.3113 13.4612 37.4737C14.1099 37.7067 14.7712 37.902 15.4451 38.0594C15.5647 38.6577 15.697 39.2497 15.8481 39.8417C15.5836 40.2825 15.338 40.7423 15.1176 41.202V41.2083ZM17.6493 12.188C17.7123 12.295 17.7941 12.3958 17.8886 12.4777C17.7627 12.6729 17.6556 12.8807 17.58 13.1012C17.2651 13.0571 16.9628 13.0256 16.6479 13.0004C16.6605 12.6162 16.9628 12.2761 17.3407 12.1943C17.4415 12.1754 17.5485 12.1691 17.6493 12.188ZM19.3497 11.2937C18.8711 11.4763 18.4365 11.7849 18.109 12.1817C17.2651 11.407 18.5247 10.1097 19.3308 10.9158C19.3119 11.0418 19.3308 11.174 19.3497 11.2937ZM20.6282 11.47C20.1369 12.0746 19.7654 12.7737 19.4064 13.4601C18.9215 13.3405 18.4428 13.2397 17.9516 13.1641C18.0524 12.9122 18.1783 12.6792 18.3484 12.4714C18.8837 11.7849 19.7654 11.4007 20.6282 11.47ZM21.3776 10.6954C21.2202 10.8339 21.069 10.9851 20.9179 11.1362C20.5022 11.0733 20.0928 11.0859 19.7024 11.1866C19.4883 10.1853 21.0123 9.73812 21.3776 10.6954ZM21.6673 10.4498C21.2516 9.56808 19.8913 9.59327 19.4757 10.4498C19.0348 9.87037 18.2287 9.65625 17.3596 9.5051C17.1644 10.3679 17.051 11.1929 17.4163 11.8164C16.8306 11.8668 16.3205 12.3706 16.2953 12.9626C16.0937 12.95 15.8922 12.9437 15.6907 12.9374C15.7096 12.7926 15.7537 12.654 15.7851 12.5092C15.7851 12.5092 15.7222 12.4903 15.7159 12.4903C15.7159 12.4903 15.7788 12.5092 15.7851 12.5029C16.2827 11.0607 16.8369 9.05795 16.3897 8.04401C18.0712 9.47991 20.6156 8.77455 22.5301 9.70663C22.5112 9.77591 22.486 9.84518 22.4671 9.92076C22.19 10.0782 21.9318 10.2482 21.6799 10.4498H21.6673ZM20.0991 8.76196C20.0677 8.6297 20.0299 8.50375 20.0047 8.37149C21.6358 9.07685 23.6637 8.22034 24.3439 6.58921C24.4195 6.70887 24.4887 6.82853 24.5643 6.94818C24.432 7.10563 24.3061 7.26937 24.1801 7.44571C23.7582 8.02511 23.4622 8.57302 23.2544 9.08944C23.1284 9.03906 22.9898 8.98868 22.8576 8.95719C22.7883 9.08944 22.7127 9.23429 22.6624 9.37285C21.9192 9.04536 20.9242 8.83753 20.1054 8.76196H20.0991ZM23.0339 9.39804C23.3173 9.4988 23.5755 9.63106 23.8275 9.7885C23.4244 10.2042 23.0402 10.6198 22.6561 11.0544C22.6561 10.4813 22.7883 9.91446 23.0339 9.39804ZM25.6664 5.59415C24.854 4.78174 25.2634 3.27026 26.3781 2.98686C26.4473 3.67332 26.3277 4.57391 25.6664 5.59415ZM26.7685 2.91128C27.8392 2.81052 28.7335 4.00081 28.3493 5.00216C27.6061 4.47314 27.0204 3.74889 26.7685 2.91128ZM28.6642 5.21628C29.7285 0.977852 22.7694 2.48303 25.446 5.90275C25.3326 6.05389 25.2067 6.21134 25.0681 6.36879C24.8036 5.95943 24.5265 5.55007 24.199 5.19109C23.2418 0.606281 30.8117 0.814109 29.2373 5.33594C29.1806 5.37373 29.1365 5.41152 29.0798 5.44301C28.935 5.36743 28.8027 5.29186 28.6642 5.20999V5.21628ZM28.0092 1.65172C25.9939 0.732238 23.5252 2.51452 23.7519 4.71246C23.5378 4.49833 23.311 4.2968 23.078 4.11417C23.1599 2.76014 24.1046 1.75878 25.2948 1.26125C25.8805 1.129 26.4662 1.00934 27.0645 0.908577C28.3304 0.908577 29.5585 1.46908 30.1568 2.72235C30.0119 2.98686 29.8797 3.25137 29.7663 3.53477C29.4892 2.68456 28.8279 1.9855 28.0092 1.64542V1.65172ZM30.881 0.499218C31.0574 0.681855 31.2211 0.87079 31.3722 1.07232C31.2274 1.21717 31.0951 1.36202 30.9692 1.51947C30.711 1.16049 30.4087 0.833003 30.0623 0.555899C30.2827 0.537005 30.5031 0.518112 30.7299 0.505516C30.7802 0.505516 30.8306 0.505516 30.881 0.505516V0.499218ZM32.0398 0.467729C31.9013 0.574792 31.769 0.694451 31.6368 0.814109C31.5486 0.700749 31.4541 0.593686 31.3596 0.486623C31.5864 0.480325 31.8131 0.474027 32.0398 0.467729ZM28.7649 0.851896C28.6894 0.807812 28.6012 0.770025 28.5193 0.72594C28.8531 0.681855 29.1932 0.63777 29.5333 0.606281C29.9993 0.940066 30.4213 1.34313 30.7425 1.82176C30.6165 1.9981 30.4905 2.17444 30.3772 2.36337C29.9867 1.72729 29.4325 1.19198 28.7712 0.851896H28.7649ZM31.9579 2.5775H31.9453C31.6116 2.60899 31.2904 2.67197 30.9755 2.77903C31.0196 2.70346 31.0699 2.62788 31.114 2.55861C31.4541 2.05478 31.8446 1.58244 32.3043 1.19198C32.8144 1.63283 33.2553 2.16814 33.6269 2.77273C33.0915 2.59639 32.5184 2.52712 31.9579 2.5838V2.5775ZM33.2238 0.480325C33.1293 0.587388 33.0412 0.688153 32.953 0.801514C32.827 0.681855 32.7011 0.574792 32.5625 0.461432C32.783 0.461432 33.0034 0.474027 33.2238 0.480325Z" fill="#18100A"/>
  <path d="M31.9516 58.5336C31.6305 58.4832 31.5801 58.9871 31.9076 58.9934C32.2287 59.0437 32.2791 58.5399 31.9516 58.5336Z" fill="#18100A"/>
  <path d="M42.4942 56.2979C42.1478 56.3546 42.2549 56.8773 42.5887 56.7513C42.935 56.6947 42.8343 56.1719 42.4942 56.2979Z" fill="#18100A"/>
  <path d="M50.1838 51.1526C49.8815 51.3289 50.1586 51.7761 50.4357 51.543C50.738 51.3667 50.4609 50.9133 50.1838 51.1526Z" fill="#18100A"/>
  <path d="M43.7789 8.03771C43.9238 7.7606 43.42 7.51499 43.2877 7.79209C43.1429 8.0692 43.6467 8.31481 43.7789 8.03771Z" fill="#18100A"/>
  <path d="M41.0583 56.8836C40.7056 56.9214 40.7812 57.4504 41.1276 57.3433C41.4739 57.3055 41.4047 56.7828 41.0583 56.8836Z" fill="#18100A"/>
  <path d="M40.9134 6.80334C41.0205 6.51364 40.4978 6.331 40.397 6.6207C40.29 6.9104 40.8127 7.09933 40.9134 6.80334Z" fill="#18100A"/>
  <path d="M42.3619 7.37644C42.4879 7.09303 41.9715 6.87891 41.8581 7.16231C41.7322 7.44571 42.2486 7.66614 42.3619 7.37644Z" fill="#18100A"/>
  <path d="M45.2526 54.8872C44.9188 54.9879 45.0889 55.4918 45.4038 55.328C45.7439 55.2273 45.5738 54.7234 45.2526 54.8872Z" fill="#18100A"/>
  <path d="M39.5846 57.3811C39.2319 57.4 39.276 57.929 39.6287 57.8472C39.9751 57.8283 39.9373 57.2992 39.5846 57.3811Z" fill="#18100A"/>
  <path d="M46.5689 54.0622C46.2351 54.1818 46.4366 54.6794 46.7452 54.4967C47.0727 54.3771 46.8775 53.8858 46.5689 54.0622Z" fill="#18100A"/>
  <path d="M46.4114 9.27838C46.1721 9.02647 45.7942 9.39804 46.0839 9.61216C46.3233 9.87037 46.7011 9.4925 46.4114 9.27838Z" fill="#18100A"/>
  <path d="M47.7151 10.1664C47.4884 9.89556 47.0916 10.2482 47.3687 10.4813C47.5891 10.7521 47.9922 10.3994 47.7151 10.1664Z" fill="#18100A"/>
  <path d="M48.9558 11.1299C48.7479 10.8528 48.3323 11.1803 48.5968 11.4259C48.8046 11.7093 49.2266 11.3756 48.9558 11.1299Z" fill="#18100A"/>
  <path d="M43.8923 55.6303C43.5522 55.7059 43.6908 56.2223 44.0183 56.0775C44.3583 56.0019 44.2261 55.4855 43.8923 55.6303Z" fill="#18100A"/>
  <path d="M49.0376 52.1917C48.7227 52.3492 48.9746 52.8215 49.2643 52.6011C49.5792 52.4436 49.3273 51.9776 49.0376 52.1917Z" fill="#18100A"/>
  <path d="M45.1519 8.77455C45.3093 8.50375 44.8244 8.23294 44.6732 8.50375C44.5158 8.77455 45.0007 9.04536 45.1519 8.77455Z" fill="#18100A"/>
  <path d="M47.8284 53.1616C47.5073 53.3001 47.7277 53.7851 48.03 53.5835C48.3512 53.445 48.1244 52.9663 47.8284 53.1616Z" fill="#18100A"/>
  <path d="M36.3853 5.61305C36.442 5.30445 35.8878 5.21628 35.8437 5.52488C35.7933 5.82717 36.3412 5.91534 36.3853 5.61305Z" fill="#18100A"/>
  <path d="M51.2734 13.2712C51.097 12.9689 50.6436 13.246 50.8829 13.5231C51.0592 13.8254 51.5127 13.5483 51.2734 13.2712Z" fill="#18100A"/>
  <path d="M57.9113 27.0949C57.8924 27.4413 58.4214 27.4602 58.3773 27.1012C58.4025 26.7548 57.8672 26.7359 57.9113 27.0949Z" fill="#18100A"/>
  <path d="M58.1506 28.6253C58.1128 28.9717 58.6418 29.0157 58.6166 28.6568C58.6607 28.3104 58.1254 28.26 58.1506 28.6253Z" fill="#18100A"/>
  <path d="M33.5009 58.4769C33.1545 58.414 33.0727 58.9367 33.4379 58.9367C33.7843 58.9997 33.8599 58.4706 33.5009 58.4769Z" fill="#18100A"/>
  <path d="M57.0862 22.4597C56.9414 22.1322 56.4942 22.4219 56.6895 22.7053C56.8343 23.0391 57.2815 22.7431 57.0862 22.4597Z" fill="#18100A"/>
  <path d="M57.5775 25.5834C57.5775 25.9361 58.1128 25.9172 58.0435 25.5645C58.0435 25.2182 57.5145 25.2308 57.5775 25.5834Z" fill="#18100A"/>
  <path d="M57.6027 23.9586C57.4767 23.6185 57.0107 23.883 57.1933 24.179C57.3193 24.5191 57.7853 24.2546 57.6027 23.9586Z" fill="#18100A"/>
  <path d="M39.4272 6.3184C39.5216 6.02241 38.98 5.86496 38.8981 6.16726C38.81 6.46325 39.339 6.6144 39.4272 6.3184Z" fill="#18100A"/>
  <path d="M37.9157 5.92164C37.9912 5.61935 37.4433 5.49969 37.3804 5.80198C37.3111 6.10428 37.8527 6.22394 37.9157 5.92164Z" fill="#18100A"/>
  <path d="M38.0857 57.7905C37.733 57.7905 37.7519 58.3195 38.1046 58.2565C38.4573 58.2565 38.4447 57.7275 38.0857 57.7905Z" fill="#18100A"/>
  <path d="M32.7326 5.23518C32.7137 5.54377 33.2679 5.57526 33.2805 5.26037C33.2994 4.95178 32.7389 4.92029 32.7326 5.23518Z" fill="#18100A"/>
  <path d="M58.2954 30.1682C58.2324 30.5146 58.7615 30.5902 58.7552 30.2312C58.8181 29.8911 58.2891 29.8093 58.2954 30.1682Z" fill="#18100A"/>
  <path d="M35.0376 58.3384C34.6912 58.2943 34.6408 58.8233 34.9998 58.8044C35.3462 58.8485 35.3965 58.3132 35.0376 58.3384Z" fill="#18100A"/>
  <path d="M34.836 5.39262C34.8738 5.08403 34.3196 5.02105 34.2881 5.33594C34.2503 5.64454 34.8046 5.70122 34.836 5.39262Z" fill="#18100A"/>
  <path d="M36.5742 58.1054C36.2216 58.0802 36.209 58.6155 36.5616 58.5714C36.908 58.5966 36.9269 58.0613 36.5742 58.1054Z" fill="#18100A"/>
  <path d="M50.146 12.1691C49.9571 11.8794 49.5163 12.1817 49.7682 12.4399C49.9571 12.7359 50.398 12.4273 50.146 12.1691Z" fill="#18100A"/>
  <path d="M57.9805 37.6941C57.6782 37.6186 57.5523 38.1665 57.8609 38.2295C58.1632 38.305 58.2891 37.7571 57.9805 37.6941Z" fill="#18100A"/>
  <path d="M57.6027 39.2119C57.3067 39.1237 57.1492 39.6528 57.4515 39.7409C57.7475 39.8354 57.905 39.2938 57.6027 39.2119Z" fill="#18100A"/>
  <path d="M57.1366 40.7045C56.8469 40.5974 56.658 41.1202 56.954 41.2209C57.2437 41.328 57.4326 40.799 57.1366 40.7045Z" fill="#18100A"/>
  <path d="M56.4061 21.3891C56.6958 21.2694 56.4628 20.753 56.1856 20.8853C55.9022 21.0112 56.129 21.515 56.4061 21.3891Z" fill="#18100A"/>
  <path d="M56.5887 42.1656C56.3053 42.0396 56.0849 42.5561 56.3746 42.6694C56.658 42.7954 56.8784 42.2789 56.5887 42.1656Z" fill="#18100A"/>
  <path d="M58.3269 33.3612C58.3269 33.7202 58.8559 33.6383 58.7866 33.292L58.3269 33.2794V33.3612Z" fill="#18100A"/>
  <path d="M58.4529 36.422C58.3395 36.3968 58.1128 36.3716 57.9994 36.3716C57.8735 36.7558 58.4718 36.825 58.4529 36.422Z" fill="#18100A"/>
  <path d="M58.5851 31.4845C58.2765 31.4845 58.2765 32.0387 58.5851 32.0324C58.9 32.0324 58.8811 31.4782 58.5851 31.4845Z" fill="#18100A"/>
  <path d="M51.2734 50.0442C50.9774 50.2331 51.2859 50.6739 51.5442 50.422C51.8339 50.2331 51.5316 49.7922 51.2734 50.0442Z" fill="#18100A"/>
  <path d="M58.4592 34.6082C58.138 34.5767 58.0939 35.1561 58.4277 35.1561C58.7174 35.1561 58.7615 34.6334 58.4592 34.6082Z" fill="#18100A"/>
  <path d="M55.9526 43.5889C55.6755 43.444 55.4299 43.9479 55.707 44.0801C55.9841 44.225 56.2297 43.7211 55.9526 43.5889Z" fill="#18100A"/>
  <path d="M53.2446 47.6573C52.9801 47.8777 53.3264 48.2808 53.5595 48.0037C53.8303 47.7769 53.4713 47.3802 53.2446 47.6573Z" fill="#18100A"/>
  <path d="M52.2936 48.8791C52.0102 49.0869 52.344 49.5025 52.5896 49.2443C52.873 49.0365 52.5392 48.6146 52.2936 48.8791Z" fill="#18100A"/>
  <path d="M53.3201 15.6644C53.1816 15.3432 52.6967 15.5699 52.8982 15.8659C53.0367 16.1871 53.5217 15.9604 53.3201 15.6644Z" fill="#18100A"/>
  <path d="M52.3314 14.4363C52.1739 14.1277 51.7079 14.3796 51.922 14.663C52.0795 14.9779 52.5518 14.726 52.3314 14.4363Z" fill="#18100A"/>
  <path d="M55.2347 44.9744C54.9702 44.817 54.6931 45.3019 54.9639 45.453C55.2284 45.6105 55.5118 45.1256 55.2347 44.9744Z" fill="#18100A"/>
  <path d="M55.7448 19.9721C56.0219 19.8335 55.77 19.336 55.4929 19.4808C55.2095 19.6194 55.4677 20.1169 55.7448 19.9721Z" fill="#18100A"/>
  <path d="M55.0017 18.5929C55.2725 18.4354 54.9828 17.9568 54.7183 18.1205C54.4474 18.278 54.7372 18.7566 55.0017 18.5929Z" fill="#18100A"/>
  <path d="M54.1766 17.264C54.4349 17.094 54.1263 16.6342 53.868 16.8106C53.6035 16.9806 53.9184 17.4466 54.1766 17.264Z" fill="#18100A"/>
  <path d="M54.1389 46.7756C54.3971 46.9519 54.6994 46.4859 54.4412 46.3159C54.1829 46.1395 53.8806 46.6055 54.1389 46.7756Z" fill="#18100A"/>
  <path d="M31.4604 5.00216C31.1329 4.95807 31.114 5.4682 31.4415 5.4619C31.7501 5.48709 31.769 5.00216 31.4604 5.00216Z" fill="#18100A"/>
  <path d="M6.99968 52.1539C6.99968 52.1539 7.00598 52.1539 7.01228 52.1539C7.01228 52.1539 7.00598 52.1476 6.99968 52.1476V52.1539Z" fill="#18100A"/>
  <path d="M10.5517 37.4044C10.4383 37.6878 11.9435 37.946 11.9498 37.6626C12.0316 37.3729 10.5831 37.121 10.5517 37.4044Z" fill="#18100A"/>
  <path d="M10.6335 38.7396C10.8099 38.664 12.0253 38.9348 11.8553 38.4814C11.7671 38.242 9.85259 38.2987 10.6335 38.7396Z" fill="#18100A"/>
  <path d="M13.1401 41.6177C12.907 41.3595 12.2647 42.2915 12.1198 42.386C11.9687 43.1921 13.4109 41.8318 13.1464 41.6114L13.1401 41.6177Z" fill="#18100A"/>
  <path d="M13.6439 42.1782C13.625 42.1341 13.0015 43.0914 12.9826 43.104C12.8189 44.1305 14.4878 41.9641 13.6439 42.1782Z" fill="#18100A"/>
  <path d="M12.5733 40.0369C13.2786 40.2574 14.0847 40.4589 14.7775 40.1944C14.8279 39.7598 15.0231 39.3253 15.3128 38.8907C14.8405 38.7963 14.387 38.6514 14.0092 38.3554C13.3479 38.664 12.9322 39.319 12.567 40.0306L12.5733 40.0369Z" fill="#18100A"/>
  <path d="M13.0771 20.4129C13.0771 20.4129 13.096 20.4003 13.1086 20.4003C12.674 20.5389 13.5683 21.3639 13.6061 21.5465C14.4311 21.9748 13.3353 20.2177 13.0771 20.4192V20.4129Z" fill="#18100A"/>
  <path d="M12.4221 21.1687C12.3528 21.0994 12.2332 21.0994 12.1639 21.1687C11.8994 21.3954 12.8441 22.0126 12.9196 22.1637C13.8013 22.3652 12.5481 21.2946 12.4284 21.1687H12.4221Z" fill="#18100A"/>
  <path d="M11.7293 25.4197C12.5607 24.9977 10.4446 24.8655 10.495 25.2308C10.4572 25.5834 11.5656 25.3567 11.7293 25.4197Z" fill="#18100A"/>
  <path d="M11.9939 26.125C11.975 25.8227 10.5202 26.1062 10.602 26.3833C10.6335 26.673 12.0757 26.4084 11.9939 26.125Z" fill="#18100A"/>
  <path d="M14.091 23.4233C13.5935 23.4233 13.1023 23.5681 12.6299 23.713C12.97 24.368 13.3794 25.0607 14.0784 25.3882C14.4563 25.0859 14.8971 24.9474 15.3758 24.8466C15.0861 24.4183 14.8846 23.9775 14.8342 23.5492C14.5949 23.4611 14.3492 23.4233 14.091 23.4233Z" fill="#18100A"/>
  <path d="M22.6246 12.5155L22.5994 12.4966L22.6246 12.5218V12.5155Z" fill="#18100A"/>
  <path d="M16.5283 46.3096C16.0308 46.8449 15.8985 47.6069 15.8355 48.4067C16.6353 48.3438 17.3974 48.2115 17.9327 47.714C17.813 47.292 17.8319 46.8197 17.9327 46.3096C17.4793 46.404 16.9628 46.4418 16.5283 46.3096Z" fill="#18100A"/>
  <path d="M10.9799 30.9429C10.2053 30.9807 9.59438 31.4467 9.00869 31.9379C9.57549 32.4229 10.2179 32.8952 10.9799 32.933C11.2192 32.5173 11.5656 32.2087 11.975 31.9379C11.5719 31.6671 11.2192 31.3585 10.9799 30.9429Z" fill="#18100A"/>
  <path d="M17.9264 17.56C17.8256 17.0436 17.813 16.5776 17.9264 16.1556C17.3533 15.6392 16.5724 15.5258 15.8229 15.4628C15.8922 16.1997 15.9993 16.9932 16.522 17.5663C16.9439 17.4466 17.4163 17.4592 17.9264 17.5663V17.56Z" fill="#18100A"/>
  <path d="M4.61911 39.3505C4.61911 39.3505 4.61281 39.3505 4.60651 39.3505C4.60651 39.3505 4.61281 39.3505 4.61911 39.3505Z" fill="#18100A"/>
</svg>