<svg xmlns="http://www.w3.org/2000/svg" width="47" height="17" viewBox="0 0 47 17" fill="none">
  <g clip-path="url(#clip0_145_1204)">
    <path d="M38.8735 16.3012L40.1835 12.832L36.492 3.5939H39.9593L41.8343 9.26953L43.6063 3.5939H46.9968L42.2158 16.3035L38.8735 16.3012ZM3.30446 11.8606V13.0078H-0.000976562V0.302002H3.30371V4.85052C3.62688 4.3937 4.05561 4.02189 4.5535 3.76683C5.0514 3.51176 5.60362 3.38102 6.16296 3.38575C8.40509 3.38575 10.336 5.2491 10.336 8.26037V8.29429C10.336 11.3588 8.40546 13.219 6.17951 13.219C5.62766 13.2326 5.07974 13.1169 4.58059 12.881C4.08144 12.6451 3.64454 12.2957 3.30446 11.8606ZM3.23373 8.27425V8.30817C3.21343 8.57578 3.24697 8.84474 3.33306 9.09892C3.41914 9.35311 3.55614 9.58728 3.73486 9.78741C3.91357 9.98754 4.13089 10.1495 4.37367 10.2636C4.61646 10.3777 4.87912 10.4416 5.14717 10.4514C5.41715 10.4451 5.68348 10.3838 5.92895 10.2711C6.17442 10.1585 6.3944 9.99688 6.57529 9.79625C6.75619 9.59562 6.89405 9.36017 6.98085 9.1043C7.06765 8.84843 7.10163 8.57752 7.08017 8.30817V8.27425C7.09856 8.00655 7.06226 7.7379 6.97408 7.48449C6.88591 7.23107 6.74758 6.99815 6.56701 6.79976C6.38645 6.60137 6.16762 6.44162 5.92368 6.33013C5.67975 6.21865 5.41527 6.15775 5.14717 6.15109C4.88069 6.16007 4.61918 6.2227 4.37743 6.33525C4.13568 6.44779 3.91863 6.60794 3.74012 6.80612C3.56162 7.0043 3.42515 7.23645 3.33832 7.4887C3.2515 7.74094 3.21655 8.00812 3.23524 8.27425H3.23373ZM11.3728 8.34518V8.30817C11.3459 7.66899 11.4491 7.031 11.676 6.43289C11.9029 5.83479 12.2493 5.28903 12.6933 4.82873C13.1374 4.36843 13.6698 4.00318 14.2591 3.75513C14.8485 3.50709 15.4821 3.38142 16.1214 3.38575C17.2864 3.32412 18.4291 3.72193 19.3042 4.49377C20.1793 5.26561 20.7172 6.34997 20.8023 7.51411L19.1018 9.21017H14.5601C14.6541 9.67109 14.9116 10.0823 15.2855 10.3675C15.6593 10.6527 16.1241 10.7926 16.5932 10.7613C17.0538 10.7681 17.5073 10.647 17.9032 10.4113L15.2065 13.1096C14.0989 12.9154 13.0996 12.3251 12.3946 11.4486C11.6896 10.5722 11.3257 9.46926 11.3728 8.34518ZM14.5044 7.52798H17.7745C17.6512 6.48182 17.0464 5.81882 16.1372 5.81882C15.2712 5.81882 14.6793 6.49801 14.5044 7.52798ZM32.6832 13.0078V7.89109C32.6832 6.86498 32.1748 6.32687 31.3951 6.32687C30.6153 6.32687 30.0362 6.86652 30.0362 7.89109V13.0078H26.7315V7.89109C26.7315 6.86498 26.2276 6.32687 25.4448 6.32687C24.662 6.32687 24.1055 6.86652 24.1055 7.89109V13.0078H20.8023V9.12922L26.5193 3.40656C26.6486 3.38985 26.7787 3.38187 26.909 3.38266C27.4607 3.35044 28.0104 3.47802 28.4914 3.75011C28.9724 4.02221 29.3647 4.42729 29.6216 4.91682C29.9938 4.43606 30.4716 4.04757 31.0181 3.78151C31.5646 3.51544 32.165 3.37897 32.7728 3.38266C34.7699 3.38266 35.9917 4.63389 35.9917 6.83106V13.0078H32.6832Z" fill="#E4E0DF"/>
  </g>
  <defs>
    <clipPath id="clip0_145_1204">
      <rect width="47" height="16" fill="white" transform="translate(0 0.301025)"/>
    </clipPath>
  </defs>
</svg>