<svg xmlns="http://www.w3.org/2000/svg" width="175" height="174" viewBox="0 0 175 174" fill="none">
  <path d="M88 139.383C87.2559 140.504 86.4269 141.399 85.4379 141.945C85.5132 143.829 86.6624 145.459 88 147.041C89.3377 145.459 90.4869 143.829 90.5622 141.945C89.5732 141.399 88.7442 140.504 88 139.383Z" fill="#18100A"/>
  <path d="M50.952 127.665C50.6411 126.582 50.6788 125.357 50.952 124.038C49.6332 124.312 48.4087 124.349 47.3254 124.038C46.0443 125.423 45.7052 127.392 45.5356 129.455C47.5985 129.285 49.5673 128.946 50.952 127.665Z" fill="#18100A"/>
  <path d="M33.045 89.5621C33.5913 88.573 34.4862 87.7441 35.6071 86.9999C34.4862 86.2557 33.5913 85.4268 33.045 84.4377C31.161 84.5131 29.5314 85.6623 27.9488 86.9999C29.5314 88.3375 31.161 89.4867 33.045 89.5621Z" fill="#18100A"/>
  <path d="M45.5356 44.5355C45.7052 46.5984 46.0443 48.5671 47.3254 49.9518C48.4087 49.641 49.6332 49.6787 50.952 49.9518C50.6788 48.6331 50.6411 47.4085 50.952 46.3252C49.5673 45.0441 47.5985 44.705 45.5356 44.5355Z" fill="#18100A"/>
  <path d="M88 34.6068C88.7442 33.4859 89.5732 32.591 90.5622 32.0447C90.4869 30.1607 89.3377 28.5311 88 26.9486C86.6624 28.5311 85.5132 30.1607 85.4379 32.0447C86.4269 32.591 87.2559 33.4859 88 34.6068Z" fill="#18100A"/>
  <path d="M125.039 46.3351C125.349 47.4184 125.312 48.643 125.039 49.9617C126.357 49.6886 127.582 49.6509 128.665 49.9617C129.946 48.577 130.285 46.6083 130.455 44.5453C128.392 44.7149 126.423 45.054 125.039 46.3351Z" fill="#18100A"/>
  <path d="M156.746 86.6986C149.398 77.9664 139.027 72.2015 127.836 70.5059C134.543 61.3876 137.802 49.9802 136.823 38.6105L136.785 38.2149L136.389 38.1772C125.02 37.1975 113.612 40.4568 104.494 47.1637C102.789 35.973 97.0336 25.6018 88.3014 18.2543L88 18L87.6986 18.2543C78.9664 25.6018 73.2015 35.973 71.5059 47.1637C62.3876 40.4568 50.9802 37.1881 39.6105 38.1772L39.2149 38.2149L39.1772 38.6105C38.1975 49.9896 41.4568 61.3876 48.1637 70.5059C36.973 72.2109 26.6018 77.9664 19.2543 86.6986L19 87L19.2543 87.3014C26.6018 96.0336 36.973 101.799 48.1637 103.494C41.4568 112.612 38.1975 124.02 39.1772 135.389L39.2149 135.785L39.6105 135.823C40.9387 135.936 42.2669 135.992 43.5951 135.992C53.6177 135.992 63.4614 132.761 71.5059 126.846C73.2109 138.036 78.9664 148.398 87.6986 155.746L88 156L88.3014 155.746C97.0336 148.398 102.789 138.027 104.494 126.846C112.548 132.771 122.382 136.002 132.396 136.002C133.724 136.002 135.061 135.945 136.389 135.832L136.785 135.795L136.823 135.399C137.802 124.029 134.543 112.622 127.836 103.503C139.027 101.798 149.398 96.043 156.746 87.3109L157 87.0094L156.746 86.708V86.6986ZM135.919 134.919C124.634 135.795 113.339 132.413 104.4 125.583C104.843 125.395 105.276 125.197 105.709 124.99C114.055 131.217 124.436 134.4 134.892 133.882C135.4 123.426 132.217 113.036 125.99 104.7C126.197 104.266 126.395 103.833 126.583 103.39C133.413 112.32 136.785 123.615 135.919 134.909V134.919ZM88 154.766C79.4845 147.475 73.908 137.217 72.3537 126.186C72.4385 126.12 72.5233 126.054 72.6081 125.989C72.9566 126.13 73.3051 126.271 73.6537 126.394C75.1514 136.689 80.2381 146.279 88 153.306C95.7525 146.279 100.849 136.68 102.337 126.394C102.685 126.262 103.034 126.12 103.383 125.989C103.467 126.054 103.552 126.12 103.637 126.186C102.083 137.208 96.5155 147.466 87.9906 154.766H88ZM49.2281 103.654C49.3317 103.664 49.4448 103.682 49.5484 103.701C49.6991 104.04 49.8498 104.38 50.01 104.719C43.7835 113.065 40.5996 123.445 41.1177 133.901C51.5737 134.41 61.9637 131.226 70.3002 124.999C70.7335 125.207 71.1668 125.405 71.6096 125.593C62.6796 132.413 51.3758 135.795 40.0909 134.928C39.2243 123.747 42.5306 112.556 49.2375 103.664L49.2281 103.654ZM40.0815 39.0815C51.2534 38.2149 62.4535 41.5212 71.3458 48.2281C71.3364 48.3317 71.3175 48.4448 71.2987 48.5484C70.9596 48.6991 70.6205 48.8498 70.2814 49.01C61.9354 42.7835 51.5548 39.5996 41.0988 40.1177C40.5902 50.5737 43.7741 60.9637 50.0005 69.3002C49.7933 69.7335 49.5955 70.1668 49.4071 70.6096C42.5777 61.6796 39.2055 50.3853 40.0721 39.0909L40.0815 39.0815ZM88 19.234C96.5155 26.5249 102.092 36.7831 103.646 47.8042C103.562 47.8702 103.467 47.9361 103.383 48.002C103.034 47.8608 102.695 47.7195 102.337 47.597C100.839 37.3012 95.7525 27.7118 87.9906 20.6846C80.2381 27.7118 75.142 37.3106 73.6537 47.597C73.2015 47.7666 72.7494 47.9455 72.3066 48.1245C73.795 36.9809 79.3997 26.6003 88 19.234ZM126.772 70.3458C126.668 70.3364 126.555 70.3175 126.452 70.2987C126.301 69.9596 126.15 69.6205 125.99 69.2814C132.217 60.9354 135.4 50.5548 134.882 40.0988C124.426 39.5902 114.036 42.7741 105.7 49.0005C105.266 48.7933 104.833 48.5955 104.39 48.4071C113.32 41.5872 124.624 38.2055 135.909 39.0721C136.776 50.2534 133.46 61.4441 126.762 70.3364L126.772 70.3458ZM128.044 87C128.044 109.08 110.08 127.044 88 127.044C65.92 127.044 47.9565 109.08 47.9565 87C47.9565 64.92 65.92 46.9565 88 46.9565C110.08 46.9565 128.044 64.92 128.044 87ZM129.334 94.0083C129.334 94.1402 129.353 94.2815 129.353 94.4134C129.353 94.6771 129.56 94.8844 129.824 94.8844C130.088 94.8844 130.295 94.6771 130.295 94.4134C130.295 93.3584 130.069 92.3693 129.692 91.4462C129.777 90.6172 129.843 89.7883 129.88 88.9499C131.199 90.0709 132.038 91.7476 132.038 93.6033C132.038 93.867 132.245 94.0743 132.509 94.0743C132.772 94.0743 132.98 93.867 132.98 93.6033C132.98 91.1918 131.755 89.0818 129.918 87.8007C129.918 87.6971 129.918 87.5934 129.918 87.4898C132.537 87.7065 134.609 89.9013 134.609 92.5859C134.609 92.8497 134.816 93.0569 135.08 93.0569C135.344 93.0569 135.551 92.8497 135.551 92.5859C135.551 90.4382 134.421 88.5449 132.725 87.471H133.13C135.344 87.471 137.143 89.2702 137.143 91.4932C137.143 91.757 137.35 91.9642 137.614 91.9642C137.878 91.9642 138.085 91.757 138.085 91.4932C138.085 89.8354 137.266 88.3753 136.013 87.471H136.87C138.358 87.471 139.564 88.6767 139.564 90.1651C139.564 90.4288 139.771 90.636 140.035 90.636C140.299 90.636 140.506 90.4288 140.506 90.1651C140.506 88.8086 139.762 87.6311 138.66 87C139.762 86.3783 140.506 85.1914 140.506 83.835C140.506 83.5712 140.299 83.364 140.035 83.364C139.771 83.364 139.564 83.5712 139.564 83.835C139.564 85.3233 138.358 86.529 136.87 86.529H136.013C137.266 85.6247 138.085 84.1646 138.085 82.5068C138.085 82.243 137.878 82.0358 137.614 82.0358C137.35 82.0358 137.143 82.243 137.143 82.5068C137.143 84.7204 135.344 86.529 133.13 86.529H132.725C134.421 85.4552 135.551 83.5712 135.551 81.4141C135.551 81.1503 135.344 80.9431 135.08 80.9431C134.816 80.9431 134.609 81.1503 134.609 81.4141C134.609 84.0893 132.537 86.2935 129.918 86.5102C129.918 86.4066 129.918 86.3029 129.918 86.1993C131.764 84.9182 132.98 82.8082 132.98 80.3967C132.98 80.133 132.772 79.9257 132.509 79.9257C132.245 79.9257 132.038 80.133 132.038 80.3967C132.038 82.2618 131.199 83.9291 129.88 85.0501C129.843 84.2117 129.777 83.3734 129.692 82.5539C130.069 81.6307 130.295 80.6416 130.295 79.5866C130.295 79.3229 130.088 79.1156 129.824 79.1156C129.56 79.1156 129.353 79.3229 129.353 79.5866C129.353 79.7279 129.343 79.8598 129.334 79.9917C129.108 78.6541 128.816 77.3259 128.467 76.0354C136.493 77.5614 144.085 81.4046 150.067 86.9906C144.085 92.5765 136.503 96.4198 128.467 97.9552C128.816 96.6553 129.108 95.3365 129.334 93.9989V94.0083ZM112.331 121.109C112.228 121.232 112.115 121.363 112.002 121.476C111.813 121.665 111.813 121.957 112.002 122.145C112.096 122.239 112.218 122.287 112.331 122.287C112.444 122.287 112.576 122.239 112.661 122.145C113.415 121.392 113.961 120.506 114.347 119.574C114.988 119.056 115.619 118.519 116.231 117.963C116.372 119.696 115.788 121.476 114.46 122.805C114.272 122.993 114.272 123.285 114.46 123.473C114.554 123.568 114.677 123.615 114.79 123.615C114.903 123.615 115.035 123.568 115.12 123.473C116.825 121.768 117.456 119.395 117.051 117.181C117.117 117.115 117.183 117.059 117.248 116.993C118.963 118.999 118.888 122.013 116.994 123.907C116.806 124.095 116.806 124.387 116.994 124.576C117.088 124.67 117.211 124.717 117.324 124.717C117.437 124.717 117.569 124.67 117.654 124.576C119.18 123.05 119.707 120.921 119.264 118.961L119.547 119.244C121.111 120.808 121.111 123.36 119.547 124.924C119.359 125.113 119.359 125.405 119.547 125.593C119.641 125.687 119.764 125.734 119.877 125.734C119.99 125.734 120.122 125.687 120.206 125.593C121.374 124.425 121.826 122.805 121.582 121.288L122.194 121.9C123.239 122.946 123.239 124.66 122.194 125.706C122.005 125.894 122.005 126.186 122.194 126.375C122.288 126.469 122.411 126.516 122.524 126.516C122.637 126.516 122.768 126.469 122.853 126.375C123.814 125.414 124.125 124.057 123.786 122.833C125.001 123.172 126.367 122.861 127.328 121.9C127.516 121.712 127.516 121.42 127.328 121.232C127.139 121.043 126.847 121.043 126.659 121.232C125.613 122.277 123.899 122.277 122.853 121.232L122.25 120.629C122.514 120.666 122.768 120.695 123.042 120.695C124.37 120.695 125.613 120.177 126.546 119.244C126.734 119.056 126.734 118.764 126.546 118.575C126.357 118.387 126.065 118.387 125.877 118.575C125.114 119.338 124.106 119.753 123.032 119.753C121.958 119.753 120.95 119.338 120.187 118.575L119.905 118.293C121.864 118.735 124.002 118.198 125.519 116.672C125.707 116.484 125.707 116.192 125.519 116.004C125.331 115.815 125.039 115.815 124.85 116.004C122.957 117.897 119.943 117.972 117.936 116.258C118.002 116.192 118.059 116.126 118.125 116.06C120.338 116.465 122.712 115.834 124.417 114.129C124.605 113.941 124.605 113.649 124.417 113.46C124.229 113.272 123.937 113.272 123.748 113.46C122.42 114.779 120.64 115.372 118.906 115.231C119.462 114.619 119.999 113.988 120.517 113.347C121.45 112.961 122.326 112.415 123.089 111.661C123.277 111.473 123.277 111.181 123.089 110.992C122.9 110.804 122.608 110.804 122.42 110.992C122.297 111.115 122.175 111.218 122.053 111.331C122.853 110.21 123.607 109.042 124.294 107.846C128.901 114.609 131.548 122.692 131.83 130.887C123.645 130.604 115.562 127.957 108.789 123.36C109.986 122.673 111.154 121.919 112.275 121.118L112.331 121.109ZM80.9917 128.334C80.8598 128.334 80.7279 128.353 80.5866 128.353C80.3229 128.353 80.1156 128.56 80.1156 128.824C80.1156 129.088 80.3229 129.295 80.5866 129.295C81.6416 129.295 82.6307 129.069 83.5539 128.692C84.3828 128.777 85.2117 128.843 86.0595 128.88C84.9386 130.199 83.2618 131.028 81.4061 131.028C81.1424 131.028 80.9352 131.235 80.9352 131.499C80.9352 131.763 81.1424 131.97 81.4061 131.97C83.8176 131.97 85.9277 130.746 87.2087 128.909C87.3124 128.909 87.416 128.909 87.5196 128.909C87.3029 131.527 85.1081 133.6 82.4235 133.6C82.1597 133.6 81.9525 133.807 81.9525 134.071C81.9525 134.334 82.1597 134.542 82.4235 134.542C84.5712 134.542 86.4646 133.411 87.5384 131.716V132.121C87.5384 134.334 85.7393 136.134 83.5162 136.134C83.2524 136.134 83.0452 136.341 83.0452 136.605C83.0452 136.868 83.2524 137.076 83.5162 137.076C85.1741 137.076 86.6341 136.256 87.5384 135.003V135.86C87.5384 137.349 86.3327 138.555 84.8444 138.555C84.5806 138.555 84.3734 138.762 84.3734 139.026C84.3734 139.289 84.5806 139.497 84.8444 139.497C86.2008 139.497 87.3783 138.752 88.0094 137.65C88.6311 138.752 89.818 139.497 91.1745 139.497C91.4382 139.497 91.6455 139.289 91.6455 139.026C91.6455 138.762 91.4382 138.555 91.1745 138.555C89.6861 138.555 88.4804 137.349 88.4804 135.86V135.003C89.3847 136.256 90.8448 137.076 92.5027 137.076C92.7664 137.076 92.9737 136.868 92.9737 136.605C92.9737 136.341 92.7664 136.134 92.5027 136.134C90.289 136.134 88.4804 134.334 88.4804 132.121V131.716C89.5543 133.411 91.4382 134.542 93.5954 134.542C93.8591 134.542 94.0664 134.334 94.0664 134.071C94.0664 133.807 93.8591 133.6 93.5954 133.6C90.9201 133.6 88.7159 131.527 88.4993 128.909C88.6029 128.909 88.7065 128.909 88.8101 128.909C90.0912 130.755 92.2012 131.97 94.6127 131.97C94.8764 131.97 95.0837 131.763 95.0837 131.499C95.0837 131.235 94.8764 131.028 94.6127 131.028C92.7476 131.028 91.0803 130.19 89.9593 128.88C90.7977 128.843 91.636 128.777 92.465 128.692C93.3881 129.069 94.3772 129.295 95.4322 129.295C95.696 129.295 95.9032 129.088 95.9032 128.824C95.9032 128.56 95.696 128.353 95.4322 128.353C95.3003 128.353 95.159 128.343 95.0272 128.334C96.3648 128.108 97.6836 127.816 98.9835 127.467C97.4575 135.493 93.6142 143.085 88.0283 149.067C82.4423 143.085 78.599 135.503 77.0636 127.467C78.3541 127.816 79.6729 128.108 81.0199 128.334H80.9917ZM53.8815 111.331C53.759 111.228 53.6366 111.115 53.5141 111.002C53.3257 110.813 53.0337 110.813 52.8453 111.002C52.6569 111.19 52.6569 111.482 52.8453 111.67C53.5989 112.424 54.4844 112.97 55.4169 113.357C55.935 113.997 56.4719 114.628 57.0277 115.241C55.2945 115.382 53.5141 114.798 52.1954 113.47C52.007 113.281 51.7149 113.281 51.5266 113.47C51.3382 113.658 51.3382 113.95 51.5266 114.138C53.2315 115.843 55.6053 116.475 57.819 116.069C57.8849 116.135 57.9414 116.201 58.0074 116.267C56.001 117.982 52.9866 117.906 51.0932 116.013C50.9048 115.825 50.6128 115.825 50.4244 116.013C50.236 116.201 50.236 116.493 50.4244 116.682C51.941 118.198 54.0793 118.735 56.0386 118.302L55.756 118.585C54.993 119.348 53.9851 119.762 52.9113 119.762C51.8374 119.762 50.8295 119.348 50.0665 118.585C49.8781 118.396 49.5861 118.396 49.3977 118.585C49.2093 118.773 49.2093 119.065 49.3977 119.253C50.3302 120.195 51.5831 120.704 52.9018 120.704C53.1656 120.704 53.4294 120.676 53.6931 120.638L53.0902 121.241C52.0446 122.287 50.3302 122.287 49.2846 121.241C49.0962 121.053 48.8042 121.053 48.6158 121.241C48.4274 121.429 48.4274 121.721 48.6158 121.91C49.5767 122.871 50.9425 123.181 52.1577 122.842C51.8186 124.067 52.1294 125.423 53.0902 126.384C53.1844 126.478 53.3069 126.525 53.4199 126.525C53.533 126.525 53.6648 126.478 53.7496 126.384C53.938 126.196 53.938 125.904 53.7496 125.715C52.704 124.67 52.704 122.955 53.7496 121.91L54.3525 121.307C54.3148 121.571 54.2866 121.825 54.2866 122.098C54.2866 123.426 54.8046 124.67 55.7372 125.602C55.8314 125.697 55.9539 125.744 56.0669 125.744C56.1799 125.744 56.3118 125.697 56.3966 125.602C56.585 125.414 56.585 125.122 56.3966 124.934C55.6336 124.171 55.2191 123.163 55.2191 122.089C55.2191 121.015 55.6336 120.007 56.3966 119.244L56.6792 118.961C56.2365 120.921 56.7734 123.059 58.29 124.576C58.3842 124.67 58.5066 124.717 58.6197 124.717C58.7327 124.717 58.8646 124.67 58.9494 124.576C59.1377 124.387 59.1377 124.095 58.9494 123.907C57.056 122.013 56.9806 118.999 58.695 116.993C58.761 117.059 58.8269 117.115 58.8928 117.181C58.4878 119.395 59.1189 121.768 60.8239 123.473C60.9181 123.568 61.0405 123.615 61.1536 123.615C61.2666 123.615 61.3985 123.568 61.4833 123.473C61.6717 123.285 61.6717 122.993 61.4833 122.805C60.1645 121.486 59.5711 119.696 59.7124 117.963C60.3246 118.519 60.9558 119.056 61.5963 119.574C61.9825 120.506 62.5289 121.382 63.2825 122.145C63.3767 122.239 63.4991 122.287 63.6122 122.287C63.7252 122.287 63.8571 122.239 63.9418 122.145C64.1302 121.957 64.1302 121.665 63.9418 121.476C63.8194 121.354 63.7158 121.232 63.6122 121.109C64.7331 121.91 65.9012 122.663 67.0975 123.351C60.3341 127.957 52.2519 130.604 44.0661 130.887C44.3487 122.701 46.9956 114.619 51.5925 107.846C52.2801 109.042 53.0337 110.21 53.8344 111.331H53.8815ZM46.6659 79.9917C46.6659 79.8598 46.6471 79.7279 46.6471 79.5866C46.6471 79.3229 46.4399 79.1156 46.1761 79.1156C45.9124 79.1156 45.7051 79.3229 45.7051 79.5866C45.7051 80.6416 45.9312 81.6307 46.308 82.5539C46.2232 83.3828 46.1573 84.2117 46.1196 85.0595C44.8008 83.9386 43.9719 82.2618 43.9719 80.4061C43.9719 80.1424 43.7646 79.9352 43.5009 79.9352C43.2371 79.9352 43.0299 80.1424 43.0299 80.4061C43.0299 82.8176 44.2545 84.9277 46.0913 86.2087C46.0913 86.3124 46.0913 86.416 46.0913 86.5196C43.4726 86.3029 41.4003 84.1081 41.4003 81.4235C41.4003 81.1597 41.193 80.9525 40.9293 80.9525C40.6655 80.9525 40.4583 81.1597 40.4583 81.4235C40.4583 83.5712 41.5887 85.4646 43.2842 86.5384H42.8792C40.6655 86.5384 38.8569 84.7393 38.8569 82.5162C38.8569 82.2524 38.6497 82.0452 38.3859 82.0452C38.1222 82.0452 37.9149 82.2524 37.9149 82.5162C37.9149 84.1741 38.7345 85.6341 39.9873 86.5384H39.1301C37.6418 86.5384 36.436 85.3327 36.436 83.8444C36.436 83.5806 36.2288 83.3734 35.9651 83.3734C35.7013 83.3734 35.4941 83.5806 35.4941 83.8444C35.4941 85.2008 36.2382 86.3783 37.3403 87.0094C36.2382 87.6311 35.4941 88.818 35.4941 90.1745C35.4941 90.4382 35.7013 90.6455 35.9651 90.6455C36.2288 90.6455 36.436 90.4382 36.436 90.1745C36.436 88.6861 37.6418 87.4804 39.1301 87.4804H39.9873C38.7345 88.3847 37.9149 89.8448 37.9149 91.5027C37.9149 91.7664 38.1222 91.9737 38.3859 91.9737C38.6497 91.9737 38.8569 91.7664 38.8569 91.5027C38.8569 89.289 40.6561 87.4804 42.8792 87.4804H43.2842C41.5887 88.5543 40.4583 90.4382 40.4583 92.5954C40.4583 92.8591 40.6655 93.0664 40.9293 93.0664C41.193 93.0664 41.4003 92.8591 41.4003 92.5954C41.4003 89.9201 43.4726 87.7159 46.0913 87.4993C46.0913 87.6029 46.0913 87.7065 46.0913 87.8101C44.2451 89.0912 43.0299 91.2012 43.0299 93.6127C43.0299 93.8764 43.2371 94.0837 43.5009 94.0837C43.7646 94.0837 43.9719 93.8764 43.9719 93.6127C43.9719 91.7476 44.8102 90.0803 46.1196 88.9593C46.1573 89.7977 46.2232 90.636 46.308 91.465C45.9312 92.3881 45.7051 93.3772 45.7051 94.4322C45.7051 94.696 45.9124 94.9032 46.1761 94.9032C46.4399 94.9032 46.6471 94.696 46.6471 94.4322C46.6471 94.3003 46.6565 94.159 46.6659 94.0272C46.892 95.3648 47.184 96.6836 47.5326 97.9835C39.5069 96.4481 31.9145 92.6142 25.933 87.0283C31.9145 81.4423 39.4975 77.599 47.5326 76.0636C47.184 77.3541 46.892 78.6729 46.6659 80.0199V79.9917ZM63.6687 52.8815C63.7723 52.759 63.8853 52.6366 63.9984 52.5141C64.1868 52.3257 64.1868 52.0337 63.9984 51.8453C63.81 51.6569 63.518 51.6569 63.3296 51.8453C62.576 52.5989 62.0296 53.4844 61.6434 54.4169C61.0029 54.935 60.3717 55.4719 59.7595 56.0277C59.6182 54.2945 60.2022 52.5141 61.5304 51.1859C61.7188 50.9975 61.7188 50.7055 61.5304 50.5171C61.342 50.3287 61.05 50.3287 60.8616 50.5171C59.1566 52.2221 58.5255 54.5959 58.9305 56.8096C58.8646 56.8755 58.7986 56.932 58.7327 56.998C57.0183 54.9915 57.0937 51.9772 58.987 50.0838C59.1754 49.8954 59.1754 49.6034 58.987 49.415C58.7986 49.2266 58.5066 49.2266 58.3182 49.415C56.7922 50.941 56.2647 53.0699 56.7074 55.0292L56.4248 54.7466C54.8612 53.1829 54.8612 50.6302 56.4248 49.0665C56.6132 48.8781 56.6132 48.5861 56.4248 48.3977C56.2365 48.2093 55.9444 48.2093 55.756 48.3977C54.588 49.5657 54.1358 51.1859 54.3808 52.7025L53.7685 52.0902C52.7229 51.0446 52.7229 49.3302 53.7685 48.2846C53.9569 48.0962 53.9569 47.8042 53.7685 47.6158C53.5801 47.4274 53.2881 47.4274 53.0997 47.6158C52.1388 48.5767 51.828 49.9331 52.1671 51.1577C50.9519 50.828 49.5861 51.1294 48.6253 52.0902C48.4369 52.2786 48.4369 52.5707 48.6253 52.759C48.7195 52.8532 48.8419 52.9003 48.955 52.9003C49.068 52.9003 49.1999 52.8532 49.2846 52.759C50.3302 51.7135 52.0446 51.7135 53.0902 52.759L53.6931 53.3619C53.4294 53.3242 53.175 53.296 52.9018 53.296C51.5737 53.296 50.3302 53.8141 49.3977 54.7466C49.2093 54.935 49.2093 55.227 49.3977 55.4154C49.4919 55.5096 49.6143 55.5567 49.7274 55.5567C49.8404 55.5567 49.9723 55.5096 50.0571 55.4154C50.8201 54.6524 51.828 54.238 52.9018 54.238C53.9757 54.238 54.9836 54.6524 55.7466 55.4154L56.0292 55.698C54.0699 55.2553 51.9316 55.7922 50.415 57.3182C50.2266 57.5066 50.2266 57.7986 50.415 57.987C50.5092 58.0812 50.6317 58.1283 50.7447 58.1283C50.8577 58.1283 50.9896 58.0812 51.0744 57.987C52.9678 56.0937 55.9821 56.0183 57.9885 57.7327C57.9226 57.7986 57.8661 57.8646 57.8001 57.9305C55.5865 57.5255 53.2127 58.1566 51.5077 59.8616C51.3193 60.05 51.3193 60.342 51.5077 60.5304C51.6019 60.6246 51.7244 60.6717 51.8374 60.6717C51.9504 60.6717 52.0823 60.6246 52.1671 60.5304C53.4859 59.2116 55.2662 58.6182 56.9995 58.7595C56.4437 59.3717 55.9068 60.0029 55.3887 60.6434C54.4561 61.0296 53.5801 61.576 52.8171 62.3296C52.6287 62.518 52.6287 62.81 52.8171 62.9984C52.9113 63.0926 53.0337 63.1397 53.1468 63.1397C53.2598 63.1397 53.3917 63.0926 53.4765 62.9984C53.5989 62.8759 53.7214 62.7723 53.8438 62.6687C53.0431 63.7896 52.2896 64.9577 51.6019 66.154C46.9956 59.3906 44.3487 51.3084 44.0661 43.1226C52.2519 43.4052 60.3341 46.0522 67.1069 50.649C65.9106 51.3367 64.7425 52.0902 63.6216 52.8909L63.6687 52.8815ZM95.0083 45.6659C95.1402 45.6659 95.2721 45.6471 95.4134 45.6471C95.6771 45.6471 95.8844 45.4399 95.8844 45.1761C95.8844 44.9124 95.6771 44.7051 95.4134 44.7051C94.3584 44.7051 93.3693 44.9312 92.4462 45.308C91.6172 45.2232 90.7883 45.1573 89.9405 45.1196C91.0614 43.8008 92.7382 42.9719 94.5939 42.9719C94.8576 42.9719 95.0648 42.7646 95.0648 42.5009C95.0648 42.2371 94.8576 42.0299 94.5939 42.0299C92.1824 42.0299 90.0724 43.2545 88.7913 45.0913C88.6876 45.0913 88.584 45.0913 88.4804 45.0913C88.6971 42.4726 90.8919 40.4003 93.5765 40.4003C93.8403 40.4003 94.0475 40.193 94.0475 39.9293C94.0475 39.6655 93.8403 39.4583 93.5765 39.4583C91.4288 39.4583 89.5354 40.5887 88.4616 42.2842V41.8792C88.4616 39.6655 90.2608 37.8664 92.4838 37.8664C92.7476 37.8664 92.9548 37.6591 92.9548 37.3954C92.9548 37.1316 92.7476 36.9244 92.4838 36.9244C90.8259 36.9244 89.3659 37.7439 88.4616 38.9967V38.1395C88.4616 36.6512 89.6673 35.4455 91.1556 35.4455C91.4194 35.4455 91.6266 35.2382 91.6266 34.9745C91.6266 34.7107 91.4194 34.5035 91.1556 34.5035C89.7992 34.5035 88.6217 35.2476 87.9906 36.3498C87.3689 35.2476 86.182 34.5035 84.8255 34.5035C84.5618 34.5035 84.3545 34.7107 84.3545 34.9745C84.3545 35.2382 84.5618 35.4455 84.8255 35.4455C86.3139 35.4455 87.5196 36.6512 87.5196 38.1395V38.9967C86.6153 37.7439 85.1552 36.9244 83.4973 36.9244C83.2336 36.9244 83.0264 37.1316 83.0264 37.3954C83.0264 37.6591 83.2336 37.8664 83.4973 37.8664C85.711 37.8664 87.5196 39.6655 87.5196 41.8792V42.2842C86.4457 40.5887 84.5618 39.4583 82.4046 39.4583C82.1409 39.4583 81.9337 39.6655 81.9337 39.9293C81.9337 40.193 82.1409 40.4003 82.4046 40.4003C85.0799 40.4003 87.2841 42.4726 87.5008 45.0913C87.3971 45.0913 87.2935 45.0913 87.1899 45.0913C85.9088 43.2451 83.7988 42.0299 81.3873 42.0299C81.1236 42.0299 80.9163 42.2371 80.9163 42.5009C80.9163 42.7646 81.1236 42.9719 81.3873 42.9719C83.2524 42.9719 84.9197 43.8102 86.0407 45.1196C85.2023 45.1573 84.364 45.2232 83.535 45.308C82.6119 44.9312 81.6228 44.7051 80.5678 44.7051C80.304 44.7051 80.0968 44.9124 80.0968 45.1761C80.0968 45.4399 80.304 45.6471 80.5678 45.6471C80.6997 45.6471 80.841 45.6565 80.9728 45.6659C79.6352 45.892 78.3165 46.184 77.0165 46.5326C78.5425 38.5069 82.3858 30.9145 87.9717 24.933C93.5577 30.9145 97.401 38.4975 98.9364 46.5326C97.6459 46.184 96.3271 45.892 94.9801 45.6659H95.0083ZM122.109 62.6592C122.232 62.7723 122.363 62.8759 122.476 62.9984C122.571 63.0926 122.693 63.1397 122.806 63.1397C122.919 63.1397 123.051 63.0926 123.136 62.9984C123.324 62.81 123.324 62.518 123.136 62.3296C122.382 61.576 121.497 60.9919 120.536 60.5963C120.027 59.9652 119.5 59.3529 118.953 58.75C120.687 58.6087 122.467 59.1928 123.795 60.521C123.889 60.6152 124.012 60.6623 124.125 60.6623C124.238 60.6623 124.37 60.6152 124.455 60.521C124.643 60.3326 124.643 60.0405 124.455 59.8521C122.75 58.1472 120.376 57.516 118.162 57.9211C118.096 57.8552 118.04 57.7892 117.974 57.7233C119.98 56.0089 122.995 56.0842 124.888 57.9776C124.982 58.0718 125.105 58.1189 125.218 58.1189C125.331 58.1189 125.463 58.0718 125.547 57.9776C125.736 57.7892 125.736 57.4972 125.547 57.3088C124.021 55.7828 121.892 55.2553 119.933 55.6886L120.216 55.406C121.789 53.8423 124.332 53.8423 125.896 55.406C125.99 55.5002 126.112 55.5473 126.226 55.5473C126.339 55.5473 126.47 55.5002 126.555 55.406C126.744 55.2176 126.744 54.9256 126.555 54.7372C125.387 53.5691 123.767 53.117 122.25 53.3619L122.863 52.7496C123.908 51.704 125.623 51.704 126.668 52.7496C126.762 52.8438 126.885 52.8909 126.998 52.8909C127.111 52.8909 127.243 52.8438 127.328 52.7496C127.516 52.5612 127.516 52.2692 127.328 52.0808C126.367 51.12 125.01 50.8186 123.786 51.1483C124.125 49.9237 123.814 48.5672 122.853 47.6064C122.665 47.418 122.373 47.418 122.184 47.6064C121.996 47.7948 121.996 48.0868 122.184 48.2752C123.23 49.3208 123.23 51.0352 122.184 52.0808L121.582 52.6837C121.619 52.4199 121.648 52.1656 121.648 51.8924C121.648 50.5642 121.129 49.3208 120.197 48.3883C120.008 48.1999 119.716 48.1999 119.528 48.3883C119.34 48.5767 119.34 48.8687 119.528 49.0571C120.291 49.8201 120.706 50.828 120.706 51.9018C120.706 52.9757 120.291 53.9836 119.528 54.7466L119.245 55.0292C119.688 53.0699 119.151 50.9316 117.635 49.415C117.446 49.2266 117.154 49.2266 116.966 49.415C116.777 49.6034 116.777 49.8954 116.966 50.0838C118.859 51.9772 118.935 55.001 117.22 57.0074C117.154 56.9414 117.088 56.8849 117.022 56.819C117.427 54.6053 116.796 52.2315 115.091 50.5266C114.903 50.3382 114.611 50.3382 114.423 50.5266C114.234 50.7149 114.234 51.007 114.423 51.1954C115.741 52.5141 116.335 54.3039 116.193 56.0371C115.581 55.4814 114.95 54.9444 114.309 54.4263C113.923 53.4938 113.377 52.6177 112.623 51.8547C112.435 51.6663 112.143 51.6663 111.955 51.8547C111.766 52.0431 111.766 52.3352 111.955 52.5236C112.077 52.646 112.181 52.7685 112.284 52.8909C111.163 52.0902 109.995 51.3367 108.799 50.649C115.562 46.0427 123.645 43.3958 131.83 43.1132C131.548 51.299 128.901 59.3812 124.304 66.154C123.616 64.9483 122.863 63.7896 122.062 62.6687L122.109 62.6592ZM124.879 67.0583C129.937 59.7768 132.753 51.0352 132.848 42.1429C123.955 42.2371 115.214 45.0537 107.942 50.1215C107.527 49.8954 107.094 49.6788 106.67 49.4715C114.554 43.6972 124.134 40.7205 133.987 41.0126C134.279 50.8562 131.303 60.4362 125.538 68.33C125.321 67.9061 125.114 67.4728 124.888 67.0583H124.879ZM99.9726 46.8246C98.3995 38.1018 94.2076 29.9349 87.9906 23.5765C81.7735 29.9349 77.5817 38.1018 76.018 46.8246C75.5564 46.9659 75.1043 47.1072 74.6522 47.2579C76.1499 37.6026 80.8127 28.7291 87.9812 21.9657C95.1496 28.7103 99.8124 37.5932 101.32 47.2579C100.867 47.1072 100.415 46.9565 99.9537 46.8246H99.9726ZM68.0583 50.1215C60.7768 45.0631 52.0352 42.2466 43.1429 42.1524C43.2371 51.0446 46.0537 59.7862 51.1215 67.0583C50.8954 67.4728 50.6788 67.9061 50.4715 68.33C44.6972 60.4456 41.7205 50.8657 42.0126 41.0126C51.8562 40.7205 61.4362 43.6972 69.33 49.4621C68.9061 49.6788 68.4728 49.886 68.0583 50.1121V50.1215ZM47.8246 75.0274C39.1018 76.6005 30.9349 80.7924 24.5765 87.0094C30.9349 93.2265 39.1018 97.4183 47.8246 98.982C47.9659 99.4436 48.1072 99.8957 48.2579 100.348C38.6026 98.8501 29.7291 94.1873 22.9657 87.0188C29.7103 79.8504 38.5932 75.1876 48.2579 73.6804C48.1072 74.1326 47.9565 74.5847 47.8246 75.0463V75.0274ZM51.1215 106.942C46.0631 114.223 43.2466 122.965 43.1524 131.857C52.0446 131.763 60.7862 128.946 68.0583 123.879C68.4728 124.105 68.9061 124.321 69.33 124.528C61.4456 130.303 51.8657 133.279 42.0126 132.987C41.7205 123.144 44.6972 113.564 50.4621 105.67C50.6788 106.094 50.886 106.527 51.1121 106.942H51.1215ZM76.0274 127.175C77.6005 135.898 81.7924 144.065 88.0094 150.423C94.2265 144.065 98.4183 135.898 99.982 127.175C100.444 127.034 100.896 126.893 101.348 126.742C99.8501 136.397 95.1873 145.271 88.0188 152.034C80.8504 145.29 76.1876 136.407 74.6804 126.742C75.1326 126.893 75.5847 127.044 76.0463 127.175H76.0274ZM107.942 123.879C115.223 128.937 123.965 131.753 132.857 131.848C132.763 122.955 129.946 114.214 124.879 106.942C125.105 106.527 125.321 106.094 125.528 105.67C131.303 113.554 134.279 123.134 133.987 132.987C124.144 133.279 114.564 130.303 106.67 124.538C107.094 124.321 107.527 124.114 107.942 123.888V123.879ZM128.175 98.9726C136.898 97.3995 145.065 93.2076 151.423 86.9906C145.065 80.7735 136.898 76.5817 128.175 75.018C128.034 74.5564 127.893 74.1043 127.742 73.6522C137.397 75.1499 146.271 79.8127 153.034 86.9812C146.29 94.1496 137.407 98.8124 127.742 100.32C127.893 99.8674 128.044 99.4153 128.175 98.9537V98.9726ZM49.002 71.6175C48.8608 71.966 48.7195 72.3051 48.597 72.6631C38.3012 74.1608 28.7118 79.2475 21.6846 87.0094C28.7118 94.7619 38.3106 99.858 48.597 101.346C48.7666 101.799 48.9455 102.251 49.1245 102.693C37.9809 101.205 27.6003 95.6003 20.234 87C27.5249 78.4845 37.7831 72.908 48.8137 71.3537C48.8796 71.4385 48.9455 71.5327 49.0115 71.6175H49.002ZM126.998 102.383C127.139 102.034 127.281 101.695 127.403 101.346C137.699 99.8486 147.288 94.7619 154.315 87C147.288 79.2475 137.689 74.1514 127.403 72.6631C127.233 72.2109 127.054 71.7588 126.876 71.316C138.019 72.8044 148.4 78.4091 155.766 87.0094C148.475 95.5249 138.217 101.101 127.196 102.656C127.13 102.571 127.064 102.477 126.998 102.392V102.383Z" fill="#18100A"/>
  <path d="M142.946 84.4377C142.399 85.4268 141.504 86.2557 140.383 86.9999C141.504 87.7441 142.399 88.573 142.946 89.5621C144.83 89.4867 146.459 88.3375 148.042 86.9999C146.459 85.6623 144.83 84.5131 142.946 84.4377Z" fill="#18100A"/>
  <path d="M130.455 129.455C130.285 127.392 129.946 125.423 128.665 124.038C127.582 124.349 126.357 124.312 125.039 124.038C125.312 125.357 125.349 126.582 125.039 127.665C126.423 128.946 128.392 129.285 130.455 129.455Z" fill="#18100A"/>
</svg>