<?xml version="1.0" encoding="UTF-8"?>
<svg id="Calque_2" xmlns="http://www.w3.org/2000/svg" viewBox="0 0 375.15 47.31">
  <defs>
    <style>
      .cls-1 {
        fill: #bfa597;
      }

      .cls-2 {
        fill: #e4e0df;
      }

      .cls-3 {
        fill: #d8cdc8;
      }
    </style>
  </defs>
  <g id="Calque_1-2" data-name="Calque_1">
    <g>
      <path class="cls-2" d="M0,39.4v7.91c54.87-14.78,119.03-23.27,187.58-23.27s132.7,8.49,187.57,23.27V0H0v39.4Z"/>
      <g>
        <path class="cls-3" d="M178.4,5.27c.44,1.35.38,2.74-.08,3.98-.36.24-.77.42-1.21.55-2.26.64-4.65-.55-5.33-2.65-.68-2.11.59-4.33,2.84-4.97.45-.12.89-.18,1.33-.17,1.12.79,2,1.91,2.45,3.27h0Z"/>
        <path class="cls-3" d="M196.75,5.27c-.44,1.35-.38,2.74.08,3.98.36.24.77.42,1.21.55,2.26.64,4.65-.55,5.33-2.65.68-2.1-.59-4.33-2.84-4.97-.45-.12-.89-.18-1.33-.17-1.12.79-2,1.91-2.45,3.27h0Z"/>
        <path class="cls-3" d="M191.85,5.99c0-2.2-1.91-3.99-4.28-3.99s-4.28,1.78-4.28,3.99,1.91,3.99,4.28,3.99,4.28-1.78,4.28-3.99Z"/>
        <path class="cls-3" d="M155.63,6.9c.86,1.16,2.07,1.98,3.4,2.41-1.73.48-3.65-.09-4.74-1.54-1.09-1.45-.99-3.34.1-4.68-.03,1.32.37,2.65,1.23,3.81h0Z"/>
        <path class="cls-3" d="M219.52,6.9c-.87,1.16-2.07,1.98-3.4,2.41,1.73.49,3.65-.09,4.74-1.54,1.09-1.45.99-3.34-.1-4.68.03,1.32-.37,2.65-1.23,3.81h0Z"/>
        <path class="cls-3" d="M163.81,2.19l4.05,7.01c-2.07,1.05-4.67.32-5.79-1.62-1.12-1.93-.34-4.35,1.73-5.39Z"/>
        <path class="cls-3" d="M211.35,2.19l-4.05,7.01c2.07,1.05,4.67.32,5.79-1.62,1.12-1.93.34-4.35-1.73-5.39Z"/>
      </g>
      <path class="cls-1" d="M189.5,16.37h-1c-.28,0-.5.22-.5.5s.22.5.5.5h1c.27,0,.5-.23.5-.5s-.23-.5-.5-.5ZM184.5,16.37h-1c-.28.01-.5.23-.5.51s.22.49.5.49h1c.27,0,.5-.23.5-.5s-.23-.5-.5-.5ZM194.49,16.39h-.99c-.28-.01-.5.22-.5.49s.22.5.5.5h1c.27.01.49-.21.49-.48.01-.28-.22-.51-.5-.51ZM179.49,16.4h-.99c-.28.01-.5.24-.5.52,0,.27.23.49.5.49h1.01c.27-.01.49-.24.49-.51-.01-.28-.23-.5-.51-.5ZM199.49,16.45l-.98-.02c-.29.01-.51.22-.51.5s.22.5.49.5l1,.02h.01c.27,0,.49-.22.49-.5.01-.27-.22-.5-.5-.5ZM174.51,16.46l-1,.02c-.28,0-.5.23-.49.51,0,.27.23.49.5.49h0l.99-.02c.28,0,.5-.23.5-.51-.01-.27-.24-.46-.51-.49ZM204.49,16.53l-.98-.02c-.27-.01-.5.22-.51.49,0,.28.22.51.49.51l1,.02h.01c.27,0,.48-.22.49-.49.01-.27-.22-.5-.5-.51ZM169.52,16.55h-.01l-1,.02c-.28.01-.5.24-.49.52,0,.27.23.48.5.48h0l1-.02c.28,0,.5-.23.49-.51-.01-.27-.23-.49-.5-.49ZM209.49,16.64l-.98-.02c-.27.04-.5.21-.51.49-.01.27.21.5.49.51l1,.02h.01c.27,0,.48-.21.49-.48,0-.28-.23-.51-.5-.52ZM164.51,16.67l-1,.03c-.28.01-.5.24-.49.51,0,.28.23.49.5.49h0l1-.03c.28-.01.5-.23.49-.51-.01-.28-.19-.49-.51-.49ZM214.48,16.78l-.97-.03c-.27.01-.5.21-.51.49-.01.28.21.51.48.51l1,.04h.02c.27,0,.48-.22.48-.49.01-.27-.22-.51-.5-.52ZM159.5,16.82l-1,.03c-.27.01-.49.25-.48.52,0,.27.23.48.5.48h.02l1-.03c.27-.01.49-.24.48-.52-.01-.27-.19-.49-.52-.48ZM219.48,16.96l-.96-.04c-.28-.01-.51.21-.52.48-.01.28.2.51.48.52l1,.04h.02c.26,0,.47-.21.48-.48.01-.28-.22-.51-.5-.52ZM154.5,17l-1,.04c-.27.01-.49.24-.48.52.02.27.24.48.5.48h.02l1-.04c.28-.01.49-.24.48-.52-.01-.27-.23-.47-.52-.48ZM224.48,17.16l-.96-.04c-.3,0-.51.2-.52.48-.02.27.2.5.48.52l.99.04h.03c.26,0,.46-.21.47-.48.02-.28-.22-.51-.49-.52ZM149.53,17.21h-.03l-1,.04c-.27.02-.48.25-.47.53.01.26.23.47.5.47h.02l1-.04c.27-.01.49-.25.48-.52-.02-.27-.24-.48-.5-.48ZM229.51,17.39l-1-.05c-.28-.04-.51.2-.52.48-.01.27.2.51.48.52l.99.05h.03c.26,0,.49-.21.5-.48s-.2-.51-.48-.52ZM144.46,17.45l-.95.05c-.28.01-.49.25-.48.52.02.27.24.48.5.48h.03l1-.05c.27-.02.46-.25.45-.53-.02-.27-.28-.47-.55-.47ZM234.51,17.65l-1-.05c-.26-.02-.51.19-.52.47-.02.28.19.51.47.53l1,.05h.02c.27,0,.49-.2.5-.47.02-.28-.19-.51-.47-.53ZM139.51,17.72l-1,.05c-.28.02-.49.26-.47.53.02.27.23.47.5.47h.03l.99-.06c.28-.01.49-.25.48-.52-.02-.28-.24-.51-.53-.47ZM239.51,17.94l-1-.06c-.24-.01-.51.2-.53.47-.02.28.19.51.47.53l1,.06h.03c.26,0,.48-.2.5-.47.01-.27-.2-.51-.47-.53ZM134.52,18.01l-1,.06c-.28.02-.49.26-.47.54.02.26.24.46.5.46h.03l.99-.06c.28-.02.49-.25.47-.53-.01-.27-.28-.49-.52-.47ZM244.5,18.26l-1-.06c-.24-.02-.51.19-.53.46-.02.28.19.52.47.54l.99.06h.04c.26,0,.48-.2.5-.46.01-.28-.19-.52-.47-.54ZM129.52,18.34l-1,.07c-.27.02-.48.26-.46.53.02.27.24.47.5.47h.03l1-.07c.27-.02.48-.26.46-.53-.02-.28-.26-.5-.53-.47ZM249.49,18.62l-.99-.08c-.26-.02-.52.19-.54.47-.02.27.19.51.46.53l1,.07s.03.01.04.01c.26,0,.48-.21.5-.47.02-.27-.19-.51-.47-.53ZM124.53,18.7l-1,.08c-.27.02-.48.26-.46.53.02.26.24.46.5.46h.04l.99-.07c.28-.02.48-.26.47-.54-.03-.28-.29-.49-.54-.46ZM254.48,19l-1-.08c-.24-.03-.51.18-.53.46-.03.27.18.51.46.53l.99.08s.03.01.04.01c.26,0,.48-.2.5-.47.02-.27-.18-.51-.46-.53ZM119.54,19.09l-1,.08c-.27.02-.48.26-.45.54.02.26.24.46.49.46h.04l1-.09c.27-.02.48-.26.46-.53-.02-.28-.29-.49-.54-.46ZM259.47,19.41l-1-.08c-.24-.02-.51.18-.54.45-.02.28.18.52.46.54l1,.09h.04c.26,0,.47-.2.5-.46.02-.27-.19-.52-.46-.54ZM114.55,19.51l-.99.08c-.28.03-.48.27-.46.55.03.26.24.45.5.45h.04l1-.09c.27-.02.48-.26.45-.54-.02-.27-.24-.47-.54-.45ZM264.46,19.85l-1-.09c-.25-.02-.52.18-.55.45-.02.28.18.52.46.55l.99.09h.05c.25,0,.47-.19.5-.45.02-.28-.18-.52-.45-.55ZM109.57,19.96l-1,.09c-.27.03-.47.27-.45.55.03.26.24.45.5.45h.05l.99-.1c.28-.02.48-.27.45-.54-.02-.28-.29-.46-.54-.45ZM269.44,20.33l-1-.1c-.28-.01-.52.18-.55.45-.02.27.18.52.45.55l1,.09s.03.01.05.01c.25,0,.47-.2.49-.45.03-.28-.17-.52-.44-.55ZM104.59,20.44l-1,.1c-.27.03-.47.27-.44.55.02.26.24.45.49.45.02,0,.04,0,.05-.01l1-.09c.27-.03.48-.28.45-.55-.03-.28-.27-.47-.55-.45ZM274.42,20.84l-1-.11c-.26-.03-.52.17-.55.45-.03.27.17.52.45.55l.99.1h.05c.25,0,.47-.19.5-.44.03-.28-.17-.52-.44-.55ZM99.61,20.95l-.99.11c-.28.03-.48.27-.45.55.03.26.25.45.5.45.02,0,.03,0,.05-.01l1-.1c.27-.03.47-.28.44-.55-.03-.28-.27-.47-.55-.45ZM279.39,21.37l-1-.11c-.24-.02-.52.17-.55.44-.03.28.17.53.45.56l.99.11h.06c.25,0,.46-.19.49-.45.03-.27-.17-.52-.44-.55ZM94.64,21.5l-1,.11c-.27.03-.47.28-.44.55.03.26.25.45.5.45.02,0,.04,0,.06-.01l.99-.11c.27-.03.47-.28.44-.55-.03-.28-.29-.47-.55-.44ZM284.36,21.94l-.99-.11c-.27-.04-.52.16-.56.43-.03.28.17.52.44.56l.99.11s.04.01.06.01c.25,0,.47-.19.5-.44.03-.28-.16-.53-.44-.56ZM89.67,22.07l-1,.12c-.27.04-.47.29-.44.56.04.25.25.44.5.44h.06l.99-.12c.28-.03.47-.28.44-.56-.03-.27-.28-.47-.55-.44ZM289.33,22.54l-.99-.12c-.28-.04-.53.16-.56.43-.03.28.16.53.43.56l1,.12s.04.01.06.01c.25,0,.46-.19.49-.44.04-.27-.16-.52-.43-.56ZM84.7,22.68l-.99.13c-.28.03-.47.28-.44.56.03.25.25.43.5.43h.06l.99-.12c.28-.04.47-.29.44-.56-.04-.28-.29-.48-.56-.44ZM294.3,23.18l-1-.13c-.27-.04-.52.15-.56.43-.03.27.16.52.43.56l.99.13h.07c.25,0,.46-.18.5-.43.03-.28-.16-.53-.43-.56ZM79.73,23.32l-.99.13c-.27.04-.46.29-.43.57.04.25.25.43.5.43h.06l1-.13c.27-.04.46-.29.43-.57-.04-.27-.3-.46-.57-.43ZM299.25,23.84l-.99-.13c-.27-.05-.52.15-.56.42-.04.28.15.53.43.57l.99.13s.04.01.07.01c.24,0,.46-.18.49-.43.04-.28-.15-.53-.43-.57ZM74.78,24l-1,.13c-.27.04-.46.29-.42.57.03.25.25.43.49.43.03,0,.05,0,.07-.01l.99-.13c.28-.04.47-.29.43-.57-.04-.27-.3-.46-.56-.42ZM304.21,24.54l-.99-.14c-.27-.03-.53.15-.57.42-.04.28.15.53.43.57l.98.14s.05.01.08.01c.24,0,.46-.18.49-.43.04-.28-.15-.53-.42-.57ZM69.82,24.7l-.99.15c-.27.04-.46.29-.42.56.04.25.25.43.49.43h.08l.98-.15c.28-.04.47-.29.43-.56-.04-.28-.3-.46-.57-.43ZM309.16,25.27l-.99-.15c-.27-.04-.53.15-.57.42-.04.28.15.53.42.57l.99.15s.05.01.08.01c.24,0,.45-.18.49-.43.04-.27-.15-.53-.42-.57ZM64.87,25.44l-.99.15c-.27.05-.46.3-.41.57.03.25.25.43.49.43.02,0,.05,0,.08-.01l.98-.15c.28-.04.46-.3.42-.57-.04-.27-.3-.46-.57-.42ZM314.11,26.04l-.99-.16c-.28-.04-.53.14-.57.42-.05.27.14.53.41.57l.99.16h.08c.24,0,.45-.17.49-.42.04-.27-.14-.53-.41-.57ZM59.93,26.22l-.99.15c-.27.05-.46.3-.41.58.04.24.25.42.49.42.02,0,.05,0,.08-.01l.99-.16c.27-.04.45-.3.41-.57s-.3-.46-.57-.41ZM319.05,26.84l-.99-.17c-.26-.04-.53.14-.58.42-.04.27.14.53.42.57l.98.16s.06.01.09.01c.23,0,.45-.17.49-.42.04-.27-.14-.53-.41-.57ZM54.99,27.02l-.99.17c-.27.04-.46.3-.41.57.04.25.25.42.49.42.03,0,.06,0,.09-.01l.98-.16c.27-.05.46-.31.41-.58-.04-.27-.31-.45-.57-.41ZM323.98,27.67l-.99-.17c-.27-.04-.53.13-.57.41-.05.27.13.53.4.58l.99.17h.09c.23,0,.45-.17.49-.41.05-.28-.14-.53-.41-.58ZM50.06,27.86l-.99.17c-.27.05-.46.31-.41.58.04.25.26.42.49.42.03,0,.06,0,.09,0l.99-.17c.27-.05.45-.31.4-.58-.04-.27-.3-.45-.57-.41ZM328.91,28.54l-.98-.18c-.28-.05-.54.13-.58.4-.05.28.13.54.4.58l.98.18s.06,0,.09,0c.24,0,.45-.17.49-.41.05-.27-.13-.53-.4-.58ZM45.13,28.74l-.99.18c-.27.05-.45.31-.4.58.04.24.25.41.49.41.03,0,.06,0,.09-.01l.99-.18c.27-.05.45-.31.4-.58-.05-.27-.32-.45-.58-.4ZM333.83,29.44l-.98-.19c-.28-.04-.53.13-.58.41-.05.27.13.53.4.58l.98.18s.06.01.09.01c.24,0,.45-.17.49-.41.05-.27-.12-.53-.4-.58ZM40.21,29.65l-.99.18c-.27.06-.45.32-.4.59.05.24.26.41.5.41.03,0,.06-.01.09-.01l.98-.19c.27-.05.45-.31.4-.58-.05-.27-.3-.44-.58-.4ZM338.75,30.38l-.98-.19c-.27-.05-.54.12-.59.39-.05.27.12.54.39.59l.99.19s.06.01.09.01c.24,0,.45-.17.49-.41.06-.27-.12-.53-.39-.58ZM35.29,30.59l-.98.2c-.27.05-.45.31-.39.58.04.24.25.41.49.41.03,0,.06,0,.09,0l.98-.2c.27-.05.45-.31.4-.58-.06-.27-.32-.45-.59-.4ZM343.66,31.35l-.98-.2c-.27-.05-.54.12-.59.39-.06.28.12.54.39.59l.98.2s.07.01.1.01c.23,0,.44-.16.49-.4.05-.27-.12-.53-.39-.59ZM30.39,31.57l-.99.21c-.27.05-.44.32-.38.59.04.23.25.39.48.39.04,0,.07,0,.11-.01l.97-.2c.28-.05.45-.31.4-.59-.06-.27-.32-.44-.59-.39ZM348.56,32.36l-.98-.21c-.26-.05-.53.12-.59.39-.06.27.12.54.39.59l.97.21s.07,0,.11,0c.23,0,.44-.16.49-.4.05-.27-.12-.53-.39-.59ZM25.48,32.59l-.98.21c-.27.06-.44.32-.38.59.05.24.26.4.49.4.03,0,.07-.01.1-.01l.98-.21c.27-.06.44-.32.39-.59-.06-.27-.32-.45-.6-.39ZM353.46,33.41l-.98-.22c-.28-.05-.54.12-.6.39-.06.27.12.53.39.59l.97.21s.07.01.11.01c.23,0,.44-.16.49-.39.06-.27-.11-.54-.38-.59ZM21.19,34.03c-.06-.27-.33-.44-.6-.38l-.98.21c-.27.06-.44.33-.38.6.05.23.26.39.49.39.04,0,.07,0,.11,0l.97-.22c.27-.05.45-.32.39-.59ZM358.34,34.49l-.98-.22c-.26-.06-.53.11-.59.38-.06.27.11.53.38.59l.97.22s.07.02.11.02c.23,0,.44-.16.49-.39.06-.27-.11-.54-.38-.6ZM16.3,35.11c-.06-.26-.32-.44-.59-.37l-.98.22c-.27.06-.44.33-.38.6.06.23.26.39.49.39.04,0,.08-.01.11-.01l.98-.23c.27-.06.44-.33.37-.6ZM363.22,35.61l-.98-.23c-.26-.06-.53.11-.6.38-.06.26.11.53.38.6l.97.22s.08.02.11.02c.23,0,.44-.16.49-.39.06-.27-.1-.54-.37-.6ZM11.43,36.24c-.06-.27-.33-.43-.6-.37l-.97.23c-.27.06-.44.33-.37.6.05.23.26.38.48.38.04,0,.08,0,.12-.01l.97-.23c.27-.06.44-.33.37-.6ZM368.09,36.77l-.97-.24c-.27-.06-.54.1-.61.37-.06.27.1.54.37.6l.97.24s.08.01.12.01c.23,0,.43-.15.49-.38.06-.27-.1-.54-.37-.6ZM6.57,37.4c-.07-.26-.34-.43-.61-.36l-.97.23c-.27.07-.43.34-.36.61.05.23.26.38.48.38.04,0,.08-.01.12-.02l.97-.23c.27-.07.43-.34.37-.61ZM372.95,37.96l-.97-.24c-.27-.06-.54.1-.61.37-.07.26.1.53.36.6l.97.25s.09.01.13.01c.22,0,.42-.15.48-.38.07-.27-.09-.54-.36-.61ZM0,39.4c.08.04.17.07.26.07.04,0,.08,0,.12-.01l.97-.25c.27-.06.43-.34.36-.6-.06-.27-.34-.43-.6-.37l-.97.25s-.1.03-.14.06v.85Z"/>
    </g>
  </g>
</svg>