<?xml version="1.0" encoding="UTF-8"?>
<svg id="Calque_2" data-name="Calque 2" xmlns="http://www.w3.org/2000/svg" viewBox="0 0 1440 165.66">
  <defs>
    <style>
      .cls-1 {
        fill: #bfa597;
      }

      .cls-1, .cls-2, .cls-3 {
        stroke-width: 0px;
      }

      .cls-2 {
        fill: #e4e0df;
      }

      .cls-3 {
        fill: #d8cdc8;
      }
    </style>
  </defs>
  <g id="Calque_1-2" data-name="Calque 1">
    <g>
      <path class="cls-2" d="M1440,0v165.66C1257.19,81.27,1002.15,28.89,720,28.89S182.8,81.27,0,165.66V0h1440Z"/>
      <g>
        <path class="cls-3" d="M707.53,6.15c.52,1.72.45,3.48-.1,5.06-.42.3-.9.54-1.42.7-2.66.81-5.46-.7-6.26-3.37-.8-2.68.69-5.51,3.34-6.32.52-.16,1.05-.23,1.56-.22,1.32,1.01,2.35,2.43,2.87,4.15h0Z"/>
        <path class="cls-3" d="M731.34,6.15c-.52,1.72-.45,3.48.1,5.06.42.3.9.54,1.42.7,2.66.81,5.46-.7,6.26-3.37.8-2.67-.69-5.51-3.34-6.32-.52-.16-1.05-.23-1.56-.22-1.32,1.01-2.35,2.43-2.87,4.15h0Z"/>
        <path class="cls-3" d="M724.46,7.07c0-2.8-2.25-5.07-5.02-5.07-2.77,0-5.02,2.27-5.02,5.07s2.25,5.07,5.02,5.07,5.02-2.27,5.02-5.07Z"/>
        <path class="cls-3" d="M682.48,8.23c1.01,1.47,2.43,2.51,3.99,3.06-2.03.61-4.29-.11-5.56-1.96-1.28-1.84-1.16-4.25.11-5.95-.03,1.68.44,3.37,1.45,4.85h0Z"/>
        <path class="cls-3" d="M757.53,8.23c-1.02,1.48-2.43,2.51-3.99,3.06,2.03.62,4.29-.11,5.56-1.96,1.28-1.84,1.16-4.25-.11-5.95.03,1.68-.44,3.37-1.45,4.85h0Z"/>
        <path class="cls-3" d="M690.94,2.24l4.76,8.92c-2.44,1.33-5.49.41-6.8-2.05-1.31-2.46-.4-5.54,2.04-6.86Z"/>
        <path class="cls-3" d="M748.3,2.24l-4.76,8.92c2.44,1.33,5.49.41,6.8-2.05,1.31-2.46.4-5.54-2.04-6.86Z"/>
      </g>
      <path class="cls-1" d="M719.11,19.63h-1c-.28.01-.5.23-.5.51s.22.5.5.5h1c.28-.01.5-.23.5-.51s-.22-.5-.5-.5ZM724.11,19.64h-1c-.27,0-.5.22-.5.5s.23.5.5.5h1c.28,0,.5-.23.5-.5s-.22-.5-.5-.5ZM714.11,19.64h-1c-.28.01-.5.23-.5.51s.22.49.5.49h1c.28,0,.5-.22.5-.5s-.23-.5-.5-.5ZM729.12,19.65h-1.01c-.27,0-.5.22-.5.5s.23.5.5.5h1c.28,0,.5-.22.5-.49.01-.28-.22-.51-.49-.51ZM709.11,19.66h-1c-.28.01-.5.23-.5.51s.23.49.5.49h1c.28,0,.5-.23.5-.5s-.22-.5-.5-.5ZM734.12,19.68h-1c-.28-.01-.5.21-.5.49-.01.28.22.5.49.5h1.01c.27.01.5-.21.5-.49s-.22-.5-.5-.5ZM704.12,19.69h-1.01c-.27.01-.49.23-.49.51s.22.5.5.5h1c.28-.01.5-.24.5-.52-.01-.27-.23-.49-.5-.49ZM739.12,19.71h-1c-.28,0-.49.22-.5.49,0,.28.23.5.5.51h1c.28,0,.5-.22.5-.49s-.22-.5-.5-.51ZM699.12,19.73h-1c-.27.01-.5.24-.49.51,0,.28.22.5.5.5h1c.28-.01.5-.24.49-.52,0-.27-.19-.52-.5-.49ZM744.13,19.76h-1.01c-.27-.01-.5.21-.5.49s.22.5.5.5h1c.28.01.5-.21.5-.48s-.22-.51-.49-.51ZM694.13,19.78h-1c-.27.02-.5.24-.49.52,0,.27.22.49.5.49h1c.28-.01.5-.24.49-.51,0-.28-.22-.5-.5-.5ZM749.13,19.82h-1s-.01-.01-.01-.01c-.27,0-.5.22-.5.49s.22.5.5.51h1c.27.01.5-.21.5-.48.01-.28-.21-.51-.49-.51ZM689.14,19.84l-.99.02c-.28,0-.5.23-.5.51.01.27.23.49.5.49h.01l.99-.02c.28,0,.5-.23.5-.5s-.27-.51-.51-.5ZM754.13,19.89l-1-.02h-.01c-.27,0-.49.22-.5.5,0,.27.22.5.5.5l1,.02c.28,0,.5-.22.5-.49.01-.28-.21-.51-.49-.51ZM684.16,19.92h-1c-.28.02-.5.24-.49.52,0,.27.23.49.5.49h1c.28-.02.5-.25.5-.52-.01-.28-.21-.53-.51-.49ZM759.13,19.97l-1-.02c-.28,0-.5.22-.5.49-.01.28.21.51.49.51l1,.02h.01c.27,0,.49-.22.5-.49,0-.28-.22-.51-.5-.51ZM679.19,20h-.02l-.99.02c-.27,0-.49.23-.49.51.01.27.23.49.5.49h.01l1-.02c.27-.01.49-.23.49-.51-.01-.27-.23-.49-.5-.49ZM764.14,20.06l-1-.02c-.27.03-.51.22-.51.49-.01.28.21.51.49.51l1,.02h.01c.27,0,.49-.22.5-.49,0-.28-.22-.5-.49-.51ZM674.18,20.1l-1,.02c-.28,0-.5.23-.49.51.01.27.23.49.5.49h.01l1-.02c.28-.01.5-.24.49-.51-.01-.28-.26-.52-.51-.49ZM769.14,20.16l-1-.02c-.28.04-.51.22-.51.49-.01.28.21.51.49.51l1,.02h.01c.27,0,.49-.21.5-.48,0-.28-.22-.51-.49-.52ZM669.19,20.2h-.01l-1,.03c-.28,0-.5.23-.49.51.01.27.23.49.5.49h.01l1-.03c.27,0,.49-.23.49-.51-.01-.27-.23-.49-.5-.49ZM774.14,20.28l-1-.02c-.27-.02-.51.21-.51.48-.01.28.21.51.49.52l1,.02h.01c.27,0,.49-.22.5-.49,0-.28-.21-.5-.49-.51ZM664.19,20.32h-.02l-1,.02c-.27.01-.49.24-.48.52.01.27.23.48.5.48h.01l1-.02c.28-.01.49-.24.49-.51-.01-.28-.23-.49-.5-.49ZM779.14,20.4l-1-.02c-.27,0-.5.21-.51.49-.01.27.21.5.49.51l1,.02h.01c.27,0,.49-.21.5-.49.01-.27-.21-.5-.49-.51ZM659.17,20.45l-1,.03c-.27,0-.49.23-.48.51,0,.27.23.49.5.49h.01l1-.03c.28-.01.49-.24.49-.52-.01-.27-.24-.46-.52-.48ZM784.14,20.54l-1-.03c-.23.01-.5.21-.51.49-.01.27.21.5.48.51l1.01.03h.01c.27,0,.49-.21.5-.49,0-.27-.21-.5-.49-.51ZM654.17,20.59l-1,.03c-.27.01-.49.24-.48.51,0,.27.23.49.5.49h.01l1-.03c.28-.01.49-.24.49-.52-.01-.27-.24-.49-.52-.48ZM789.14,20.69l-1-.03h-.01c-.27,0-.49.21-.5.48-.01.28.21.51.48.52l1,.03h.02c.27,0,.49-.22.5-.49.01-.27-.21-.5-.49-.51ZM649.17,20.74l-1,.03c-.28,0-.49.24-.48.52.01.27.23.48.5.48h.01l1-.03c.28-.01.5-.24.49-.52-.01-.27-.28-.51-.52-.48ZM794.14,20.85l-1-.04c-.27-.01-.5.21-.51.49-.01.27.21.5.48.51l1,.04h.02c.27,0,.49-.22.5-.49s-.21-.51-.49-.51ZM644.17,20.9l-1,.04c-.27.01-.49.24-.48.51.01.27.23.49.5.49h.02l.99-.04c.28-.01.5-.24.49-.51-.01-.28-.26-.5-.52-.49ZM799.14,21.02l-1-.04c-.28,0-.5.21-.51.48-.01.28.2.51.48.52l1,.04h.02c.27,0,.49-.22.5-.49.01-.27-.21-.51-.49-.51ZM639.17,21.08l-1,.03c-.27.01-.49.24-.48.52.01.27.23.48.5.48h.02l1-.03c.27-.01.49-.25.48-.52-.01-.28-.25-.46-.52-.48ZM804.14,21.2l-.99-.04h-.02c-.27,0-.49.21-.5.48-.01.28.2.51.48.52l1,.04h.02c.26,0,.49-.21.5-.49.01-.27-.21-.5-.49-.51ZM634.17,21.26l-1,.04c-.27.01-.49.24-.48.52.01.27.23.48.5.48h.02l1-.04c.28-.01.49-.24.48-.52-.01-.27-.22-.46-.52-.48ZM809.14,21.39l-1-.04c-.27.02-.51.21-.52.48-.01.28.21.51.49.52l.99.04h.02c.27,0,.49-.21.5-.48.01-.28-.2-.51-.48-.52ZM629.17,21.46l-1,.04c-.27.01-.49.24-.48.52.01.27.23.48.5.48h.02l1-.04c.28,0,.49-.25.48-.52-.01-.28-.27-.52-.52-.48ZM814.14,21.59l-1-.04h-.02c-.27,0-.49.21-.5.48-.01.28.21.51.48.52l1,.04h.02c.27,0,.49-.21.5-.48s-.2-.51-.48-.52ZM624.17,21.66l-1,.05c-.27.01-.49.24-.47.52.01.27.23.48.49.48h.03l.99-.05c.28-.01.49-.24.48-.52-.01-.27-.27-.48-.52-.48ZM819.14,21.81l-1-.05c-.29,0-.51.21-.52.48-.01.28.2.51.48.52l1,.05h.02c.27,0,.49-.21.5-.48.01-.28-.2-.51-.48-.52ZM619.17,21.88l-1,.05c-.27.01-.48.24-.47.52.01.27.23.48.5.48h.02l1-.05c.27-.01.49-.24.48-.52-.02-.28-.27-.48-.53-.48ZM824.14,22.03l-1-.04c-.23-.02-.51.2-.52.47-.02.28.2.51.47.53l1,.04h.03c.26,0,.48-.21.5-.47.01-.28-.21-.51-.48-.53ZM614.17,22.11l-.99.05c-.28.01-.49.25-.48.52s.24.48.5.48h.02l1-.05c.28-.01.49-.25.48-.52-.01-.28-.22-.5-.53-.48ZM829.14,22.27l-1-.05c-.28-.03-.51.2-.52.48-.02.27.2.51.47.52l1,.05h.02c.27,0,.49-.21.5-.48.02-.27-.2-.51-.47-.52ZM609.18,22.35l-1,.05c-.28.02-.49.25-.47.53.01.27.23.47.49.47h.03l1-.05c.27-.01.49-.25.47-.52-.01-.28-.25-.5-.52-.48ZM834.13,22.52l-1-.05c-.3-.04-.51.2-.52.47-.01.28.2.51.47.53l1,.05h.03c.26,0,.48-.21.5-.47.01-.28-.2-.51-.48-.53ZM604.18,22.61l-1,.05c-.27.01-.48.25-.47.52s.24.48.5.48h.03l.99-.05c.28-.02.49-.25.48-.53-.01-.27-.21-.51-.53-.47ZM839.13,22.78l-1-.05c-.27-.03-.51.19-.52.47-.02.28.19.51.47.53l1,.05h.02c.27,0,.49-.21.5-.47.02-.28-.19-.52-.47-.53ZM599.19,22.87l-1,.06c-.28.01-.49.25-.47.52.01.27.23.47.49.47h.03l1-.05c.28-.02.49-.25.47-.53-.01-.27-.25-.48-.52-.47ZM844.13,23.05l-1-.05c-.27-.02-.51.19-.53.47-.01.27.2.51.47.53l1,.05h.03c.26,0,.48-.21.5-.47.01-.28-.2-.51-.47-.53ZM594.19,23.15l-1,.05c-.27.02-.48.25-.47.53.02.27.24.47.5.47h.03l1-.06c.27-.01.48-.25.47-.52-.02-.28-.25-.5-.53-.47ZM849.12,23.33l-1-.05c-.23-.02-.51.19-.52.47-.02.27.19.51.47.53l1,.05h.02c.27,0,.49-.2.5-.47.02-.27-.19-.51-.47-.53ZM589.2,23.43l-1,.06c-.28.02-.49.25-.47.53.01.27.23.47.5.47h.03l.99-.06c.28-.02.49-.25.47-.53-.01-.27-.28-.49-.52-.47ZM854.12,23.63l-1-.06c-.26-.01-.51.19-.53.47-.02.27.19.51.47.53l1,.06h.03c.26,0,.48-.21.5-.47.01-.28-.2-.51-.47-.53ZM584.2,23.73l-1,.06c-.27.02-.48.26-.47.53.02.27.24.47.5.47h.03l1-.06c.28-.02.49-.26.47-.53-.02-.28-.25-.49-.53-.47ZM859.11,23.93l-1-.06c-.26-.03-.51.2-.53.47-.01.28.19.51.47.53l1,.06h.03c.26,0,.48-.2.5-.47.02-.27-.19-.51-.47-.53ZM579.21,24.04l-1,.06c-.28.02-.49.26-.47.53.02.27.24.47.5.47h.03l1-.06c.28-.02.48-.26.47-.53-.02-.28-.29-.5-.53-.47ZM864.1,24.25l-1-.06c-.27-.03-.51.19-.53.46,0,.28.19.52.47.54l1,.06h.03c.26,0,.48-.2.5-.47.02-.27-.19-.51-.47-.53ZM574.21,24.36l-.99.07c-.28.01-.49.25-.47.53.02.26.24.47.5.47,0,0,.02,0,.03-.01l1-.06c.28-.02.49-.26.47-.53-.02-.28-.26-.49-.54-.47ZM869.09,24.58l-.99-.07c-.29-.03-.52.19-.53.47-.02.27.18.51.46.53l1,.07h.03c.26,0,.48-.2.5-.47.02-.27-.19-.51-.47-.53ZM569.22,24.69l-1,.07c-.27.02-.48.26-.46.53.02.27.24.47.5.47h.03l1-.07c.28-.02.49-.26.47-.53-.02-.28-.27-.48-.54-.47ZM874.09,24.92l-1-.07c-.24-.02-.52.19-.53.47-.02.27.18.51.46.53l1,.07h.03c.26,0,.48-.2.5-.47.02-.27-.19-.51-.46-.53ZM564.23,25.04l-1,.07c-.27.02-.48.26-.46.53.02.27.24.47.5.47h.03l1-.07c.28-.02.48-.26.47-.54-.02-.27-.25-.48-.54-.46ZM879.08,25.27l-1-.07c-.27,0-.51.19-.53.46-.02.28.18.52.46.54l1,.07h.03c.26,0,.48-.2.5-.46.02-.28-.18-.52-.46-.54ZM559.24,25.39l-1,.08c-.27.02-.48.26-.46.53.02.26.24.46.5.46h.04l.99-.07c.28-.02.48-.26.47-.53-.02-.28-.29-.49-.54-.47ZM884.07,25.63l-1-.07c-.26-.02-.52.19-.54.46-.02.28.19.52.47.54l.99.07h.04c.26,0,.48-.2.5-.46.02-.28-.19-.52-.46-.54ZM554.25,25.76l-1,.08c-.27.02-.48.26-.46.53.02.26.24.46.5.46h.04l.99-.07c.28-.02.49-.26.47-.54-.02-.27-.28-.48-.54-.46ZM889.06,26.01l-1-.08c-.24-.01-.52.19-.54.46-.02.28.19.52.46.54l1,.08h.04c.26,0,.48-.2.5-.47.02-.27-.19-.51-.46-.53ZM549.26,26.14l-.99.08c-.28.02-.49.26-.46.53.02.27.23.46.49.46h.04l1-.07c.28-.03.48-.27.46-.54-.02-.28-.28-.48-.54-.46ZM894.05,26.4l-1-.08c-.27-.02-.48.18-.5.46-.03.27.21.52.49.54l.93.07h.04c.26,0,.48-.19.5-.46.02-.27-.19-.51-.46-.53ZM544.27,26.53l-.99.08c-.28.02-.48.26-.46.54.02.26.24.46.5.46.01,0,.02,0,.04-.01l1-.08c.27-.02.47-.26.45-.53-.02-.28-.26-.49-.54-.46ZM899.03,26.79l-.99-.08c-.27,0-.52.19-.54.46-.03.28.18.52.45.54l1,.08h.04c.26,0,.48-.2.5-.46.02-.27-.18-.51-.46-.54ZM539.29,26.93l-1,.08c-.27.03-.48.27-.46.54.03.26.24.46.5.46h.04l1-.08c.28-.02.48-.27.46-.54-.03-.28-.25-.51-.54-.46ZM904.02,27.2l-1-.08c-.27-.02-.51.18-.54.46-.02.27.18.51.46.54l1,.08h.04c.26,0,.47-.2.5-.46.02-.27-.18-.51-.46-.54ZM534.3,27.34l-1,.09c-.27.02-.47.26-.45.54.02.26.24.46.5.46.01,0,.03,0,.04-.01l.99-.08c.28-.02.49-.26.46-.54-.02-.27-.27-.47-.54-.46ZM909.01,27.62l-1-.08c-.29-.01-.52.18-.54.46-.02.27.18.51.45.54l1,.08h.04c.26,0,.48-.19.5-.46.03-.27-.18-.51-.45-.54ZM529.32,27.77l-1,.09c-.28.02-.48.26-.45.54.02.26.24.45.49.45h.05l.99-.08c.28-.03.48-.27.46-.55-.03-.27-.28-.49-.54-.45ZM913.99,28.06l-1-.09c-.29-.02-.51.18-.54.45-.02.28.18.52.46.55l1,.08s.02.01.04.01c.25,0,.47-.2.5-.46.02-.28-.19-.52-.46-.54ZM524.33,28.21l-.99.09c-.28.02-.48.26-.46.54.03.26.24.45.5.45h.04l1-.09c.28-.02.48-.27.45-.54-.02-.27-.26-.48-.54-.45ZM918.97,28.5l-.99-.09c-.27-.01-.52.18-.55.46-.02.27.18.51.46.54l.99.09h.05c.26,0,.47-.2.5-.46.02-.27-.18-.51-.46-.54ZM519.35,28.66l-1,.09c-.27.02-.47.27-.45.54.02.26.24.46.5.46.01,0,.03-.01.04-.01l1-.09c.28-.03.48-.27.45-.54-.02-.28-.26-.48-.54-.45ZM923.96,28.96l-1-.09c-.29-.02-.52.18-.54.45-.03.27.17.52.45.54l.99.09s.04,0,.05,0c.26,0,.47-.2.5-.46.02-.27-.18-.51-.45-.54ZM514.37,29.12l-1,.09c-.27.03-.47.27-.45.54.03.26.24.46.5.46h.05l.99-.1c.28-.02.48-.27.45-.54-.02-.28-.27-.47-.54-.45ZM928.94,29.43l-1-.1c-.28-.02-.52.18-.54.45-.03.28.17.52.45.55l.99.09s.03.01.05.01c.25,0,.47-.2.5-.46.02-.27-.18-.52-.45-.54ZM509.39,29.59l-1,.09c-.27.03-.48.28-.45.55.03.26.24.45.5.45h.05l.99-.1c.28-.02.48-.26.45-.54-.02-.28-.27-.47-.54-.45ZM933.92,29.91l-1-.1c-.25-.02-.52.18-.55.45-.02.28.18.52.46.55l.99.09s.03.01.05.01c.25,0,.47-.2.5-.46.02-.27-.18-.52-.45-.54ZM504.41,30.07l-1,.1c-.28.03-.48.27-.45.55.03.26.24.45.5.45h.05l.99-.1c.28-.03.48-.27.45-.55-.03-.27-.25-.47-.54-.45ZM938.9,30.4l-1-.1c-.27-.03-.52.17-.55.45-.02.27.18.52.45.54l1,.1s.03.01.05.01c.25,0,.47-.2.5-.46.02-.27-.18-.51-.45-.54ZM499.43,30.57l-1,.1c-.27.03-.47.27-.44.55.02.25.24.45.49.45.02,0,.04,0,.05-.01l1-.1c.27-.02.47-.27.45-.55-.03-.27-.3-.48-.55-.44ZM943.87,30.9l-.99-.1c-.27-.03-.52.17-.55.45-.03.27.17.52.45.55l.99.1h.05c.26,0,.47-.19.5-.45.03-.27-.17-.52-.45-.55ZM494.45,31.08l-1,.1c-.27.03-.47.27-.44.55.03.26.24.45.49.45.02,0,.04,0,.06-.01l.99-.1c.28-.03.48-.28.45-.55-.03-.27-.29-.48-.55-.44ZM948.85,31.42l-.99-.1c-.26-.04-.53.17-.55.44-.03.28.17.52.44.55l1,.1s.03.01.05.01c.25,0,.47-.2.5-.45.03-.28-.17-.52-.45-.55ZM489.47,31.6l-.99.1c-.28.03-.48.28-.45.55.03.26.25.45.5.45h.05l1-.11c.27-.03.47-.27.44-.55-.03-.27-.28-.47-.55-.44ZM953.83,31.95l-1-.11c-.27-.03-.52.17-.55.45-.03.27.17.52.45.54l.99.11h.05c.26,0,.47-.19.5-.44.03-.28-.17-.52-.44-.55ZM484.5,32.13l-1,.11c-.27.03-.47.27-.44.55.03.25.25.44.5.44h.05l1-.11c.27-.03.47-.27.44-.55-.03-.27-.29-.46-.55-.44ZM958.8,32.49l-.99-.11c-.27-.04-.53.17-.56.44-.03.28.17.52.45.55l.99.11h.06c.25,0,.47-.19.49-.44.03-.28-.16-.52-.44-.55ZM479.53,32.67l-1,.11c-.27.03-.47.28-.44.56.03.25.24.44.49.44h.06l.99-.11c.28-.03.48-.28.45-.55-.03-.28-.29-.48-.55-.45ZM963.77,33.04l-.99-.11c-.27-.03-.52.16-.55.44-.03.27.16.52.44.55l.99.11s.04.01.06.01c.25,0,.47-.19.49-.45.03-.27-.16-.52-.44-.55ZM474.55,33.23l-.99.11c-.28.03-.47.28-.44.56.03.25.24.44.49.44.02,0,.04,0,.06-.01l1-.11c.27-.03.47-.28.44-.55-.04-.28-.3-.47-.56-.44ZM968.74,33.6l-.99-.11c-.29-.04-.52.16-.55.44-.04.27.16.52.44.55l.99.12h.06c.25,0,.47-.19.49-.44.03-.28-.16-.53-.44-.56ZM469.58,33.8l-.99.11c-.28.03-.47.28-.44.56.03.25.24.44.49.44h.06l1-.12c.27-.03.47-.28.44-.55-.04-.28-.29-.48-.56-.44ZM973.71,34.18l-.99-.12c-.27-.04-.52.17-.55.44-.04.28.16.52.43.56l1,.11s.04.01.06.01c.25,0,.46-.19.49-.45.04-.27-.16-.52-.44-.55ZM464.61,34.38l-.99.11c-.28.04-.47.28-.44.56.03.25.25.44.5.44h.06l.99-.12c.27-.03.47-.28.44-.56-.04-.27-.29-.48-.56-.43ZM978.68,34.77l-.99-.12c-.27-.04-.52.16-.56.44-.03.27.17.52.44.55l1,.12h.06c.24,0,.46-.18.49-.44.03-.27-.16-.52-.44-.55ZM459.64,34.97l-.99.12c-.27.03-.47.28-.44.56.03.25.25.43.5.43h.06l.99-.12c.28-.03.47-.28.44-.55-.03-.28-.29-.48-.56-.44ZM983.65,35.37l-.99-.12c-.26-.04-.53.16-.56.43-.03.28.16.53.44.56l.99.12h.06c.25,0,.47-.18.5-.43.03-.28-.16-.53-.44-.56ZM454.68,35.57l-1,.13c-.27.03-.46.28-.43.55.03.26.25.44.49.44h.07l.99-.12c.27-.04.47-.29.44-.56-.04-.27-.29-.48-.56-.44ZM988.62,35.98l-1-.12c-.27-.04-.52.16-.55.43-.04.28.16.53.43.56l.99.12s.05.01.07.01c.24,0,.46-.19.49-.44.03-.28-.16-.53-.43-.56ZM449.71,36.19l-.99.13c-.27.03-.47.28-.43.55.03.26.24.44.49.44h.07l.99-.13c.27-.03.47-.28.43-.56-.03-.27-.29-.47-.56-.43ZM993.58,36.61l-.99-.13c-.26-.04-.53.16-.56.43-.04.28.16.53.43.56l.99.13h.07c.25,0,.46-.18.49-.44.04-.27-.16-.52-.43-.55ZM444.75,36.82l-.99.13c-.28.03-.47.28-.44.55.04.26.25.44.5.44h.06l1-.13c.27-.03.46-.29.43-.56-.04-.27-.29-.47-.56-.43ZM998.54,37.24l-.99-.13c-.28-.04-.52.16-.56.43-.03.28.16.53.43.57l1,.12s.04.01.06.01c.25,0,.46-.19.5-.44.03-.27-.16-.52-.44-.56ZM439.79,37.46l-.99.13c-.28.03-.47.29-.44.56.04.25.25.43.5.43h.06l1-.13c.27-.04.46-.29.43-.56-.04-.27-.29-.47-.56-.43ZM1003.5,37.89l-.99-.13c-.27-.04-.52.16-.56.43-.04.27.16.53.43.56l.99.13s.05.01.07.01c.25,0,.46-.19.49-.44.04-.27-.15-.52-.43-.56ZM434.82,38.11l-.99.14c-.27.03-.46.28-.42.56.03.25.24.43.49.43h.07l.99-.14c.27-.03.46-.29.43-.56-.04-.27-.3-.47-.57-.43ZM1008.46,38.55l-.99-.13c-.26-.04-.52.16-.56.43s.16.52.43.56l.99.13s.05.01.07.01c.24,0,.46-.18.49-.43.04-.28-.15-.53-.43-.57ZM429.87,38.78l-.99.13c-.28.04-.47.29-.43.57.03.25.25.43.49.43h.07l.99-.14c.28-.04.47-.29.43-.56-.04-.28-.29-.47-.56-.43ZM1013.42,39.23l-.99-.14c-.27-.03-.53.16-.56.43-.04.27.15.52.42.56l.99.14h.07c.25,0,.46-.18.5-.43.04-.27-.15-.52-.43-.56ZM424.91,39.46l-.99.14c-.27.03-.47.29-.43.56.04.25.25.43.5.43h.07l.99-.14c.27-.04.46-.29.42-.57-.03-.27-.29-.48-.56-.42ZM1018.38,39.91l-.99-.13c-.27-.04-.53.15-.57.42-.04.27.15.53.43.57l.99.13s.05.01.07.01c.24,0,.46-.18.49-.43.04-.28-.15-.53-.42-.57ZM419.95,40.15l-.99.14c-.27.04-.46.29-.42.56.03.25.25.43.49.43h.07l.99-.14c.28-.04.47-.29.43-.56-.04-.28-.3-.47-.57-.43ZM1023.33,40.61l-.99-.14c-.26-.03-.53.15-.56.43-.04.27.15.52.42.56l.99.14s.05.01.07.01c.25,0,.46-.18.5-.43.03-.28-.16-.53-.43-.57ZM415,40.85l-.99.14c-.27.04-.46.3-.42.57.03.25.25.43.49.43.03,0,.05,0,.07-.01l.99-.14c.28-.04.47-.29.43-.56-.04-.28-.31-.47-.57-.43ZM1028.28,41.32l-.99-.14c-.27-.03-.52.15-.56.42-.04.28.15.53.42.57l.99.14s.05.01.07.01c.25,0,.46-.18.5-.43.04-.27-.15-.53-.43-.57ZM410.05,41.57l-.99.14c-.27.04-.46.29-.42.57.03.25.25.43.49.43.03,0,.05,0,.07,0l.99-.14c.28-.04.47-.3.43-.57-.04-.27-.3-.46-.57-.42ZM1033.23,42.05l-.99-.15c-.27-.03-.52.15-.56.42-.04.28.15.53.42.57l.99.15h.07c.25,0,.46-.18.5-.42.04-.28-.15-.53-.43-.57ZM405.1,42.3l-.99.14c-.27.04-.46.3-.42.57.04.25.25.43.49.43.03,0,.05,0,.08-.01l.99-.15c.27-.04.46-.29.42-.57-.04-.27-.3-.46-.57-.41ZM1038.18,42.79l-.99-.15c-.26-.05-.52.14-.56.42-.05.27.14.52.42.56l.99.15s.05,0,.07,0c.24,0,.46-.18.49-.43.04-.27-.14-.52-.42-.56ZM400.15,43.04l-.99.15c-.27.04-.46.29-.42.57.04.24.25.42.5.42h.07l.99-.15c.27-.04.46-.3.42-.57-.04-.28-.3-.46-.57-.42ZM1043.13,43.53l-.99-.15c-.27-.04-.53.15-.57.42-.04.28.15.53.42.57l.99.15s.05,0,.08,0c.24,0,.45-.18.49-.43.04-.27-.15-.52-.42-.57ZM395.2,43.79l-.98.15c-.28.04-.46.3-.42.57.04.25.25.43.49.43.03,0,.05-.01.08-.01l.99-.15c.27-.04.46-.3.41-.57-.04-.28-.28-.46-.57-.42ZM1048.08,44.3l-.99-.16c-.28-.04-.53.15-.57.42-.05.27.14.53.41.57l.99.15s.05.01.08.01c.24,0,.45-.18.49-.42.05-.28-.14-.53-.41-.57ZM390.26,44.56l-.99.15c-.27.04-.46.3-.41.57.03.25.25.42.49.42h.08l.98-.16c.28-.04.46-.29.42-.57-.04-.27-.3-.46-.57-.41ZM1053.02,45.07l-.99-.16c-.27-.04-.53.15-.57.42-.05.27.14.53.41.57l.99.16h.08c.24,0,.45-.17.49-.42.05-.27-.14-.53-.41-.57ZM385.32,45.34l-.99.15c-.27.05-.46.3-.41.58.04.24.25.42.49.42.03,0,.05,0,.08-.01l.98-.16c.28-.04.46-.29.42-.57-.04-.27-.29-.46-.57-.41ZM1057.96,45.86l-.99-.16c-.27-.05-.53.14-.57.41-.05.28.14.53.41.58l.99.16h.08c.24,0,.45-.17.49-.42.05-.27-.14-.53-.41-.57ZM380.38,46.13l-.99.16c-.27.04-.46.3-.41.57.04.25.25.42.49.42.03,0,.05,0,.08,0l.99-.15c.27-.05.45-.31.41-.58-.04-.27-.29-.45-.57-.41ZM1062.9,46.66l-.99-.16c-.27-.05-.53.14-.57.41-.05.27.14.53.41.57l.99.17h.08c.24,0,.45-.17.49-.42.04-.27-.14-.53-.41-.57ZM375.44,46.93l-.99.16c-.27.05-.45.31-.41.58.04.24.25.42.49.42.03,0,.06,0,.09-.01l.98-.16c.28-.05.46-.3.41-.58-.04-.27-.3-.46-.57-.41ZM1067.83,47.47l-.98-.16c-.28-.05-.53.14-.58.41-.04.27.14.53.41.57l.99.17h.08c.24,0,.46-.17.5-.42.04-.27-.14-.52-.42-.57ZM370.5,47.75l-.98.17c-.28.04-.46.3-.41.57.04.25.25.42.49.42.03,0,.05,0,.08-.01l.99-.16c.27-.05.45-.31.41-.58-.05-.27-.31-.45-.58-.41ZM1072.77,48.3l-.99-.17c-.26-.04-.53.14-.57.41-.05.27.13.53.41.58l.98.16s.06.01.09.01c.24,0,.45-.17.49-.42.04-.27-.14-.53-.41-.57ZM365.57,48.58l-.99.17c-.27.04-.45.3-.41.58.05.24.26.41.5.41h.08l.99-.17c.27-.05.45-.31.41-.58-.05-.27-.32-.46-.58-.41ZM1077.7,49.14l-.98-.17c-.28-.05-.54.14-.58.41-.05.27.13.53.41.57l.98.17s.06.01.09.01c.24,0,.45-.17.49-.42.05-.27-.14-.53-.41-.57ZM360.64,49.42l-.99.18c-.27.04-.45.3-.41.57.05.25.26.42.5.42.02,0,.05,0,.08-.01l.99-.17c.27-.05.45-.31.4-.58-.04-.27-.32-.46-.57-.41ZM1082.63,49.99l-.98-.17c-.29-.05-.54.13-.58.41-.05.27.13.53.41.57l.98.17s.06.01.09.01c.24,0,.45-.17.49-.41.05-.28-.14-.53-.41-.58ZM355.71,50.28l-.99.17c-.27.05-.45.31-.4.58.04.25.25.42.49.42.03,0,.06-.01.09-.01l.98-.17c.27-.05.45-.31.41-.58-.05-.28-.32-.46-.58-.41ZM1087.56,50.86l-.99-.18c-.26-.06-.53.14-.58.41-.04.27.14.53.41.58l.98.17s.06.01.09.01c.24,0,.45-.17.49-.41.05-.28-.13-.53-.4-.58ZM350.78,51.15l-.98.18c-.28.05-.46.31-.41.58.04.24.26.41.49.41.03,0,.06,0,.09-.01l.99-.17c.27-.05.45-.31.4-.58-.05-.28-.31-.45-.58-.41ZM1092.49,51.73l-.99-.17c-.27-.05-.53.13-.58.4-.05.27.13.53.4.58l.99.18s.06.01.09.01c.23,0,.45-.17.49-.41.05-.28-.13-.54-.4-.59ZM345.86,52.03l-.99.18c-.27.05-.45.31-.4.58.04.25.25.41.49.41h.09l.99-.18c.27-.05.45-.31.4-.58-.05-.28-.33-.45-.58-.41ZM1097.41,52.62l-.99-.17c-.26-.04-.53.13-.58.4-.05.27.13.53.4.58l.99.18s.06.01.09.01c.24,0,.45-.17.49-.41.05-.28-.13-.54-.4-.59ZM340.93,52.93l-.98.18c-.27.05-.45.31-.4.58.04.24.25.41.49.41.03,0,.06,0,.09-.01l.98-.18c.28-.05.46-.31.41-.58s-.32-.44-.59-.4ZM1102.33,53.53l-.98-.18c-.29-.05-.54.13-.59.4-.05.27.13.53.4.58l.99.18s.06.01.09.01c.24,0,.45-.17.49-.41.05-.27-.13-.53-.4-.58ZM336.01,53.84l-.98.18c-.27.06-.45.32-.4.59.05.24.26.41.49.41.03,0,.06-.01.09-.01l.99-.19c.27-.05.45-.31.4-.58s-.32-.44-.59-.4ZM1107.25,54.45l-.99-.18c-.27-.06-.53.12-.58.39-.05.28.13.54.4.59l.98.18s.06.01.1.01c.23,0,.44-.17.49-.41.05-.27-.13-.53-.4-.58ZM331.1,54.76l-.99.19c-.27.05-.45.31-.39.58.04.24.25.41.49.41.03,0,.06,0,.09-.01l.98-.18c.27-.06.45-.32.4-.59-.05-.27-.32-.45-.58-.4ZM1112.16,55.38l-.98-.19c-.27-.05-.53.13-.58.4-.06.27.12.53.39.59l.99.18s.06.01.09.01c.23,0,.44-.16.49-.4.05-.27-.13-.54-.4-.59ZM326.18,55.7l-.98.19c-.27.05-.45.31-.4.58.05.24.26.41.49.41.03,0,.07,0,.1-.01l.98-.19c.27-.05.45-.31.4-.58-.06-.28-.32-.45-.59-.4ZM1117.08,56.33l-.98-.19c-.28-.06-.54.12-.59.39-.05.27.12.54.4.59l.98.19s.06.01.09.01c.24,0,.45-.17.49-.41.06-.27-.12-.53-.39-.58ZM321.85,57.04c-.05-.27-.31-.45-.58-.39l-.98.19c-.27.05-.45.32-.4.59.05.24.26.4.49.4.03,0,.07,0,.1-.01l.98-.19c.27-.05.45-.32.39-.59ZM1121.99,57.29l-.98-.2c-.28-.06-.54.13-.59.4s.12.53.39.58l.99.2s.06,0,.09,0c.24,0,.45-.17.49-.41.06-.27-.12-.53-.39-.58ZM316.36,57.61l-.98.2c-.27.05-.45.31-.4.58.05.24.26.41.49.41.04,0,.07-.01.1-.01l.98-.2c.28-.05.45-.31.4-.58-.06-.28-.33-.45-.59-.4ZM1126.89,58.26l-.98-.2c-.26-.05-.53.12-.58.39-.06.28.12.54.39.59l.98.2s.07.01.1.01c.23,0,.44-.17.49-.4.05-.27-.12-.54-.4-.59ZM311.45,58.59l-.98.2c-.27.05-.45.31-.39.58.05.24.25.41.49.41.03,0,.06,0,.1,0l.98-.2c.27-.06.44-.32.39-.59-.06-.27-.32-.45-.59-.39ZM1131.8,59.24l-.98-.19c-.28-.06-.53.12-.59.39-.05.27.12.53.39.59l.98.19s.07.01.1.01c.24,0,.45-.16.49-.4.06-.27-.12-.53-.39-.59ZM306.55,59.58l-.98.2c-.27.06-.45.32-.39.59.05.24.25.4.49.4.03,0,.06,0,.1-.01l.98-.2c.27-.06.44-.32.39-.59-.06-.27-.32-.44-.59-.39ZM1136.7,60.24l-.98-.2c-.26-.06-.53.12-.59.39-.05.27.12.54.39.59l.98.2s.07.01.1.01c.24,0,.45-.16.49-.4.06-.27-.12-.53-.39-.59ZM301.64,60.58l-.97.21c-.27.05-.45.32-.39.59.05.24.26.4.49.4.03,0,.06,0,.1,0l.98-.21c.27-.05.44-.32.39-.59-.06-.27-.32-.45-.6-.39ZM1141.6,61.26l-.98-.21c-.26-.06-.53.12-.59.39-.05.27.12.54.39.59l.98.21s.07.01.1.01c.24,0,.44-.17.49-.4.06-.27-.12-.54-.39-.59ZM296.75,61.6l-.98.21c-.27.06-.45.32-.39.59.05.24.26.4.49.4.03,0,.07-.01.1-.01l.98-.21c.27-.05.44-.32.39-.59-.06-.27-.32-.45-.59-.39ZM1146.5,62.28l-.98-.2c-.26-.06-.53.11-.59.38-.06.28.12.54.39.6l.97.2s.07.01.11.01c.23,0,.44-.16.49-.39.05-.27-.12-.54-.39-.6ZM292.44,63.02c-.05-.27-.32-.44-.59-.38l-.98.2c-.27.06-.44.33-.38.6.05.23.25.39.49.39.03,0,.07,0,.1-.01l.98-.21c.27-.05.44-.32.38-.59ZM1151.4,63.33l-.98-.21c-.27-.05-.54.11-.6.38-.05.27.12.54.39.6l.98.2s.07.02.1.02c.23,0,.44-.16.49-.4.06-.27-.11-.54-.38-.59ZM287.55,64.07c-.06-.27-.33-.45-.59-.39l-.98.21c-.27.06-.44.33-.38.6.05.23.25.39.48.39.04,0,.08,0,.11-.01l.98-.21c.27-.06.44-.33.38-.59ZM1156.29,64.38l-.98-.21c-.27-.06-.54.11-.6.38-.05.27.12.54.39.6l.97.21s.07.01.11.01c.23,0,.44-.16.49-.39.06-.27-.11-.54-.38-.6ZM282.66,65.12c-.06-.27-.32-.44-.59-.38l-.98.22c-.27.05-.44.32-.38.59.05.24.26.39.49.39.03,0,.07,0,.1-.01l.98-.21c.27-.06.44-.33.38-.6ZM1161.17,65.45l-.97-.21c-.28-.06-.54.11-.6.38-.06.27.11.53.38.59l.98.22s.07.01.11.01c.23,0,.43-.16.48-.39.06-.27-.11-.54-.38-.6ZM277.78,66.19c-.06-.26-.32-.44-.6-.38l-.98.22c-.26.06-.43.33-.37.6.05.23.25.39.48.39.04,0,.08,0,.11-.01l.98-.22c.27-.06.44-.33.38-.6ZM1166.06,66.53l-.98-.21c-.27-.07-.54.11-.6.38-.06.27.11.53.38.59l.98.22s.07.01.11.01c.23,0,.43-.16.49-.39.06-.27-.11-.54-.38-.6ZM272.89,67.28c-.06-.27-.32-.43-.59-.38l-.98.22c-.27.06-.44.33-.38.6.05.23.26.39.49.39.04,0,.07,0,.11-.01l.98-.22c.26-.06.43-.33.37-.6ZM1170.94,67.63l-.98-.22c-.26-.06-.53.11-.59.38-.06.27.11.54.37.6l.98.22s.07.01.11.01c.23,0,.43-.16.49-.39.06-.27-.11-.54-.38-.6ZM268.02,68.38c-.07-.27-.34-.43-.6-.37l-.98.22c-.27.06-.44.33-.37.6.05.23.25.39.48.39.04,0,.08-.01.11-.02l.98-.22c.27-.06.44-.33.38-.6ZM1175.82,68.74l-.98-.22c-.27-.06-.53.11-.6.38-.06.27.11.53.38.6l.98.22s.07.01.11.01c.23,0,.43-.15.49-.39.06-.26-.11-.53-.38-.6ZM263.14,69.5c-.06-.27-.33-.44-.6-.38l-.98.23c-.27.06-.43.33-.37.6.05.23.26.39.49.39.03,0,.07-.01.11-.02l.97-.22c.27-.06.44-.33.38-.6ZM1180.69,69.87l-.97-.23c-.27-.06-.54.11-.6.38-.06.27.1.54.37.6l.98.22s.07.02.11.02c.23,0,.43-.16.49-.39.06-.27-.11-.54-.38-.6ZM258.27,70.63c-.07-.27-.33-.44-.61-.38l-.97.23c-.27.07-.43.34-.37.6.05.23.26.39.49.39.03,0,.07,0,.11-.01l.97-.23c.27-.07.44-.33.38-.6ZM1185.57,71.01l-.98-.23c-.26-.07-.54.1-.6.37-.06.27.1.54.37.6l.98.23s.07.02.11.02c.23,0,.43-.16.49-.39.06-.27-.11-.54-.37-.6ZM253.4,71.77c-.07-.27-.34-.44-.61-.37l-.97.23c-.27.06-.43.33-.37.6.05.23.26.39.49.39.03,0,.07-.01.11-.02l.98-.23c.26-.06.43-.33.37-.6ZM1190.43,72.17l-.97-.24c-.27-.06-.54.11-.6.37-.07.27.1.54.37.61l.97.23s.08.01.12.01c.22,0,.43-.15.48-.38.07-.27-.1-.54-.37-.6ZM248.53,72.93c-.06-.27-.33-.44-.6-.37l-.98.23c-.26.07-.43.34-.36.61.05.22.26.38.48.38.04,0,.08,0,.12,0l.97-.24c.27-.06.44-.33.37-.6ZM1195.3,73.33l-.97-.23c-.27-.06-.54.1-.61.37-.06.27.1.54.37.6l.97.24s.08.01.12.01c.23,0,.43-.15.49-.38.06-.27-.1-.54-.37-.61ZM243.67,74.1c-.07-.27-.34-.43-.61-.37l-.97.24c-.27.07-.43.34-.37.61.06.22.26.38.49.38.04,0,.08,0,.12-.02l.97-.24c.27-.06.43-.33.37-.6ZM1200.16,74.52l-.97-.24c-.26-.06-.54.1-.61.37-.06.27.1.54.37.6l.97.24s.08.02.12.02c.23,0,.43-.16.49-.39.06-.26-.1-.53-.37-.6ZM238.81,75.29c-.07-.27-.34-.44-.61-.37l-.97.24c-.27.07-.43.34-.36.61.05.23.26.38.48.38.04,0,.08-.01.12-.02l.97-.24c.27-.06.43-.33.37-.6ZM1205.02,75.72l-.97-.24c-.27-.07-.54.09-.61.36-.06.27.1.54.37.61l.97.24s.08.01.12.01c.22,0,.43-.15.48-.38.07-.27-.09-.54-.36-.6ZM233.95,76.49c-.06-.27-.33-.43-.6-.36l-.97.24c-.27.07-.43.34-.37.61.06.22.26.38.49.38.04,0,.08-.01.12-.02l.97-.24c.27-.07.43-.34.36-.61ZM1209.87,76.93l-.97-.24c-.25-.07-.54.1-.61.36-.06.27.1.54.37.61l.97.24s.08.02.12.02c.22,0,.43-.15.49-.38.06-.27-.1-.54-.37-.61ZM229.1,77.71c-.07-.27-.34-.43-.61-.36l-.97.24c-.26.07-.43.34-.36.61.06.23.26.38.49.38.04,0,.08-.01.12-.02l.97-.24c.27-.07.43-.34.36-.61ZM1214.72,78.16l-.97-.24c-.27-.08-.54.09-.6.36-.07.26.09.54.36.6l.97.25s.08.02.12.02c.22,0,.43-.15.48-.38.07-.27-.09-.54-.36-.61ZM224.25,78.94c-.07-.27-.34-.43-.61-.36l-.96.25c-.27.07-.43.34-.36.61.05.22.26.37.48.37.04,0,.08,0,.12-.01l.97-.25c.27-.07.43-.34.36-.61ZM1219.57,79.41l-.97-.25c-.26-.07-.54.09-.61.36-.07.26.09.54.36.6l.97.25s.08.02.12.02c.23,0,.43-.15.49-.37.07-.27-.09-.54-.36-.61ZM219.41,80.19c-.07-.27-.34-.43-.61-.36l-.97.25c-.27.07-.43.35-.36.61.06.23.27.38.49.38.04,0,.08-.01.12-.02l.97-.25c.27-.07.43-.35.36-.61ZM1224.41,80.67l-.97-.26c-.26-.07-.54.09-.61.36-.07.27.09.54.36.61l.97.25s.08.02.12.02c.23,0,.43-.15.49-.37.07-.27-.09-.54-.36-.61ZM214.57,81.45c-.07-.27-.35-.43-.61-.36l-.97.26c-.27.07-.43.34-.36.61.06.22.27.37.49.37.04,0,.08,0,.12-.01l.97-.26c.27-.07.43-.34.36-.61ZM1229.25,81.94l-.97-.26c-.27-.07-.54.09-.61.36-.07.27.09.54.36.61l.96.26s.09.01.13.01c.23,0,.43-.15.49-.37.07-.27-.09-.54-.36-.61ZM209.73,82.73c-.07-.27-.34-.43-.61-.36l-.97.26c-.26.07-.42.35-.35.61.06.23.26.37.48.37.05,0,.09,0,.13-.01l.97-.26c.27-.07.42-.35.35-.61ZM1234.09,83.23l-.97-.26c-.27-.07-.54.09-.61.35-.07.27.08.54.35.62l.97.25s.08.02.13.02c.22,0,.42-.15.48-.37.07-.27-.09-.54-.35-.61ZM204.9,84.02c-.07-.27-.34-.43-.61-.35l-.97.26c-.26.07-.42.35-.35.61.06.23.26.37.48.37.04,0,.09,0,.13-.02l.97-.26c.27-.07.42-.34.35-.61ZM1238.92,84.53l-.97-.26c-.26-.07-.54.09-.61.35-.08.27.08.55.35.62l.96.26c.05.01.09.02.13.02.22,0,.43-.15.49-.37.07-.27-.09-.54-.35-.62ZM200.07,85.33c-.07-.27-.34-.42-.61-.35l-.97.26c-.26.08-.42.35-.35.62.06.22.27.36.49.36.04,0,.08,0,.13-.01l.96-.27c.27-.07.43-.34.35-.61ZM1243.74,85.85l-.96-.26c-.27-.07-.55.08-.62.35-.07.27.09.54.35.61l.97.27s.09.02.13.02c.22,0,.42-.15.48-.37.07-.27-.08-.54-.35-.62ZM195.25,86.65c-.08-.27-.35-.42-.62-.35l-.96.27c-.27.07-.42.35-.35.62.06.22.26.36.48.36.05,0,.09,0,.14-.02l.96-.26c.27-.08.42-.35.35-.62ZM1248.56,87.19l-.96-.27c-.26-.07-.54.08-.62.35-.07.26.09.54.35.61l.97.27s.09.02.13.02c.22,0,.42-.14.48-.37.08-.26-.08-.54-.35-.61ZM190.43,87.99c-.08-.27-.35-.42-.62-.34l-.96.26c-.27.08-.42.36-.35.62.07.22.27.37.49.37.04,0,.09-.01.13-.02l.96-.27c.27-.08.42-.36.35-.62ZM1253.38,88.54l-.96-.27c-.27-.07-.54.08-.62.35-.07.26.08.54.35.61l.96.27c.05.02.09.02.14.02.21,0,.42-.14.48-.36.07-.27-.08-.54-.35-.62ZM185.61,89.35c-.07-.27-.35-.43-.62-.35l-.96.28c-.26.07-.42.35-.34.61.06.22.26.37.48.37.05,0,.09-.01.14-.02l.96-.28c.27-.07.42-.35.34-.61ZM1258.19,89.91l-.96-.28c-.26-.07-.54.08-.62.35-.07.26.08.54.35.62l.96.27c.05.01.09.02.14.02.22,0,.42-.14.48-.36.07-.27-.08-.55-.35-.62ZM180.8,90.72c-.07-.27-.35-.42-.62-.34l-.96.27c-.26.08-.41.35-.34.62.06.22.26.36.48.36.05,0,.09,0,.14-.02l.96-.27c.27-.08.42-.36.34-.62ZM1263,91.29l-.96-.28c-.26-.08-.54.08-.62.35-.07.26.08.54.34.62l.97.27s.09.02.13.02c.22,0,.42-.14.48-.36.08-.27-.07-.54-.34-.62ZM176,92.1c-.08-.26-.35-.41-.62-.34l-.96.28c-.27.08-.42.36-.34.62.06.22.26.36.48.36.04,0,.09,0,.14-.02l.96-.28c.26-.07.42-.35.34-.62ZM1267.81,92.69l-.96-.28c-.27-.08-.55.08-.62.34-.08.27.07.54.34.62l.96.28s.09.02.14.02c.21,0,.41-.14.48-.36.07-.26-.08-.54-.34-.62ZM171.2,93.51c-.08-.27-.36-.42-.62-.34l-.96.28c-.27.08-.42.36-.34.62.06.22.26.36.48.36.04,0,.09-.01.14-.02l.96-.28c.26-.08.41-.36.34-.62ZM1272.61,94.11l-.96-.29c-.26-.07-.54.08-.62.34-.08.27.07.54.33.62l.96.29c.05.01.1.02.15.02.21,0,.41-.14.48-.36.07-.27-.08-.54-.34-.62ZM166.4,94.93c-.08-.27-.35-.42-.62-.34l-.96.29c-.27.08-.42.35-.34.62.07.22.27.36.48.36.05,0,.1-.01.15-.03l.95-.28c.27-.08.42-.36.34-.62ZM1277.4,95.54l-.96-.29c-.27-.08-.54.07-.62.34-.08.26.07.54.34.62l.96.29s.09.02.14.02c.21,0,.41-.14.48-.36.08-.26-.07-.54-.34-.62ZM161.61,96.36c-.08-.26-.36-.41-.62-.33l-.96.29c-.27.08-.42.36-.34.62.07.22.27.35.48.35.05,0,.1,0,.15-.02l.95-.29c.27-.07.42-.35.34-.62ZM1282.19,96.99l-.96-.29c-.26-.09-.54.06-.62.33-.08.26.07.54.33.62l.96.29c.05.02.1.03.15.03.21,0,.41-.14.47-.36.08-.26-.06-.54-.33-.62ZM156.82,97.81c-.08-.26-.36-.41-.62-.33l-.96.29c-.27.08-.41.36-.33.63.06.21.26.35.48.35.04,0,.09,0,.14-.02l.96-.29c.26-.08.41-.36.33-.63ZM1286.98,98.45l-.96-.29c-.27-.08-.54.07-.63.33-.08.26.07.54.34.62l.95.3c.05.01.1.02.15.02.21,0,.41-.14.48-.35.08-.27-.07-.55-.33-.63ZM152.04,99.28c-.08-.26-.36-.41-.63-.33l-.95.3c-.27.08-.41.36-.33.62.07.22.26.36.48.36.05,0,.09-.01.14-.03l.96-.29c.26-.08.41-.36.33-.63ZM1291.75,99.93l-.95-.3c-.27-.08-.55.07-.63.33-.08.27.07.55.33.63l.96.3s.1.02.15.02c.21,0,.41-.14.47-.35.09-.27-.06-.55-.33-.63ZM147.26,100.76c-.08-.26-.36-.4-.63-.32l-.95.3c-.26.08-.41.36-.33.62.07.22.27.35.48.35.05,0,.1,0,.15-.02l.96-.3c.26-.08.41-.36.32-.63ZM1296.53,101.43l-.95-.3c-.27-.08-.55.06-.63.33-.08.26.06.54.33.62l.95.3s.1.03.15.03c.21,0,.41-.14.48-.35.08-.27-.07-.55-.33-.63ZM142.49,102.27c-.08-.27-.36-.41-.63-.33l-.95.3c-.26.09-.41.37-.33.63.07.21.27.35.48.35.05,0,.1-.01.15-.02l.96-.31c.26-.08.41-.36.32-.62ZM1301.3,102.94l-.95-.3c-.27-.08-.55.06-.63.32-.09.27.06.55.32.63l.96.31s.1.02.15.02c.21,0,.41-.14.47-.35.09-.26-.06-.54-.32-.63ZM137.72,103.78c-.08-.26-.36-.41-.62-.32l-.96.31c-.26.08-.4.36-.32.63.07.21.27.34.48.34.05,0,.1,0,.15-.02l.95-.31c.27-.08.41-.36.32-.63ZM1306.06,104.48l-.95-.31c-.26-.09-.54.06-.63.32-.08.26.06.55.32.63l.96.31c.05.01.1.02.15.02.21,0,.41-.13.47-.34.09-.27-.05-.55-.32-.63ZM132.96,105.32c-.08-.26-.36-.41-.63-.32l-.95.31c-.26.08-.4.37-.32.63.07.21.27.34.48.34.05,0,.1,0,.15-.02l.95-.31c.27-.09.41-.37.32-.63ZM1310.82,106.02l-.95-.31c-.27-.08-.54.06-.63.32-.09.27.06.55.32.63l.95.32c.05.01.1.02.16.02.21,0,.4-.13.47-.34.09-.27-.06-.55-.32-.64ZM128.21,106.87c-.09-.26-.37-.41-.63-.32l-.95.32c-.26.08-.41.37-.32.63.07.21.26.34.47.34.06,0,.11-.01.16-.02l.95-.32c.26-.08.41-.37.32-.63ZM1315.58,107.59l-.96-.31c-.26-.09-.54.05-.63.31-.08.27.06.55.32.64l.95.31c.05.02.11.03.16.03.21,0,.4-.14.47-.35.09-.26-.05-.54-.31-.63ZM123.46,108.44c-.09-.26-.37-.41-.63-.32l-.95.32c-.26.09-.4.37-.32.63.07.21.27.34.48.34.05,0,.1,0,.16-.02l.94-.32c.27-.08.41-.37.32-.63ZM1320.32,109.17l-.95-.31c-.26-.09-.54.05-.63.31-.09.26.05.55.31.64l.95.31c.06.02.11.03.16.03.21,0,.41-.13.48-.34.08-.27-.06-.55-.32-.64ZM118.71,110.03c-.09-.27-.37-.4-.63-.32l-.95.32c-.26.09-.4.38-.31.64.07.21.26.34.47.34.06,0,.11-.01.16-.03l.95-.32c.26-.09.4-.37.31-.63ZM1325.06,110.77l-.95-.32c-.26-.08-.54.05-.63.32-.09.26.05.54.31.63l.95.32s.11.03.16.03c.21,0,.4-.13.47-.34.09-.26-.05-.55-.31-.64ZM113.98,111.63c-.09-.26-.38-.4-.64-.31l-.94.32c-.26.09-.4.38-.32.64.08.21.27.34.48.34.05,0,.11-.01.16-.03l.95-.32c.26-.09.4-.38.31-.64ZM1329.8,112.39l-.95-.32c-.26-.09-.54.05-.63.31-.09.26.04.54.31.63l.94.33c.06.02.11.03.16.03.21,0,.41-.13.48-.34.09-.26-.05-.55-.31-.64ZM109.25,113.25c-.09-.26-.38-.4-.64-.31l-.95.33c-.26.09-.39.38-.3.64.07.2.26.33.47.33.05,0,.11-.01.16-.02l.95-.33c.26-.09.4-.38.31-.64ZM1334.53,114.03l-.95-.33c-.26-.09-.54.05-.64.31-.09.26.05.54.31.64l.95.32c.05.02.11.03.16.03.21,0,.4-.13.47-.34.09-.26-.04-.54-.3-.63ZM104.52,114.89c-.09-.26-.37-.4-.64-.3l-.94.33c-.26.09-.4.37-.31.63.08.21.27.34.48.34.05,0,.11-.01.16-.03l.94-.33c.27-.09.4-.38.31-.64ZM1339.25,115.68l-.95-.33c-.26-.09-.54.05-.63.31-.09.26.04.54.3.63l.95.34c.05.02.11.02.16.02.21,0,.4-.12.47-.33.1-.26-.04-.55-.3-.64ZM99.8,116.55c-.09-.26-.38-.4-.64-.3l-.94.33c-.26.09-.4.38-.3.64.07.2.26.33.47.33.05,0,.11-.01.16-.03l.95-.33c.26-.09.39-.38.3-.64ZM1343.96,117.36l-.94-.34c-.26-.1-.54.04-.64.3-.09.26.05.55.31.64l.94.34c.05.02.11.03.17.03.2,0,.4-.13.47-.34.09-.26-.05-.54-.31-.63ZM95.09,118.23c-.1-.26-.38-.39-.64-.31l-.94.34c-.26.1-.4.38-.3.64.07.21.26.33.47.33.05,0,.11-.01.17-.03l.94-.33c.26-.1.39-.38.3-.64ZM1348.67,119.04l-.94-.34c-.26-.09-.54.05-.64.31-.09.26.04.54.3.64l.95.34c.05.01.11.02.16.02.21,0,.4-.12.48-.33.09-.26-.05-.54-.31-.64ZM90.38,119.92c-.09-.26-.38-.39-.64-.3l-.94.34c-.26.1-.39.38-.3.64.08.21.27.33.47.33.06,0,.12-.01.17-.03l.94-.34c.26-.09.4-.38.3-.64ZM1353.38,120.75l-.94-.34c-.26-.09-.55.04-.64.3-.1.26.04.55.3.64l.94.34s.11.03.17.03c.2,0,.39-.12.47-.33.09-.25-.04-.54-.3-.64ZM85.68,121.63c-.1-.26-.39-.39-.64-.3l-.94.35c-.26.1-.39.38-.3.64.08.2.27.33.47.33.06,0,.12-.01.18-.03l.93-.35c.26-.09.4-.38.3-.64ZM1358.07,122.48l-.94-.35c-.25-.09-.54.04-.64.3-.09.26.04.55.3.64l.94.35s.11.03.17.03c.2,0,.39-.12.47-.33.09-.25-.04-.54-.3-.64ZM80.99,123.36c-.1-.26-.39-.39-.64-.29l-.94.35c-.26.09-.39.38-.3.64.08.2.27.33.47.33.06,0,.12-.01.18-.03l.93-.35c.26-.1.39-.39.3-.65ZM1362.76,124.23l-.93-.35c-.26-.11-.55.03-.65.29-.09.26.04.54.3.64l.94.35c.05.02.11.03.17.03.2,0,.39-.12.47-.32.1-.26-.04-.55-.3-.64ZM76.3,125.11c-.1-.26-.39-.38-.64-.29l-.94.35c-.26.1-.39.39-.29.65.08.2.27.32.47.32.06,0,.12-.01.17-.03l.94-.35c.26-.1.39-.39.29-.65ZM1367.45,125.99l-.94-.35c-.26-.1-.55.03-.64.29-.1.26.03.54.29.64l.93.36c.06.02.12.03.18.03.2,0,.39-.12.47-.32.1-.26-.03-.55-.29-.65ZM71.62,126.88c-.09-.26-.38-.38-.64-.29l-.94.36c-.25.1-.38.39-.28.64.07.2.26.32.46.32.06,0,.12-.01.18-.03l.93-.35c.26-.1.39-.39.29-.65ZM1372.12,127.77l-.93-.35c-.26-.1-.55.03-.65.28-.1.26.03.55.29.65l.93.36c.06.02.12.03.18.03.2,0,.39-.12.47-.32.1-.26-.03-.55-.29-.65ZM66.95,128.67c-.1-.26-.39-.38-.64-.29l-.94.36c-.26.1-.38.39-.28.65.07.2.26.32.46.32.06,0,.12,0,.18-.03l.93-.36c.26-.1.39-.39.29-.65ZM1376.79,129.58l-.93-.37c-.26-.09-.55.03-.65.29-.1.26.03.55.29.65l.93.36c.06.02.12.03.18.03.2,0,.39-.12.47-.32.09-.25-.03-.54-.29-.64ZM62.29,130.47c-.1-.25-.39-.38-.65-.28l-.93.37c-.26.1-.39.39-.29.64.08.2.27.32.47.32.06,0,.12-.01.18-.03l.94-.37c.25-.1.38-.39.28-.65ZM1381.45,131.4l-.93-.37c-.26-.1-.55.03-.65.29-.1.25.03.54.28.64l.94.37c.06.02.12.03.18.03.2,0,.39-.12.46-.31.1-.26-.02-.55-.28-.65ZM57.63,132.3c-.1-.26-.39-.38-.65-.28l-.93.37c-.26.1-.38.39-.28.65.08.19.27.31.47.31.06,0,.12-.01.18-.03l.93-.37c.26-.1.38-.39.28-.65ZM1386.1,133.24l-.93-.37c-.25-.1-.54.02-.64.28-.11.26.02.55.28.65l.92.37c.06.02.13.03.19.03.2,0,.39-.11.46-.31.11-.26-.02-.55-.28-.65ZM52.98,134.15c-.1-.26-.39-.38-.65-.28l-.93.37c-.25.1-.38.39-.28.65.08.2.27.31.47.31.06,0,.12-.01.18-.03l.93-.37c.26-.1.38-.4.28-.65ZM1390.75,135.1l-.93-.37c-.25-.1-.55.02-.65.28-.1.25.02.54.28.65l.93.37c.06.02.12.04.18.04.2,0,.39-.12.47-.32.1-.25-.03-.55-.28-.65ZM48.34,136.01c-.1-.26-.39-.38-.65-.27l-.93.37c-.25.11-.38.4-.27.65.08.2.26.32.46.32.06,0,.13-.02.19-.04l.93-.38c.25-.1.38-.39.27-.65ZM1395.38,136.98l-.92-.37c-.26-.11-.55.01-.65.27-.11.26.02.55.27.65l.93.38c.06.02.12.04.19.04.19,0,.38-.12.46-.32.1-.25-.02-.54-.28-.65ZM43.71,137.9c-.11-.26-.4-.38-.65-.28l-.93.38c-.26.11-.38.4-.27.66.08.19.26.31.46.31.06,0,.13-.01.19-.04l.92-.38c.26-.1.38-.4.28-.65ZM1400.02,138.89l-.93-.39c-.25-.1-.55.02-.65.28-.11.25.01.54.27.65l.92.38c.06.02.13.04.19.04.2,0,.38-.12.46-.31.11-.25-.01-.55-.26-.65ZM39.08,139.8c-.1-.25-.4-.37-.65-.27l-.93.39c-.25.1-.37.4-.27.65.08.19.27.31.47.31.06,0,.13-.01.19-.04l.92-.38c.26-.11.38-.4.27-.66ZM1404.64,140.81l-.93-.39c-.25-.11-.54.02-.65.27s0,.55.27.65l.92.39c.06.03.13.04.19.04.2,0,.39-.12.47-.31.1-.26-.02-.55-.27-.65ZM34.47,141.73c-.11-.26-.41-.37-.66-.27l-.92.39c-.26.11-.38.4-.27.66.08.19.27.3.46.3.07,0,.13-.01.2-.04l.92-.39c.25-.1.37-.4.27-.65ZM1409.25,142.75l-.92-.39c-.25-.11-.55.01-.66.27-.11.25.01.54.27.65l.92.39c.06.03.13.04.19.04.2,0,.38-.11.46-.3.11-.26,0-.55-.26-.66ZM29.86,143.67c-.11-.25-.4-.37-.66-.26l-.92.39c-.25.11-.37.4-.26.66.08.19.26.3.46.3.06,0,.13-.01.19-.04l.92-.39c.26-.11.38-.4.27-.66ZM1413.85,144.71l-.92-.39c-.26-.11-.55.01-.66.26-.1.26.01.55.27.66l.92.39c.06.03.13.04.19.04.2,0,.38-.11.46-.3.11-.25-.01-.55-.26-.66ZM25.26,145.64c-.11-.25-.4-.37-.66-.26l-.92.4c-.25.11-.37.4-.26.65.08.19.27.31.46.31.07,0,.13-.02.2-.04l.92-.4c.25-.11.37-.41.26-.66ZM1418.44,146.7l-.91-.4c-.26-.11-.55,0-.66.26-.11.25.01.54.26.65l.92.4c.06.03.13.04.19.04.2,0,.38-.11.46-.3.11-.25,0-.54-.26-.65ZM20.67,147.63c-.11-.25-.4-.36-.66-.26l-.92.4c-.25.11-.36.41-.25.66.08.19.26.3.45.3.07,0,.14-.01.2-.04l.92-.4c.25-.11.37-.41.26-.66ZM1423.03,148.7l-.92-.4c-.25-.11-.54,0-.66.26-.11.25.01.54.26.65l.91.41c.07.02.14.04.21.04.19,0,.37-.11.45-.3.12-.25,0-.55-.25-.66ZM16.09,149.64c-.11-.26-.41-.37-.66-.26l-.92.41c-.25.11-.36.41-.25.66.08.18.26.3.46.3.06,0,.13-.02.2-.05l.91-.4c.26-.11.37-.41.26-.66ZM1427.61,150.73l-.92-.41c-.25-.11-.55,0-.66.25-.11.26,0,.55.26.66l.91.41c.07.03.13.04.2.04.19,0,.38-.11.46-.29.11-.26,0-.55-.25-.66ZM11.52,151.67c-.12-.25-.42-.37-.66-.25l-.92.41c-.25.11-.36.41-.25.66.08.18.27.29.46.29.07,0,.13,0,.2-.04l.91-.41c.26-.11.37-.41.26-.66ZM1432.17,152.78l-.91-.42c-.25-.11-.55,0-.66.25-.11.26,0,.55.25.67l.91.41c.07.03.14.04.21.04.19,0,.37-.11.45-.29.12-.25,0-.55-.25-.66ZM6.95,153.72c-.11-.25-.41-.36-.66-.25l-.91.42c-.25.11-.36.41-.25.66.09.18.27.29.46.29.07,0,.14-.01.2-.04l.92-.42c.25-.11.36-.41.24-.66ZM1436.73,154.84l-.91-.41c-.25-.11-.55,0-.66.25-.12.25-.01.54.24.66l.91.41c.07.04.14.05.21.05.19,0,.37-.11.46-.29.11-.25,0-.55-.25-.67ZM2.4,155.79c-.11-.25-.41-.35-.66-.24l-.91.42c-.25.11-.36.41-.24.66.08.18.26.29.45.29.07,0,.14-.01.21-.05l.91-.41c.25-.12.36-.41.24-.67Z"/>
    </g>
  </g>
</svg>